<svg width="86" height="85" viewBox="0 0 86 85" fill="none" xmlns="http://www.w3.org/2000/svg">
<path d="M42.4484 17.9475C42.1402 17.9475 41.8446 17.8251 41.6266 17.6071C41.4087 17.3892 41.2863 17.0936 41.2863 16.7854V3.80264C41.2863 3.49443 41.4087 3.19885 41.6266 2.98091C41.8446 2.76297 42.1402 2.64053 42.4484 2.64053C42.7566 2.64053 43.0522 2.76297 43.2701 2.98091C43.488 3.19885 43.6105 3.49443 43.6105 3.80264V16.7854C43.6105 17.0936 43.488 17.3892 43.2701 17.6071C43.0522 17.8251 42.7566 17.9475 42.4484 17.9475Z" fill="white"/>
<path d="M26.2675 65.3978C24.1547 65.3978 22.3659 63.8167 22.1063 61.7201C22.1004 61.6727 22.0975 61.625 22.0975 61.5773V37.168C20.9582 37.8578 19.8183 38.5466 18.6779 39.2346C18.1589 39.5472 17.9064 39.6994 17.7344 39.7733C17.4276 39.9423 16.2302 40.6396 12.5308 42.8371C9.97286 44.3566 7.9302 43.7988 7.04052 42.5715C6.0675 41.2292 6.24415 38.8622 8.83216 36.5999C10.3532 35.2389 11.6858 34.038 12.8539 32.9856C20.6005 26.0053 21.4115 25.2838 24.7649 25.2813H38.1105C38.5382 25.2564 38.8541 25.1623 38.9794 25.0221C39.1078 24.879 39.1099 24.5668 39.0998 24.3934C39.0985 24.3704 39.0978 24.3474 39.0978 24.3244L39.1038 19.1988C39.1038 19.1371 39.1089 19.0753 39.1187 19.0142C39.3918 17.332 40.8269 16.1111 42.5308 16.1111C44.2348 16.1111 45.6702 17.332 45.9433 19.0142C45.9533 19.0756 45.9582 19.1379 45.9582 19.2003V29.4616C45.985 30.8343 45.6136 31.9166 44.8544 32.6786C43.4962 34.0418 41.2985 34.0038 39.36 33.9699C38.1241 33.9485 36.5862 33.9217 36.1399 34.3862C35.9885 34.544 35.9246 34.8438 35.9497 35.2773C35.951 35.2997 35.9516 35.3222 35.9516 35.3447V41.1691L42.4968 45.1776C43.2668 45.4925 44.3847 46.3505 44.2498 48.6661V56.0659C44.3027 57.4226 43.6896 58.5973 42.5645 59.2926C41.2612 60.0979 39.479 60.1321 38.1298 59.3774C36.9296 58.7064 36.2433 57.5072 36.2467 56.0878V50.8447C36.2467 50.7575 36.2565 50.6706 36.2759 50.5856C36.3469 50.2751 35.8258 49.464 33.4224 48.3928C33.3951 48.3807 33.3682 48.3675 33.3419 48.3533L30.4371 46.7798V61.5771C30.4371 61.6249 30.4341 61.6726 30.4283 61.7199C30.1687 63.8167 28.3797 65.3976 26.267 65.3976L26.2675 65.3978ZM24.4217 61.4969C24.5643 62.4001 25.3469 63.0736 26.2675 63.0736C27.188 63.0736 27.9706 62.4001 28.1134 61.4969V44.8288C28.1134 44.6275 28.1656 44.4296 28.2651 44.2545C28.3646 44.0795 28.5078 43.9333 28.6808 43.8303C28.8537 43.7272 29.0505 43.6709 29.2518 43.6668C29.4531 43.6627 29.652 43.7109 29.829 43.8068L34.4099 46.2882C35.6121 46.8243 39.0248 48.3774 38.571 50.9593V56.0905C38.5697 56.6765 38.7963 57.0872 39.2643 57.3489C39.8703 57.6879 40.7643 57.6731 41.3432 57.3153C41.7604 57.0575 41.9515 56.6743 41.9271 56.1438C41.9262 56.126 41.9259 56.1082 41.9259 56.0905V48.6307C41.9259 48.6062 41.9267 48.5813 41.9282 48.5567C41.9601 48.0575 41.9282 47.4377 41.5945 47.3202C41.5175 47.2931 41.4435 47.2579 41.3739 47.2153L34.1829 42.8115C34.0133 42.7077 33.8731 42.562 33.7759 42.3885C33.6787 42.2149 33.6277 42.0193 33.6278 41.8204V35.3767C33.5716 34.2876 33.8527 33.4131 34.4636 32.7769C35.6123 31.5806 37.5378 31.6135 39.4006 31.6463C40.8753 31.6716 42.5479 31.7009 43.208 31.0384C43.5105 30.7347 43.65 30.2309 43.6345 29.4981L43.6342 29.4735V19.3105C43.5157 18.799 43.0634 18.4355 42.531 18.4355C41.9986 18.4355 41.5462 18.7992 41.4278 19.3109L41.422 24.295C41.4692 25.2272 41.2299 25.9935 40.7103 26.5736C40.148 27.2009 39.3038 27.5477 38.2015 27.6042C38.1818 27.6052 38.162 27.6057 38.1422 27.6057H24.6986C22.3646 27.6057 22.0131 27.8612 14.4096 34.7125C13.2399 35.7665 11.9053 36.9691 10.3718 38.3411C8.89558 39.6315 8.63593 40.8129 8.92231 41.2077C9.13182 41.4967 9.97452 41.6523 11.3436 40.8389C13.64 39.4748 15.2168 38.5436 16.0301 38.0713C16.4486 37.8283 16.6855 37.6906 16.8603 37.6136C17.1447 37.4474 18.4061 36.6844 22.6 34.1474L22.6578 34.1125C22.8341 34.0059 23.0355 33.948 23.2415 33.9449C23.4475 33.9417 23.6506 33.9934 23.83 34.0946C24.0095 34.1958 24.1588 34.3428 24.2627 34.5207C24.3666 34.6986 24.4214 34.9009 24.4214 35.1069V61.4969H24.4217Z" fill="#FFC107"/>
<path d="M30.0862 23.954C26.8315 23.954 24.1833 21.3061 24.1833 18.0512C24.1833 14.7963 26.8315 12.1483 30.0862 12.1483C33.3409 12.1483 35.9891 14.7963 35.9891 18.0512C35.9891 21.3061 33.3411 23.954 30.0862 23.954ZM30.0862 14.4727C28.1129 14.4727 26.5076 16.0781 26.5076 18.0514C26.5076 20.0246 28.1129 21.63 30.0862 21.63C32.0595 21.63 33.6648 20.0246 33.6648 18.0514C33.6648 16.0781 32.0595 14.4727 30.0862 14.4727Z" fill="#FFC107"/>
<path d="M51.4921 12.8836C50.3886 12.8836 49.1229 12.5154 47.7111 11.5293C45.5773 10.0389 44.2999 10.613 43.4254 11.2797C43.1801 11.464 42.8719 11.5437 42.5681 11.5017C42.2642 11.4596 41.9893 11.2991 41.8033 11.0551C41.6173 10.8112 41.5353 10.5036 41.5752 10.1994C41.6151 9.89528 41.7736 9.61923 42.0162 9.43149C43.4886 8.30889 45.9028 7.43117 49.0418 9.6239C50.9977 10.99 52.2549 10.6258 53.1426 10.0094V5.81982C51.7328 6.3177 49.8978 6.28001 47.7109 4.75234C45.4906 3.20125 44.161 3.87893 43.2506 4.6426C43.0139 4.83655 42.7104 4.92937 42.4058 4.90091C42.1012 4.87246 41.8201 4.72504 41.6235 4.49063C41.4269 4.25622 41.3306 3.95374 41.3556 3.64882C41.3807 3.3439 41.5249 3.06115 41.7571 2.86192C43.2715 1.59173 45.7649 0.55812 49.0417 2.84714C51.1753 4.3373 52.4526 3.76355 53.3274 3.09666C53.5251 2.94481 53.7615 2.85164 54.0096 2.82781C54.2577 2.80397 54.5076 2.85042 54.7305 2.96186C55.1844 3.18648 55.4667 3.63887 55.4667 4.14273V10.4087C55.4683 10.743 55.4084 11.1771 54.9266 11.5714C54.0783 12.2655 52.921 12.8835 51.4919 12.8835L51.4921 12.8836Z" fill="white"/>
<path d="M29.5885 83.5075H19.4944C19.1862 83.5075 18.8906 83.385 18.6726 83.1671C18.4547 82.9491 18.3323 82.6536 18.3323 82.3453V72.9912C18.3323 71.8195 19.2855 70.8662 20.4573 70.8662H28.6257C29.7975 70.8662 30.7506 71.8195 30.7506 72.9912V82.3453C30.7506 82.6536 30.6281 82.9491 30.4102 83.1671C30.1923 83.385 29.8967 83.5075 29.5885 83.5075ZM20.6565 81.1832H28.4264V73.1904H20.6565V81.1832ZM45.4405 83.5075H35.3464C35.0382 83.5075 34.7426 83.385 34.5247 83.1671C34.3067 82.9491 34.1843 82.6536 34.1843 82.3453V64.3209C34.1843 63.1491 35.1375 62.1959 36.3093 62.1959H44.4776C45.6493 62.1959 46.6026 63.1491 46.6026 64.3209V82.3453C46.6026 82.6536 46.4801 82.9491 46.2622 83.1671C46.0443 83.385 45.7487 83.5075 45.4405 83.5075ZM36.5085 81.1832H44.2784V64.5201H36.5085V81.1832ZM61.2926 83.5075H51.1986C50.8903 83.5075 50.5948 83.385 50.3768 83.1671C50.1589 82.9491 50.0364 82.6536 50.0364 82.3453V58.9013C50.0364 57.7295 50.9897 56.7763 52.1614 56.7763H60.3297C61.5015 56.7763 62.4547 57.7295 62.4547 58.9013V82.3453C62.4547 82.6536 62.3323 82.9491 62.1144 83.1671C61.8964 83.385 61.6008 83.5075 61.2926 83.5075ZM52.3607 81.1832H60.1305V59.1005H52.3607V81.1832ZM74.6921 83.5075H66.1597C65.8515 83.5075 65.5559 83.385 65.338 83.1671C65.12 82.9491 64.9976 82.6536 64.9976 82.3453V53.6517C64.9976 52.5623 65.884 51.6758 66.9735 51.6758H73.8781C74.9675 51.6758 75.854 52.5623 75.854 53.6517V82.3453C75.854 82.6536 75.7316 82.9491 75.5137 83.1671C75.2957 83.385 75.0003 83.5075 74.6921 83.5075ZM67.3218 81.1832H73.53V54H67.3218V81.1832Z" fill="#FFC107"/>
<path d="M63.0533 48.7586C62.996 48.7586 62.9388 48.7571 62.881 48.7543C61.9742 48.7088 61.097 48.3059 60.4112 47.6199L54.7288 41.9375L50.5344 46.1321C49.8717 46.7948 48.9881 47.1597 48.0463 47.1597C47.1045 47.1597 46.2208 46.7948 45.5581 46.1319C44.1861 44.7598 44.186 42.5274 45.5581 41.1554L52.2405 34.4728C53.6128 33.1005 55.8452 33.1009 57.2172 34.4728L63.0053 40.2608L68.5483 34.7178L66.9528 33.1224C65.394 31.5634 65.5875 30.3015 65.8417 29.6879C66.279 28.6327 67.461 28.0273 69.0852 28.0273H76.9598C77.8484 28.0273 78.6714 28.3606 79.2767 28.9659C79.882 29.5712 80.2153 30.3941 80.2153 31.2828V39.1576C80.2153 40.7817 79.6099 41.9638 78.5545 42.401C77.9409 42.6546 76.679 42.8485 75.1201 41.2896L73.5249 39.6943L65.4937 47.7255C64.8239 48.3955 63.9629 48.7586 63.0538 48.7586H63.0533ZM54.7288 39.132C55.0369 39.132 55.3326 39.2544 55.5506 39.4725L62.0547 45.9767C62.3325 46.2544 62.6673 46.4165 62.9977 46.4331C63.3133 46.4482 63.6013 46.331 63.85 46.0824L72.703 37.2295C72.8109 37.1216 72.939 37.036 73.08 36.9776C73.221 36.9191 73.3721 36.8891 73.5247 36.8891C73.6774 36.8891 73.8285 36.9191 73.9695 36.9776C74.1105 37.036 74.2386 37.1216 74.3465 37.2295L76.7635 39.6467C77.2345 40.1177 77.5553 40.2367 77.6633 40.2473C77.7301 40.1675 77.8911 39.8509 77.8911 39.1579V31.2833C77.8911 31.0114 77.8018 30.7786 77.6331 30.6098C77.4645 30.441 77.2315 30.3518 76.9596 30.3518H69.085C68.3922 30.3518 68.0756 30.5127 67.9956 30.5794C68.0064 30.6877 68.1254 31.0084 68.5964 31.4794L71.0134 33.8966C71.2313 34.1145 71.3537 34.41 71.3537 34.7182C71.3537 35.0263 71.2313 35.3219 71.0134 35.5398L63.8271 42.7261C63.7192 42.834 63.5911 42.9196 63.4501 42.978C63.3091 43.0364 63.158 43.0665 63.0054 43.0665C62.8528 43.0665 62.7017 43.0364 62.5607 42.978C62.4197 42.9196 62.2916 42.834 62.1837 42.7261L55.574 36.1164C55.1081 35.6507 54.3503 35.6505 53.8843 36.1164L47.202 42.7988C46.7361 43.2648 46.7363 44.0227 47.202 44.4887C47.4258 44.7125 47.7257 44.8358 48.0467 44.8358C48.3676 44.8358 48.6676 44.7127 48.8913 44.4889L53.9073 39.4725C54.0152 39.3646 54.1433 39.2789 54.2843 39.2205C54.4254 39.1621 54.5765 39.132 54.7291 39.132H54.7288Z" fill="white"/>
</svg>
