<svg width="86" height="85" viewBox="0 0 86 85" fill="none" xmlns="http://www.w3.org/2000/svg">
<g clip-path="url(#clip0_1143_44782)">
<path d="M68.405 73.6667C68.1936 73.6667 67.985 73.6195 67.7943 73.5285C67.6035 73.4374 67.4356 73.3049 67.3028 73.1405C67.1699 72.9762 67.0755 72.7842 67.0265 72.5786C66.9775 72.373 66.9751 72.1591 67.0195 71.9525L67.9545 67.6175C68.0102 67.3571 68.1385 67.1179 68.3246 66.9274C68.5106 66.7368 68.7467 66.6028 69.0056 66.5408C70.3728 66.2056 71.6794 65.6598 72.8788 64.923C73.105 64.785 73.3653 64.7131 73.6302 64.7156C73.8952 64.7181 74.1541 64.7949 74.3776 64.9372L77.1826 66.7307L78.9195 64.9797L77.126 62.1973C76.982 61.9736 76.9038 61.7139 76.9003 61.4479C76.8968 61.1819 76.9681 60.9203 77.1061 60.6928C77.8433 59.4939 78.3882 58.1871 78.7211 56.8197C78.7835 56.5615 78.9168 56.326 79.1061 56.1397C79.2954 55.9534 79.533 55.8238 79.7921 55.7657L83.0221 55.0488V52.6207L79.795 51.9038C79.5359 51.8457 79.2982 51.7161 79.1089 51.5298C78.9196 51.3435 78.7863 51.108 78.724 50.8498C78.3898 49.4828 77.8449 48.1761 77.109 46.9767C76.9698 46.7503 76.8976 46.4891 76.9006 46.2234C76.9036 45.9576 76.9817 45.6982 77.126 45.475L78.9223 42.6672L77.1883 40.9332L74.3805 42.7295C74.1572 42.8724 73.8982 42.9496 73.6331 42.9521C73.368 42.9546 73.1076 42.8823 72.8816 42.7437C71.6818 42.0078 70.3753 41.4621 69.0085 41.1258C68.7495 41.0638 68.5134 40.9298 68.3274 40.7393C68.1414 40.5488 68.0131 40.3095 67.9573 40.0492L67.2603 36.8333H66.0221C65.6464 36.8333 65.2861 36.6841 65.0204 36.4184C64.7547 36.1527 64.6055 35.7924 64.6055 35.4167C64.6055 35.0409 64.7547 34.6806 65.0204 34.4149C65.2861 34.1493 65.6464 34 66.0221 34H68.4021C68.7258 34.0006 69.0395 34.1119 69.291 34.3155C69.5426 34.5191 69.7168 34.8027 69.7848 35.1192L70.5413 38.6127C71.5783 38.9272 72.5955 39.3522 73.5758 39.882L76.6188 37.9355C76.8909 37.7616 77.2143 37.6859 77.5353 37.721C77.8563 37.756 78.1558 37.8997 78.384 38.1282L81.7301 41.4715C81.9582 41.7001 82.1013 41.9996 82.1359 42.3207C82.1704 42.6417 82.0942 42.9649 81.92 43.2367L79.9735 46.2797C80.5033 47.2628 80.9283 48.28 81.2428 49.3198L84.742 50.0962C85.3936 50.2407 85.8555 50.8187 85.8555 51.4817V56.185C85.8553 56.5075 85.7452 56.8202 85.5433 57.0716C85.3413 57.323 85.0597 57.498 84.7448 57.5677L81.2456 58.344C80.9258 59.3966 80.5006 60.4142 79.9763 61.3813L81.92 64.396C82.096 64.6669 82.1737 64.9899 82.1402 65.3112C82.1066 65.6324 81.9639 65.9325 81.7358 66.1612L78.3896 69.5328C78.1613 69.762 77.8616 69.9063 77.5401 69.9419C77.2185 69.9774 76.8945 69.9021 76.6216 69.7283L73.5786 67.7818C72.612 68.3051 71.5954 68.7303 70.5441 69.0512L69.7876 72.5447C69.7198 72.8614 69.5456 73.1453 69.2941 73.3494C69.0426 73.5535 68.7289 73.6655 68.405 73.6667Z" fill="white"/>
<path d="M69.9633 61.1377C69.6599 61.1371 69.3647 61.0392 69.1211 60.8583C68.8775 60.6774 68.6985 60.4231 68.6103 60.1328C68.5221 59.8425 68.5294 59.5316 68.6312 59.2458C68.733 58.96 68.9238 58.7144 69.1756 58.5452C70.263 57.8123 71.0629 56.7254 71.4393 55.4693C71.8156 54.2132 71.7451 52.8654 71.2398 51.6554C70.7345 50.4454 69.8256 49.4478 68.6677 48.8324C67.5098 48.217 66.1744 48.0218 64.8888 48.28C64.7065 48.3174 64.5186 48.3185 64.3358 48.2833C64.1531 48.2481 63.979 48.1772 63.8237 48.0747C63.6683 47.9722 63.5347 47.8402 63.4303 47.686C63.326 47.5319 63.2531 47.3587 63.2157 47.1764C63.1783 46.9941 63.1772 46.8062 63.2124 46.6235C63.2476 46.4407 63.3185 46.2667 63.421 46.1113C63.5235 45.956 63.6555 45.8223 63.8097 45.718C63.9638 45.6137 64.137 45.5407 64.3193 45.5033C65.5544 45.2529 66.8296 45.2798 68.053 45.5822C69.2764 45.8846 70.4174 46.4549 71.3936 47.2519C72.3698 48.0489 73.1568 49.0527 73.6978 50.1908C74.2389 51.329 74.5204 52.5731 74.5221 53.8333C74.5224 55.23 74.1785 56.6051 73.5207 57.8371C72.8629 59.0692 71.9116 60.1201 70.7509 60.8968C70.5181 61.0535 70.2439 61.1373 69.9633 61.1377ZM20.6888 39.6667C18.8625 39.6691 17.084 39.0831 15.617 37.9954C14.1499 36.9078 13.0723 35.3764 12.5438 33.6282C12.0154 31.8801 12.0642 30.0082 12.6831 28.29C13.302 26.5718 14.458 25.0987 15.9798 24.089C16.2924 23.8938 16.6687 23.8282 17.029 23.9059C17.3892 23.9837 17.705 24.1988 17.9092 24.5055C18.1135 24.8123 18.1901 25.1865 18.123 25.5489C18.0558 25.9113 17.8501 26.2332 17.5494 26.4463C16.462 27.1763 15.6607 28.2601 15.2816 29.5137C14.9024 30.7673 14.9687 32.1135 15.4692 33.3237C15.9697 34.534 16.8736 35.5338 18.0275 36.1534C19.1814 36.7729 20.5141 36.9742 21.7994 36.7228C22.1679 36.6501 22.5501 36.7261 22.8628 36.9342C23.1754 37.1423 23.3931 37.4656 23.4683 37.8335C23.505 38.0158 23.5054 38.2036 23.4694 38.3861C23.4335 38.5686 23.3618 38.7422 23.2587 38.897C23.1555 39.0518 23.0228 39.1846 22.8682 39.288C22.7136 39.3914 22.5401 39.4633 22.3576 39.4995C21.8084 39.6113 21.2493 39.6673 20.6888 39.6667Z" fill="white"/>
<path d="M20.6888 50.9998H18.3088C17.9852 50.9992 17.6715 50.8879 17.4199 50.6843C17.1684 50.4806 16.9941 50.197 16.9261 49.8806L16.1696 46.3871C15.1181 46.0668 14.1015 45.6415 13.1351 45.1178L10.0921 47.0643C9.82001 47.2382 9.49665 47.3138 9.17562 47.2788C8.85459 47.2438 8.55517 47.1001 8.32697 46.8716L4.9808 43.5283C4.75275 43.2997 4.60961 43.0001 4.57509 42.6791C4.54056 42.3581 4.61673 42.0349 4.79097 41.7631L6.73747 38.7201C6.21366 37.7518 5.78841 36.7333 5.46814 35.6799L1.96897 34.9036C1.65336 34.8339 1.37098 34.6586 1.16851 34.4067C0.966046 34.1548 0.855611 33.8413 0.855469 33.5181V28.8148C0.855596 28.4923 0.96573 28.1795 1.16767 27.9281C1.36962 27.6767 1.65128 27.5018 1.96614 27.4321L5.4653 26.6558C5.7798 25.6159 6.2048 24.5988 6.73464 23.6184L4.7938 20.6009C4.61782 20.3301 4.5401 20.007 4.57362 19.6858C4.60714 19.3645 4.74987 19.0645 4.97797 18.8358L8.32413 15.4641C8.55163 15.2335 8.85151 15.0883 9.17345 15.0527C9.49539 15.0171 9.81977 15.0933 10.0921 15.2686L13.1351 17.2151C14.1018 16.6918 15.1183 16.2666 16.1696 15.9458L16.9261 12.4523C16.9604 12.2657 17.0319 12.0879 17.1362 11.9294C17.2405 11.771 17.3756 11.6351 17.5335 11.5299C17.6913 11.4246 17.8687 11.3521 18.0551 11.3167C18.2415 11.2813 18.4331 11.2837 18.6185 11.3238C18.8039 11.3638 18.9794 11.4407 19.1346 11.5499C19.2898 11.659 19.4214 11.7982 19.5218 11.9593C19.6221 12.1203 19.6891 12.2998 19.7187 12.4872C19.7483 12.6746 19.74 12.866 19.6943 13.0501L18.7593 17.3851C18.7035 17.6455 18.5752 17.8847 18.3892 18.0753C18.2032 18.2658 17.9671 18.3998 17.7081 18.4618C16.3403 18.7975 15.0328 19.3432 13.8321 20.0796C13.606 20.2176 13.3456 20.2895 13.0807 20.287C12.8157 20.2845 12.5568 20.2077 12.3333 20.0654L9.5283 18.2719L7.78864 20.0229L9.58214 22.8053C9.72737 23.0285 9.80633 23.2884 9.80984 23.5547C9.81335 23.821 9.74127 24.0828 9.60197 24.3098C8.86485 25.5087 8.31992 26.8155 7.98697 28.1829C7.92465 28.4411 7.7913 28.6766 7.60202 28.8629C7.41274 29.0492 7.17508 29.1788 6.91597 29.2369L3.6888 29.9509V32.3791L6.91597 33.0959C7.17508 33.1541 7.41274 33.2837 7.60202 33.47C7.7913 33.6562 7.92465 33.8918 7.98697 34.1499C8.30714 35.4873 8.85397 36.7906 9.60197 38.0231C9.8853 38.4849 9.87963 39.0686 9.58497 39.5248L7.78864 42.3298L9.52264 44.0638L12.3305 42.2674C12.5542 42.1258 12.8131 42.0494 13.0779 42.0469C13.3427 42.0444 13.6029 42.1159 13.8293 42.2533C15.0646 43.0041 16.368 43.5481 17.7025 43.8711C17.9614 43.9331 18.1975 44.0671 18.3835 44.2576C18.5696 44.4481 18.6979 44.6874 18.7536 44.9478L19.4506 48.1664H20.6888C21.0645 48.1664 21.4249 48.3157 21.6905 48.5814C21.9562 48.847 22.1055 49.2074 22.1055 49.5831C22.1055 49.9588 21.9562 50.3192 21.6905 50.5848C21.4249 50.8505 21.0645 50.9998 20.6888 50.9998ZM41.9388 49.5831C41.7234 49.5836 41.5108 49.5349 41.3171 49.4407C41.1234 49.3465 40.9539 49.2093 40.8213 49.0395C40.6887 48.8698 40.5967 48.672 40.5522 48.4613C40.5077 48.2505 40.512 48.0324 40.5646 47.8236L43.398 36.4903C43.4417 36.3091 43.521 36.1384 43.6313 35.9881C43.7416 35.8379 43.8807 35.711 44.0405 35.6151C44.2003 35.5191 44.3776 35.4558 44.562 35.429C44.7465 35.4022 44.9345 35.4124 45.115 35.4589C45.2956 35.5037 45.4656 35.5836 45.6153 35.6942C45.7649 35.8048 45.8913 35.9438 45.9871 36.1033C46.0829 36.2628 46.1463 36.4397 46.1736 36.6238C46.2009 36.8078 46.1917 36.9955 46.1463 37.1759L43.313 48.5093C43.2374 48.8164 43.0608 49.0892 42.8116 49.2839C42.5625 49.4786 42.2551 49.584 41.9388 49.5831ZM50.4388 49.5831C50.1588 49.583 49.8851 49.5 49.6523 49.3445C49.4195 49.189 49.238 48.9681 49.1306 48.7095C49.0233 48.4509 48.995 48.1663 49.0493 47.8916C49.1037 47.617 49.2381 47.3646 49.4358 47.1663L54.1023 42.4998L49.4386 37.8361C49.1806 37.5689 49.0378 37.2111 49.041 36.8396C49.0442 36.4682 49.1932 36.1129 49.4559 35.8502C49.7186 35.5875 50.0739 35.4385 50.4453 35.4353C50.8168 35.4321 51.1746 35.5749 51.4418 35.8329L57.1085 41.4996C57.3741 41.7653 57.5232 42.1255 57.5232 42.5012C57.5232 42.8768 57.3741 43.2371 57.1085 43.5028L51.4418 49.1694C51.1753 49.4344 50.8147 49.5832 50.4388 49.5831ZM36.2721 49.5831C35.8963 49.5832 35.5357 49.4344 35.2691 49.1694L29.6025 43.5028C29.3369 43.2371 29.1877 42.8768 29.1877 42.5012C29.1877 42.1255 29.3369 41.7653 29.6025 41.4996L35.2691 35.8329C35.5363 35.5749 35.8942 35.4321 36.2656 35.4353C36.6371 35.4385 36.9924 35.5875 37.255 35.8502C37.5177 36.1129 37.6667 36.4682 37.6699 36.8396C37.6731 37.2111 37.5304 37.5689 37.2723 37.8361L32.6086 42.4998L37.2723 47.1634C37.4708 47.3614 37.606 47.6138 37.661 47.8887C37.716 48.1635 37.6881 48.4485 37.5811 48.7076C37.474 48.9667 37.2925 49.1881 37.0595 49.344C36.8265 49.4998 36.5525 49.583 36.2721 49.5831Z" fill="white"/>
<path d="M47.6055 8.50033H39.1055C38.7298 8.50033 38.3694 8.35107 38.1038 8.08539C37.8381 7.81972 37.6888 7.45938 37.6888 7.08366C37.6888 6.70794 37.8381 6.3476 38.1038 6.08192C38.3694 5.81625 38.7298 5.66699 39.1055 5.66699H47.6055C47.9812 5.66699 48.3416 5.81625 48.6072 6.08192C48.8729 6.3476 49.0222 6.70794 49.0222 7.08366C49.0222 7.45938 48.8729 7.81972 48.6072 8.08539C48.3416 8.35107 47.9812 8.50033 47.6055 8.50033ZM58.9388 85.0003H27.7722C25.8942 84.9981 24.0939 84.2511 22.766 82.9232C21.4381 81.5953 20.6911 79.7949 20.6888 77.917V29.7503C20.6888 29.3746 20.8381 29.0143 21.1038 28.7486C21.3695 28.4829 21.7298 28.3337 22.1055 28.3337C22.4812 28.3337 22.8416 28.4829 23.1072 28.7486C23.3729 29.0143 23.5222 29.3746 23.5222 29.7503V77.917C23.5222 80.2602 25.429 82.167 27.7722 82.167H58.9388C61.282 82.167 63.1888 80.2602 63.1888 77.917V29.7503C63.1888 29.3746 63.3381 29.0143 63.6038 28.7486C63.8694 28.4829 64.2298 28.3337 64.6055 28.3337C64.9812 28.3337 65.3416 28.4829 65.6072 28.7486C65.8729 29.0143 66.0222 29.3746 66.0222 29.7503V77.917C66.0222 81.8213 62.846 85.0003 58.9388 85.0003Z" fill="#FFC107"/>
<path d="M64.6055 39.6667C64.2297 39.6667 63.8694 39.5174 63.6037 39.2517C63.3381 38.9861 63.1888 38.6257 63.1888 38.25V7.08333C63.1888 4.74017 61.282 2.83333 58.9388 2.83333H27.7721C25.429 2.83333 23.5221 4.74017 23.5221 7.08333V38.25C23.5221 38.6257 23.3729 38.9861 23.1072 39.2517C22.8415 39.5174 22.4812 39.6667 22.1055 39.6667C21.7297 39.6667 21.3694 39.5174 21.1037 39.2517C20.8381 38.9861 20.6888 38.6257 20.6888 38.25V7.08333C20.6888 3.179 23.865 0 27.7721 0H58.9388C62.846 0 66.0221 3.179 66.0221 7.08333V38.25C66.0221 38.6257 65.8729 38.9861 65.6072 39.2517C65.3415 39.5174 64.9812 39.6667 64.6055 39.6667ZM73.1055 14.3083C72.3235 14.3083 71.6888 13.8153 71.6888 13.0333V12.75C71.6888 12.3743 71.8381 12.0139 72.1037 11.7483C72.3694 11.4826 72.7297 11.3333 73.1055 11.3333C73.4812 11.3333 73.8415 11.4826 74.1072 11.7483C74.3729 12.0139 74.5221 12.3743 74.5221 12.75C74.5221 13.532 73.8875 14.3083 73.1055 14.3083ZM73.1055 19.975C72.3235 19.975 71.6888 19.482 71.6888 18.7V18.4167C71.6888 18.0409 71.8381 17.6806 72.1037 17.4149C72.3694 17.1493 72.7297 17 73.1055 17C73.4812 17 73.8415 17.1493 74.1072 17.4149C74.3729 17.6806 74.5221 18.0409 74.5221 18.4167C74.5221 19.1987 73.8875 19.975 73.1055 19.975ZM73.1055 25.6417C72.3235 25.6417 71.6888 25.1487 71.6888 24.3667V24.0833C71.6888 23.7076 71.8381 23.3473 72.1037 23.0816C72.3694 22.8159 72.7297 22.6667 73.1055 22.6667C73.4812 22.6667 73.8415 22.8159 74.1072 23.0816C74.3729 23.3473 74.5221 23.7076 74.5221 24.0833C74.5221 24.8653 73.8875 25.6417 73.1055 25.6417ZM13.6055 62.1917C12.8235 62.1917 12.1888 61.6987 12.1888 60.9167V60.6333C12.1888 60.2576 12.3381 59.8973 12.6037 59.6316C12.8694 59.3659 13.2297 59.2167 13.6055 59.2167C13.9812 59.2167 14.3415 59.3659 14.6072 59.6316C14.8729 59.8973 15.0221 60.2576 15.0221 60.6333C15.0221 61.4153 14.3875 62.1917 13.6055 62.1917ZM13.6055 67.8583C12.8235 67.8583 12.1888 67.3653 12.1888 66.5833V66.3C12.1888 65.9243 12.3381 65.5639 12.6037 65.2983C12.8694 65.0326 13.2297 64.8833 13.6055 64.8833C13.9812 64.8833 14.3415 65.0326 14.6072 65.2983C14.8729 65.5639 15.0221 65.9243 15.0221 66.3C15.0221 67.082 14.3875 67.8583 13.6055 67.8583ZM13.6055 73.525C12.8235 73.525 12.1888 73.032 12.1888 72.25V71.9667C12.1888 71.5909 12.3381 71.2306 12.6037 70.9649C12.8694 70.6992 13.2297 70.55 13.6055 70.55C13.9812 70.55 14.3415 70.6992 14.6072 70.9649C14.8729 71.2306 15.0221 71.5909 15.0221 71.9667C15.0221 72.7487 14.3875 73.525 13.6055 73.525Z" fill="#FFC107"/>
</g>
<defs>
<clipPath id="clip0_1143_44782">
<rect width="85" height="85" fill="white" transform="translate(0.855469)"/>
</clipPath>
</defs>
</svg>
