<svg width="86" height="85" viewBox="0 0 86 85" fill="none" xmlns="http://www.w3.org/2000/svg">
<g clip-path="url(#clip0_1143_45460)">
<path d="M33.9102 64.4533C34.0223 64.9849 33.6824 65.502 33.1508 65.6141C32.6229 65.7226 32.1022 65.3827 31.9937 64.8547L30.182 56.252C29.9542 55.1817 29.5998 54.2198 29.1008 53.3447C28.6054 52.4732 27.9617 51.6777 27.159 50.9327C24.7362 48.7088 22.7763 45.9859 21.4347 42.9303C20.1437 39.9868 19.4241 36.7359 19.4241 33.3223C19.4241 26.7157 22.1037 20.7311 26.4321 16.4026C30.7642 12.0741 36.7452 9.39461 43.3519 9.39461C49.9585 9.39461 55.9395 12.0741 60.2716 16.4026C64.6037 20.7347 67.2868 26.7157 67.2868 33.3223C67.2868 36.7359 66.5672 39.9832 65.2763 42.9303C63.9347 45.9859 61.9711 48.7088 59.552 50.9327C58.7528 51.674 58.12 52.4696 57.6282 53.3483C57.1328 54.2306 56.7748 55.1997 56.5253 56.2737L56.5181 56.3027L54.4931 64.8764C54.3701 65.4044 53.8422 65.7334 53.3142 65.6105C52.7863 65.4875 52.4608 64.9596 52.5838 64.4316L54.6015 55.8796C54.6088 55.8434 54.616 55.8072 54.6269 55.7711C54.9198 54.5452 55.3356 53.4242 55.9142 52.39C56.5072 51.3341 57.2666 50.3759 58.2249 49.4899C60.4488 47.4468 62.2496 44.9481 63.4791 42.1456C64.6615 39.448 65.3197 36.4647 65.3197 33.3223C65.3197 27.2545 62.8643 21.7653 58.8902 17.7912C54.9125 13.8171 49.4197 11.3582 43.3519 11.3582C37.2877 11.3582 31.7948 13.8171 27.8207 17.7912C23.8466 21.7653 21.3913 27.2581 21.3913 33.3223C21.3913 36.4647 22.0458 39.448 23.2319 42.1456C24.4614 44.9481 26.2622 47.4468 28.4861 49.4899C29.4371 50.3722 30.2073 51.3233 30.8076 52.3792C31.4043 53.4315 31.831 54.5814 32.1022 55.8543L33.9102 64.4533ZM42.8637 0.491774C42.8637 0.220567 43.0843 -1.52588e-05 43.3555 -1.52588e-05C43.6267 -1.52588e-05 43.8473 0.220567 43.8473 0.491774V3.55823C43.8473 3.82943 43.6267 4.05002 43.3555 4.05002C43.0843 4.05002 42.8637 3.82943 42.8637 3.55823V0.491774ZM16.5891 52.965C16.3721 53.1277 16.0648 53.0843 15.902 52.8674C15.7393 52.6504 15.7863 52.343 16.0033 52.1803L18.4586 50.3469C18.6756 50.1842 18.983 50.2276 19.1457 50.4446C19.3084 50.6652 19.265 50.9725 19.0444 51.1316L16.5891 52.965ZM10.1886 36.2261C9.9174 36.2514 9.68236 36.0525 9.65704 35.7813C9.63535 35.5101 9.83423 35.2714 10.1054 35.2497L13.1574 34.9785C13.4286 34.9568 13.6673 35.1557 13.689 35.4269C13.7143 35.6981 13.5118 35.9368 13.2442 35.9585L10.1886 36.2261ZM13.5371 18.6229C13.2948 18.5 13.1972 18.207 13.3165 17.9648C13.4395 17.7225 13.7324 17.6249 13.9747 17.7478L16.7121 19.1219C16.9543 19.2413 17.052 19.5342 16.9326 19.7764C16.8133 20.0187 16.5168 20.1163 16.2745 19.997L13.5371 18.6229ZM25.6294 5.39521C25.4883 5.16739 25.557 4.86364 25.7885 4.72261C26.0163 4.58158 26.32 4.6539 26.4611 4.88172L28.0702 7.48893C28.2149 7.72036 28.1425 8.02411 27.9111 8.16514C27.6833 8.30617 27.3795 8.23384 27.2385 8.00603L25.6294 5.39521ZM70.7076 52.1803C70.9246 52.3394 70.9716 52.6468 70.8089 52.8674C70.6462 53.0843 70.3388 53.1277 70.1218 52.965L67.6629 51.1316C67.4459 50.9725 67.4025 50.6652 67.5616 50.4446C67.7244 50.2276 68.0317 50.1842 68.2487 50.3469L70.7076 52.1803ZM76.6055 35.2497C76.8767 35.2714 77.0756 35.5101 77.0539 35.7813C77.0286 36.0525 76.7899 36.2514 76.5223 36.2261L73.4667 35.9585C73.1955 35.9368 72.9966 35.6981 73.0219 35.4269C73.0436 35.1557 73.2823 34.9568 73.5535 34.9785L76.6055 35.2497ZM72.7363 17.7478C72.9786 17.6249 73.2715 17.7225 73.3908 17.9648C73.5137 18.207 73.4161 18.5 73.1738 18.6229L70.4328 19.997C70.1905 20.1163 69.8976 20.0187 69.7783 19.7764C69.6554 19.5342 69.753 19.2413 69.9953 19.1219L72.7363 17.7478ZM60.2499 4.88172C60.3909 4.6539 60.6911 4.58158 60.9225 4.72261C61.1503 4.86364 61.2226 5.16739 61.0816 5.39521L59.4724 8.00603C59.3278 8.23384 59.0276 8.30617 58.7962 8.16514C58.5684 8.02411 58.4961 7.72036 58.6371 7.48893L60.2499 4.88172Z" fill="#FFC107"/>
<path d="M34.232 64.0771H52.4824C53.5636 64.0771 54.54 64.5472 55.2487 65.3066C55.9358 66.0443 56.3625 67.0604 56.3697 68.1814L56.3733 68.1886V68.214C56.3733 69.3458 55.943 70.3728 55.2487 71.1177C54.54 71.8771 53.5636 72.3472 52.4788 72.3472V72.3435H34.232C33.1471 72.3435 32.1672 71.8734 31.462 71.1177C30.7677 70.3728 30.3374 69.3458 30.3374 68.214V68.2103C30.3374 67.0785 30.7677 66.0515 31.462 65.3066C32.1672 64.5472 33.1471 64.0771 34.232 64.0771ZM52.4788 65.3898H34.232C33.5232 65.3898 32.8832 65.6971 32.4203 66.1962C31.9502 66.6988 31.6537 67.3931 31.6428 68.1633L31.6465 68.1886V68.214C31.6465 69.0023 31.943 69.7146 32.4203 70.2281C32.8868 70.7271 33.5268 71.0381 34.232 71.0381H52.4788V71.0345C53.1839 71.0345 53.8276 70.7271 54.2905 70.2281C54.7642 69.7182 55.0607 69.0167 55.0679 68.2393V68.2356L55.0643 68.2103V68.2067H55.0679C55.0679 67.422 54.7714 66.7097 54.2905 66.1962C53.8276 65.6971 53.1876 65.3898 52.4824 65.3898H52.4788Z" fill="#FFC107"/>
<path d="M34.8214 71.9676L34.232 71.6928V72.3437C33.5268 72.3437 32.8832 72.6547 32.4203 73.1537C31.943 73.6672 31.6465 74.3759 31.6465 75.1679V75.1715C31.6465 75.9598 31.943 76.6722 32.4203 77.1856C32.8832 77.6847 33.5232 77.992 34.232 77.992H36.8753L36.9838 78.5127C37.2948 80.0062 38.1157 81.3116 39.2547 82.2373C40.3685 83.145 41.7969 83.6874 43.3518 83.6874C44.9067 83.6874 46.3351 83.145 47.4524 82.2373C48.5951 81.3116 49.416 80.0062 49.727 78.5127L49.8354 77.992H52.4788C53.1839 77.992 53.8276 77.6847 54.2905 77.1856C54.7678 76.6722 55.0643 75.9598 55.0643 75.1715V75.1642H55.0679C55.0643 74.3759 54.7714 73.6672 54.2905 73.1537C53.824 72.6547 53.1839 72.3437 52.4824 72.3437V72.3473H52.4788V71.0347H52.4824V71.0383C53.5636 71.0383 54.5436 71.5084 55.2487 72.2641C55.943 73.0054 56.3697 74.0324 56.3697 75.1642H56.3733V75.1715C56.3733 76.3033 55.943 77.3303 55.2487 78.0752C54.54 78.8346 53.5636 79.3011 52.4788 79.3011H50.8769C50.4357 80.8777 49.5136 82.2482 48.2769 83.2498C46.9317 84.3419 45.2177 85 43.3518 85C41.4895 85 39.7755 84.3419 38.4303 83.2498C37.1972 82.2482 36.2751 80.8777 35.8303 79.3011H34.232C33.1471 79.3011 32.1672 78.8346 31.462 78.0752C30.7677 77.3303 30.3374 76.3033 30.3374 75.1715V75.1679C30.3374 74.036 30.7677 73.009 31.462 72.2641C32.1672 71.5047 33.1471 71.0347 34.232 71.0347H35.2553L34.8214 71.9676Z" fill="#FFC107"/>
<path d="M36.3438 79.3017C35.9821 79.3017 35.6892 79.0088 35.6892 78.6472C35.6892 78.2856 35.9821 77.9927 36.3438 77.9927H50.7937C51.1553 77.9927 51.4482 78.2856 51.4482 78.6472C51.4482 79.0088 51.1553 79.3017 50.7937 79.3017H36.3438Z" fill="#FFC107"/>
<path d="M31.4621 22.5689C31.3319 22.3302 31.4223 22.0337 31.661 21.9071C31.8996 21.7769 32.1961 21.8673 32.3263 22.106C32.5903 22.5978 32.8615 23.1944 33.0134 23.8887C33.1653 24.5939 33.1978 25.393 32.9808 26.2609C32.8687 26.7057 32.6337 27.1071 32.3227 27.4434C31.9936 27.805 31.5778 28.1015 31.1475 28.3004C30.9052 28.4161 30.6123 28.3112 30.4966 28.0653C30.3845 27.8194 30.4893 27.5301 30.7352 27.4144C31.0498 27.2662 31.3572 27.0492 31.5995 26.7852C31.8056 26.5574 31.9611 26.3007 32.0298 26.0295C32.2034 25.3207 32.1781 24.6734 32.0515 24.0985C31.9249 23.5127 31.6935 22.9956 31.4621 22.5689ZM38.8461 24.3697C39.0125 24.583 38.9763 24.8904 38.763 25.0567C38.5532 25.2231 38.2459 25.1869 38.0759 24.9772C38.0181 24.9012 37.924 24.8398 37.8083 24.7891C37.5371 24.6734 37.1719 24.6409 36.7958 24.6951C36.4125 24.753 36.0256 24.894 35.7254 25.1363C35.5302 25.2882 35.3675 25.487 35.2662 25.7257C35.1613 25.9752 34.8757 26.0909 34.6262 25.9861C34.3766 25.8812 34.2609 25.5955 34.3658 25.346C34.5321 24.9446 34.7997 24.6192 35.1179 24.3661C35.5627 24.0153 36.116 23.8019 36.6584 23.726C37.2044 23.6465 37.7541 23.7043 38.188 23.8851C38.452 23.9972 38.6798 24.1599 38.8461 24.3697ZM34.4707 27.5844C34.7383 27.5446 34.9878 27.729 35.0275 27.9966C35.0673 28.2642 34.8793 28.5137 34.6117 28.5535C34.4851 28.5716 34.3839 28.6511 34.3152 28.7632C34.2175 28.9223 34.1633 29.1357 34.1561 29.3635V29.3671C34.1452 29.613 34.1814 29.8698 34.2645 30.0903C34.3549 30.329 34.4887 30.5207 34.6587 30.5749C34.9154 30.6617 35.0529 30.9401 34.9661 31.1969C34.9552 31.2258 34.9444 31.2547 34.9299 31.2837C34.9263 31.2837 34.4887 32.0322 34.7129 32.5204C34.825 32.7663 34.7202 33.0555 34.4743 33.1713C34.2284 33.2834 33.9355 33.1749 33.8234 32.929C33.5486 32.3359 33.7113 31.6597 33.874 31.2294C33.6426 31.0269 33.4654 30.7449 33.3461 30.4303C33.2195 30.0903 33.1616 29.6998 33.1761 29.331V29.3237C33.1942 28.9296 33.2918 28.5499 33.4799 28.2461C33.7004 27.8954 34.0259 27.6495 34.4707 27.5844ZM34.872 20.0195C34.6008 19.9978 34.402 19.7591 34.4273 19.4916C34.4526 19.2203 34.6876 19.0215 34.9588 19.0468C34.9625 19.0468 36.8067 19.195 36.803 21.0067C36.803 21.2779 36.5825 21.4949 36.3113 21.4949C36.0437 21.4949 35.8231 21.2779 35.8231 21.0067C35.8267 20.0991 34.872 20.0231 34.872 20.0195ZM34.3441 44.1317C34.402 43.8677 34.6659 43.6977 34.9299 43.7556C35.1939 43.8134 35.3638 44.0738 35.306 44.3378C35.2987 44.3739 35.2879 44.4065 35.2807 44.4463L35.2734 44.468C35.0854 45.1405 34.6153 45.6649 34.0512 45.9903C33.4799 46.3194 32.8073 46.446 32.2214 46.3194C32.1998 46.3158 32.1708 46.3085 32.131 46.2977C31.8707 46.229 31.7152 45.9614 31.7839 45.6974C31.8526 45.4371 32.1202 45.2816 32.3806 45.3503C32.3878 45.3503 32.4059 45.3539 32.4276 45.3611C32.7783 45.4371 33.1978 45.3503 33.563 45.1405C33.921 44.938 34.2139 44.6126 34.326 44.2112L34.3333 44.1931C34.3369 44.175 34.3405 44.1534 34.3441 44.1317ZM35.2662 37.0079C35.3421 37.2683 35.1939 37.5395 34.9335 37.6191C34.6768 37.695 34.402 37.5467 34.326 37.2864C34.0729 36.4366 33.6679 35.9484 33.2195 35.6808C32.5722 35.2975 31.802 35.3445 31.2523 35.4602L30.7714 35.5615C30.5038 35.6157 30.2434 35.4458 30.1892 35.1818C30.1747 35.1023 30.1784 35.0191 30.2 34.9431L30.3592 34.4043L30.3628 34.3899C30.3989 34.2561 30.4026 34.0934 30.3772 33.9162V33.9053C30.3483 33.7101 30.2796 33.5003 30.1784 33.2906C30.0446 33.0194 29.8674 32.7843 29.6649 32.6071C29.4732 32.4372 29.2562 32.3179 29.0357 32.2636C28.7825 32.2021 28.5222 32.1985 28.2654 32.2238C27.9436 32.26 27.629 32.354 27.3506 32.4625C27.0974 32.5601 26.8118 32.4372 26.7141 32.1841C26.6165 31.9309 26.7394 31.6489 26.9926 31.5476C27.3397 31.4102 27.7411 31.2981 28.1606 31.2511C28.5186 31.2113 28.891 31.2222 29.2635 31.3126C29.6432 31.403 30.0012 31.5983 30.3121 31.8695C30.6123 32.1334 30.8726 32.4734 31.0607 32.8639C31.2053 33.1568 31.303 33.4642 31.3464 33.7607L31.35 33.7788C31.3825 34.0102 31.3825 34.238 31.35 34.4477C32.0443 34.3429 32.923 34.3646 33.7185 34.8347C34.3622 35.218 34.9299 35.8869 35.2662 37.0079ZM37.1972 40.4035C37.3346 40.1684 37.6347 40.0889 37.8698 40.2227C38.1012 40.3601 38.1808 40.6602 38.047 40.8916L37.7215 41.4485C37.5877 41.6836 37.2876 41.7631 37.0526 41.6257C37.0236 41.6112 36.9947 41.5895 36.973 41.5678C36.5463 41.2388 36.1377 41.058 35.7652 41.029C35.4253 41.0037 35.1107 41.1122 34.8395 41.3545C34.6406 41.5353 34.3296 41.5208 34.1488 41.3219C33.968 41.1194 33.9861 40.8121 34.185 40.6277C34.6623 40.1973 35.23 40.0057 35.8375 40.0491C36.2606 40.0816 36.7018 40.2335 37.143 40.4975L37.1972 40.4035ZM31.9864 43.2927C32.066 43.5495 31.9213 43.8243 31.661 43.9038C31.4042 43.9834 31.1294 43.8388 31.0498 43.5784C30.8726 43.007 30.8401 42.3923 30.9305 41.8029C31.0028 41.3219 31.1619 40.8519 31.3934 40.4396C31.1619 40.1431 30.916 39.9297 30.6629 39.8032C30.3845 39.6658 30.0952 39.6368 29.8023 39.7272C29.4841 39.8285 29.1948 40.0635 28.9814 40.3709C28.7572 40.6927 28.6162 41.0869 28.5981 41.4991C28.5873 41.7703 28.3595 41.9801 28.0919 41.9692C27.8207 41.9584 27.6109 41.7306 27.6218 41.4594C27.6471 40.8555 27.8532 40.2769 28.175 39.8104C28.5113 39.3295 28.9742 38.9606 29.5058 38.7907C30.0518 38.6207 30.5906 38.6713 31.1005 38.9245C31.5742 39.1595 32.0153 39.5754 32.3914 40.1503C32.4963 40.3131 32.4999 40.5264 32.3842 40.6964C32.1347 41.0544 31.9719 41.4919 31.8996 41.9475C31.8309 42.3995 31.8562 42.866 31.9864 43.2927ZM30.5327 36.8235C30.7678 36.6897 31.0679 36.7729 31.2017 37.0079C31.3355 37.243 31.2523 37.5431 31.0173 37.6769C30.992 37.6914 30.6955 37.8541 30.2832 37.959C30.0663 38.0132 29.8095 38.053 29.5347 38.053C29.343 38.053 29.1369 38.0349 28.9272 37.9843C28.7174 37.9337 28.5041 37.8541 28.2871 37.7348C28.2474 37.7095 28.1606 37.6733 28.0666 37.6299C27.7881 37.5033 27.4554 37.3551 27.2602 37.1237C27.083 36.9212 27.1047 36.6102 27.3072 36.433C27.5133 36.2558 27.8207 36.2811 27.9978 36.4836C28.0557 36.5487 28.2799 36.6499 28.4679 36.7331C28.5728 36.7837 28.6704 36.8271 28.7645 36.8778C28.891 36.9501 29.0212 36.9971 29.155 37.0296C29.2816 37.0586 29.4117 37.073 29.5347 37.073C29.7227 37.073 29.8963 37.0441 30.0482 37.0079C30.3375 36.932 30.5183 36.8344 30.5327 36.8235Z" fill="white"/>
<path d="M27.4374 32.4445L27.4121 32.4698C27.0432 32.864 26.7792 33.5908 26.7539 34.39C26.7286 35.1747 26.9528 35.9955 27.5567 36.5886L27.5965 36.6283C27.9219 36.9321 27.9943 37.4022 27.8098 37.7783C27.6507 38.129 27.6833 38.5015 27.8062 38.8486C28.0702 39.608 28.6705 40.2083 28.8368 40.3348C29.0791 40.5265 29.2093 40.8086 29.2129 41.0942C29.2165 41.4233 29.2527 41.7379 29.3141 42.038C29.5094 42.9746 29.9759 43.7123 30.5183 44.2149C31.0173 44.6669 31.5489 44.9128 31.9647 44.9056C32.0081 44.9056 32.0551 44.902 32.0985 44.8911C32.5722 44.7935 33.0351 45.0539 33.2087 45.4842C33.5992 46.3267 34.4598 47.0102 35.4362 47.3356C35.9786 47.5164 36.5499 47.5815 37.0851 47.4947C37.5805 47.4116 38.0434 47.191 38.4231 46.8004C39.0523 46.1532 39.4681 45.0285 39.4681 43.2784V20.5873C39.4681 19.6905 39.3018 18.9239 38.9619 18.4285C38.951 18.4141 38.9438 18.3996 38.933 18.3851C38.7015 18.0669 38.3725 17.8753 37.9385 17.8753C37.501 17.8753 37.1249 18.0597 36.8248 18.3128C36.333 18.7214 36.0256 19.2819 35.928 19.6254C35.7797 20.1462 35.2373 20.4499 34.7166 20.3017C34.6406 20.28 34.5683 20.2474 34.5032 20.2113C34.3043 20.1172 34.1127 20.0775 33.9247 20.0775C33.5847 20.0775 33.2448 20.2185 32.9483 20.4391C32.6156 20.6922 32.3372 21.0285 32.1564 21.3901C32.019 21.6613 31.9394 21.9361 31.9394 22.1748C31.9394 22.7172 31.4983 23.1584 30.9558 23.1584C30.9052 23.1584 30.8582 23.1548 30.8076 23.1475C30.757 23.1439 30.7027 23.1439 30.6449 23.1475C30.2399 23.1837 29.8312 23.4621 29.4913 23.8816C29.0972 24.3662 28.8187 25.0171 28.7356 25.7222C28.7066 25.9609 28.703 26.2067 28.7247 26.4563C28.7645 26.901 28.4969 27.3024 28.1027 27.4579C27.9545 27.5411 27.8134 28.0112 27.7013 28.5934C27.488 29.6891 27.5061 30.9619 27.6652 31.4826C27.7701 31.8334 27.6724 32.195 27.4374 32.4409V32.4445ZM25.9548 39.4851C25.7487 38.8956 25.6655 38.2484 25.8137 37.5866C25.0507 36.6247 24.7615 35.4423 24.7976 34.3285C24.8302 33.2581 25.1737 32.2312 25.6763 31.5079C25.5534 30.6401 25.5606 29.3274 25.774 28.2245C25.9439 27.3531 26.2549 26.5611 26.7467 26.0621C26.7503 25.8741 26.7648 25.686 26.7865 25.5016C26.913 24.4132 27.3506 23.4043 27.9617 22.6449C28.5439 21.9289 29.2924 21.419 30.1133 21.2455C30.1856 20.9959 30.2832 20.7464 30.4062 20.5042C30.7208 19.8858 31.1981 19.2964 31.7767 18.8661C32.3914 18.4068 33.1291 18.1103 33.9247 18.1103C34.0982 18.1103 34.2754 18.1248 34.4526 18.1573C34.7202 17.6944 35.0963 17.2063 35.5736 16.8085C36.1956 16.2878 36.9875 15.9117 37.9385 15.9117C39.074 15.9117 39.9382 16.418 40.5385 17.2605C41.1062 18.0995 41.4353 19.3108 41.4353 20.5873V43.2784C41.4353 45.5963 40.7916 47.1729 39.8297 48.1673C39.1391 48.8797 38.2929 49.2811 37.3997 49.4293C36.5463 49.5704 35.6495 49.4727 34.8142 49.1943C33.563 48.7748 32.424 47.9323 31.7333 46.8583C30.9016 46.7932 29.9759 46.3773 29.1912 45.6577C28.3739 44.9092 27.6833 43.8135 27.394 42.4358C27.3361 42.1537 27.2927 41.8536 27.271 41.5426C26.8624 41.1159 26.2585 40.3638 25.9548 39.4851Z" fill="white"/>
<path d="M50.3959 32.2887C50.1283 32.267 49.9222 32.0319 49.9439 31.7643C49.962 31.4931 50.197 31.2906 50.4683 31.3087C50.6165 31.3196 50.7612 31.3159 50.9094 31.3015C51.0541 31.287 51.2023 31.2581 51.347 31.2111C52.4101 30.8856 52.9742 29.4464 52.9887 29.4066L52.9923 29.3994L53.1225 29.0486C53.2165 28.7955 53.5022 28.669 53.7553 28.763C53.8095 28.7847 53.8602 28.8136 53.9035 28.8534L54.1603 29.0486H54.1639C54.5834 29.3669 54.9811 29.573 55.3536 29.6706C55.7007 29.7574 56.0262 29.7502 56.3299 29.6453C56.8109 29.479 57.205 29.092 57.4943 28.7015C57.7149 28.4122 57.874 28.1229 57.9753 27.9168C57.8993 27.7505 57.8306 27.5733 57.7655 27.3816C57.6751 27.1104 57.5956 26.8175 57.5341 26.5065C57.4835 26.2426 57.6571 25.9822 57.9246 25.9316C58.1886 25.8809 58.4454 26.0545 58.4996 26.3185C58.5539 26.5969 58.6189 26.8464 58.6949 27.0706C58.7708 27.2948 58.854 27.4973 58.9516 27.6818C59.0167 27.8083 59.0276 27.9638 58.9661 28.1048C58.8793 28.311 58.6479 28.7991 58.279 29.2909C57.8921 29.8044 57.3533 30.3287 56.6482 30.571C56.1564 30.741 55.6429 30.7591 55.1149 30.6216C54.6846 30.5132 54.2471 30.3034 53.7987 29.9961C53.5492 30.5204 52.8404 31.7788 51.6363 32.1476C51.4265 32.2127 51.2168 32.2561 51.0107 32.2778C50.8009 32.2995 50.5984 32.3031 50.3959 32.2887ZM48.8916 39.1593C48.624 39.1954 48.3745 39.011 48.3348 38.7434C48.2986 38.4758 48.483 38.2263 48.7506 38.1865C48.8808 38.1684 48.9784 38.0889 49.0507 37.9768C49.1484 37.8177 49.199 37.6043 49.2098 37.3765V37.3729C49.2207 37.127 49.1809 36.8703 49.0978 36.6497C49.0073 36.411 48.8736 36.2194 48.7072 36.1651C48.4505 36.0783 48.3094 35.7999 48.3962 35.5432C48.4071 35.5142 48.4215 35.4853 48.436 35.4564C48.4505 35.4274 48.8772 34.7078 48.653 34.2197C48.5373 33.9738 48.6457 33.6845 48.8916 33.5688C49.1375 33.4567 49.4268 33.5652 49.5425 33.811C49.8174 34.4041 49.651 35.0803 49.4883 35.5106C49.7197 35.7131 49.8969 35.9952 50.0162 36.3098C50.1428 36.6497 50.2043 37.0402 50.1862 37.4091V37.4163C50.1717 37.8105 50.0705 38.1901 49.8824 38.4939C49.6655 38.8447 49.3364 39.0906 48.8916 39.1593ZM57.1617 33.4639C57.1038 33.7279 56.8434 33.8978 56.5795 33.84C56.3155 33.7821 56.1455 33.5218 56.2034 33.2578C56.2106 33.2252 56.2178 33.1891 56.2287 33.1529L56.2359 33.1276C56.424 32.4586 56.8941 31.9307 57.4582 31.6052C58.0259 31.2798 58.7021 31.1496 59.2879 31.2762C59.306 31.2798 59.3385 31.287 59.3747 31.2979C59.6387 31.3666 59.7942 31.6342 59.7255 31.8981C59.6568 32.1585 59.3892 32.314 59.1252 32.2453C59.118 32.2453 59.1035 32.2417 59.0782 32.2344C58.7274 32.1585 58.308 32.2453 57.9463 32.455C57.5884 32.6611 57.2954 32.983 57.1797 33.388L57.1761 33.406C57.1725 33.4205 57.1689 33.4422 57.1617 33.4639ZM59.1469 36.8847C59.3711 37.0366 59.4289 37.344 59.2771 37.5646C59.1216 37.7888 58.8178 37.8466 58.5936 37.6947C58.1742 37.4091 57.7438 37.2391 57.3244 37.1921C56.9194 37.1451 56.518 37.2138 56.1455 37.3982C55.7658 37.5863 55.4404 37.8828 55.1945 38.248C54.945 38.6205 54.7786 39.0616 54.7208 39.5389L54.6738 39.9584C54.6412 40.2296 54.399 40.4213 54.1314 40.3923C54.0735 40.3851 54.0193 40.367 53.9686 40.3417L53.6432 40.1971C53.3611 40.0669 53.0465 40.0271 52.7464 40.0452C52.4029 40.0633 52.0919 40.1645 51.8749 40.2983C51.4952 40.5406 51.1698 40.9709 51.0215 41.5314C50.8913 42.0377 50.8986 42.6488 51.13 43.3322C51.2168 43.589 51.0794 43.8674 50.8262 43.9542C50.5695 44.041 50.2911 43.9036 50.2043 43.6468C49.9041 42.7681 49.8969 41.9617 50.0741 41.2855C50.2911 40.4683 50.7756 39.8355 51.3506 39.4702C51.6941 39.2533 52.1787 39.0978 52.6885 39.0652C53.0465 39.0435 53.4226 39.0797 53.7806 39.199C53.8782 38.653 54.0844 38.1431 54.3809 37.702C54.7208 37.1957 55.1764 36.7835 55.7116 36.5195C56.2576 36.2483 56.8398 36.1507 57.4329 36.2158C58.0114 36.2808 58.5936 36.5087 59.1469 36.8847ZM54.634 22.2431C54.7027 21.9792 54.9703 21.8201 55.2307 21.8852C55.4946 21.9539 55.6537 22.2214 55.5886 22.4818C55.5778 22.5216 55.4512 23.0025 55.1439 23.5449C55.1403 23.5558 55.1366 23.563 55.1294 23.5739C54.8112 24.1235 54.3085 24.7346 53.5383 25.042C53.3756 25.1071 53.2093 25.1541 53.0429 25.1866C52.8693 25.2192 52.6958 25.2337 52.5258 25.2337C52.081 25.2337 51.6146 25.1324 51.13 24.9299C50.9022 24.8359 50.6708 24.7202 50.4357 24.5791L50.4321 24.5828C50.3742 24.8937 50.2694 25.1866 50.1139 25.4579V25.4615C49.9403 25.7652 49.7125 26.0292 49.4449 26.2498C49.1737 26.474 48.8627 26.6476 48.5228 26.7705C48.266 26.8645 47.9876 26.7343 47.8936 26.4776C47.8032 26.2245 47.9334 25.9424 48.1865 25.852C48.4252 25.7652 48.6385 25.6459 48.8229 25.494C48.9965 25.3494 49.1448 25.1758 49.2605 24.9733H49.2641C49.3617 24.7961 49.4304 24.6045 49.4702 24.402C49.51 24.1922 49.5136 23.968 49.4883 23.7366C49.4738 23.6136 49.5064 23.4907 49.5823 23.3858C49.7486 23.1689 50.056 23.1255 50.2694 23.2882C50.7069 23.6173 51.1192 23.8632 51.5061 24.0259C51.8677 24.1741 52.2076 24.2537 52.5258 24.2537C52.6451 24.2537 52.7572 24.2428 52.8621 24.2212C52.9706 24.2031 53.0755 24.1705 53.1767 24.1307C53.6938 23.9246 54.0518 23.4871 54.2796 23.0857C54.2832 23.0785 54.2905 23.0712 54.2941 23.064C54.5327 22.6409 54.6268 22.2721 54.634 22.2431Z" fill="white"/>
<path d="M59.2988 32.2745L59.2735 32.2456C59.0384 31.9997 58.9408 31.6345 59.0457 31.2874C59.2048 30.763 59.2229 29.4902 59.0095 28.3945C58.8974 27.8159 58.7564 27.3422 58.6081 27.259C58.2104 27.1071 57.9464 26.7058 57.9862 26.261C58.0079 26.0115 58.0042 25.7656 57.9753 25.5269C57.8921 24.8218 57.6137 24.1709 57.2196 23.6863C56.8796 23.2632 56.471 22.9884 56.066 22.9522C56.0082 22.9486 55.9539 22.945 55.9033 22.9486C55.8527 22.9595 55.8057 22.9631 55.755 22.9631C55.209 22.9631 54.7715 22.5219 54.7715 21.9795C54.7715 21.7409 54.6919 21.466 54.5545 21.1912C54.3737 20.8332 54.0952 20.4933 53.7589 20.2438C53.4624 20.0232 53.1261 19.8822 52.7826 19.8822C52.5982 19.8822 52.4029 19.922 52.2076 20.0124C52.1425 20.0521 52.0702 20.0811 51.9943 20.1028C51.4736 20.251 50.9275 19.9509 50.7793 19.4265C50.6816 19.0866 50.3779 18.5261 49.8861 18.1139C49.5823 17.8644 49.2099 17.68 48.7723 17.68C48.3384 17.68 48.0093 17.868 47.7779 18.1862C47.7671 18.2007 47.7562 18.2152 47.749 18.2296C47.4091 18.7286 47.2427 19.4953 47.2427 20.392V43.0795C47.2427 44.8333 47.6586 45.9579 48.2878 46.6052C48.6639 46.9957 49.1303 47.2163 49.6257 47.2958C50.1573 47.3862 50.7287 47.3211 51.2747 47.1403C52.251 46.8113 53.1117 46.1278 53.5022 45.2889C53.6758 44.855 54.1386 44.5982 54.6087 44.6959C54.6557 44.7067 54.7027 44.7103 54.7461 44.7103C55.162 44.7139 55.6936 44.4717 56.189 44.016C56.735 43.517 57.1979 42.7793 57.3967 41.8391C57.4582 41.5426 57.4944 41.228 57.498 40.8989C57.5016 40.6133 57.6318 40.3312 57.8741 40.1396C58.0404 40.0094 58.6407 39.4127 58.9047 38.6497C59.024 38.3062 59.0601 37.9301 58.901 37.583C58.7166 37.2069 58.7889 36.7368 59.1144 36.4331C59.1289 36.4186 59.1397 36.4041 59.1542 36.3933C59.7581 35.8002 59.9786 34.9758 59.9569 34.1911C59.9316 33.3955 59.6676 32.6687 59.2988 32.2745ZM61.0345 31.3091C61.5372 32.0323 61.8807 33.0629 61.9132 34.1296C61.9494 35.247 61.6601 36.4294 60.8971 37.3913C61.0454 38.0531 60.9586 38.7004 60.7561 39.2862C60.4523 40.1649 59.8485 40.917 59.4398 41.3473C59.4145 41.6583 59.3747 41.9548 59.3133 42.2405C59.0276 43.6183 58.3333 44.7103 57.5197 45.4588C56.735 46.1821 55.8093 46.5979 54.9776 46.6594C54.2869 47.7334 53.1478 48.5795 51.8967 48.9954C51.0613 49.2775 50.1645 49.3751 49.3111 49.2304C48.418 49.0858 47.5718 48.6844 46.8811 47.972C45.9192 46.9776 45.2756 45.3974 45.2756 43.0795V20.392C45.2756 19.1156 45.5576 17.962 46.129 17.1267C46.1434 17.105 46.1579 17.0833 46.1724 17.0652C46.7726 16.2191 47.6369 15.7164 48.7723 15.7164C49.7234 15.7164 50.5153 16.0925 51.1373 16.6096C51.6146 17.0074 51.9907 17.4992 52.2583 17.9584C52.4355 17.9295 52.609 17.915 52.7826 17.915C53.5818 17.915 54.3194 18.2115 54.9342 18.6708C55.5128 19.1011 55.9901 19.6869 56.3047 20.3089C56.4276 20.5512 56.5253 20.8007 56.5976 21.0502C57.4184 21.2238 58.167 21.73 58.7492 22.4496C59.3603 23.209 59.7978 24.2179 59.9244 25.3027C59.9461 25.4907 59.9606 25.6752 59.9606 25.8632C60.456 26.3658 60.7669 27.1578 60.9369 28.0256C61.1503 29.1285 61.1575 30.4448 61.0345 31.3091Z" fill="white"/>
</g>
<defs>
<clipPath id="clip0_1143_45460">
<rect width="85" height="85" fill="white" transform="translate(0.855469)"/>
</clipPath>
</defs>
</svg>
