<svg width="86" height="85" viewBox="0 0 86 85" fill="none" xmlns="http://www.w3.org/2000/svg">
<g clip-path="url(#clip0_1143_44795)">
<g clip-path="url(#clip1_1143_44795)">
<path d="M45.3366 69.4665H45.0722C44.5435 69.3343 44.0147 69.3343 43.3537 69.3343H42.9571C42.164 69.3343 41.6352 68.8056 41.6352 68.0124C41.6352 67.2192 42.164 66.6905 42.9571 66.6905H43.3537C44.0147 66.6905 44.8079 66.6905 45.601 66.8227C46.262 66.9549 46.7907 67.6158 46.6585 68.409C46.5264 69.0699 45.9976 69.4665 45.3366 69.4665Z" fill="white"/>
<path d="M35.0256 70.3921C34.7612 70.3921 34.4968 70.2599 34.2324 70.1277L16.7829 57.305C16.2542 56.9084 16.122 55.983 16.5186 55.4543C16.9151 54.9255 17.8405 54.7933 18.3693 55.1899L35.8187 68.0126C36.3475 68.4092 36.4797 69.3346 36.0831 69.8634C35.8187 70.2599 35.4221 70.3921 35.0256 70.3921ZM52.3428 69.8634C51.9462 69.8634 51.5497 69.7312 51.2853 69.3346C50.8887 68.8058 51.0209 67.8805 51.5497 67.4839L67.6772 55.5865C68.206 55.1899 69.1313 55.3221 69.5279 55.8508C69.9245 56.3796 69.7923 57.305 69.2635 57.7016L53.136 69.599C52.8716 69.7312 52.6072 69.8634 52.3428 69.8634Z" fill="white"/>
<path d="M43.3537 83.6112C35.1578 83.6112 28.6803 79.9098 28.6803 75.1508C28.6803 72.507 30.7954 69.9953 34.4968 68.409C35.1578 68.1446 35.9509 68.409 36.2153 69.0699C36.4797 69.7309 36.2153 70.5241 35.5544 70.7884C32.9105 71.9782 31.3242 73.5645 31.3242 75.1508C31.3242 77.9269 36.2153 80.9673 43.3537 80.9673C50.4921 80.9673 55.3833 77.9269 55.3833 75.1508C55.3833 73.5645 53.797 71.9782 51.1531 70.7884C50.4921 70.5241 50.2278 69.7309 50.4921 69.0699C50.7565 68.409 51.5497 68.1446 52.2107 68.409C55.9121 69.9953 58.0271 72.507 58.0271 75.1508C58.0271 79.9098 51.5497 83.6112 43.3537 83.6112ZM74.2869 57.9657C67.9416 57.9657 62.9183 55.0574 62.9183 51.356C62.9183 49.3731 64.3724 47.5224 66.7519 46.3327C67.4128 46.0683 68.206 46.3327 68.4704 46.8614C68.7348 47.5224 68.4704 48.3156 67.9416 48.5799C66.4875 49.2409 65.6943 50.2985 65.6943 51.2238C65.6943 53.0745 69.3957 55.1896 74.4191 55.1896C79.4424 55.1896 83.1438 53.0745 83.1438 51.2238C83.1438 50.2985 82.2184 49.2409 80.8965 48.5799C80.2355 48.3156 79.9712 47.5224 80.3677 46.8614C80.7643 46.2005 81.4253 45.9361 82.0862 46.3327C84.4657 47.5224 85.9198 49.3731 85.9198 51.356C85.6554 55.0574 80.6321 57.9657 74.2869 57.9657ZM12.2884 57.9657C5.94316 57.9657 0.91983 55.0574 0.91983 51.356C0.91983 49.3731 2.37395 47.5224 4.75342 46.3327C5.41439 46.0683 6.20754 46.3327 6.47193 46.8614C6.73632 47.5224 6.47193 48.3156 5.94316 48.5799C4.48904 49.2409 3.69588 50.2985 3.69588 51.2238C3.69588 53.0745 7.39728 55.1896 12.4206 55.1896C17.4439 55.1896 21.1453 53.0745 21.1453 51.2238C21.1453 50.2985 20.3522 49.3731 19.0303 48.7121C18.3693 48.4478 18.1049 47.6546 18.5015 46.9936C18.7659 46.3327 19.559 46.0683 20.22 46.4649C22.5995 47.6546 23.9214 49.3731 23.9214 51.356C23.657 55.0574 18.6337 57.9657 12.2884 57.9657Z" fill="#FFC107"/>
<path d="M43.3537 31.3943C39.7845 31.3943 36.8763 28.4861 36.8763 24.9169C36.8763 21.3476 39.7845 18.4394 43.3537 18.4394C46.9229 18.4394 49.8312 21.3476 49.8312 24.9169C49.8312 28.4861 46.9229 31.3943 43.3537 31.3943ZM43.3537 21.0833C41.2386 21.0833 39.5201 22.8018 39.5201 24.9169C39.5201 27.1642 41.1064 28.7505 43.3537 28.7505C45.4688 28.7505 47.1873 27.032 47.1873 24.9169C47.1873 22.8018 45.4688 21.0833 43.3537 21.0833ZM48.1126 78.8518C47.1873 78.8518 46.262 78.4552 45.601 77.9264C44.8078 77.2655 44.4112 76.2079 44.4112 75.1504V57.3043C44.4112 57.0399 44.0147 56.6433 43.7503 56.6433C43.4859 56.6433 43.0893 57.0399 43.0893 57.3043V74.886C43.0893 77.1333 41.3708 78.8518 39.1235 78.8518C36.8763 78.8518 35.1578 77.1333 35.1578 74.886V53.4706C34.4968 53.8672 33.7036 54.1316 32.9105 53.9994C31.9851 53.8672 31.192 53.4706 30.531 52.8097L24.1857 45.4069C23.2604 44.3493 22.8638 43.0274 22.996 41.5732C23.2604 40.1191 24.0535 38.9294 25.2433 38.2684L33.7036 33.7738C35.2899 32.8485 37.1406 32.4519 38.9913 32.4519H47.5839C49.4346 32.4519 51.2853 32.9807 52.8716 33.7738L61.3319 38.2684C62.5217 39.0616 63.3148 40.2513 63.5792 41.5732C63.8436 43.0274 63.447 44.3493 62.5217 45.4069L56.1764 52.8097C55.2511 53.735 54.4579 54.1316 53.4004 54.1316C52.7394 54.1316 52.0784 53.8672 51.5497 53.4706V55.4536L51.8141 75.1504C51.8141 77.1333 50.3599 78.8518 48.377 78.984C48.377 78.8518 48.2448 78.8518 48.1126 78.8518ZM43.7503 53.9994C45.601 53.9994 47.0551 55.4536 47.0551 57.3043V75.1504C47.0551 75.547 47.1873 75.8113 47.3195 75.9435C47.5839 76.2079 47.8483 76.2079 48.2448 76.2079C48.9058 76.2079 49.3024 75.547 49.3024 75.0182L49.038 55.3214V39.0616C49.038 38.665 49.3024 38.1362 49.699 38.004C50.0955 37.7396 50.6243 37.7396 51.0209 38.004L58.0271 41.441C58.4237 41.5732 58.6881 41.9698 58.6881 42.3664C58.8203 42.763 58.6881 43.1596 58.4237 43.5561L52.8716 50.0336C52.6072 50.0336 52.6072 50.1658 52.6072 50.4302C52.6072 50.6946 52.7394 50.959 53.0038 51.0912L53.5326 51.3556C53.6648 51.3556 53.9291 51.3556 54.3257 50.959L60.5388 43.6883C60.9354 43.2918 61.0676 42.6308 60.9354 41.9698C60.8032 41.3089 60.5388 40.7801 60.01 40.5157L51.6819 36.0211C50.4921 35.3602 49.038 34.9636 47.7161 34.9636H39.1235C37.8016 34.9636 36.3475 35.3602 35.1578 36.0211L26.6974 40.5157C26.1686 40.7801 25.9043 41.3089 25.7721 41.9698C25.6399 42.6308 25.9043 43.1596 26.3008 43.6883L32.6461 51.0912C32.7783 51.2234 33.0427 51.3556 33.1749 51.3556C33.307 51.3556 33.5714 51.3556 33.7036 51.0912C33.968 50.959 34.1002 50.6946 34.1002 50.4302C34.1002 50.1658 34.1002 50.0336 33.968 49.9014L28.4159 43.2918C28.1515 43.0274 28.0193 42.6308 28.1515 42.2342C28.2837 41.8376 28.5481 41.441 28.8125 41.3089L35.8187 37.8718C36.2153 37.6074 36.7441 37.7396 37.1406 37.8718C37.5372 38.1362 37.8016 38.5328 37.8016 38.9294V74.7538C37.8016 75.547 38.3304 76.0757 39.1235 76.0757C39.9167 76.0757 40.4455 75.547 40.4455 74.7538V57.3043C40.4455 55.4536 41.8996 53.9994 43.7503 53.9994ZM31.5885 42.8952L35.1578 47.1254V41.1767L31.5885 42.8952ZM51.6819 41.1767V47.1254L55.2511 42.8952L51.6819 41.1767Z" fill="#FFC107"/>
<path d="M43.3537 44.2175C43.0893 44.2175 42.6927 44.0853 42.4284 43.8209L39.7845 41.3092C39.3879 41.0449 39.2557 40.5161 39.3879 40.1195L40.842 33.7742C40.9742 33.1132 41.7674 32.5845 42.4284 32.7167C42.6927 32.7167 42.8249 32.8489 43.0893 33.1132C43.2215 32.9811 43.3537 32.8489 43.6181 32.8489C44.2791 32.5845 45.0722 32.9811 45.3366 33.7742L47.3195 40.1195C47.4517 40.6483 47.3195 41.177 46.9229 41.4414L44.2791 43.9531C44.0147 44.0853 43.6181 44.2175 43.3537 44.2175ZM42.164 39.9873L43.3537 41.177L44.5434 40.1195L43.2215 35.7571L42.164 39.9873ZM74.2868 13.4164C70.982 13.4164 68.7347 10.1116 68.7347 7.07114C68.7347 3.8985 71.1142 1.51902 74.2868 1.51902C75.6088 1.38682 77.0629 1.9156 78.1204 2.97314C79.178 4.03069 79.8389 5.48482 79.8389 7.07114C79.8389 10.1116 77.4595 13.4164 74.2868 13.4164ZM74.5512 4.16289H74.419C72.7005 4.16289 71.3786 5.35263 71.3786 7.07114C71.3786 8.78966 72.7005 10.7726 74.2868 10.7726C75.8732 10.7726 77.1951 8.78966 77.1951 7.07114C77.1951 6.27798 76.7985 5.35263 76.2697 4.82385C75.8732 4.55947 75.3444 4.16289 74.5512 4.16289ZM77.1951 52.9423C74.8156 52.9423 72.9649 51.0916 72.9649 48.7121V32.8489C72.9649 32.0557 73.4937 31.5269 74.2868 31.5269C75.08 31.5269 75.6088 32.0557 75.6088 32.8489V48.7121C75.6088 49.6374 76.2697 50.2984 77.1951 50.2984C78.1204 50.2984 78.7814 49.6374 78.7814 48.7121V22.5378C78.7814 21.7446 79.3102 21.2158 80.1033 21.2158C80.8965 21.2158 81.4253 21.7446 81.4253 22.5378V48.7121C81.4253 51.0916 79.5746 52.9423 77.1951 52.9423Z" fill="white"/>
<path d="M43.3537 44.2175C43.0893 44.2175 42.6927 44.0853 42.4284 43.821L39.7845 41.3093C39.3879 41.0449 39.2557 40.5161 39.3879 40.1195L40.842 33.7743C40.9742 33.1133 41.7674 32.5845 42.4284 32.7167C42.6927 32.7167 42.8249 32.8489 43.0893 33.1133C43.2215 32.9811 43.3537 32.8489 43.6181 32.8489C44.2791 32.5845 45.0722 32.9811 45.3366 33.7743L47.3195 40.1195C47.4517 40.6483 47.3195 41.1771 46.9229 41.4415L44.2791 43.9532C44.0147 44.0853 43.6181 44.2175 43.3537 44.2175ZM42.164 39.9874L43.3537 41.1771L44.5434 40.1195L43.2215 35.7572L42.164 39.9874Z" fill="#FFC107"/>
<path d="M71.3786 52.9424C68.9991 52.9424 67.1484 51.0917 67.1484 48.7122V22.5379C67.1484 21.7448 67.6772 21.216 68.4704 21.216C69.2635 21.216 69.7923 21.7448 69.7923 22.5379V48.7122C69.7923 49.6376 70.4533 50.2986 71.3786 50.2986C72.304 50.2986 72.9649 49.6376 72.9649 48.7122V32.849C72.9649 32.0559 73.4937 31.5271 74.2869 31.5271C75.08 31.5271 75.6088 32.0559 75.6088 32.849V48.7122C75.6088 51.0917 73.7581 52.9424 71.3786 52.9424Z" fill="white"/>
<path d="M81.954 34.5674H80.2355C79.4423 34.5674 78.9136 34.0386 78.9136 33.2454C78.9136 32.4523 79.4423 31.9235 80.2355 31.9235H81.954C82.4828 31.9235 83.0115 31.3947 83.0115 30.866V20.0261C83.0115 18.7042 82.0862 17.7788 80.7643 17.7788H67.8094C66.4874 17.7788 65.5621 18.7042 65.5621 20.0261V31.1303C65.5621 31.5269 65.9587 31.9235 66.3552 31.9235H68.4703C69.2635 31.9235 69.7923 32.4523 69.7923 33.2454C69.7923 34.0386 69.2635 34.5674 68.4703 34.5674H66.3552C64.3723 34.5674 62.9182 33.1132 62.9182 31.1303V20.0261C62.9182 17.3822 65.1655 15.1349 67.8094 15.1349H80.7643C83.4081 15.1349 85.6554 17.3822 85.6554 20.0261V30.866C85.6554 32.8489 83.9369 34.5674 81.954 34.5674ZM12.4206 13.4164C9.24793 13.4164 6.86845 10.1116 6.86845 7.07114C6.86845 3.8985 9.24793 1.51902 12.4206 1.51902C13.7425 1.38682 15.1966 1.9156 16.2541 2.97314C17.3117 4.03069 17.9727 5.48482 17.9727 7.07114C17.9727 10.1116 15.5932 13.4164 12.4206 13.4164ZM12.6849 4.16289H12.5527C10.702 4.16289 9.51231 5.35263 9.51231 7.07114C9.51231 8.78966 10.8342 10.7726 12.4206 10.7726C14.0069 10.7726 15.3288 8.78966 15.3288 7.07114C15.3288 6.27798 14.9322 5.35263 14.4034 4.82385C14.0069 4.55947 13.4781 4.16289 12.6849 4.16289ZM15.3288 52.9423C12.9493 52.9423 11.0986 51.0916 11.0986 48.7121V32.8489C11.0986 32.0557 11.6274 31.5269 12.4206 31.5269C13.2137 31.5269 13.7425 32.0557 13.7425 32.8489V48.7121C13.7425 49.6374 14.4034 50.2984 15.3288 50.2984C16.2541 50.2984 16.9151 49.6374 16.9151 48.7121V22.5378C16.9151 21.7446 17.4439 21.2158 18.237 21.2158C19.0302 21.2158 19.559 21.7446 19.559 22.5378V48.7121C19.559 51.0916 17.7083 52.9423 15.3288 52.9423Z" fill="white"/>
<path d="M9.51237 52.9424C7.1329 52.9424 5.2822 51.0917 5.2822 48.7122V22.5379C5.2822 21.7448 5.81097 21.216 6.60412 21.216C7.39728 21.216 7.92605 21.7448 7.92605 22.5379V48.7122C7.92605 49.6376 8.58702 50.2986 9.51237 50.2986C10.4377 50.2986 11.0987 49.6376 11.0987 48.7122V32.849C11.0987 32.0559 11.6275 31.5271 12.4206 31.5271C13.2138 31.5271 13.7425 32.0559 13.7425 32.849V48.7122C13.7425 51.0917 11.8918 52.9424 9.51237 52.9424Z" fill="white"/>
<path d="M20.0878 34.567H18.2371C17.4439 34.567 16.9152 34.0382 16.9152 33.245C16.9152 32.4519 17.4439 31.9231 18.2371 31.9231H20.0878C20.6166 31.9231 21.1453 31.3943 21.1453 30.8655V20.0257C21.1453 18.7037 20.22 17.7784 18.8981 17.7784H5.94315C4.62122 17.7784 3.69587 18.7037 3.69587 20.0257V31.1299C3.69587 31.5265 4.09245 31.9231 4.48903 31.9231H6.60412C7.39727 31.9231 7.92605 32.4519 7.92605 33.245C7.92605 34.0382 7.39727 34.567 6.60412 34.567H4.48903C2.50614 34.567 1.05202 33.1128 1.05202 31.1299V20.0257C1.05202 17.3818 3.2993 15.1345 5.94315 15.1345H18.8981C21.5419 15.1345 23.7892 17.3818 23.7892 20.0257V30.8655C23.7892 32.8484 22.0707 34.567 20.0878 34.567Z" fill="white"/>
</g>
</g>
<defs>
<clipPath id="clip0_1143_44795">
<rect width="85" height="85" fill="white" transform="translate(0.855469)"/>
</clipPath>
<clipPath id="clip1_1143_44795">
<rect width="85" height="85" fill="white" transform="translate(0.855469)"/>
</clipPath>
</defs>
</svg>
