<svg width="86" height="85" viewBox="0 0 86 85" fill="none" xmlns="http://www.w3.org/2000/svg">
<path fill-rule="evenodd" clip-rule="evenodd" d="M35.8338 53.0763H31.5908V63.3059H35.8338V53.0763ZM36.6945 50.5475C37.0904 50.1634 37.5184 49.8139 37.9738 49.5026C39.1563 48.6405 40.6322 47.564 39.9499 44.1924C39.943 44.1631 39.9371 44.1336 39.9322 44.1039C39.5925 42.0375 40.1801 40.6374 41.1896 39.862C41.7814 39.4162 42.5063 39.183 43.2471 39.2001C43.97 39.2134 44.6787 39.4028 45.3118 39.7521C46.9303 40.6259 48.3529 42.5417 48.3529 45.256V49.7033H53.728C53.9455 49.7049 54.1625 49.7259 54.3763 49.766C55.3647 49.9602 56.2426 50.5223 56.8325 51.3388C57.3525 52.0112 57.6533 52.8273 57.6941 53.6764C57.6927 53.824 57.6783 53.9711 57.651 54.1162L56.122 62.5801C55.9533 63.5813 55.462 64.4999 54.7229 65.196C53.9861 65.8745 53.0182 66.2463 52.0167 66.2358H40.0746C39.1665 66.2358 38.279 65.9649 37.5258 65.4578C37.1529 65.7337 36.7012 65.8824 36.2374 65.8819H31.187C30.6108 65.8811 30.0584 65.6519 29.651 65.2444C29.2435 64.837 29.0143 64.2846 29.0135 63.7084V52.6725C29.0166 52.097 29.2467 51.546 29.6536 51.1391C30.0605 50.7322 30.6115 50.5021 31.187 50.499C32.4761 50.5055 32.6663 50.5018 36.6947 50.5475H36.6945ZM38.4111 62.4184C38.4111 63.2226 39.3851 63.6595 40.0746 63.6595H52.0174C52.9116 63.6595 53.4466 62.9512 53.5952 62.1282C53.9196 60.3291 55.117 55.1166 55.117 53.6775C55.0853 53.3844 54.9677 53.1071 54.779 52.8806C54.5769 52.5854 54.2718 52.3764 53.9235 52.2946C52.6976 52.0739 48.5892 52.2822 47.0644 52.2822C46.7226 52.2821 46.3949 52.1463 46.1532 51.9046C45.9116 51.663 45.7758 51.3352 45.7758 50.9934V45.2575C45.7758 43.6193 44.989 42.5018 44.0934 42.0185C43.8321 41.8676 43.5382 41.7819 43.2366 41.7687C43.0635 41.7596 42.8922 41.8083 42.7498 41.9072C42.4528 42.1351 42.306 42.7027 42.4686 43.6925V43.6941C43.4757 48.6657 41.2588 50.282 39.4827 51.5773C38.9045 51.999 38.41 52.3594 38.41 52.6725V62.4184H38.4111ZM58.0932 40.1335C61.5032 43.5435 63.6253 48.0303 64.0979 52.8295C64.5706 57.6287 63.3646 62.4433 60.6854 66.453C58.0062 70.4627 54.0196 73.4194 49.4048 74.8192C44.79 76.2191 39.8327 75.9756 35.3773 74.1301C30.922 72.2847 27.2444 68.9515 24.9711 64.6985C22.6978 60.4455 21.9695 55.5359 22.9103 50.8062C23.8511 46.0764 26.4027 41.8192 30.1305 38.7598C33.8582 35.7005 38.5314 34.0284 43.3539 34.0283C46.0917 34.0247 48.8033 34.5622 51.3328 35.61C53.8623 36.6577 56.1598 38.195 58.0932 40.1335ZM43.3539 31.4512C48.7727 31.4511 54.0239 33.3299 58.2128 36.7675C62.4016 40.2052 65.269 44.9888 66.3262 50.3035C67.3834 55.6182 66.5651 61.1351 64.0108 65.9141C61.4564 70.6931 57.324 74.4386 52.3177 76.5123C47.3113 78.5861 41.7409 78.8598 36.5553 77.2868C31.3698 75.7139 26.8902 72.3915 23.8796 67.886C20.869 63.3804 19.5138 57.9703 20.045 52.5776C20.5761 47.1848 22.9606 42.1431 26.7923 38.3114C28.9648 36.1332 31.5463 34.4059 34.3885 33.2286C37.2307 32.0513 40.2775 31.4472 43.3539 31.4512ZM62.8345 35.3925C67.3414 39.8994 70.1463 45.8295 70.7711 52.1726C71.3959 58.5156 69.802 64.8791 66.261 70.1787C62.72 75.4784 57.451 79.3862 51.3517 81.2365C45.2524 83.0868 38.7003 82.765 32.8117 80.3259C26.923 77.8869 22.0623 73.4815 19.0577 67.8603C16.0531 62.2392 15.0904 55.7502 16.3338 49.4989C17.5772 43.2476 20.9497 37.6208 25.8766 33.5773C30.8035 29.5338 36.9801 27.3237 43.3539 27.3236C46.9724 27.3189 50.5562 28.0293 53.8994 29.414C57.2425 30.7987 60.279 32.8305 62.8345 35.3925ZM43.3539 24.7463C50.3239 24.7462 57.0783 27.1629 62.4662 31.5845C67.8542 36.0061 71.5423 42.1592 72.9022 48.9952C74.262 55.8313 73.2095 62.9274 69.924 69.0744C66.6384 75.2214 61.3231 80.0391 54.8837 82.7064C48.4443 85.3738 41.2792 85.7259 34.6093 83.7027C27.9394 81.6794 22.1774 77.4061 18.305 71.6108C14.4327 65.8155 12.6895 58.8568 13.3727 51.9203C14.0558 44.9839 17.123 38.4989 22.0515 33.5703C24.8458 30.7687 28.1663 28.5468 31.8221 27.0325C35.4779 25.5182 39.3969 24.7412 43.3539 24.7463ZM44.967 7.73358L43.3539 4.30021L41.7866 7.63618C41.7046 7.85821 41.563 8.05335 41.3773 8.20019C41.1917 8.34702 40.9692 8.43987 40.7342 8.46853L36.9787 8.94014L39.7046 11.4967C39.8752 11.6443 40.0039 11.8342 40.0779 12.0474C40.1519 12.2605 40.1685 12.4893 40.1261 12.7109L39.4135 16.4334L42.7199 14.6136C42.9107 14.5055 43.126 14.448 43.3453 14.4466C43.5646 14.4451 43.7806 14.4998 43.9728 14.6054L47.2941 16.4341L46.5825 12.7123C46.5418 12.4997 46.5555 12.2802 46.6222 12.0743C46.689 11.8684 46.8068 11.6827 46.9645 11.5344L49.7291 8.94014L45.9747 8.46357C45.7586 8.43727 45.5528 8.35642 45.3766 8.22862C45.2004 8.10081 45.0597 7.93027 44.9676 7.73305L44.967 7.73358ZM44.5167 0.738272L46.9888 6.00034L52.7621 6.72643C53.0116 6.75768 53.2466 6.8612 53.438 7.02424C53.6295 7.18728 53.7691 7.40274 53.8397 7.6441C53.9103 7.88546 53.9088 8.1422 53.8354 8.38272C53.762 8.62325 53.6199 8.83706 53.4266 8.99787L49.2416 12.9227L50.335 18.6397C50.3802 18.8794 50.3565 19.1269 50.2665 19.3536C50.1765 19.5803 50.024 19.7768 49.8268 19.9202C49.6295 20.0636 49.3956 20.1481 49.1522 20.1637C48.9088 20.1794 48.6659 20.1256 48.4519 20.0087L43.3539 17.2015L38.2545 20.0087C38.0405 20.1253 37.7977 20.1788 37.5545 20.1629C37.3113 20.1471 37.0775 20.0625 36.8804 19.9192C36.6832 19.7758 36.5308 19.5794 36.4409 19.3529C36.3509 19.1263 36.327 18.8789 36.372 18.6393L37.4661 12.9223L33.2202 8.94014C33.0429 8.77242 32.9169 8.55771 32.8569 8.32108C32.797 8.08445 32.8056 7.83566 32.8817 7.60372C32.9578 7.37179 33.0983 7.16629 33.2868 7.01121C33.4753 6.85612 33.7041 6.75784 33.9463 6.72785L39.7197 5.99927L42.1916 0.737564C42.2955 0.517043 42.46 0.330629 42.6659 0.200068C42.8718 0.0695073 43.1106 0.000183105 43.3544 0.000183105C43.5982 0.000183105 43.837 0.0695073 44.0428 0.200068C44.2487 0.330629 44.4132 0.517043 44.5172 0.737564L44.5167 0.738272ZM11.1669 20.4011L7.59314 19.112L8.84415 22.5801C8.94264 22.7943 8.98044 23.0314 8.95343 23.2656C8.92642 23.4999 8.83563 23.7222 8.69096 23.9083L6.36569 26.903L10.1543 26.7828C10.3706 26.7759 10.5851 26.8239 10.7779 26.9223C10.9707 27.0206 11.1354 27.1662 11.2567 27.3454L13.3879 30.4855L14.4409 26.8522C14.4996 26.6414 14.6112 26.449 14.7652 26.2935C14.9192 26.1379 15.1103 26.0244 15.3206 25.9635L18.9664 24.9068L15.8747 22.8084C15.6817 22.69 15.5234 22.5226 15.4159 22.3233C15.3084 22.1239 15.2555 21.8997 15.2627 21.6734L15.3841 17.8846L12.3873 20.2065C12.2168 20.3391 12.0155 20.4266 11.8022 20.4606C11.5888 20.4947 11.3703 20.4741 11.1669 20.4011ZM5.89585 15.7715C5.66689 15.6892 5.41928 15.6737 5.18184 15.7267C4.94439 15.7796 4.72687 15.8989 4.55456 16.0707C4.38226 16.2424 4.26226 16.4596 4.20851 16.6969C4.15477 16.9341 4.1695 17.1818 4.25098 17.411L6.22543 22.8845L2.65605 27.4862C2.50712 27.6789 2.41596 27.9099 2.39318 28.1524C2.3704 28.3949 2.41694 28.6388 2.52738 28.8559C2.63782 29.0729 2.80763 29.2542 3.01704 29.3785C3.22645 29.5029 3.46686 29.5652 3.71031 29.5582L9.5304 29.3717L12.7729 34.1489C12.905 34.358 13.0946 34.5246 13.3191 34.6286C13.5435 34.7326 13.7931 34.7697 14.0381 34.7354C14.2831 34.7011 14.5129 34.5969 14.7002 34.4353C14.8874 34.2737 15.024 34.0615 15.0937 33.8241L16.7143 28.2332L22.3049 26.6117C22.5385 26.5434 22.7479 26.41 22.9087 26.2273C23.0695 26.0445 23.175 25.8199 23.213 25.5794C23.251 25.339 23.2199 25.0927 23.1234 24.8693C23.0268 24.6459 22.8687 24.4545 22.6676 24.3174L17.8525 21.0495L18.036 15.3248C18.0619 15.0739 18.0136 14.8208 17.8971 14.597C17.7806 14.3733 17.601 14.1886 17.3805 14.0659C17.1601 13.9432 16.9085 13.8879 16.6569 13.9068C16.4053 13.9257 16.1648 14.018 15.9652 14.1723L11.3656 17.7445L5.89585 15.7715ZM77.8257 22.6858L79.1147 19.112L75.6468 20.3629C75.4326 20.4613 75.1955 20.4991 74.9613 20.4721C74.7271 20.4451 74.5048 20.3543 74.3186 20.2097L71.3246 17.8844L71.4449 21.6734C71.4517 21.8896 71.4037 22.1041 71.3054 22.2969C71.207 22.4896 71.0614 22.6543 70.8822 22.7756L67.7421 24.9068L71.374 25.9591C71.5848 26.0177 71.7771 26.1293 71.9327 26.2833C72.0882 26.4372 72.2017 26.6284 72.2625 26.8386L73.3194 30.4846L75.4184 27.3936C75.5368 27.2005 75.7042 27.0422 75.9036 26.9348C76.103 26.8273 76.3272 26.7745 76.5536 26.7817L80.3422 26.903L78.0203 23.9064C77.8876 23.7358 77.8002 23.5345 77.7662 23.3211C77.7321 23.1077 77.7525 22.8892 77.8255 22.6858H77.8257ZM82.4553 17.4147C82.5376 17.1858 82.5531 16.9382 82.5001 16.7007C82.4472 16.4633 82.3279 16.2457 82.1561 16.0734C81.9844 15.9011 81.7672 15.7811 81.5299 15.7274C81.2926 15.6737 81.045 15.6885 80.8158 15.77L75.3422 17.7445L70.7406 14.1751C70.5479 14.0262 70.3168 13.935 70.0744 13.9122C69.8319 13.8895 69.5879 13.936 69.3709 14.0464C69.1538 14.1569 68.9726 14.3267 68.8482 14.5361C68.7239 14.7455 68.6616 14.9859 68.6685 15.2294L68.855 21.0495L64.0777 24.2919C63.8688 24.4241 63.7026 24.6138 63.5987 24.8381C63.4949 25.0623 63.4579 25.3118 63.4921 25.5566C63.5264 25.8014 63.6305 26.0311 63.7919 26.2183C63.9534 26.4054 64.1654 26.5421 64.4025 26.6119L69.9934 28.2323L71.6149 33.8229C71.6832 34.0565 71.8165 34.266 71.9993 34.4268C72.182 34.5876 72.4068 34.6932 72.6472 34.7312C72.8877 34.7692 73.134 34.7381 73.3574 34.6415C73.5809 34.5449 73.7723 34.3868 73.9093 34.1856L77.1773 29.3705L82.9018 29.554C83.1527 29.5798 83.4057 29.5315 83.6295 29.415C83.8532 29.2985 84.0379 29.1189 84.1606 28.8985C84.2833 28.6781 84.3387 28.4265 84.3198 28.1749C84.3009 27.9234 84.2087 27.6828 84.0545 27.4832L80.4823 22.8836L82.4553 17.4147Z" fill="#FFC107"/>
<path fill-rule="evenodd" clip-rule="evenodd" d="M44.967 7.73358L43.3539 4.30021L41.7866 7.63618C41.7046 7.85821 41.563 8.05336 41.3773 8.20019C41.1917 8.34702 40.9692 8.43987 40.7342 8.46853L36.9787 8.94014L39.7046 11.4967C39.8752 11.6443 40.0039 11.8342 40.0779 12.0474C40.1519 12.2605 40.1685 12.4893 40.1261 12.7109L39.4135 16.4334L42.7199 14.6136C42.9107 14.5055 43.126 14.448 43.3453 14.4466C43.5646 14.4451 43.7806 14.4998 43.9728 14.6054L47.2941 16.4341L46.5825 12.7123C46.5418 12.4997 46.5555 12.2802 46.6222 12.0743C46.689 11.8684 46.8068 11.6827 46.9645 11.5344L49.7291 8.94014L45.9747 8.46357C45.7586 8.43727 45.5528 8.35642 45.3766 8.22862C45.2004 8.10081 45.0591 7.9308 44.967 7.73358ZM44.5167 0.738272L46.9888 6.00034L52.7621 6.72643C53.0116 6.75768 53.2466 6.8612 53.438 7.02424C53.6295 7.18728 53.7691 7.40274 53.8397 7.6441C53.9103 7.88546 53.9088 8.1422 53.8354 8.38272C53.762 8.62325 53.6199 8.83706 53.4266 8.99787L49.2416 12.9227L50.335 18.6397C50.3802 18.8794 50.3565 19.1269 50.2665 19.3536C50.1765 19.5803 50.024 19.7768 49.8268 19.9202C49.6295 20.0636 49.3956 20.1481 49.1522 20.1637C48.9088 20.1794 48.6659 20.1256 48.4519 20.0087L43.3539 17.2015L38.2545 20.0087C38.0405 20.1253 37.7977 20.1788 37.5545 20.1629C37.3113 20.1471 37.0775 20.0625 36.8804 19.9192C36.6832 19.7758 36.5308 19.5794 36.4409 19.3529C36.3509 19.1263 36.327 18.8789 36.372 18.6393L37.4661 12.9223L33.2202 8.94014C33.0429 8.77242 32.9169 8.55771 32.8569 8.32108C32.797 8.08445 32.8056 7.83566 32.8817 7.60372C32.9578 7.37179 33.0983 7.16629 33.2868 7.01121C33.4753 6.85612 33.7041 6.75784 33.9463 6.72785L39.7197 5.99927L42.1916 0.737564C42.2955 0.517043 42.46 0.330629 42.6659 0.200068C42.8718 0.0695073 43.1106 0.000183105 43.3544 0.000183105C43.5982 0.000183105 43.837 0.0695073 44.0428 0.200068C44.2487 0.330629 44.4127 0.517752 44.5167 0.738272ZM11.1669 20.4011L7.59314 19.112L8.84415 22.5801C8.94264 22.7943 8.98044 23.0314 8.95343 23.2656C8.92642 23.4999 8.83563 23.7222 8.69096 23.9083L6.36569 26.903L10.1543 26.7828C10.3706 26.7759 10.5851 26.8239 10.7779 26.9223C10.9707 27.0206 11.1354 27.1662 11.2567 27.3454L13.3879 30.4855L14.4409 26.8522C14.4996 26.6414 14.6112 26.449 14.7652 26.2935C14.9192 26.1379 15.1103 26.0244 15.3206 25.9635L18.9664 24.9068L15.8747 22.8084C15.6817 22.69 15.5234 22.5226 15.4159 22.3233C15.3084 22.1239 15.2555 21.8997 15.2627 21.6734L15.3841 17.8846L12.3873 20.2065C12.2168 20.3391 12.0155 20.4265 11.8022 20.4606C11.5888 20.4947 11.3703 20.4741 11.1669 20.4011ZM5.89585 15.7715C5.66689 15.6892 5.41928 15.6737 5.18184 15.7267C4.94439 15.7796 4.72687 15.8989 4.55456 16.0707C4.38226 16.2424 4.26226 16.4596 4.20851 16.6969C4.15477 16.9341 4.1695 17.1818 4.25098 17.411L6.22543 22.8845L2.65605 27.4862C2.50712 27.6789 2.41596 27.9099 2.39318 28.1524C2.3704 28.3949 2.41694 28.6388 2.52738 28.8559C2.63782 29.0729 2.80763 29.2542 3.01704 29.3785C3.22645 29.5029 3.46686 29.5652 3.71031 29.5582L9.5304 29.3717L12.7729 34.1489C12.905 34.358 13.0946 34.5246 13.3191 34.6286C13.5435 34.7326 13.7931 34.7697 14.0381 34.7354C14.2831 34.7011 14.5129 34.5969 14.7002 34.4353C14.8874 34.2737 15.024 34.0615 15.0937 33.8241L16.7143 28.2332L22.3049 26.6117C22.5385 26.5434 22.7479 26.41 22.9087 26.2273C23.0695 26.0445 23.175 25.8199 23.213 25.5794C23.251 25.339 23.2199 25.0927 23.1234 24.8693C23.0268 24.6459 22.8687 24.4545 22.6676 24.3174L17.8525 21.0495L18.036 15.3248C18.0619 15.0739 18.0136 14.8208 17.8971 14.597C17.7806 14.3733 17.601 14.1886 17.3805 14.0659C17.1601 13.9432 16.9085 13.8879 16.6569 13.9068C16.4053 13.9257 16.1648 14.018 15.9652 14.1723L11.3656 17.7445L5.89585 15.7715ZM77.8257 22.6858L79.1147 19.112L75.6468 20.3629C75.4326 20.4613 75.1955 20.4991 74.9613 20.4721C74.7271 20.4451 74.5048 20.3543 74.3186 20.2097L71.3246 17.8844L71.4449 21.6734C71.4517 21.8896 71.4038 22.1041 71.3054 22.2969C71.207 22.4896 71.0614 22.6543 70.8822 22.7756L67.7421 24.9068L71.374 25.9591C71.5848 26.0177 71.7772 26.1293 71.9327 26.2833C72.0882 26.4372 72.2017 26.6284 72.2625 26.8386L73.3194 30.4846L75.4184 27.3936C75.5368 27.2005 75.7042 27.0422 75.9036 26.9348C76.103 26.8273 76.3272 26.7745 76.5536 26.7817L80.3422 26.903L78.0203 23.9064C77.8876 23.7358 77.8002 23.5345 77.7662 23.3211C77.7321 23.1077 77.7527 22.8892 77.8257 22.6858ZM82.4553 17.4147C82.5376 17.1858 82.5531 16.9382 82.5001 16.7007C82.4472 16.4633 82.3279 16.2457 82.1561 16.0734C81.9844 15.9011 81.7672 15.7811 81.5299 15.7274C81.2926 15.6737 81.045 15.6885 80.8158 15.77L75.3422 17.7445L70.7406 14.1751C70.5479 14.0262 70.3168 13.935 70.0744 13.9122C69.8319 13.8895 69.5879 13.936 69.3709 14.0464C69.1538 14.1569 68.9726 14.3267 68.8482 14.5361C68.7239 14.7455 68.6616 14.9859 68.6685 15.2294L68.855 21.0495L64.0777 24.2919C63.8688 24.4241 63.7026 24.6138 63.5987 24.8381C63.4949 25.0623 63.4579 25.3118 63.4921 25.5566C63.5264 25.8014 63.6305 26.0311 63.7919 26.2183C63.9534 26.4054 64.1654 26.5421 64.4025 26.6119L69.9934 28.2323L71.6149 33.8229C71.6832 34.0565 71.8165 34.266 71.9993 34.4268C72.182 34.5876 72.4068 34.6932 72.6472 34.7312C72.8877 34.7692 73.134 34.7381 73.3574 34.6415C73.5809 34.5449 73.7723 34.3868 73.9093 34.1856L77.1773 29.3705L82.9018 29.554C83.1527 29.5798 83.4057 29.5315 83.6295 29.415C83.8532 29.2985 84.0379 29.1189 84.1606 28.8985C84.2833 28.6781 84.3387 28.4265 84.3198 28.1749C84.3009 27.9234 84.2087 27.6828 84.0545 27.4832L80.4823 22.8836L82.4553 17.4147Z" fill="white"/>
</svg>
