<svg width="86" height="85" viewBox="0 0 86 85" fill="none" xmlns="http://www.w3.org/2000/svg">
<g clip-path="url(#clip0_1143_45501)">
<path d="M78.7816 62.3503C78.0197 61.9418 77.1807 61.6976 76.3186 61.6332C75.4566 61.5688 74.5906 61.6858 73.7765 61.9766L57.56 67.7959C57.64 67.5556 57.6934 67.302 57.7335 67.0484C57.8791 66.1713 57.8324 65.2731 57.5966 64.4158C57.3607 63.5586 56.9414 62.7628 56.3676 62.0837C55.7938 61.4045 55.0792 60.8582 54.2734 60.4825C53.4676 60.1068 52.5898 59.9107 51.7007 59.9078H42.7182C40.6494 59.9078 38.6607 59.1871 36.9523 57.8257C33.0416 54.7025 25.1136 50.5917 14.743 56.3442V54.4222C14.743 52.9407 13.5418 51.7395 12.0602 51.7395H6.00073C4.51922 51.7395 3.31799 52.9407 3.31799 54.4222V80.3553C3.31799 81.8369 4.51922 83.0381 6.00073 83.0381H12.0602C13.5418 83.0381 14.743 81.8369 14.743 80.3553V79.2075C16.7584 79.1942 21.6834 79.5011 28.7973 82.2773C33.4153 84.0791 38.2202 85.0001 43.0118 85.0001C45.6678 85.0001 48.3239 84.7198 50.9265 84.1459C58.1072 82.5843 68.8248 79.3944 79.1286 73.0813C80.5167 72.2404 81.5177 70.8256 81.9048 69.2106C82.5454 66.5146 81.2775 63.6983 78.7816 62.3503ZM12.4073 80.3687C12.4073 80.5555 12.2471 80.7157 12.0602 80.7157H6.00073C5.81387 80.7157 5.65371 80.5555 5.65371 80.3687V54.4489C5.65371 54.2621 5.81387 54.1019 6.00073 54.1019H12.0602C12.2471 54.1019 12.4073 54.2621 12.4073 54.4489V80.3687ZM79.6358 68.6901C79.3956 69.7045 78.7816 70.5854 77.9141 71.1059C67.8772 77.2455 57.4265 80.3553 50.4327 81.8769C43.5857 83.3717 36.4051 82.7578 29.6515 80.1151C22.4308 77.2855 17.2922 76.8718 14.9165 76.8718H14.743V59.0403C24.5129 52.9941 31.9205 56.8113 35.4975 59.6676C37.5929 61.3359 40.1556 62.2569 42.7182 62.2569H51.7007C52.8085 62.2569 53.8629 62.7374 54.5836 63.5916C55.3177 64.4458 55.6113 65.5536 55.4245 66.6881C55.2509 67.7425 54.5836 68.6501 53.6627 69.2106C53.5959 69.2373 53.5158 69.2774 53.4625 69.3308C52.8618 69.6511 52.1678 69.8379 51.4337 69.8379H40.4625C39.8219 69.8379 39.288 70.3585 39.288 71.0125C39.288 71.6665 39.8085 72.187 40.4625 72.187H51.4337C52.5949 72.187 53.6894 71.8934 54.637 71.3595L74.564 64.2189C75.0776 64.0389 75.6233 63.9684 76.1658 64.0121C76.7083 64.0558 77.2356 64.2126 77.7139 64.4725C79.2487 65.2599 80.0362 67.0084 79.6358 68.6901ZM28.2768 51.3257H36.2849C36.9256 51.3257 37.4595 50.8052 37.4595 50.1512V34.1349C37.4595 33.4942 36.9389 32.9603 36.2849 32.9603H28.2768C27.6361 32.9603 27.1022 33.4809 27.1022 34.1349V50.1512C27.1022 50.8052 27.6228 51.3257 28.2768 51.3257ZM29.438 35.3094H35.1104V48.99H29.438V35.3094ZM49.6452 51.3257C50.2859 51.3257 50.8198 50.8052 50.8198 50.1512V40.8217C50.8198 40.181 50.2992 39.6472 49.6452 39.6472H41.6371C40.9964 39.6472 40.4625 40.1677 40.4625 40.8217V50.1512C40.4625 50.7919 40.9831 51.3257 41.6371 51.3257H49.6452ZM42.7983 41.9962H48.4707V48.99H42.7983V41.9962ZM62.9922 51.3257C63.6328 51.3257 64.1667 50.8052 64.1667 50.1512V27.4614C64.1667 26.8207 63.6462 26.2869 62.9922 26.2869H54.984C54.3434 26.2869 53.8095 26.8074 53.8095 27.4614V50.1512C53.8095 50.7919 54.33 51.3257 54.984 51.3257H62.9922ZM56.1585 28.6359H61.831V48.99H56.1585V28.6359ZM76.3525 51.3257C76.9931 51.3257 77.527 50.8052 77.527 50.1512V20.7879C77.527 20.1473 77.0065 19.6134 76.3525 19.6134H68.3443C67.7036 19.6134 67.1698 20.1339 67.1698 20.7879V50.1512C67.1698 50.7919 67.6903 51.3257 68.3443 51.3257H76.3525ZM69.5188 21.9625H75.1913V48.99H69.5188V21.9625ZM83.0526 0.340409C82.8324 0.122299 82.535 -6.10352e-05 82.2251 -6.10352e-05C81.9152 -6.10352e-05 81.6178 0.122299 81.3976 0.340409L74.7775 6.96049C74.0701 6.5067 73.2426 6.23976 72.3484 6.23976C70.1595 6.23976 68.3443 7.80135 67.9305 9.87013H64.0599C63.8596 8.84862 63.3111 7.92828 62.5078 7.2662C61.7045 6.60411 60.6964 6.24133 59.6554 6.23976C57.1729 6.23976 55.1442 8.25515 55.1442 10.751C55.1442 11.4718 55.331 12.1391 55.638 12.7531L47.6298 20.7479C47.0292 20.4409 46.3485 20.254 45.6278 20.254C44.7202 20.254 43.866 20.5343 43.1586 21.0015L36.1782 14.021C36.5519 13.367 36.7788 12.6196 36.7788 11.8188C36.7788 9.33625 34.7634 7.30751 32.2675 7.30751C29.7716 7.30751 27.7562 9.3229 27.7562 11.8188C27.7562 14.3147 29.7716 16.33 32.2675 16.33C33.095 16.33 33.8691 16.0898 34.5365 15.6894L41.6104 22.7633C41.3034 23.3639 41.1165 24.0446 41.1165 24.7653C41.1165 27.2478 43.1319 29.2766 45.6278 29.2766C48.1237 29.2766 50.1391 27.2612 50.1391 24.7653C50.1391 23.8577 49.8588 23.0035 49.3916 22.2961L57.1729 14.5149C57.8803 14.982 58.7345 15.2623 59.6421 15.2623C61.6174 15.2623 63.2725 13.981 63.8864 12.2192H68.1041C68.718 13.981 70.373 15.2623 72.3484 15.2623C74.8309 15.2623 76.8596 13.2469 76.8596 10.751C76.8596 10.0036 76.6594 9.3229 76.3391 8.70894L83.0526 1.99543C83.5064 1.52829 83.5064 0.794205 83.0526 0.340409ZM32.2809 13.981C31.8506 13.981 31.43 13.8534 31.0722 13.6143C30.7144 13.3753 30.4356 13.0355 30.2709 12.638C30.1062 12.2404 30.0632 11.803 30.1471 11.381C30.2311 10.959 30.4383 10.5713 30.7425 10.2671C31.0468 9.96283 31.4344 9.75563 31.8564 9.67169C32.2784 9.58774 32.7159 9.63082 33.1134 9.79549C33.5109 9.96015 33.8507 10.239 34.0898 10.5968C34.3288 10.9545 34.4564 11.3751 34.4564 11.8054C34.4564 13.0067 33.4687 13.981 32.2809 13.981ZM45.6411 26.9275C45.2109 26.9275 44.7902 26.7999 44.4325 26.5609C44.0747 26.3218 43.7959 25.982 43.6312 25.5845C43.4665 25.187 43.4235 24.7496 43.5074 24.3275C43.5913 23.9055 43.7985 23.5179 44.1028 23.2136C44.4071 22.9094 44.7947 22.7022 45.2167 22.6182C45.6387 22.5343 46.0762 22.5774 46.4737 22.742C46.8712 22.9067 47.211 23.1855 47.4501 23.5433C47.6891 23.9011 47.8167 24.3217 47.8167 24.752C47.8167 25.9532 46.829 26.9275 45.6411 26.9275ZM59.6554 12.9132C59.2252 12.9132 58.8045 12.7856 58.4468 12.5466C58.089 12.3075 57.8102 11.9678 57.6455 11.5702C57.4808 11.1727 57.4377 10.7353 57.5217 10.3132C57.6056 9.89123 57.8128 9.50359 58.1171 9.19933C58.4213 8.89507 58.809 8.68787 59.231 8.60393C59.653 8.51998 60.0905 8.56307 60.488 8.72773C60.8855 8.89239 61.2253 9.17124 61.4643 9.52901C61.7034 9.88677 61.831 10.3074 61.831 10.7377C61.831 11.9389 60.8433 12.9132 59.6554 12.9132ZM72.3484 12.9132C71.7714 12.9132 71.218 12.684 70.81 12.276C70.402 11.868 70.1728 11.3147 70.1728 10.7377C70.1728 10.1607 70.402 9.60733 70.81 9.19933C71.218 8.79134 71.7714 8.56213 72.3484 8.56213C72.9254 8.56213 73.4787 8.79134 73.8867 9.19933C74.2947 9.60733 74.5239 10.1607 74.5239 10.7377C74.5239 11.3147 74.2947 11.868 73.8867 12.276C73.4787 12.684 72.9254 12.9132 72.3484 12.9132Z" fill="#FFC107"/>
<path d="M28.2768 51.3257H36.2849C36.9256 51.3257 37.4595 50.8052 37.4595 50.1512V34.1349C37.4595 33.4942 36.9389 32.9603 36.2849 32.9603H28.2768C27.6361 32.9603 27.1022 33.4809 27.1022 34.1349V50.1512C27.1022 50.8052 27.6228 51.3257 28.2768 51.3257ZM29.438 35.3094H35.1104V48.99H29.438V35.3094ZM49.6452 51.3257C50.2859 51.3257 50.8198 50.8052 50.8198 50.1512V40.8217C50.8198 40.181 50.2992 39.6472 49.6452 39.6472H41.6371C40.9964 39.6472 40.4625 40.1677 40.4625 40.8217V50.1512C40.4625 50.7919 40.9831 51.3257 41.6371 51.3257H49.6452ZM42.7982 41.9962H48.4707V48.99H42.7982V41.9962ZM62.9922 51.3257C63.6328 51.3257 64.1667 50.8052 64.1667 50.1512V27.4614C64.1667 26.8207 63.6462 26.2869 62.9922 26.2869H54.984C54.3433 26.2869 53.8095 26.8074 53.8095 27.4614V50.1512C53.8095 50.7919 54.33 51.3257 54.984 51.3257H62.9922ZM56.1585 28.6359H61.831V48.99H56.1585V28.6359ZM76.3525 51.3257C76.9931 51.3257 77.527 50.8052 77.527 50.1512V20.7879C77.527 20.1473 77.0065 19.6134 76.3525 19.6134H68.3443C67.7036 19.6134 67.1698 20.1339 67.1698 20.7879V50.1512C67.1698 50.7919 67.6903 51.3257 68.3443 51.3257H76.3525ZM69.5188 21.9625H75.1913V48.99H69.5188V21.9625ZM83.0526 0.340409C82.8324 0.122299 82.535 -6.10352e-05 82.2251 -6.10352e-05C81.9152 -6.10352e-05 81.6178 0.122299 81.3976 0.340409L74.7775 6.96049C74.0701 6.5067 73.2426 6.23976 72.3484 6.23976C70.1595 6.23976 68.3443 7.80135 67.9305 9.87013H64.0599C63.8596 8.84862 63.3111 7.92828 62.5078 7.2662C61.7045 6.60411 60.6964 6.24133 59.6554 6.23976C57.1729 6.23976 55.1442 8.25515 55.1442 10.751C55.1442 11.4718 55.331 12.1391 55.638 12.7531L47.6298 20.7479C47.0292 20.4409 46.3485 20.254 45.6278 20.254C44.7202 20.254 43.866 20.5343 43.1586 21.0015L36.1782 14.021C36.5519 13.367 36.7788 12.6196 36.7788 11.8188C36.7788 9.33625 34.7634 7.30751 32.2675 7.30751C29.7716 7.30751 27.7562 9.3229 27.7562 11.8188C27.7562 14.3147 29.7716 16.33 32.2675 16.33C33.095 16.33 33.8691 16.0898 34.5365 15.6894L41.6104 22.7633C41.3034 23.3639 41.1165 24.0446 41.1165 24.7653C41.1165 27.2478 43.1319 29.2766 45.6278 29.2766C48.1237 29.2766 50.1391 27.2612 50.1391 24.7653C50.1391 23.8577 49.8588 23.0035 49.3916 22.2961L57.1729 14.5149C57.8803 14.982 58.7345 15.2623 59.6421 15.2623C61.6174 15.2623 63.2725 13.981 63.8864 12.2192H68.104C68.718 13.981 70.373 15.2623 72.3484 15.2623C74.8309 15.2623 76.8596 13.2469 76.8596 10.751C76.8596 10.0036 76.6594 9.3229 76.3391 8.70894L83.0526 1.99543C83.5064 1.52829 83.5064 0.794205 83.0526 0.340409ZM32.2808 13.981C31.8506 13.981 31.4299 13.8534 31.0722 13.6143C30.7144 13.3753 30.4356 13.0355 30.2709 12.638C30.1062 12.2404 30.0632 11.803 30.1471 11.381C30.231 10.959 30.4382 10.5713 30.7425 10.2671C31.0468 9.96283 31.4344 9.75563 31.8564 9.67169C32.2784 9.58774 32.7159 9.63082 33.1134 9.79549C33.5109 9.96015 33.8507 10.239 34.0898 10.5968C34.3288 10.9545 34.4564 11.3751 34.4564 11.8054C34.4564 13.0067 33.4687 13.981 32.2808 13.981ZM45.6411 26.9275C45.2109 26.9275 44.7902 26.7999 44.4325 26.5609C44.0747 26.3218 43.7959 25.982 43.6312 25.5845C43.4665 25.187 43.4234 24.7496 43.5074 24.3275C43.5913 23.9055 43.7985 23.5179 44.1028 23.2136C44.407 22.9094 44.7947 22.7022 45.2167 22.6182C45.6387 22.5343 46.0762 22.5774 46.4737 22.742C46.8712 22.9067 47.211 23.1855 47.45 23.5433C47.6891 23.9011 47.8167 24.3217 47.8167 24.752C47.8167 25.9532 46.829 26.9275 45.6411 26.9275ZM59.6554 12.9132C59.2252 12.9132 58.8045 12.7856 58.4468 12.5466C58.089 12.3075 57.8101 11.9678 57.6455 11.5702C57.4808 11.1727 57.4377 10.7353 57.5217 10.3132C57.6056 9.89123 57.8128 9.50359 58.1171 9.19933C58.4213 8.89507 58.809 8.68787 59.231 8.60393C59.653 8.51998 60.0905 8.56307 60.488 8.72773C60.8855 8.89239 61.2253 9.17124 61.4643 9.52901C61.7034 9.88677 61.831 10.3074 61.831 10.7377C61.831 11.9389 60.8433 12.9132 59.6554 12.9132ZM72.3484 12.9132C71.7714 12.9132 71.218 12.684 70.81 12.276C70.402 11.868 70.1728 11.3147 70.1728 10.7377C70.1728 10.1607 70.402 9.60733 70.81 9.19933C71.218 8.79134 71.7714 8.56213 72.3484 8.56213C72.9254 8.56213 73.4787 8.79134 73.8867 9.19933C74.2947 9.60733 74.5239 10.1607 74.5239 10.7377C74.5239 11.3147 74.2947 11.868 73.8867 12.276C73.4787 12.684 72.9254 12.9132 72.3484 12.9132Z" fill="white"/>
</g>
<defs>
<clipPath id="clip0_1143_45501">
<rect width="85" height="85" fill="white" transform="translate(0.855469)"/>
</clipPath>
</defs>
</svg>
