<svg width="340" height="351" viewBox="0 0 340 351" fill="none" xmlns="http://www.w3.org/2000/svg">
<g clip-path="url(#clip0_1048_44165)">
<path d="M37.3569 0.50061H36.5828V105.4H37.3569V0.50061Z" fill="#C7C7C7"/>
<path d="M73.4331 140.548L70.4913 146.973H3.44854L0.506714 140.548L29.0734 120.806H44.8664L73.4331 140.548Z" fill="#EBEBEB"/>
<path d="M46.8793 101.762L44.8665 120.807H29.0735L27.0607 101.762H46.8793Z" fill="#DBDBDB"/>
<path d="M73.4331 140.547L70.4913 146.973H3.44854L0.506714 140.547H73.4331Z" fill="#DBDBDB"/>
<path d="M115.548 0.50061H114.774V84.6524H115.548V0.50061Z" fill="#C7C7C7"/>
<path d="M151.624 119.799L148.682 126.225H81.7166L78.7747 119.799L107.264 99.9803H123.134L151.624 119.799Z" fill="#EBEBEB"/>
<path d="M125.07 81.0135L123.135 99.9806H107.264L105.329 81.0135H125.07Z" fill="#DBDBDB"/>
<path d="M151.624 119.799L148.682 126.225H81.7166L78.7748 119.799H151.624Z" fill="#DBDBDB"/>
<path d="M13.8224 173.372L6.1582 185.682L9.95161 188.004C11.0354 188.701 11.6548 189.94 11.4999 191.256C11.4225 191.952 11.4225 192.649 11.4225 193.346C11.4225 194.662 10.8032 195.901 9.64195 196.52L5.77112 198.688L12.6612 211.461L16.6094 209.371C17.7707 208.752 19.0868 208.829 20.1706 209.526C20.7899 209.99 21.4867 210.378 22.106 210.765C23.2673 211.384 23.8866 212.545 23.8866 213.861L23.7318 218.274L38.2087 218.739L38.3635 214.326C38.3635 213.01 39.1377 211.926 40.2989 211.384C40.6086 211.229 40.9957 211.074 41.3053 210.842C41.615 210.687 42.0021 210.455 42.3118 210.3C43.3956 209.603 44.7891 209.603 45.8729 210.3L49.6663 212.623L57.3306 200.313L53.5372 197.913C52.4533 197.217 51.834 195.978 51.9888 194.662C52.0662 193.965 52.0662 193.268 52.0662 192.572C52.0662 191.256 52.6856 190.017 53.8468 189.398L57.7951 187.307L50.905 174.534L46.9567 176.624C45.7955 177.243 44.402 177.088 43.3182 176.392C42.7762 176.005 42.1569 175.617 41.5376 175.308C40.3763 174.688 39.6796 173.527 39.6796 172.211L39.8344 167.721L25.3575 167.256L25.2027 171.669C25.1253 172.985 24.3511 174.069 23.1899 174.688C22.8802 174.843 22.5705 174.998 22.2609 175.153C21.9512 175.308 21.6415 175.463 21.3319 175.695C20.248 176.392 18.8545 176.392 17.6933 175.695L13.8224 173.372ZM24.8156 183.359C31.1638 178.792 40.0667 181.501 42.8537 188.778C44.7891 193.733 43.0085 199.539 38.6732 202.636C32.325 207.203 23.4221 204.494 20.6351 197.217C18.6997 192.262 20.4803 186.456 24.8156 183.359Z" fill="#EBEBEB"/>
<path d="M331.618 53.1441C330.921 52.757 330.611 52.0602 330.611 51.2861C330.611 51.0538 330.611 50.899 330.611 50.6667C330.611 50.4345 330.611 50.2797 330.611 50.0474C330.534 49.2732 330.921 48.5765 331.618 48.1894L333.863 46.8733L329.605 39.5188L327.36 40.8348C326.663 41.2219 325.889 41.1445 325.269 40.7574C324.882 40.5252 324.573 40.2929 324.186 40.1381C323.489 39.8284 323.102 39.1317 323.102 38.3575V35.7253H314.586V38.3575C314.586 39.1317 314.121 39.8284 313.502 40.1381C313.115 40.2929 312.728 40.5252 312.418 40.7574C311.799 41.1445 310.947 41.2219 310.328 40.8348L308.083 39.5188L303.825 46.8733L306.07 48.1894C306.767 48.5765 307.076 49.2732 307.076 50.0474C307.076 50.2797 307.076 50.4345 307.076 50.6667C307.076 50.899 307.076 51.0538 307.076 51.2861C307.154 52.0602 306.767 52.757 306.07 53.1441L303.825 54.4602L308.083 61.8147L310.328 60.4987C311.025 60.1116 311.799 60.189 312.418 60.5761C312.805 60.8083 313.115 61.0406 313.502 61.1954C314.199 61.5051 314.586 62.2018 314.586 62.976V65.6081H323.102V62.976C323.102 62.2018 323.566 61.5051 324.186 61.1954C324.573 61.0406 324.96 60.8083 325.269 60.5761C325.889 60.189 326.74 60.1116 327.36 60.4987L329.605 61.8147L333.863 54.4602L331.618 53.1441ZM318.766 57.6342C314.896 57.6342 311.799 54.5376 311.799 50.6667C311.799 46.7959 314.896 43.6993 318.766 43.6993C322.637 43.6993 325.734 46.7959 325.734 50.6667C325.734 54.4602 322.637 57.6342 318.766 57.6342Z" fill="#EBEBEB"/>
<path d="M139.624 247.381C139.005 247.072 138.618 246.375 138.618 245.678C138.618 245.291 138.618 244.981 138.618 244.672C138.618 244.362 138.541 243.975 138.695 243.665C138.773 243.356 138.928 243.046 139.237 242.736C139.47 242.504 139.779 242.349 140.089 242.117L141.869 241.033V241.11L137.534 233.756H137.612L135.212 235.149C134.747 235.382 134.283 235.459 133.818 235.304C133.354 235.227 132.967 234.917 132.579 234.685L131.96 234.375C131.728 234.298 131.573 234.143 131.418 233.911C131.109 233.524 130.876 233.059 130.799 232.595V229.808L130.954 229.962L122.438 230.04L122.67 229.808V232.595C122.67 233.137 122.438 233.601 122.051 233.988C121.896 234.22 121.664 234.375 121.431 234.453L120.812 234.762L120.193 235.072C119.961 235.227 119.728 235.304 119.496 235.382C118.954 235.536 118.412 235.459 117.948 235.227L115.548 233.833L116.012 233.678L111.754 241.11L111.6 240.569L113.999 241.962C114.464 242.272 114.774 242.736 114.928 243.278C115.006 243.51 115.006 243.82 115.006 244.052V244.749V245.446C115.006 245.678 115.006 245.988 114.928 246.22C114.774 246.762 114.464 247.226 113.999 247.536L111.6 248.93L111.754 248.465L116.012 255.897L115.548 255.82L117.948 254.504C118.412 254.271 118.954 254.194 119.496 254.349C119.728 254.426 119.961 254.504 120.193 254.658L120.812 254.968L121.431 255.278C121.664 255.433 121.896 255.587 122.051 255.742C122.36 256.129 122.593 256.594 122.67 257.136V259.923L122.438 259.69L130.954 259.768L130.799 259.923V257.136C130.799 256.671 131.031 256.207 131.341 255.82C131.65 255.433 132.115 255.278 132.502 255.045C132.889 254.813 133.276 254.581 133.741 254.426C134.205 254.349 134.67 254.349 135.134 254.581L137.534 255.974H137.457L141.715 248.62L139.624 247.381ZM139.624 247.381L141.869 248.697L137.612 256.129L135.212 254.736C134.825 254.504 134.36 254.504 133.896 254.581C133.431 254.658 133.121 254.968 132.657 255.2C132.27 255.433 131.805 255.587 131.573 255.974C131.263 256.284 131.109 256.749 131.109 257.136V259.845V260H130.954L122.438 260.078H122.206V259.845V257.136C122.206 256.749 121.973 256.362 121.741 256.052C121.586 255.897 121.431 255.82 121.277 255.665L120.657 255.355L120.038 255.045C119.883 254.968 119.651 254.891 119.496 254.813C119.109 254.736 118.722 254.813 118.335 254.968L116.012 256.362L115.703 256.516L115.548 256.207L111.212 248.852L111.058 248.542L111.367 248.388L113.69 246.994C113.999 246.762 114.232 246.452 114.309 246.143C114.387 245.988 114.387 245.755 114.387 245.601V244.904V244.207C114.387 244.052 114.387 243.82 114.309 243.665C114.232 243.278 113.999 242.968 113.69 242.814L111.367 241.42L111.058 241.265L111.212 240.956L115.47 233.601L115.625 233.291L115.935 233.446L118.257 234.84C118.567 234.995 119.032 235.072 119.341 234.995C119.496 234.917 119.728 234.917 119.883 234.762L120.502 234.453L121.122 234.143C121.277 234.066 121.431 233.911 121.586 233.756C121.819 233.446 122.051 233.137 122.051 232.672V229.962V229.73H122.283L130.799 229.808H130.954V229.962V232.672C130.954 233.059 131.186 233.524 131.418 233.833C131.728 234.143 132.115 234.298 132.502 234.607C132.889 234.84 133.276 235.149 133.663 235.227C134.05 235.304 134.515 235.304 134.902 235.072L137.302 233.756H137.379V233.833L141.637 241.265L139.857 242.272C139.547 242.427 139.237 242.581 139.005 242.814C138.773 243.046 138.618 243.356 138.463 243.665C138.386 243.975 138.386 244.362 138.386 244.672C138.386 244.981 138.386 245.368 138.386 245.678C138.618 246.297 139.005 246.994 139.624 247.381Z" fill="#EBEBEB"/>
<path d="M126.696 251.794C124.838 251.794 123.057 251.097 121.741 249.781C120.425 248.542 119.573 246.684 119.573 244.826C119.496 242.968 120.27 241.033 121.586 239.639C122.902 238.246 124.838 237.472 126.773 237.472C128.709 237.472 130.644 238.246 131.96 239.639C133.276 241.033 134.05 242.968 133.973 244.826C133.895 246.684 133.121 248.542 131.805 249.781C130.334 251.097 128.554 251.871 126.696 251.794ZM126.696 251.794C128.554 251.794 130.334 251.019 131.573 249.703C132.812 248.387 133.508 246.607 133.431 244.826C133.354 243.046 132.579 241.342 131.341 240.104C130.102 238.865 128.399 238.168 126.618 238.246C124.915 238.246 123.135 238.942 121.896 240.104C120.657 241.342 119.883 243.046 119.806 244.826C119.728 246.607 120.425 248.387 121.664 249.703C123.057 251.097 124.838 251.794 126.696 251.794Z" fill="#EBEBEB"/>
<path d="M0.119629 339.429L42.5439 339.197L84.9682 339.119L169.817 339.042L254.743 339.119L297.167 339.197L339.591 339.429L297.167 339.584L254.743 339.661L169.817 339.816L84.9682 339.661L42.5439 339.584L0.119629 339.429Z" fill="#263238"/>
<path d="M332.624 70.1754H204.267V199.926H332.624V70.1754Z" fill="#EBEBEB"/>
<path d="M263.259 62.3569C267.517 57.3248 274.871 56.0861 281.993 57.5571C289.116 58.9506 297.554 62.5891 298.406 74.4339C299.025 84.0335 296.083 93.4784 296.083 104.162C296.161 114.923 308.238 141.09 288.806 153.863C271.31 165.321 235.853 154.792 234.769 131.18C233.918 112.445 256.136 95.1815 258.459 87.7495C260.781 80.3175 258.614 67.8535 263.259 62.3569Z" fill="#263B59"/>
<path d="M260.085 72.8855C259.93 78.2272 259.156 83.6464 256.988 88.7559C256.446 89.9946 255.672 91.2332 254.82 92.3171C253.969 93.4009 253.04 94.4073 252.111 95.4137C250.253 97.4266 248.472 99.4394 246.691 101.452C243.208 105.555 240.266 110.045 238.098 114.923C236.008 119.8 234.847 125.064 234.692 130.406C234.46 127.696 234.537 124.987 234.924 122.355C235.311 119.645 236.008 117.013 237.014 114.458C238.95 109.349 241.969 104.704 245.453 100.446C247.233 98.3556 249.091 96.3427 250.949 94.3299C252.807 92.3171 254.665 90.4591 255.827 88.1366C257.065 85.8141 257.839 83.2593 258.536 80.7046C259.233 78.2272 259.697 75.5951 260.085 72.8855Z" fill="#263B59"/>
<path d="M297.864 82.485C297.709 87.9816 297.399 93.4007 297.554 98.8199C297.632 101.529 297.786 104.239 298.251 106.871C298.638 109.503 299.412 112.136 300.109 114.768C300.728 117.4 301.348 120.109 301.812 122.896C302.199 125.606 302.431 128.393 302.354 131.18C302.199 133.967 301.735 136.677 300.806 139.309C299.799 141.941 298.251 144.263 296.238 146.199C297.941 144.031 299.335 141.631 300.109 139.077C300.883 136.522 301.193 133.812 301.193 131.103C301.115 125.683 300.032 120.419 298.638 115.077C298.019 112.445 297.245 109.813 296.857 107.026C296.47 104.239 296.393 101.529 296.47 98.7425C296.47 93.4007 297.09 87.9041 297.864 82.485Z" fill="#263B59"/>
<path d="M269.762 128.468C251.956 148.055 237.402 157.5 223.08 157.5C209.454 157.5 180.346 124.443 178.255 120.107C176.397 116.314 200.319 95.7986 203.958 98.3534C210.151 102.611 230.047 127.462 232.137 127.617C234.305 127.694 241.969 122.585 260.704 113.837C272.007 108.495 282.071 114.921 269.762 128.468Z" fill="#EB9481"/>
<path d="M180.965 123.359C178.333 120.494 167.34 106.404 165.172 101.759C163.004 97.1144 157.74 83.4116 161.069 81.3988C164.398 79.386 166.333 83.2568 166.333 83.2568C166.333 83.2568 165.017 77.1409 168.578 75.3603C172.139 73.6571 174.849 79.773 174.849 79.773C174.849 79.773 173.997 73.3475 177.636 71.8765C181.352 70.4056 182.978 77.0635 182.978 77.0635C182.978 77.0635 181.894 71.2572 185.455 71.3346C189.713 71.412 190.487 82.4052 193.274 87.2824C193.893 88.3663 207.674 108.959 207.674 108.959L180.965 123.359Z" fill="#EB9481"/>
<path d="M182.9 76.5219C183.52 84.5732 185.145 87.9795 189.868 94.4051C189.945 94.5599 189.79 94.7148 189.713 94.5599C184.526 88.6763 181.816 84.728 182.513 76.5219C182.591 76.1348 182.9 76.1348 182.9 76.5219Z" fill="#263B59"/>
<path d="M174.849 79.1537C176.165 87.5147 177.946 91.2306 182.436 98.2756C182.513 98.353 182.358 98.5078 182.281 98.4304C177.326 91.85 174.694 87.8243 174.462 79.3085C174.462 78.9214 174.772 78.7666 174.849 79.1537Z" fill="#263B59"/>
<path d="M166.565 83.5668C168.423 91.5407 170.204 95.7212 175.391 101.992C175.546 102.147 175.313 102.302 175.159 102.224C169.198 96.3406 166.952 91.1537 166.256 83.6443C166.333 83.1798 166.488 83.1023 166.565 83.5668Z" fill="#263B59"/>
<path d="M213.867 110.972C213.867 110.972 213.712 100.831 212.628 96.418C211.544 92.0053 201.558 76.909 198.151 78.9219C193.816 81.4766 197.842 91.3085 200.474 95.8761C200.474 95.8761 190.41 101.76 191.803 109.501C193.197 117.088 213.867 110.972 213.867 110.972Z" fill="#EB9481"/>
<path d="M197.222 79.9277C194.9 85.1146 198.771 90.9209 201.016 95.4885C201.171 95.8756 200.938 96.1078 200.706 96.1852C196.603 98.9722 191.726 104.004 191.648 109.191C191.648 109.346 191.416 109.346 191.416 109.191C190.719 103.617 195.132 98.198 199.777 95.4885C197.377 90.8435 193.739 84.9598 197.222 79.9277Z" fill="#263B59"/>
<path d="M239.027 121.811L253.349 148.519C253.349 148.519 272.781 129.707 275.878 121.811C278.974 113.992 275.645 108.263 261.865 112.443C247.93 116.701 239.027 121.811 239.027 121.811Z" fill="#FFC107"/>
<path d="M256.601 142.945C255.904 141.475 255.285 140.004 254.511 138.533C253.814 137.139 253.04 135.668 252.266 134.275C250.717 131.41 249.169 128.546 247.543 125.759C246.614 124.211 245.685 122.585 244.679 121.114C244.601 121.037 244.524 121.114 244.524 121.191C247.156 127.075 250.33 132.726 253.504 138.3C254.433 139.926 255.44 141.475 256.446 143.023C256.601 143.1 256.678 143.023 256.601 142.945Z" fill="#263B59"/>
<path d="M275.8 121.811C272.703 129.63 253.272 148.519 253.272 148.519L243.672 130.559L275.49 112.985C277.271 114.921 277.271 118.095 275.8 121.811Z" fill="#263B59"/>
<path d="M242.279 166.791C242.279 166.791 234.382 185.603 237.169 199.925H323.876C321.089 160.985 301.657 127.541 290.2 116.702C280.987 107.954 271.233 108.728 264.42 113.219C262.794 114.302 245.221 138.611 243.285 142.482C235.776 157.578 242.279 166.791 242.279 166.791Z" fill="#FFC107"/>
<path d="M265.039 112.057C265.039 112.057 259.62 127.618 262.794 128.47C270.613 130.483 281.142 117.709 281.761 116.393C281.916 116.083 282.613 107.335 283.155 100.522C283.464 96.187 283.774 92.6259 283.774 92.6259L264.497 99.2063L265.117 111.206L265.039 112.057Z" fill="#EB9481"/>
<path d="M264.342 99.2064L264.962 111.206C268.91 110.664 277.503 108.496 283.077 100.522C283.387 96.1871 283.697 92.626 283.697 92.626L281.297 93.4001L264.342 99.2064Z" fill="#263B59"/>
<path d="M250.02 82.4838C249.788 88.5223 250.408 93.4769 251.878 96.7284C255.517 104.702 263.026 106.328 266.278 106.406C268.6 106.483 275.258 105.864 280.135 102.225C283.929 99.3606 286.174 94.1737 287.49 85.116C290.432 64.3683 280.91 57.4008 271.542 56.5492C262.097 55.6977 250.795 61.5813 250.02 82.4838Z" fill="#EB9481"/>
<path d="M255.362 77.8398C255.827 77.7624 256.291 77.6075 256.756 77.5301C257.298 77.3753 257.762 77.3753 258.149 76.9108C258.381 76.6785 258.304 76.214 258.149 75.9818C257.685 75.4399 256.988 75.4399 256.291 75.5947C255.594 75.7495 255.053 75.9818 254.588 76.6011C254.201 77.143 254.743 77.9172 255.362 77.8398Z" fill="#263B59"/>
<path d="M269.065 78.3808C268.6 78.3034 268.136 78.1485 267.671 78.0711C267.13 77.9163 266.665 77.9163 266.278 77.4518C266.046 77.2195 266.123 76.755 266.278 76.5228C266.742 75.9809 267.439 75.9809 268.136 76.1357C268.833 76.2905 269.375 76.6002 269.839 77.1421C270.226 77.684 269.684 78.4582 269.065 78.3808Z" fill="#263B59"/>
<path d="M265.659 83.6456C265.659 83.5682 265.736 83.723 265.736 83.8004C265.659 85.1939 265.736 86.8971 266.975 87.439C267.052 87.439 266.975 87.5164 266.975 87.5164C265.426 87.1294 265.272 84.9617 265.659 83.6456Z" fill="#263B59"/>
<path d="M266.975 82.1745C269.297 82.0971 269.22 86.7421 267.13 86.7421C264.962 86.8195 265.039 82.252 266.975 82.1745Z" fill="#263B59"/>
<path d="M267.904 82.4071C268.291 82.6393 268.678 83.1038 269.142 83.1813C269.684 83.2587 270.149 82.7942 270.536 82.3297C270.536 82.2523 270.613 82.3297 270.613 82.4071C270.613 83.2587 270.304 84.1877 269.297 84.3425C268.446 84.4199 267.826 83.6458 267.594 82.7942C267.594 82.5619 267.671 82.3297 267.904 82.4071Z" fill="#263B59"/>
<path d="M257.994 83.0256C257.994 82.9482 257.917 83.103 257.917 83.1805C257.994 84.574 257.762 86.2771 256.446 86.7416C256.369 86.7416 256.446 86.819 256.446 86.819C257.994 86.5094 258.227 84.3417 257.994 83.0256Z" fill="#263B59"/>
<path d="M256.756 81.5545C254.433 81.3997 254.278 85.9673 256.369 86.1221C258.459 86.2769 258.614 81.6319 256.756 81.5545Z" fill="#263B59"/>
<path d="M255.749 81.7868C255.362 82.0191 254.975 82.4061 254.588 82.4836C254.046 82.4836 253.737 82.0191 253.427 81.4771C253.427 81.3997 253.349 81.4771 253.349 81.5546C253.272 82.4061 253.582 83.3351 254.356 83.5674C255.13 83.7222 255.749 83.0255 255.982 82.1739C255.982 81.9416 255.904 81.7094 255.749 81.7868Z" fill="#263B59"/>
<path d="M265.504 94.7161C265.194 95.0258 264.884 95.5677 264.342 95.5677C263.878 95.6451 263.259 95.4129 262.794 95.2581C262.717 95.2581 262.717 95.2581 262.717 95.3355C263.104 95.8774 263.878 96.1871 264.575 96.0322C265.194 95.8774 265.504 95.3355 265.659 94.7161C265.659 94.6387 265.504 94.6387 265.504 94.7161Z" fill="#263B59"/>
<path d="M259.62 89.4518C259.62 89.4518 259.31 91.542 259.233 92.5484C259.233 92.6258 259.465 92.7033 259.852 92.7033C259.852 92.7033 259.852 92.7033 259.93 92.7033C261.71 93.0129 263.491 92.471 264.575 91.0001C264.652 90.9227 264.497 90.7678 264.42 90.8453C263.104 91.7743 261.633 92.0065 260.007 92.0065C259.93 91.6968 260.704 88.3679 260.549 88.3679C260.007 88.2905 258.923 88.6776 258.227 88.8324C258.768 84.4197 260.085 80.0843 260.626 75.5942C260.626 75.4394 260.394 75.3619 260.394 75.5168C258.691 79.9295 257.917 85.039 257.22 89.6066C257.143 90.3033 259.233 89.6066 259.62 89.4518Z" fill="#263B59"/>
<path d="M260.549 92.1613C260.549 92.1613 261.323 93.3999 262.562 93.9418C263.027 94.1741 263.491 94.2515 263.956 94.1741C265.039 94.0193 265.117 93.0129 264.962 92.2387C264.885 91.5419 264.575 90.9226 264.575 90.9226C264.575 90.9226 262.949 92.2387 260.549 92.1613Z" fill="#263B59"/>
<path d="M262.485 94.0192C262.949 94.2515 263.414 94.3289 263.878 94.2515C264.962 94.0966 265.039 93.0902 264.884 92.316C263.801 92.2386 262.639 92.9354 262.485 94.0192Z" fill="#FF98B9"/>
<path d="M287.026 83.2587C284.781 83.3362 278.278 77.6073 277.116 66.6916C277.116 66.6916 278.819 76.4461 279.748 77.8396C280.6 79.2331 276.11 74.6655 275.026 65.84C275.026 65.84 270.458 69.7883 266.355 71.3366C262.252 72.8849 259.698 73.1172 259.388 72.8075C259.078 72.4978 265.039 70.0205 266.51 68.0077C266.51 68.0077 255.904 74.201 250.795 75.0526C250.175 75.13 251.182 65.9948 258.614 60.1112C266.046 54.2275 276.265 55.6984 279.981 58.6403C279.981 58.6403 284.006 58.8725 288.806 64.2917C293.683 69.7108 289.503 83.1813 287.026 83.2587Z" fill="#263B59"/>
<path d="M284.006 86.5873C284.006 86.5873 288.264 79.8521 291.283 81.323C294.303 82.7939 291.361 92.471 287.955 93.9419C284.548 95.4128 283.155 92.2387 283.155 92.2387L284.006 86.5873Z" fill="#EB9481"/>
<path d="M290.354 84.1097C290.432 84.1097 290.432 84.1872 290.354 84.1872C287.955 85.271 286.793 87.5935 286.019 89.9934C286.716 89.0644 287.645 88.5225 288.884 89.2967C288.961 89.3741 288.884 89.4515 288.806 89.4515C287.8 89.2967 287.103 89.5289 286.484 90.3031C286.019 90.9224 285.709 91.6191 285.4 92.3159C285.322 92.5481 284.858 92.4707 284.935 92.1611C284.935 92.1611 284.935 92.1611 284.935 92.0837C284.858 89.0644 287.026 84.5742 290.354 84.1097Z" fill="#263B59"/>
<path d="M296.935 120.961C305.528 130.87 329.527 166.714 323.953 176.391C318.611 185.681 306.457 188.313 299.49 175.849C294.458 166.946 286.019 140.315 283.929 127.541C282.226 117.09 288.961 111.748 296.935 120.961Z" fill="#EB9481"/>
<path d="M288.883 152.701L317.295 142.25C317.295 142.25 301.347 120.419 293.993 116.238C286.638 112.058 280.522 114.612 282.767 128.857C285.09 143.102 288.883 152.701 288.883 152.701Z" fill="#FFC107"/>
<path d="M312.263 138.148C310.715 138.612 309.167 139.077 307.618 139.541C306.07 140.083 304.599 140.625 303.051 141.167C300.031 142.328 297.012 143.412 293.993 144.651C292.29 145.348 290.587 146.044 288.961 146.819C288.883 146.819 288.884 146.973 289.038 146.973C295.232 145.193 301.27 142.793 307.231 140.47C308.934 139.774 310.638 138.922 312.341 138.225C312.418 138.225 312.341 138.148 312.263 138.148Z" fill="#263B59"/>
<path d="M290.509 152.004C289.967 152.082 289.425 152.314 288.883 152.546C288.109 150.843 286.251 143.488 285.864 141.553C285.013 137.76 284.316 133.966 283.387 130.173C283.387 130.095 283.155 130.095 283.155 130.173C283.387 132.263 283.774 134.353 284.084 136.444C283.696 135.437 283.309 134.431 283 133.424C283 133.347 282.922 133.424 282.922 133.424C283.309 134.663 283.696 135.902 284.238 137.14C284.548 141.011 288.032 153.32 288.187 153.243C288.729 153.011 290.045 152.391 290.509 152.004C290.587 152.082 290.587 152.004 290.509 152.004Z" fill="#263B59"/>
<path d="M276.419 79.1546L268.368 113.682C267.981 114.689 268.523 115.54 269.529 115.463L285.013 118.637C286.019 118.637 287.103 117.786 287.412 116.779L295.464 82.2513C295.851 81.2449 295.309 80.3933 294.303 80.4707L278.819 77.2966C277.89 77.2966 276.806 78.1482 276.419 79.1546Z" fill="#A6A6A6"/>
<path d="M277.813 79.31L269.761 113.838C269.374 114.844 269.916 115.696 270.923 115.618L286.406 118.792C287.412 118.792 288.496 117.941 288.806 116.934L296.857 82.4067C297.244 81.4003 296.702 80.5487 295.696 80.6261L280.213 77.452C279.206 77.452 278.122 78.3036 277.813 79.31Z" fill="#DBDBDB"/>
<path d="M282.69 80.7805C282.69 81.6321 281.993 82.2514 281.142 82.2514C280.29 82.2514 279.671 81.5547 279.671 80.7031C279.671 79.8515 280.368 79.2322 281.219 79.2322C281.993 79.3096 282.69 80.0063 282.69 80.7805Z" fill="#263B59"/>
<path d="M303.67 178.946C308.702 188.236 322.018 182.972 324.031 176.391C328.753 160.985 325.811 135.438 323.024 121.193C322.095 116.625 290.896 121.116 291.129 126.148C291.283 132.109 293.761 160.676 303.67 178.946Z" fill="#EB9481"/>
<path d="M322.637 128.007C322.637 128.007 325.269 118.175 322.947 107.415C321.321 99.9825 315.979 84.2669 294.38 77.222C289.27 75.5189 280.755 76.835 288.187 82.5638C293.451 86.6669 297.941 87.6733 300.573 90.6151C300.573 90.6151 289.967 93.4795 288.496 98.6664C287.8 100.989 286.174 107.337 285.632 112.524C285.632 112.524 286.716 112.989 288.187 113.298C288.187 113.298 287.18 119.646 291.206 126.227L322.637 128.007Z" fill="#EB9481"/>
<path d="M320.16 100.601C316.986 98.2016 310.096 93.3243 303.051 91.3115C295.232 89.0664 279.593 86.7439 277.968 92.5502C276.806 96.8081 282.69 98.2016 282.69 98.2016C282.69 98.2016 276.032 98.5886 275.8 102.692C275.568 106.408 280.213 107.182 280.213 107.182C280.213 107.182 276.187 108.111 276.729 111.749C277.271 116.085 285.555 113.375 289.967 117.246C290.896 118.02 320.16 100.601 320.16 100.601Z" fill="#EB9481"/>
<path d="M302.044 99.9042C298.638 98.2011 289.967 96.1883 282.845 97.9688C282.69 98.0463 282.613 98.1237 282.767 98.1237C291.051 97.8914 298.793 99.2075 302.044 99.9042Z" fill="#263B59"/>
<path d="M299.489 107.724C296.393 106.562 287.412 104.937 280.213 106.949C280.058 107.027 279.98 107.182 280.135 107.104C288.806 106.485 296.238 107.182 299.489 107.724C299.567 107.801 299.567 107.724 299.489 107.724Z" fill="#263B59"/>
<path d="M300.806 172.442C300.573 171.668 300.341 170.971 300.109 170.197C299.567 168.649 299.18 167.101 298.715 165.552C297.786 162.456 296.935 159.282 296.161 156.185C294.612 149.914 293.451 143.489 292.677 137.063C292.445 135.282 292.29 133.502 292.057 131.721C291.825 129.941 291.825 128.083 291.438 126.302C291.438 126.225 290.509 124.831 290.199 124.134C289.812 123.438 289.503 122.741 289.27 121.967C288.729 120.418 288.264 118.87 288.109 117.244C288.109 117.167 288.032 117.167 288.032 117.244C287.954 118.87 288.187 121.038 288.729 122.664C289.27 124.134 289.967 125.45 291.128 126.534C291.128 126.767 291.206 129.631 291.283 131.257C291.361 132.882 291.516 134.431 291.67 136.057C292.057 139.231 292.445 142.482 293.064 145.656C294.225 152.082 295.696 158.43 297.709 164.623C297.709 164.701 297.786 164.856 297.786 164.933C297.786 165.165 297.786 165.397 297.786 165.63C297.786 166.172 297.864 166.791 297.941 167.333C298.096 168.494 298.406 169.578 298.793 170.662C298.793 170.739 298.948 170.739 298.948 170.662C298.638 169.578 298.483 168.417 298.406 167.255C298.328 166.868 298.328 166.481 298.251 166.094C298.715 167.333 299.102 168.572 299.567 169.888C299.877 170.739 300.186 171.591 300.573 172.442C300.883 173.294 301.193 174.146 301.657 174.92C301.657 174.997 301.812 174.92 301.735 174.842C301.347 173.991 301.038 173.217 300.806 172.442Z" fill="#263B59"/>
<path d="M204.267 199.926V179.101L180.655 199.926H204.267Z" fill="#EBEBEB"/>
<path d="M82.7231 244.053C89.5357 273.703 103.626 309.237 109.664 314.966C117.251 322.243 167.649 335.636 170.126 335.946C176.32 336.565 188.784 291.819 182.203 290.89C172.139 289.419 135.444 287.406 133.276 285.161C131.031 282.838 115.548 263.329 99.5999 241.266C88.6067 226.015 78.5426 225.628 82.7231 244.053Z" fill="#EB9481"/>
<path d="M165.094 333.469C165.869 333.856 176.32 339.121 182.823 341.056C187.7 342.45 201.79 346.166 203.803 340.979C205.196 337.417 197.222 334.321 191.571 331.998C188.629 330.76 184.99 327.663 185.842 325.728C187.39 322.399 194.977 325.728 200.009 328.669C209.686 334.321 222.615 344.462 228.576 339.508C230.821 337.65 228.189 334.243 224.395 330.914C230.589 334.785 237.169 337.959 239.724 336.024C241.195 334.94 241.272 333.392 240.421 331.611C242.356 332.231 243.982 332.076 245.221 330.837C247.233 328.747 246.227 325.65 244.059 322.476C244.756 322.399 245.375 322.012 245.917 321.315C250.175 314.812 228.886 296.232 221.531 294.529C199.854 289.419 177.094 290.348 177.094 290.348C168.656 297.006 165.094 333.469 165.094 333.469Z" fill="#EB9481"/>
<path d="M196.912 313.573C202.022 314.347 207.054 316.283 211.312 319.147C216.809 322.786 220.447 327.044 225.015 331.302C225.17 331.379 224.937 331.611 224.86 331.456C222.692 329.444 213.557 321.779 211.235 320.076C206.899 316.902 202.099 314.657 196.835 313.651L196.912 313.573Z" fill="#263B59"/>
<path d="M200.938 304.36C206.59 305.909 212.473 307.457 217.738 310.166C223.544 313.108 228.034 317.908 232.447 322.553C235.079 325.34 237.711 328.127 240.266 331.069C240.343 331.224 240.188 331.379 240.111 331.224C235.621 326.424 230.976 321.779 226.176 317.289C221.686 313.031 216.654 309.857 210.848 307.612C207.596 306.373 204.267 305.367 200.938 304.36Z" fill="#263B59"/>
<path d="M207.054 296.387C212.551 297.548 217.428 298.477 222.305 301.419C228.808 305.367 235.001 311.947 237.247 314.27C239.646 316.825 241.969 319.534 244.291 322.244C244.369 322.321 244.214 322.553 244.137 322.399C238.872 316.515 233.221 310.863 227.26 305.677C224.395 303.199 221.299 301.032 217.815 299.561C214.331 298.09 210.693 297.238 207.054 296.387Z" fill="#263B59"/>
<path d="M173.61 288.412L158.127 337.494C158.127 337.494 116.245 325.495 108.58 317.289C100.916 309.005 86.749 266.348 82.6459 245.678C78.4654 225.008 88.9167 225.55 98.5163 238.556C108.116 251.562 132.038 283.148 133.354 283.845C134.747 284.541 173.61 288.412 173.61 288.412Z" fill="#FFC107"/>
<path d="M154.101 315.663C155.959 309.856 157.895 304.128 159.521 298.244C160.45 294.915 161.456 291.586 162.308 288.257C162.308 288.102 162.153 288.025 162.075 288.18C159.985 293.909 157.895 299.637 156.037 305.521C154.179 311.327 152.321 317.134 150.54 322.94C149.534 326.269 148.605 329.598 147.831 332.927C147.831 333.004 147.908 333.004 147.985 333.004C150.308 327.275 152.243 321.469 154.101 315.663Z" fill="#263B59"/>
<path opacity="0.25" d="M136.992 330.681C136.373 330.449 135.754 330.216 135.134 330.062C131.65 328.823 128.089 327.507 124.76 326.113C124.296 325.959 123.909 325.804 123.522 325.571C122.825 325.262 122.206 325.03 121.509 324.72C121.199 324.565 120.89 324.41 120.502 324.333C120.425 324.255 120.27 324.255 120.193 324.178C119.883 324.023 119.496 323.868 119.186 323.714C117.87 323.094 116.632 322.475 115.393 321.856C115.083 321.701 114.851 321.546 114.541 321.391C112.374 320.23 110.593 319.069 109.355 317.985C109.2 317.83 109.045 317.752 108.89 317.598C108.735 317.443 108.58 317.365 108.503 317.211C100.839 308.927 86.6714 266.27 82.5684 245.6C82.4909 245.368 82.4909 245.136 82.4135 244.903C82.4135 244.826 82.4135 244.826 82.4135 244.749C82.1039 243.2 81.8716 241.265 81.7168 239.097C81.0974 228.801 85.9747 227.098 92.0132 231.665C107.109 263.87 130.025 317.056 136.992 330.681Z" fill="#263B59"/>
<path d="M115.238 338.965L23.8864 339.43C23.9639 337.494 36.9698 279.974 47.3437 258.684C60.5819 231.434 67.472 229.266 71.4976 227.795C76.6846 225.937 86.052 226.866 88.2196 227.873C90.697 229.034 98.6709 242.969 101.535 253.188C107.342 273.781 116.554 337.727 115.238 338.965Z" fill="#EBEBEB"/>
<path d="M66.8526 229.962C66.8526 229.962 78.4651 272.928 79.007 275.792C79.8586 279.973 85.6648 339.119 85.6648 339.119L22.0284 339.351C22.0284 339.351 35.9634 284.54 46.2598 260.464C57.5626 234.297 66.8526 229.962 66.8526 229.962Z" fill="#FFC107"/>
<path d="M89.0711 228.569C89.3808 229.962 100.142 264.877 100.838 273.548C101.69 283.225 108.967 339.352 108.967 339.352H118.257C118.257 339.352 104.787 258.684 101.148 250.168C93.6387 232.827 89.0711 228.569 89.0711 228.569Z" fill="#FFC107"/>
<path d="M54.853 240.026C39.5245 256.439 2.28717 318.604 14.1319 329.984C26.0541 341.442 91.3937 326.036 109.819 317.288C115.315 314.656 94.4903 280.593 88.0648 279.741C82.723 279.044 55.3175 291.586 54.5434 290.038C53.6144 288.257 58.0271 275.096 64.6075 251.329C72.1944 223.924 61.5883 232.827 54.853 240.026Z" fill="#EB9481"/>
<path d="M115.238 268.749C128.554 266.891 132.27 268.439 142.643 260.93C149.456 255.975 155.572 258.22 151.624 266.04C145.276 278.891 128.631 284.852 122.205 285.316L115.238 268.749Z" fill="#EB9481"/>
<path d="M79.9361 281.524C79.9361 281.524 94.8775 273.24 108.89 269.834C118.567 267.511 140.166 264.802 160.836 286.091C165.714 291.123 169.12 301.807 158.127 296.465C150.308 292.672 146.514 287.872 141.56 286.478C141.56 286.478 144.269 300.568 139.005 305.291C136.682 307.381 130.102 313.032 124.373 316.593C124.373 316.593 123.212 315.587 121.973 314.039C121.973 314.039 116.632 317.987 106.645 317.058L79.9361 281.524Z" fill="#EB9481"/>
<path d="M118.412 269.135C123.057 271.535 132.734 276.8 139.16 283.922C146.282 291.818 157.972 308.85 152.166 314.037C147.908 317.83 142.876 311.715 142.876 311.715C142.876 311.715 146.205 319.766 141.56 322.398C137.302 324.798 133.741 319.843 133.741 319.843C133.741 319.843 134.902 325.108 130.412 326.578C124.993 328.359 123.367 317.134 116.322 314.192C114.696 313.495 118.412 269.135 118.412 269.135Z" fill="#EB9481"/>
<path d="M129.638 290.039C133.586 292.981 140.941 302.116 142.953 311.483C143.031 311.715 142.876 311.87 142.799 311.638C138.308 301.806 132.347 293.522 129.638 290.039C129.56 290.039 129.56 290.039 129.638 290.039Z" fill="#263B59"/>
<path d="M121.896 297.47C125.07 300.412 132.192 310.089 133.896 319.689C133.896 319.921 133.818 320.076 133.741 319.844C129.56 309.315 124.451 301.032 121.896 297.548C121.819 297.548 121.896 297.47 121.896 297.47Z" fill="#263B59"/>
<path d="M141.482 286.478C145.817 287.716 148.604 289.884 152.32 292.439C154.101 293.678 155.959 294.916 157.894 296C159.675 296.929 162.23 298.4 164.165 296.929C165.249 296.077 165.172 294.607 164.939 293.368C164.707 292.052 163.391 289.574 162.539 288.413C162.462 288.336 162.617 288.258 162.617 288.336C163.314 289.342 164.784 291.587 165.249 292.749C165.636 293.832 165.946 294.994 165.636 296.155C165.017 298.555 162.152 298.864 160.217 298.168C159.056 297.781 157.894 297.161 156.811 296.542C155.727 295.923 154.72 295.303 153.714 294.607C151.624 293.213 149.688 291.742 147.598 290.271C145.353 288.723 143.805 287.949 141.405 286.633C141.327 286.555 141.405 286.4 141.482 286.478Z" fill="#263B59"/>
<path d="M150.617 301.728C149.534 299.251 143.418 288.954 141.482 286.554C141.405 286.477 141.482 286.4 141.56 286.477C144.966 289.651 150.385 298.167 151.624 300.877C152.863 303.586 154.333 306.992 154.333 310.012C154.333 314.579 151.314 315.431 150.23 315.586C148.914 315.818 147.598 315.586 146.36 314.966C145.043 314.27 143.727 312.876 142.876 311.715C142.798 311.637 142.876 311.56 142.953 311.637C144.502 313.418 147.134 315.199 149.611 314.889C150.695 314.734 151.779 314.27 152.398 313.341C153.172 312.334 153.25 310.941 153.095 309.702C152.863 306.915 151.701 304.205 150.617 301.728Z" fill="#263B59"/>
<path d="M79.9361 281.521L100.916 325.649C100.916 325.649 18.9318 344.074 11.8095 329.829C4.76457 315.585 36.5828 259.69 50.9049 243.432C67.5494 224.543 69.6397 230.968 66.0011 247.69C62.1303 265.186 54.7757 290.502 54.7757 290.502L79.9361 281.521Z" fill="#FFC107"/>
<path d="M29.8475 302.192C33.6409 299.56 37.6666 297.237 41.7697 295.147C45.8728 293.057 50.1307 291.508 54.466 290.038C56.9433 289.186 59.4207 288.489 61.9754 287.792C62.0528 287.792 62.0528 287.87 61.9754 287.947C57.5627 289.341 53.3047 291.044 49.1242 292.979C44.9438 294.837 40.8407 296.773 36.7376 298.786C34.4151 299.947 32.17 301.186 29.8475 302.347C29.8475 302.424 29.7701 302.269 29.8475 302.192Z" fill="#263B59"/>
<path d="M79.7037 281.444C79.3167 281.521 56.8658 288.953 56.1691 289.263C56.2465 288.953 60.2722 277.031 60.8915 275.251C60.9689 275.096 60.9689 274.864 61.0463 274.709C61.4334 273.935 61.8979 273.161 62.285 272.386C62.7495 271.38 63.214 270.374 63.7559 269.29C63.7559 269.29 63.7559 269.212 63.6785 269.29C63.1366 270.296 62.5947 271.303 62.1302 272.309C61.8979 272.773 61.6657 273.238 61.4334 273.702C61.8205 272.464 62.2076 271.225 62.5947 269.986C63.214 267.974 63.7559 266.038 64.2978 264.025C64.2978 263.948 64.2204 263.948 64.2204 264.025C63.0592 267.509 61.7431 270.915 60.5044 274.399C59.3432 277.883 54.6982 290.657 54.6982 290.657C54.7756 290.657 79.3941 281.909 79.8586 281.754C80.0134 281.599 79.936 281.367 79.7037 281.444Z" fill="#263B59"/>
<path d="M81.2521 310.165C78.9296 305.21 76.6846 300.333 74.2072 295.456C72.8137 292.746 71.4202 289.959 69.9493 287.25C69.8719 287.172 69.7171 287.25 69.7945 287.327C71.8847 292.359 74.0524 297.391 76.3749 302.346C78.6974 307.223 81.0199 312.178 83.4198 317.055C84.8133 319.842 86.2068 322.552 87.7551 325.261C87.7551 325.339 87.91 325.261 87.8325 325.184C85.8197 320.074 83.5746 315.12 81.2521 310.165Z" fill="#263B59"/>
<path d="M101.922 326.346C101.071 324.953 100.064 323.017 99.2128 321.701C98.9805 321.314 98.7483 321.392 98.9031 321.779C99.5224 323.017 100.064 324.411 100.684 325.65C99.5224 325.882 98.3612 326.114 97.1999 326.346C95.8839 326.656 94.5678 326.888 93.1743 327.198C90.5421 327.74 87.9874 328.282 85.3552 328.746C80.0909 329.753 74.7491 330.604 69.4074 331.378C58.7239 332.927 47.963 334.01 37.1247 334.398C34.1054 334.475 31.0862 334.552 28.0669 334.552C24.9703 334.475 21.7188 334.475 19.164 334.088C19.0866 334.088 19.0866 334.243 19.164 334.243C21.7962 334.785 24.2735 335.094 26.9057 335.249C29.6153 335.404 32.4023 335.404 35.1118 335.404C40.531 335.327 46.0276 335.017 51.4467 334.475C62.2076 333.469 72.9685 331.998 83.5746 330.14C86.5939 329.598 89.5357 329.056 92.4775 328.437C93.9484 328.127 95.4968 327.817 96.9677 327.508C98.516 327.12 102.077 326.579 101.922 326.346Z" fill="#263B59"/>
<path d="M89.0713 244.672C83.6522 246.143 73.9751 238.169 70.0268 231.511C69.7946 231.046 70.2591 226.169 70.6462 220.131C70.8784 216.492 71.0332 212.389 70.8784 208.673C70.8784 207.899 94.4131 213.473 94.4131 213.473C94.4131 213.473 92.4002 221.369 92.7099 227.872C92.7099 228.414 92.7873 228.879 92.9421 229.421C92.9421 229.498 92.9421 229.575 93.0196 229.653C93.5615 232.517 94.3356 243.201 89.0713 244.672Z" fill="#EB9481"/>
<path d="M72.2719 208.75C73.588 215.021 78.0782 230.04 90.5423 229.885C91.3938 229.885 92.168 229.808 92.9422 229.653C92.9422 229.576 92.9422 229.498 92.8648 229.421C92.7873 228.956 92.7099 228.414 92.6325 227.872C92.3228 221.369 94.3357 213.473 94.3357 213.473C94.3357 213.473 77.3814 209.447 72.2719 208.75Z" fill="#263B59"/>
<path d="M97.2 197.526C96.9678 203.254 100.761 208.054 105.793 208.286C110.825 208.519 115.083 204.029 115.316 198.377C115.548 192.648 111.754 187.848 106.722 187.616C101.768 187.307 97.5097 191.797 97.2 197.526Z" fill="#2B466D"/>
<path d="M114.476 198.595C114.765 192.231 110.462 186.866 104.867 186.613C99.2713 186.359 94.5017 191.313 94.2135 197.677C93.9253 204.042 98.2277 209.406 103.823 209.66C109.419 209.913 114.188 204.959 114.476 198.595Z" fill="#C7C7C7"/>
<path d="M73.8977 179.021C69.8721 186.686 69.5624 210.994 74.3622 217.343C81.2523 226.555 94.8776 229.961 103.239 221.136C111.367 212.543 111.135 180.879 105.639 174.841C97.5098 166.015 79.9362 167.718 73.8977 179.021Z" fill="#EB9481"/>
<path d="M94.1808 197.834C94.1808 197.757 94.0259 197.911 94.0259 197.989C94.1033 199.615 93.9485 201.55 92.4776 202.092C92.4002 202.092 92.4002 202.169 92.4776 202.169C94.2582 201.86 94.4904 199.382 94.1808 197.834Z" fill="#263B59"/>
<path d="M92.6325 196.131C90.0004 195.976 89.9229 201.24 92.3228 201.395C94.8002 201.55 94.8776 196.286 92.6325 196.131Z" fill="#263B59"/>
<path d="M103.316 197.99C103.316 197.913 103.471 198.068 103.471 198.145C103.393 199.771 103.548 201.706 105.019 202.248C105.097 202.248 105.097 202.325 105.019 202.325C103.239 202.093 103.006 199.538 103.316 197.99Z" fill="#263B59"/>
<path d="M104.787 196.364C107.419 196.209 107.574 201.474 105.097 201.628C102.697 201.783 102.619 196.441 104.787 196.364Z" fill="#263B59"/>
<path d="M90.31 191.951C91.0841 191.874 91.7035 191.719 92.4776 191.641C93.3292 191.487 93.9486 191.487 94.6453 190.867C94.955 190.558 95.0324 189.861 94.7227 189.474C94.1034 188.622 93.0196 188.545 92.0131 188.622C90.9293 188.777 90.1552 189.087 89.381 189.938C88.6068 190.712 89.3036 191.951 90.31 191.951Z" fill="#263B59"/>
<path d="M107.264 192.493C106.567 192.338 105.871 192.106 105.174 191.951C104.4 191.719 103.703 191.642 103.161 190.945C102.851 190.558 102.929 189.939 103.239 189.551C104.013 188.777 105.019 188.855 106.026 189.087C107.109 189.319 107.806 189.784 108.503 190.713C109.122 191.564 108.271 192.648 107.264 192.493Z" fill="#263B59"/>
<path d="M91.1615 213.008C91.5485 213.395 91.9356 213.937 92.555 214.015C93.0969 214.092 93.7936 213.86 94.3355 213.628C94.4129 213.628 94.413 213.628 94.413 213.705C93.9485 214.324 93.0969 214.711 92.3227 214.557C91.5485 214.402 91.2389 213.782 91.084 213.086C91.0066 212.931 91.084 212.931 91.1615 213.008Z" fill="#263B59"/>
<path d="M92.9421 208.131C93.8711 209.602 95.1872 210.376 96.6581 210.686C97.2774 210.841 97.9742 210.841 98.6709 210.841C98.8258 210.841 98.9032 210.841 99.058 210.841C99.2128 210.841 99.2903 210.841 99.4451 210.763C99.5999 210.763 99.7548 210.608 99.7548 210.376C99.7548 210.299 99.7548 210.299 99.7548 210.221V210.066C99.8322 208.828 99.7548 206.892 99.7548 206.892C100.219 207.125 102.542 208.208 102.542 207.589C102.31 202.092 102.077 196.054 100.684 190.712C100.684 190.557 100.374 190.557 100.374 190.712C100.374 195.977 101.303 201.163 101.458 206.428C100.684 206.118 99.5225 205.576 98.8258 205.576C98.6709 205.654 99.058 209.292 98.9806 209.834C98.9806 209.834 98.9806 209.834 98.9806 209.912C96.8903 210.144 95.2646 209.447 93.2518 208.054C93.0195 207.899 92.8647 207.976 92.9421 208.131Z" fill="#263B59"/>
<path d="M97.8967 210.144C97.8967 210.144 96.7355 211.615 95.1872 212.157C94.6452 212.312 94.0259 212.389 93.4066 212.234C92.0905 211.847 92.0905 210.686 92.3227 209.68C92.555 208.828 92.9421 208.131 92.9421 208.131C92.9421 208.131 94.8775 209.912 97.8967 210.144Z" fill="#263B59"/>
<path d="M95.2646 212.157C94.7227 212.311 94.1033 212.389 93.484 212.234C92.1679 211.847 92.1679 210.686 92.4002 209.679C93.7937 209.834 95.1097 210.763 95.2646 212.157Z" fill="#FF98B9"/>
<path opacity="0.2" d="M70.8784 196.208C72.5041 195.976 76.2975 190.556 77.9233 188.389C79.6265 186.144 80.478 174.763 80.6329 172.131C77.8459 173.757 75.5234 176.002 73.8976 179.021C72.1171 182.428 71.0332 189.163 70.8784 196.208Z" fill="#263B59"/>
<path d="M100.451 181.655C98.516 183.745 95.6516 184.751 92.8646 184.21C90.1551 183.668 87.4455 181.655 86.5939 179.023C86.5939 178.945 86.4391 179.023 86.4391 179.1C87.3681 181.964 89.6131 184.364 92.7098 184.906C95.6516 185.371 98.8257 184.132 100.606 181.81C100.606 181.655 100.529 181.5 100.451 181.655Z" fill="#263B59"/>
<path d="M92.5551 161.062C87.7553 160.984 83.3425 163.539 81.4845 166.713C80.4007 168.648 80.1685 170.661 80.4007 172.674C80.4007 172.751 80.5555 172.751 80.5555 172.674C80.4007 169.423 82.1039 165.784 85.665 163.694C89.0714 161.603 93.4841 161.139 97.2775 162.687C99.2129 163.539 100.839 164.855 101.613 166.403C101.69 166.558 102.077 166.481 102 166.326C100.684 163.229 96.8904 161.062 92.5551 161.062Z" fill="#263B59"/>
<path d="M119.883 172.287C119.186 169.887 117.638 167.874 115.548 166.48C112.683 164.545 109.355 164.7 106.103 164.932C106.026 164.932 106.026 165.087 106.103 165.087C108.89 164.932 111.754 164.855 114.309 166.248C116.399 167.409 118.103 169.267 118.954 171.435C120.735 176.003 118.722 181.499 114.387 183.822C111.909 185.138 108.89 185.293 106.258 184.364C106.181 184.364 106.103 184.441 106.18 184.518C110.98 186.376 116.709 184.364 119.109 179.719C120.27 177.474 120.58 174.764 119.883 172.287Z" fill="#263B59"/>
<path d="M72.1944 183.667C72.1944 183.667 67.9365 174.996 71.9622 170.197C74.2073 167.487 81.3296 168.106 81.3296 168.106C81.3296 168.106 83.8069 164.081 89.6906 162.997C95.7291 161.836 102.619 165.552 102.619 165.552C102.619 165.552 108.425 162.532 113.612 165.706C120.812 170.197 119.496 181.422 111.909 184.751C106.567 187.073 99.6773 182.196 99.6773 182.196C98.9806 182.273 91.8582 186.222 86.8262 179.796C86.8262 179.796 82.4134 183.435 78.62 180.648C78.62 180.725 76.5298 184.519 72.1944 183.667Z" fill="#263B59"/>
<path d="M75.2138 199.151C75.2138 199.151 71.1881 190.635 67.3947 191.874C63.6013 193.19 65.6915 204.957 69.4849 207.125C73.2783 209.37 75.3686 205.886 75.3686 205.886L75.2138 199.151Z" fill="#CE8F89"/>
<path d="M68.1688 195.203C68.0914 195.203 68.0914 195.28 68.0914 195.28C70.7236 196.906 71.8074 199.848 72.3493 202.712C71.6526 201.473 70.6461 200.699 69.0204 201.473C68.943 201.551 69.0204 201.628 69.0978 201.628C70.3365 201.551 71.1106 201.938 71.73 203.022C72.1945 203.796 72.4267 204.647 72.659 205.499C72.7364 205.809 73.2009 205.731 73.2009 205.422V205.344C73.8976 201.86 71.9622 196.286 68.1688 195.203Z" fill="#263B59"/>
<path d="M84.0393 216.258L76.3751 213.007L70.2592 205.342L71.4204 204.413L77.3041 211.768L84.5812 214.865L84.0393 216.258Z" fill="#C7C7C7"/>
<path d="M83.1878 215.02C83.9619 212.775 90.1553 213.627 88.994 216.955C87.9102 220.362 82.4136 217.265 83.1878 215.02Z" fill="#090909"/>
<path d="M67.3172 191.641C67.3172 191.641 66.4657 179.177 70.1817 172.287C74.2847 164.622 91.1615 157.345 102.697 165.551C102.697 165.551 83.8844 162.223 75.1363 172.829C71.4203 177.319 71.5752 191.951 71.5752 191.951L67.3172 191.641Z" fill="#C7C7C7"/>
<path d="M69.0609 209.61C74.662 209.555 79.1513 204.345 79.0881 197.974C79.0249 191.604 74.4331 186.484 68.8321 186.54C63.231 186.596 58.7417 191.805 58.8049 198.176C58.8681 204.546 63.4599 209.666 69.0609 209.61Z" fill="#C7C7C7"/>
<path d="M76.0654 197.602C76.1428 203.331 72.1171 207.976 67.085 208.053C62.053 208.131 57.9499 203.486 57.8725 197.757C57.795 192.028 61.8207 187.383 66.8528 187.306C71.8849 187.306 75.9879 191.873 76.0654 197.602Z" fill="#2B466D"/>
<path d="M92.8646 229.265L87.3681 243.045L70.1816 225.704L65.3817 231.278C65.3817 231.278 82.2586 258.838 82.336 257.599L87.9874 245.755L96.1935 253.961L95.4194 233.29L92.8646 229.265Z" fill="#EBEBEB"/>
<path d="M96.4258 243.742C96.1935 240.336 96.0387 236.852 95.6516 233.523C95.6516 233.368 95.4194 233.368 95.4194 233.523C94.7226 236.852 95.729 249.858 95.729 253.032C95.4194 252.645 88.1422 245.832 88.0648 245.91C86.8261 247.768 82.7231 256.438 82.4134 257.213C79.7812 252.8 68.4784 235.536 65.3043 231.433C65.2269 231.278 64.9947 231.433 65.0721 231.588C67.3946 236.233 82.0263 258.993 82.2585 258.916C82.4134 258.993 87.5229 248.387 88.1422 246.374C89.3809 247.845 96.7355 255.664 96.7355 255.122C96.8129 251.484 96.658 247.148 96.4258 243.742Z" fill="#263B59"/>
<path d="M280.445 193.035H256.523C251.724 193.035 247.775 189.086 247.775 184.287C247.775 179.487 251.724 175.539 256.523 175.539H280.445C285.245 175.539 289.193 179.487 289.193 184.287C289.193 189.086 285.245 193.035 280.445 193.035Z" fill="#2B466D"/>
<path d="M261.71 184.133C261.71 183.824 261.788 183.592 261.942 183.359C262.02 183.282 262.097 183.127 262.175 183.05L262.639 182.585C262.794 182.43 263.026 182.353 263.181 182.198C263.955 181.734 264.729 181.424 265.581 181.269C267.594 180.882 269.607 180.882 271.542 181.269C272.394 181.424 273.168 181.734 273.942 182.198C274.097 182.353 274.329 182.43 274.484 182.585L274.948 183.05C275.026 183.204 275.181 183.359 275.258 183.592C275.336 183.746 275.413 183.979 275.413 184.133C275.336 184.133 275.336 184.133 275.258 184.133C274.019 184.133 272.703 184.133 271.465 184.133C271.387 184.133 271.387 184.133 271.31 184.056C271.078 183.592 270.691 183.359 270.226 183.359C269.065 183.282 267.981 183.282 266.82 183.359C266.278 183.359 265.968 183.669 265.736 184.056C265.736 184.133 265.658 184.133 265.581 184.133C264.342 184.133 263.026 184.133 261.71 184.133Z" fill="white"/>
<path d="M261.71 186.301C261.71 185.837 261.71 185.372 261.71 184.985V184.908C263.026 184.908 264.265 184.908 265.581 184.908C265.581 184.985 265.581 185.063 265.581 185.217C265.581 185.604 265.581 185.992 265.581 186.379C265.581 186.688 265.426 186.843 265.117 186.843C264.188 186.843 263.181 186.843 262.252 186.843C261.865 186.843 261.71 186.688 261.71 186.301Z" fill="white"/>
<path d="M271.62 186.379C271.62 185.914 271.62 185.372 271.62 184.908C272.858 184.908 274.174 184.908 275.413 184.908V184.985C275.413 185.45 275.413 185.914 275.413 186.379C275.413 186.688 275.258 186.843 274.948 186.843C273.942 186.843 273.013 186.843 272.007 186.843C271.774 186.843 271.62 186.611 271.62 186.379Z" fill="white"/>
<path d="M182.204 340.359H176.862V343.843H182.204V340.359Z" fill="#2B466D"/>
<path d="M189.094 340.126H183.752V343.61H189.094V340.126Z" fill="#2B466D"/>
<path d="M195.984 339.893H190.642V343.377H195.984V339.893Z" fill="#2B466D"/>
<path d="M202.874 339.662H197.532V343.146H202.874V339.662Z" fill="#2B466D"/>
<path d="M209.764 339.429H204.422V342.912H209.764V339.429Z" fill="#2B466D"/>
<path d="M216.654 339.197H211.312V342.681H216.654V339.197Z" fill="#2B466D"/>
<path d="M223.544 338.964H218.203V342.448H223.544V338.964Z" fill="#2B466D"/>
<path d="M230.434 338.733H225.092V342.216H230.434V338.733Z" fill="#2B466D"/>
<path d="M237.324 338.5H231.982V341.984H237.324V338.5Z" fill="#2B466D"/>
<path d="M238.563 345.855H175.546V341.597L238.563 339.816V345.855Z" fill="#090909"/>
<path d="M300.109 329.212H196.061L212.628 251.718H316.676L300.109 329.212Z" fill="#2B466D"/>
<path d="M303.98 329.212H199.932L216.499 251.718H320.47L303.98 329.212Z" fill="#090909"/>
<path d="M266.813 290.326C269.639 287.715 270.119 283.638 267.885 281.22C265.651 278.801 261.549 278.958 258.722 281.569C255.896 284.181 255.416 288.258 257.65 290.676C259.884 293.094 263.986 292.937 266.813 290.326Z" fill="#263B59"/>
<path d="M274.562 349.416H223.389V345.468L274.562 343.765V349.416Z" fill="#2B466D"/>
<path d="M288.419 349.416H260.936L244.447 305.986H271.929L288.419 349.416Z" fill="#2B466D"/>
<path d="M292.987 349.416H265.504L248.937 305.986H276.42L292.987 349.416Z" fill="#263B59"/>
<path d="M173.61 350.502C173.61 350.502 125.38 350.502 120.89 350.502C116.399 350.502 122.902 337.651 139.315 332.774C155.727 327.819 178.797 345.625 173.61 350.502Z" fill="#090909"/>
<path d="M152.94 350.502C152.94 349.031 153.25 347.56 153.637 346.167C154.024 344.773 154.643 343.38 155.417 342.141C156.191 340.903 157.12 339.741 158.204 338.735C159.288 337.729 160.604 337.032 161.92 336.412C161.378 336.877 160.682 337.187 160.217 337.729L159.365 338.425L158.591 339.199C157.662 340.206 156.733 341.367 156.037 342.528C155.34 343.767 154.72 345.006 154.179 346.322C153.714 347.715 153.25 349.031 152.94 350.502Z" fill="#263B59"/>
<path d="M159.211 338.271C160.759 338.735 162.307 339.432 163.778 340.129C165.249 340.826 166.643 341.677 168.036 342.684C169.352 343.613 170.668 344.696 171.675 346.013C172.217 346.632 172.681 347.329 173.068 348.103C173.378 348.877 173.688 349.651 173.688 350.503C173.533 349.729 173.146 348.954 172.759 348.258C172.371 347.561 171.83 346.942 171.288 346.4C170.204 345.238 168.965 344.232 167.572 343.303C166.256 342.374 164.862 341.522 163.469 340.671C162.772 340.284 162.075 339.819 161.378 339.432C160.604 339.045 159.907 338.658 159.211 338.271Z" fill="#263B59"/>
<path d="M177.404 174.61C176.088 187.461 164.553 196.829 151.624 195.513C146.437 194.971 141.792 192.726 138.231 189.474L126.541 191.177L132.425 181.036C131.031 177.552 130.412 173.681 130.799 169.733C132.115 156.882 143.65 147.514 156.579 148.83C169.43 150.224 178.72 161.759 177.404 174.61Z" fill="white"/>
<path d="M177.404 174.61C176.939 178.868 175.313 183.048 172.681 186.455C172.062 187.384 171.288 188.08 170.591 188.932C169.739 189.629 169.043 190.403 168.114 191.022C166.411 192.338 164.475 193.345 162.462 194.196C160.449 195.048 158.282 195.435 156.114 195.667C155.03 195.745 153.946 195.822 152.863 195.745C151.779 195.745 150.695 195.59 149.611 195.435C145.353 194.661 141.25 192.648 137.999 189.706L138.308 189.784L126.618 191.564L125.767 191.719L126.231 190.945L132.038 180.803V181.19C129.173 174.532 129.87 166.559 133.509 160.288C135.289 157.191 137.844 154.482 140.863 152.469C143.882 150.456 147.289 149.217 150.85 148.753C154.411 148.288 158.05 148.598 161.456 149.759C164.862 150.92 167.959 152.856 170.514 155.333C175.546 160.133 178.178 167.565 177.404 174.61ZM177.404 174.61C178.1 167.565 175.468 160.21 170.281 155.333C167.727 152.933 164.63 151.075 161.224 149.991C157.895 148.908 154.256 148.675 150.772 149.217C147.289 149.759 143.96 151.075 141.095 153.011C138.231 155.023 135.831 157.656 134.05 160.675C132.27 163.694 131.341 167.1 131.109 170.584C130.876 174.068 131.418 177.552 132.734 180.803L132.812 181.035L132.734 181.19L126.851 191.332L126.464 190.713L138.231 189.087H138.386L138.463 189.164C141.56 192.106 145.508 194.119 149.689 194.97C150.772 195.203 151.779 195.28 152.863 195.358C153.946 195.435 155.03 195.358 156.037 195.358C158.127 195.125 160.295 194.816 162.307 193.964C164.32 193.19 166.256 192.261 167.959 190.945C168.888 190.325 169.585 189.551 170.436 188.855C171.133 188.08 171.985 187.306 172.604 186.455C175.313 183.048 176.862 178.868 177.404 174.61Z" fill="#263B59"/>
<path d="M167.185 172.907C167.185 174.456 165.946 175.772 164.32 175.772C162.695 175.772 161.456 174.533 161.456 172.907C161.456 171.359 162.695 170.043 164.32 170.043C165.946 170.043 167.185 171.282 167.185 172.907Z" fill="#263B59"/>
<path d="M156.966 172.907C156.966 174.456 155.727 175.772 154.101 175.772C152.553 175.772 151.237 174.533 151.237 172.907C151.237 171.359 152.475 170.043 154.101 170.043C155.727 170.043 156.966 171.282 156.966 172.907Z" fill="#263B59"/>
<path d="M146.824 172.907C146.824 174.456 145.585 175.772 143.96 175.772C142.334 175.772 141.095 174.533 141.095 172.907C141.095 171.359 142.334 170.043 143.96 170.043C145.585 170.043 146.824 171.282 146.824 172.907Z" fill="#263B59"/>
<path d="M187.313 53.0664C188.629 65.9176 200.164 75.285 213.093 73.9689C218.28 73.427 222.925 71.1819 226.486 67.9304L238.176 69.6336L232.37 59.4146C233.763 55.9308 234.382 52.06 233.995 48.1117C232.679 35.2606 221.144 25.8932 208.216 27.2093C195.364 28.6028 185.997 40.1378 187.313 53.0664Z" fill="white"/>
<path d="M194.358 33.712C196.913 31.2346 200.009 29.2992 203.416 28.138C206.822 26.9767 210.461 26.667 214.022 27.1315C217.583 27.596 221.067 28.8347 224.009 30.8475C227.028 32.8604 229.505 35.5699 231.363 38.6666C235.002 44.9374 235.621 52.8339 232.834 59.5691V59.182L238.563 69.401L239.027 70.1752L238.176 70.0203L226.486 68.2397L226.795 68.1623C223.544 71.1042 219.518 73.117 215.183 73.8912C214.099 74.1234 213.015 74.2008 211.932 74.2008C210.848 74.2782 209.764 74.2008 208.68 74.1234C206.512 73.8912 204.345 73.4267 202.332 72.6525C200.319 71.8783 198.384 70.7945 196.68 69.4784C195.751 68.8591 195.055 68.0849 194.203 67.3882C193.506 66.614 192.655 65.8398 192.113 64.9108C189.403 61.5045 187.855 57.324 187.39 53.0661C186.539 46.0212 189.171 38.5892 194.358 33.712ZM192.113 64.8334C192.732 65.685 193.506 66.4592 194.281 67.2333C195.132 67.9301 195.829 68.7043 196.758 69.3236C198.461 70.6397 200.396 71.6461 202.409 72.3428C204.422 73.117 206.512 73.5041 208.68 73.7363C209.764 73.7363 210.848 73.8912 211.854 73.7363C212.938 73.6589 214.022 73.5815 215.028 73.3492C219.209 72.4977 223.157 70.4848 226.254 67.543L226.331 67.4656H226.486L238.253 69.0913L237.866 69.7107L231.982 59.5691L231.905 59.4143L231.982 59.182C233.298 55.9305 233.84 52.4468 233.608 48.963C233.298 45.4793 232.447 42.0729 230.666 39.0537C228.886 36.0344 226.486 33.4023 223.621 31.3895C220.757 29.3766 217.428 28.0605 213.944 27.596C210.461 27.0541 206.899 27.2864 203.493 28.3702C200.164 29.454 196.99 31.312 194.435 33.712C189.248 38.5892 186.616 45.8664 187.313 52.9887C187.855 57.324 189.481 61.5045 192.113 64.8334Z" fill="#263B59"/>
<path d="M212.706 53.4525V56.3943C212.706 57.633 211.777 58.562 210.538 58.562C209.377 58.562 208.37 57.633 208.37 56.3943V51.7493C208.37 51.6719 208.448 51.6719 208.448 51.6719C208.37 51.5945 208.37 51.5945 208.37 51.5945C208.37 50.4333 209.377 49.4269 210.538 49.4269C213.402 49.4269 215.648 47.1818 215.648 44.3948C215.648 41.5304 213.325 39.3627 210.538 39.3627C208.68 39.3627 207.054 40.3691 206.203 41.84C205.583 42.9239 204.19 43.3109 203.106 42.6142C202.1 41.9949 201.713 40.6788 202.332 39.5949C203.958 36.8079 206.977 34.95 210.461 34.95C215.648 34.95 219.983 39.2079 219.983 44.3948C220.06 48.7301 216.886 52.4461 212.706 53.4525ZM212.706 63.3618V64.136C212.706 65.3747 211.777 66.3037 210.538 66.3037C209.377 66.3037 208.37 65.3747 208.37 64.136V63.3618C208.37 62.1232 209.377 61.1942 210.538 61.1942C211.777 61.1168 212.706 62.1232 212.706 63.3618Z" fill="#FFC107"/>
</g>
<defs>
<clipPath id="clip0_1048_44165">
<rect width="339.472" height="350" fill="white" transform="translate(0.119629 0.499756)"/>
</clipPath>
</defs>
</svg>
