<svg width="352" height="319" viewBox="0 0 352 319" fill="none" xmlns="http://www.w3.org/2000/svg">
<g clip-path="url(#clip0_1174_7132)">
<path d="M343.927 180.984H221.432V1.15332H343.927V180.984ZM224.727 177.689H340.632V4.44843H224.727V177.689Z" fill="#EBEBEB"/>
<path d="M284.285 5.35449H280.99V179.336H284.285V5.35449Z" fill="#EBEBEB"/>
<path d="M346.893 7.82617H218.466V12.4393H346.893V7.82617Z" fill="#EBEBEB"/>
<path d="M346.893 13.0156H218.466V17.6288H346.893V13.0156Z" fill="#EBEBEB"/>
<path d="M346.893 18.123H218.466V22.7362H346.893V18.123Z" fill="#EBEBEB"/>
<path d="M346.893 23.3135H218.466V27.9266H346.893V23.3135Z" fill="#EBEBEB"/>
<path d="M346.893 28.5029H218.466V33.1161H346.893V28.5029Z" fill="#EBEBEB"/>
<path d="M346.893 33.6104H218.466V38.2235H346.893V33.6104Z" fill="#EBEBEB"/>
<path d="M346.893 38.7998H218.466V43.413H346.893V38.7998Z" fill="#EBEBEB"/>
<path d="M346.893 43.9902H218.466V48.6034H346.893V43.9902Z" fill="#EBEBEB"/>
<path d="M346.893 49.0977H218.466V53.7108H346.893V49.0977Z" fill="#EBEBEB"/>
<path d="M337.089 6.91992H336.266V112.693H337.089V6.91992Z" fill="#263238"/>
<path d="M338.161 116.483H335.277L336.019 112.281H337.419L338.161 116.483Z" fill="#263238"/>
<path d="M340.137 6.91992H339.313V151.658H340.137V6.91992Z" fill="#263238"/>
<path d="M341.126 154.705H338.243L338.985 150.504H340.385L341.126 154.705Z" fill="#263238"/>
<path d="M352.082 0.494141H213.358V10.1323H352.082V0.494141Z" fill="#DBDBDB"/>
<path d="M20.8418 94.7348C20.8418 94.0758 20.9242 92.1811 20.9242 91.4397C20.9242 88.0622 19.7709 86.5794 16.6406 86.497C15.1578 86.4146 14.334 85.5085 14.334 84.2728C14.334 83.0372 15.2401 82.131 16.6406 82.0486C19.7709 81.8839 20.9242 80.4011 20.9242 77.0236C20.9242 76.2822 20.8418 74.3875 20.8418 73.7285C20.8418 69.2801 22.7365 66.3968 29.821 64.8317C31.2214 64.5022 32.3747 65.4083 32.3747 66.7264C32.3747 67.7973 31.6333 68.4563 31.0567 68.6211C26.6083 70.0215 25.9492 71.4219 25.9492 74.5522C25.9492 75.4584 26.0316 77.0236 26.0316 77.9297C26.0316 81.472 24.3017 83.2843 21.2537 84.1904C24.3017 85.179 26.0316 86.9089 26.0316 90.4511C26.0316 91.4397 25.9492 92.9225 25.9492 93.8286C25.9492 96.959 26.6083 98.3594 31.0567 99.7598C31.6333 99.9246 32.3747 100.501 32.3747 101.655C32.3747 102.973 31.3038 103.879 29.821 103.549C22.6541 102.066 20.8418 99.2656 20.8418 94.7348Z" fill="#EBEBEB"/>
<path d="M47.6969 73.7281C47.6969 74.3871 47.6146 76.2818 47.6146 77.0232C47.6146 80.4007 48.8502 81.8835 51.9806 82.0483C53.381 82.1306 54.2872 83.0368 54.2872 84.2725C54.2872 85.5081 53.381 86.4143 51.9806 86.4967C48.8502 86.579 47.6146 88.1442 47.6146 91.4393C47.6146 92.1807 47.6969 94.0754 47.6969 94.7344C47.6969 99.2652 45.8023 102.066 38.7178 103.631C37.3173 103.961 36.1641 103.055 36.1641 101.737C36.1641 100.666 36.9055 100.007 37.4821 99.8419C41.9305 98.4414 42.5071 97.041 42.5071 93.9107C42.5071 93.0045 42.4248 91.4393 42.4248 90.5332C42.4248 86.9909 44.1547 85.1786 47.2027 84.2725C44.1547 83.2839 42.4248 81.554 42.4248 78.0118C42.4248 77.0232 42.5071 75.5404 42.5071 74.6343C42.5071 71.5039 41.8481 70.1035 37.4821 68.7031C36.9055 68.5383 36.1641 67.9617 36.1641 66.8084C36.1641 65.4903 37.235 64.5842 38.7178 64.9137C45.8023 66.4789 47.6969 69.2797 47.6969 73.7281Z" fill="#EBEBEB"/>
<path d="M142.348 30.6447C143.419 31.7156 143.419 33.4456 142.348 34.5165C141.772 35.0108 141.113 35.2579 140.454 35.2579C139.712 35.2579 139.053 35.0108 138.477 34.5165L126.449 22.3246C126.285 22.2422 126.285 22.1598 126.202 22.0775C126.12 21.9951 126.038 21.9951 126.038 21.9951C125.955 21.8303 125.955 21.7479 125.873 21.6656C125.79 21.5832 125.708 21.5008 125.708 21.5008C125.626 21.4184 125.626 21.2537 125.626 21.2537C125.626 21.0889 125.543 21.0889 125.543 21.0065C125.543 20.8418 125.543 20.7594 125.543 20.677C125.543 20.5947 125.461 20.5123 125.461 20.4299C125.461 20.3475 125.543 20.2651 125.543 20.1828C125.543 20.1004 125.543 19.9356 125.543 19.8533C125.543 19.7709 125.626 19.6885 125.626 19.6885C125.708 19.5237 125.708 19.4414 125.708 19.359C125.708 19.2766 125.79 19.2766 125.79 19.2766C125.873 19.1119 125.955 18.9471 126.038 18.8647C126.038 18.8647 126.038 18.7823 126.12 18.7823C126.202 18.7 126.285 18.5352 126.367 18.4528L138.394 6.26093C139.465 5.2724 141.195 5.2724 142.266 6.26093C143.337 7.33184 143.337 9.06177 142.266 10.1327L132.134 20.3475L142.348 30.6447Z" fill="#EBEBEB"/>
<path d="M153.305 32.0453L163.767 7.16726C164.261 5.93159 165.661 5.43733 166.897 5.93159C168.05 6.42586 168.627 7.82628 168.133 8.97957L157.671 33.94C157.259 34.8462 156.353 35.3404 155.529 35.3404C155.282 35.3404 154.952 35.2581 154.705 35.1757C153.305 34.599 152.811 33.1986 153.305 32.0453Z" fill="#EBEBEB"/>
<path d="M188.727 21.9947C188.562 22.1595 188.479 22.2419 188.397 22.3242L176.37 34.5161C175.876 35.0104 175.134 35.2575 174.475 35.2575C173.734 35.2575 173.075 35.0104 172.581 34.5161C171.51 33.4452 171.51 31.7977 172.581 30.6444L182.713 20.4296L172.581 10.2147C171.51 9.1438 171.51 7.41387 172.581 6.34296C173.569 5.35443 175.381 5.35443 176.452 6.34296L188.479 18.5349C188.644 18.6172 188.727 18.782 188.809 18.8644C188.891 18.8644 188.891 18.9468 188.891 18.9468C188.974 19.1115 189.056 19.1939 189.138 19.3586C189.138 19.441 189.221 19.441 189.221 19.441C189.303 19.6058 189.303 19.6882 189.386 19.8529C189.386 19.9353 189.468 19.9353 189.468 20.0177C189.468 20.1 189.468 20.2648 189.468 20.3472C189.468 20.4296 189.55 20.5119 189.55 20.5943C189.55 20.6767 189.468 20.7591 189.468 20.8414C189.468 21.0062 189.468 21.0886 189.468 21.171C189.468 21.2533 189.386 21.2533 189.386 21.2533C189.303 21.4181 189.303 21.5828 189.221 21.6652C189.221 21.7476 189.138 21.7476 189.138 21.83C188.891 21.6652 188.809 21.83 188.727 21.9947Z" fill="#EBEBEB"/>
<path d="M172.417 318.143C264.091 318.143 338.408 312.205 338.408 304.88C338.408 297.555 264.091 291.617 172.417 291.617C80.7425 291.617 6.42578 297.555 6.42578 304.88C6.42578 312.205 80.7425 318.143 172.417 318.143Z" fill="#EBEBEB"/>
<path d="M328.934 288.899H229.175L249.028 173.158H323.662L328.934 288.899Z" fill="#DBDBDB"/>
<path d="M328.934 288.899H320.202L315.26 173.158H323.662L328.934 288.899Z" fill="#A6A6A6"/>
<path d="M0 288.898L43.0835 288.733L86.1671 288.651L172.417 288.486L258.584 288.651L301.667 288.733L344.751 288.898L301.667 289.063L258.584 289.145L172.417 289.31L86.1671 289.145L43.0835 289.063L0 288.898Z" fill="#263238"/>
<path d="M93.6637 0.494141H11.7803V52.7216H93.6637V0.494141Z" fill="white"/>
<path d="M94.1581 53.2984H11.2861V0H94.1581V53.2984ZM12.2747 52.2275H93.0872V1.07091H12.2747V52.2275Z" fill="#EBEBEB"/>
<path d="M93.6637 0.494141H11.7803V10.3795H93.6637V0.494141Z" fill="#FFC107"/>
<path d="M94.1581 10.8739H11.2861V0H94.1581V10.8739ZM12.2747 9.88533H93.0872V1.07091H12.2747V9.88533Z" fill="#EBEBEB"/>
<path d="M21.0891 5.51918C21.0891 6.9196 19.9359 7.99051 18.6178 7.99051C17.2998 7.99051 16.1465 6.83723 16.1465 5.51918C16.1465 4.20114 17.2998 3.04785 18.6178 3.04785C19.9359 3.04785 21.0891 4.11876 21.0891 5.51918Z" fill="#A6A6A6"/>
<path d="M31.222 5.51918C31.222 6.9196 30.0687 7.99051 28.7506 7.99051C27.3502 7.99051 26.2793 6.83723 26.2793 5.51918C26.2793 4.20114 27.4326 3.04785 28.7506 3.04785C30.0687 3.04785 31.222 4.11876 31.222 5.51918Z" fill="#EBEBEB"/>
<path d="M41.3538 5.51918C41.3538 6.9196 40.2005 7.99051 38.8825 7.99051C37.5644 7.99051 36.4111 6.83723 36.4111 5.51918C36.4111 4.20114 37.5644 3.04785 38.8825 3.04785C40.2005 3.04785 41.3538 4.11876 41.3538 5.51918Z" fill="white"/>
<path d="M25.9492 29.9029C25.9492 24.466 30.5624 20.0176 36.0817 20.0176C38.4706 20.0176 40.6948 20.8414 42.4248 22.1594C43.0838 22.736 43.1662 23.6422 42.6719 24.3836C42.0953 25.0426 41.1067 25.2074 40.4477 24.7131C39.212 23.7246 37.7292 23.2303 35.9993 23.2303C34.1046 23.2303 32.3747 23.9717 31.0566 25.2074C29.821 26.443 29.0796 28.0906 29.0796 29.9853C29.0796 31.88 29.821 33.5275 31.0566 34.7632C32.3747 35.9989 34.1046 36.7403 35.9993 36.7403C37.7292 36.7403 39.212 36.246 40.4477 35.2575C41.1067 34.7632 42.0953 34.9279 42.6719 35.587C43.1662 36.246 43.0838 37.2345 42.4248 37.8112C40.6948 39.1292 38.4706 39.953 36.0817 39.953C30.48 39.7882 25.9492 35.4222 25.9492 29.9029Z" fill="#EBEBEB"/>
<path d="M47.3675 35.0103C47.8618 34.4337 48.768 34.3513 49.3446 34.8456C50.5803 35.8341 52.6397 36.9874 54.6168 36.9874C56.0172 36.9874 57.2529 36.5755 58.0767 35.9989C58.9004 35.4222 59.2299 34.6808 59.2299 34.0218C59.2299 33.6923 59.1476 33.4451 58.9828 33.1156C58.8181 32.8685 58.5709 32.539 58.159 32.2919C57.3353 31.7976 56.0172 31.3033 54.3697 30.9738C53.0516 30.7267 51.8983 30.3972 50.8274 29.9029C49.7565 29.4086 48.8503 28.7496 48.2737 27.7611C47.8618 27.1021 47.6147 26.3607 47.6147 25.5369C47.6147 23.8893 48.5208 22.4889 49.8389 21.5004C51.1569 20.5942 52.8045 20.0176 54.6168 20.0176C57.2529 20.0176 59.2299 21.3356 60.6304 22.2418C61.2894 22.6537 61.4541 23.5598 61.0422 24.2188C60.6304 24.8779 59.7242 25.0426 59.0652 24.6307C57.6648 23.7246 56.3467 22.9008 54.6168 22.9008C53.3811 22.9008 52.3102 23.3127 51.5688 23.807C50.8274 24.3836 50.4979 24.9602 50.4979 25.5369C50.4979 25.8664 50.5803 26.1135 50.6627 26.2783C50.8274 26.5254 51.0745 26.7726 51.4041 27.0197C52.1455 27.514 53.3811 27.9258 54.8639 28.2554H54.9463C56.3467 28.5025 57.6648 28.9144 58.7357 29.4086C59.889 29.9853 60.8775 30.6443 61.4541 31.7152C61.866 32.3742 62.1132 33.198 62.1132 34.0218C62.1132 35.7517 61.1246 37.3169 59.7242 38.3054C58.4062 39.294 56.5939 39.8706 54.6168 39.8706C51.6512 39.8706 49.1799 38.3878 47.6147 37.1521C46.9557 36.5755 46.8733 35.6693 47.3675 35.0103Z" fill="#EBEBEB"/>
<path d="M65.4083 35.0103C65.9025 34.4337 66.8087 34.3513 67.3853 34.8456C68.621 35.8341 70.6804 36.9874 72.6575 36.9874C74.0579 36.9874 75.2936 36.5755 76.1174 35.9989C76.9411 35.4222 77.2706 34.6808 77.2706 34.0218C77.2706 33.6923 77.1883 33.4451 77.0235 33.1156C76.8588 32.8685 76.6116 32.539 76.1997 32.2919C75.376 31.7976 74.0579 31.3033 72.4104 30.9738H72.328C71.0099 30.7267 69.8567 30.3972 68.7857 29.9029C67.7148 29.4086 66.8087 28.7496 66.232 27.7611C65.8201 27.1021 65.573 26.3607 65.573 25.5369C65.573 23.8893 66.4792 22.4889 67.7972 21.5004C69.1153 20.5942 70.7628 20.0176 72.5751 20.0176C75.2112 20.0176 77.1883 21.3356 78.5887 22.2418C79.2477 22.6537 79.4125 23.5598 79.0006 24.2188C78.5887 24.8779 77.6825 25.0426 77.0235 24.6307C75.6231 23.7246 74.305 22.9008 72.5751 22.9008C71.3394 22.9008 70.2685 23.3127 69.5271 23.807C68.7857 24.3836 68.4562 24.9602 68.4562 25.5369C68.4562 25.8664 68.5386 26.1135 68.621 26.2783C68.7857 26.5254 69.0329 26.7726 69.3624 27.0197C70.1038 27.514 71.3395 27.9258 72.8222 28.2554H72.9046C74.305 28.5025 75.6231 28.9144 76.694 29.4086C77.8473 29.9853 78.8358 30.6443 79.4125 31.7152C79.8244 32.3742 80.0715 33.198 80.0715 34.0218C80.0715 35.7517 79.083 37.3169 77.6825 38.3054C76.3645 39.294 74.5522 39.8706 72.5751 39.8706C69.6095 39.8706 67.1382 38.3878 65.573 37.1521C65.0787 36.5755 64.9964 35.6693 65.4083 35.0103Z" fill="#EBEBEB"/>
<path d="M228.927 149.928H147.044V202.155H228.927V149.928Z" fill="white"/>
<path d="M229.421 202.65H146.467V149.352H229.339V202.65H229.421ZM147.538 201.661H228.35V150.505H147.538V201.661Z" fill="#EBEBEB"/>
<path d="M228.927 149.928H147.044V159.813H228.927V149.928Z" fill="#FFC107"/>
<path d="M229.421 160.307H146.467V149.434H229.339V160.307H229.421ZM147.538 159.319H228.35V150.505H147.538V159.319Z" fill="#EBEBEB"/>
<path d="M156.271 154.953C156.271 156.353 155.118 157.424 153.799 157.424C152.399 157.424 151.328 156.271 151.328 154.953C151.328 153.552 152.481 152.481 153.799 152.481C155.2 152.481 156.271 153.552 156.271 154.953Z" fill="#A6A6A6"/>
<path d="M166.403 154.953C166.403 156.353 165.249 157.424 163.931 157.424C162.531 157.424 161.46 156.271 161.46 154.953C161.46 153.552 162.613 152.481 163.931 152.481C165.332 152.481 166.403 153.552 166.403 154.953Z" fill="#EBEBEB"/>
<path d="M176.618 154.953C176.618 156.353 175.465 157.424 174.147 157.424C172.747 157.424 171.676 156.271 171.676 154.953C171.676 153.552 172.829 152.481 174.147 152.481C175.465 152.481 176.618 153.552 176.618 154.953Z" fill="white"/>
<path d="M162.284 179.336C162.284 173.9 166.897 169.451 172.417 169.451C174.806 169.451 177.03 170.275 178.76 171.593C179.419 172.17 179.501 173.076 179.007 173.817C178.43 174.476 177.442 174.641 176.783 174.147C175.547 173.158 174.064 172.664 172.334 172.664C170.44 172.664 168.71 173.405 167.392 174.641C166.156 175.877 165.415 177.524 165.415 179.419C165.415 181.314 166.156 182.961 167.392 184.197C168.71 185.432 170.44 186.174 172.334 186.174C174.064 186.174 175.547 185.68 176.783 184.691C177.442 184.197 178.43 184.362 179.007 185.021C179.501 185.68 179.419 186.668 178.76 187.245C177.03 188.563 174.806 189.387 172.417 189.387C166.897 189.222 162.367 184.773 162.284 179.336Z" fill="#EBEBEB"/>
<path d="M188.645 181.066H184.773C183.949 181.066 183.29 180.407 183.29 179.583C183.29 178.76 183.949 178.101 184.773 178.101H188.645V174.311C188.645 173.405 189.304 172.746 190.21 172.746C191.034 172.746 191.775 173.405 191.775 174.311V178.101H195.647C196.47 178.101 197.129 178.76 197.129 179.583C197.129 180.407 196.47 181.066 195.647 181.066H191.775V184.856C191.775 185.762 191.034 186.421 190.21 186.421C189.304 186.421 188.645 185.762 188.645 184.856V181.066Z" fill="#EBEBEB"/>
<path d="M205.697 181.066H201.826C201.002 181.066 200.343 180.407 200.343 179.583C200.343 178.76 201.002 178.101 201.826 178.101H205.697V174.311C205.697 173.405 206.356 172.746 207.263 172.746C208.086 172.746 208.828 173.405 208.828 174.311V178.101H212.699C213.523 178.101 214.182 178.76 214.182 179.583C214.182 180.407 213.523 181.066 212.699 181.066H208.828V184.856C208.828 185.762 208.086 186.421 207.263 186.421C206.356 186.421 205.697 185.762 205.697 184.856V181.066Z" fill="#EBEBEB"/>
<path d="M190.621 49.5918H54.1211V161.708H190.621V49.5918Z" fill="white"/>
<path d="M191.198 162.202H53.627V49.0977H191.198V162.202ZM54.6979 161.214H190.209V50.0862H54.6979V161.214Z" fill="#EBEBEB"/>
<path d="M190.621 49.5918H54.1211V59.4771H190.621V49.5918Z" fill="#FFC107"/>
<path d="M191.198 59.9715H53.627V49.0977H191.198V59.9715ZM54.6979 58.983H190.209V50.0862H54.6979V58.983Z" fill="#EBEBEB"/>
<path d="M63.4309 54.6168C63.4309 56.0173 62.2777 57.0882 60.9596 57.0882C59.5592 57.0882 58.4883 55.9349 58.4883 54.6168C58.4883 53.2164 59.6416 52.1455 60.9596 52.1455C62.36 52.1455 63.4309 53.2164 63.4309 54.6168Z" fill="#A6A6A6"/>
<path d="M73.5628 54.6168C73.5628 56.0173 72.4095 57.0882 71.0914 57.0882C69.691 57.0882 68.6201 55.9349 68.6201 54.6168C68.6201 53.2164 69.7734 52.1455 71.0914 52.1455C72.4919 52.1455 73.5628 53.2164 73.5628 54.6168Z" fill="#EBEBEB"/>
<path d="M83.6956 54.6168C83.6956 56.0173 82.5423 57.0882 81.2243 57.0882C79.8238 57.0882 78.7529 55.9349 78.7529 54.6168C78.7529 53.2164 79.9062 52.1455 81.2243 52.1455C82.6247 52.1455 83.6956 53.2164 83.6956 54.6168Z" fill="white"/>
<path d="M70.0202 79.083H64.748V80.9777H70.0202V79.083Z" fill="#EBEBEB"/>
<path d="M134.439 79.083H73.8916V80.9777H134.439V79.083Z" fill="#EBEBEB"/>
<path d="M147.784 79.083H137.734V80.9777H147.784V79.083Z" fill="#FFC107"/>
<path d="M170.686 104.95H160.636V106.845H170.686V104.95Z" fill="#EBEBEB"/>
<path d="M167.226 79.083H149.927V80.9777H167.226V79.083Z" fill="#A6A6A6"/>
<path d="M75.2927 84.2734H70.0205V86.1681H75.2927V84.2734Z" fill="#EBEBEB"/>
<path d="M118.787 84.2734H78.999V86.1681H118.787V84.2734Z" fill="#A6A6A6"/>
<path d="M158.329 104.95H135.016V106.845H158.329V104.95Z" fill="#A6A6A6"/>
<path d="M111.868 99.7598H73.8916V101.654H111.868V99.7598Z" fill="#A6A6A6"/>
<path d="M105.607 89.4629H78.999V91.3576H105.607V89.4629Z" fill="#FFC107"/>
<path d="M154.54 94.5703H144.407V96.465H154.54V94.5703Z" fill="#A6A6A6"/>
<path d="M151.162 89.4629H108.655V91.3576H151.162V89.4629Z" fill="#A6A6A6"/>
<path d="M124.636 104.95H73.8916V106.845H124.636V104.95Z" fill="#FFC107"/>
<path d="M176.288 84.2734H148.773V86.1681H176.288V84.2734Z" fill="#FFC107"/>
<path d="M146.631 84.2734H121.259V86.1681H146.631V84.2734Z" fill="#EBEBEB"/>
<path d="M170.274 89.4629H153.14V91.3576H170.274V89.4629Z" fill="#EBEBEB"/>
<path d="M75.2927 89.4629H70.0205V91.3576H75.2927V89.4629Z" fill="#EBEBEB"/>
<path d="M70.0202 94.5703H64.748V96.465H70.0202V94.5703Z" fill="#A6A6A6"/>
<path d="M105.113 94.5703H73.8916V96.465H105.113V94.5703Z" fill="#EBEBEB"/>
<path d="M110.22 110.058H78.999V111.952H110.22V110.058Z" fill="#EBEBEB"/>
<path d="M160.965 115.247H137.24V117.142H160.965V115.247Z" fill="#FFC107"/>
<path d="M144.078 110.057H112.774V111.951H144.078V110.057Z" fill="#FFC107"/>
<path d="M134.522 115.247H107.255V117.142H134.522V115.247Z" fill="#EBEBEB"/>
<path d="M88.0606 115.247H78.999V117.142H88.0606V115.247Z" fill="#A6A6A6"/>
<path d="M147.702 99.7598H114.01V101.654H147.702V99.7598Z" fill="#EBEBEB"/>
<path d="M171.427 99.7598H149.927V101.654H171.427V99.7598Z" fill="#FFC107"/>
<path d="M141.936 94.5703H108.243V96.465H141.936V94.5703Z" fill="#FFC107"/>
<path d="M70.0202 99.7598H64.748V101.654H70.0202V99.7598Z" fill="#EBEBEB"/>
<path d="M70.0202 104.95H64.748V106.845H70.0202V104.95Z" fill="#EBEBEB"/>
<path d="M75.2927 110.058H70.0205V111.952H75.2927V110.058Z" fill="#A6A6A6"/>
<path d="M75.2927 115.247H70.0205V117.142H75.2927V115.247Z" fill="#EBEBEB"/>
<path d="M70.0202 119.613H64.748V121.508H70.0202V119.613Z" fill="#EBEBEB"/>
<path d="M134.439 119.613H73.8916V121.508H134.439V119.613Z" fill="#EBEBEB"/>
<path d="M75.2927 124.721H70.0205V126.615H75.2927V124.721Z" fill="#EBEBEB"/>
<path d="M118.787 124.721H78.999V126.615H118.787V124.721Z" fill="#A6A6A6"/>
<path d="M111.868 140.208H73.8916V142.103H111.868V140.208Z" fill="#A6A6A6"/>
<path d="M105.607 129.91H78.999V131.805H105.607V129.91Z" fill="#FFC107"/>
<path d="M151.162 129.91H108.655V131.805H151.162V129.91Z" fill="#A6A6A6"/>
<path d="M124.636 145.397H73.8916V147.292H124.636V145.397Z" fill="#FFC107"/>
<path d="M176.288 124.721H148.773V126.615H176.288V124.721Z" fill="#FFC107"/>
<path d="M146.631 124.721H121.259V126.615H146.631V124.721Z" fill="#EBEBEB"/>
<path d="M170.274 129.91H153.14V131.805H170.274V129.91Z" fill="#EBEBEB"/>
<path d="M75.2927 129.91H70.0205V131.805H75.2927V129.91Z" fill="#EBEBEB"/>
<path d="M70.0202 135.018H64.748V136.912H70.0202V135.018Z" fill="#A6A6A6"/>
<path d="M105.113 135.018H73.8916V136.912H105.113V135.018Z" fill="#EBEBEB"/>
<path d="M147.702 140.208H114.01V142.103H147.702V140.208Z" fill="#EBEBEB"/>
<path d="M141.936 135.018H108.243V136.912H141.936V135.018Z" fill="#FFC107"/>
<path d="M70.0202 140.208H64.748V142.103H70.0202V140.208Z" fill="#EBEBEB"/>
<path d="M68.0437 74.0582C68.2084 74.223 68.2084 74.5525 68.0437 74.7172C67.9613 74.7996 67.8789 74.882 67.7141 74.882C67.6318 74.882 67.467 74.7996 67.3846 74.7172L65.3252 72.6578C65.3252 72.6578 65.3252 72.6578 65.3252 72.5754C65.3252 72.5754 65.3252 72.5754 65.3252 72.493C65.3252 72.493 65.3252 72.4931 65.3252 72.4107C65.3252 72.4107 65.3252 72.4107 65.3252 72.3283C65.3252 72.3283 65.3252 72.3283 65.3252 72.2459C65.3252 72.2459 65.3252 72.2459 65.3252 72.1635C65.3252 72.1635 65.3252 72.1635 65.3252 72.0812V71.9988C65.3252 71.9988 65.3252 71.9988 65.4076 71.9164L67.467 69.857C67.6318 69.6922 67.9613 69.6922 68.126 69.857C68.2908 70.0217 68.2908 70.3512 68.126 70.516L66.3961 72.2459L68.0437 74.0582Z" fill="#FFC107"/>
<path d="M69.8565 74.3056L71.6688 70.022C71.7512 69.8572 71.9984 69.6925 72.1631 69.7748C72.3279 69.8572 72.4926 70.1044 72.3279 70.2691L70.5156 74.4704C70.4332 74.6351 70.2684 74.7175 70.186 74.7175C70.1037 74.7175 70.1037 74.7175 70.0213 74.7175C69.8565 74.7175 69.7742 74.4704 69.8565 74.3056Z" fill="#FFC107"/>
<path d="M75.8694 72.5751L73.8099 74.7169C73.7276 74.7993 73.5628 74.8817 73.4804 74.8817C73.398 74.8817 73.2333 74.7993 73.1509 74.7169C72.9862 74.5521 72.9862 74.2226 73.1509 74.0579L74.8808 72.328L73.1509 70.598C72.9862 70.4333 72.9862 70.1038 73.1509 69.939C73.3157 69.7742 73.6452 69.7742 73.8099 69.939L75.8694 71.9984C75.8694 71.9984 75.8694 71.9984 75.9517 72.0808V72.1632C75.9517 72.1632 75.9517 72.1632 75.9517 72.2456C75.9517 72.2456 75.9517 72.2456 75.9517 72.328C75.9517 72.328 75.9517 72.328 75.9517 72.4103V72.4927C75.9517 72.4927 75.9517 72.4927 75.8694 72.5751Z" fill="#FFC107"/>
<rect width="47.8399" height="21.4543" transform="translate(161 35)" fill="#204D6B"/>
<path d="M169.85 48.4236C169.4 48.4236 168.983 48.3401 168.598 48.1732C168.213 47.9999 167.885 47.7656 167.616 47.4703C167.346 47.175 167.147 46.8347 167.019 46.4495L167.981 46.0451C168.155 46.4881 168.408 46.8283 168.742 47.0658C169.076 47.3033 169.461 47.4221 169.898 47.4221C170.155 47.4221 170.379 47.3836 170.572 47.3066C170.764 47.2231 170.912 47.1075 171.015 46.9599C171.124 46.8122 171.178 46.6421 171.178 46.4495C171.178 46.1863 171.105 45.9777 170.957 45.8236C170.809 45.6696 170.591 45.5476 170.302 45.4577L168.954 45.034C168.415 44.8671 168.004 44.6135 167.722 44.2733C167.439 43.9266 167.298 43.5222 167.298 43.06C167.298 42.6556 167.397 42.3025 167.596 42.0008C167.795 41.6926 168.068 41.4519 168.415 41.2785C168.768 41.1052 169.169 41.0186 169.618 41.0186C170.049 41.0186 170.44 41.0956 170.793 41.2497C171.146 41.3973 171.448 41.6027 171.698 41.8659C171.955 42.1291 172.141 42.4341 172.257 42.7807L171.313 43.1948C171.172 42.816 170.951 42.524 170.649 42.3185C170.354 42.1131 170.01 42.0104 169.618 42.0104C169.381 42.0104 169.172 42.0521 168.993 42.1356C168.813 42.2126 168.672 42.3282 168.569 42.4822C168.473 42.6299 168.424 42.8032 168.424 43.0022C168.424 43.2333 168.498 43.4387 168.646 43.6185C168.794 43.7982 169.018 43.9331 169.32 44.0229L170.572 44.4177C171.143 44.5911 171.573 44.8414 171.862 45.1688C172.151 45.4898 172.295 45.891 172.295 46.3725C172.295 46.7705 172.19 47.1236 171.978 47.4317C171.772 47.7399 171.487 47.9838 171.121 48.1636C170.755 48.3369 170.331 48.4236 169.85 48.4236Z" fill="white"/>
<path d="M173.465 48.308V41.0186H174.553V44.1192L174.38 43.9844C174.508 43.657 174.714 43.4099 174.996 43.2429C175.279 43.0696 175.606 42.983 175.978 42.983C176.364 42.983 176.704 43.0664 176.999 43.2333C177.294 43.4002 177.525 43.6313 177.692 43.9266C177.859 44.2219 177.943 44.559 177.943 44.9377V48.308H176.864V45.2362C176.864 44.973 176.813 44.7516 176.71 44.5718C176.614 44.3856 176.479 44.2444 176.306 44.1481C176.132 44.0454 175.933 43.994 175.709 43.994C175.49 43.994 175.291 44.0454 175.112 44.1481C174.938 44.2444 174.8 44.3856 174.698 44.5718C174.601 44.758 174.553 44.9795 174.553 45.2362V48.308H173.465Z" fill="white"/>
<path d="M181.621 48.4236C181.12 48.4236 180.661 48.3048 180.244 48.0673C179.833 47.8298 179.505 47.5056 179.261 47.0947C179.017 46.6839 178.895 46.2184 178.895 45.6984C178.895 45.172 179.017 44.7066 179.261 44.3022C179.505 43.8913 179.833 43.5703 180.244 43.3392C180.654 43.1017 181.113 42.983 181.621 42.983C182.134 42.983 182.593 43.1017 182.998 43.3392C183.408 43.5703 183.733 43.8913 183.97 44.3022C184.214 44.7066 184.336 45.172 184.336 45.6984C184.336 46.2249 184.214 46.6935 183.97 47.1043C183.726 47.5152 183.399 47.8394 182.988 48.0769C182.577 48.308 182.121 48.4236 181.621 48.4236ZM181.621 47.4125C181.929 47.4125 182.202 47.3387 182.439 47.191C182.677 47.0434 182.863 46.8411 182.998 46.5844C183.139 46.3211 183.209 46.0258 183.209 45.6984C183.209 45.371 183.139 45.079 182.998 44.8222C182.863 44.5654 182.677 44.3632 182.439 44.2155C182.202 44.0679 181.929 43.994 181.621 43.994C181.319 43.994 181.046 44.0679 180.802 44.2155C180.565 44.3632 180.375 44.5654 180.234 44.8222C180.099 45.079 180.032 45.371 180.032 45.6984C180.032 46.0258 180.099 46.3211 180.234 46.5844C180.375 46.8411 180.565 47.0434 180.802 47.191C181.046 47.3387 181.319 47.4125 181.621 47.4125Z" fill="white"/>
<path d="M185.398 50.2339V43.0985H186.438V44.177L186.313 43.9266C186.506 43.6313 186.763 43.4002 187.084 43.2333C187.405 43.0664 187.77 42.983 188.181 42.983C188.676 42.983 189.119 43.1017 189.51 43.3392C189.908 43.5768 190.22 43.901 190.444 44.3118C190.675 44.7227 190.791 45.1849 190.791 45.6984C190.791 46.212 190.675 46.6742 190.444 47.0851C190.22 47.4959 189.911 47.8233 189.52 48.0673C189.128 48.3048 188.682 48.4236 188.181 48.4236C187.777 48.4236 187.408 48.3401 187.074 48.1732C186.747 48.0063 186.493 47.7656 186.313 47.451L186.487 47.2488V50.2339H185.398ZM188.075 47.4125C188.383 47.4125 188.656 47.3387 188.894 47.191C189.131 47.0434 189.318 46.8411 189.452 46.5844C189.594 46.3211 189.664 46.0258 189.664 45.6984C189.664 45.371 189.594 45.079 189.452 44.8222C189.318 44.5654 189.131 44.3632 188.894 44.2155C188.656 44.0679 188.383 43.994 188.075 43.994C187.774 43.994 187.501 44.0679 187.257 44.2155C187.019 44.3632 186.83 44.5654 186.689 44.8222C186.554 45.079 186.487 45.371 186.487 45.6984C186.487 46.0258 186.554 46.3211 186.689 46.5844C186.83 46.8411 187.019 47.0434 187.257 47.191C187.501 47.3387 187.774 47.4125 188.075 47.4125Z" fill="white"/>
<path d="M191.849 48.308V43.0985H192.937V48.308H191.849ZM191.849 42.3859V41.1341H192.937V42.3859H191.849Z" fill="white"/>
<path d="M194.797 48.308V44.0807H193.834V43.0985H194.797V42.8289C194.797 42.4373 194.877 42.1099 195.038 41.8467C195.198 41.5771 195.42 41.3716 195.702 41.2304C195.991 41.0892 196.322 41.0186 196.694 41.0186C196.765 41.0186 196.845 41.025 196.935 41.0378C197.025 41.0442 197.098 41.0539 197.156 41.0667V42.0104C197.105 41.9975 197.047 41.9911 196.983 41.9911C196.919 41.9847 196.867 41.9815 196.829 41.9815C196.54 41.9815 196.309 42.0489 196.136 42.1837C195.962 42.3121 195.876 42.5272 195.876 42.8289V43.0985H197.07V44.0807H195.876V48.308H194.797Z" fill="white"/>
<path d="M198.546 50.4361C198.418 50.4361 198.289 50.4233 198.161 50.3976C198.039 50.3783 197.927 50.3462 197.824 50.3013V49.3672C197.901 49.3865 197.994 49.4026 198.103 49.4154C198.212 49.4347 198.318 49.4443 198.421 49.4443C198.723 49.4443 198.944 49.3769 199.085 49.2421C199.233 49.1137 199.365 48.9115 199.48 48.6354L199.827 47.8458L199.808 48.7606L197.554 43.0985H198.72L200.385 47.4414H199.991L201.647 43.0985H202.822L200.52 48.8762C200.398 49.1843 200.244 49.4539 200.058 49.685C199.878 49.9225 199.663 50.1055 199.413 50.2339C199.169 50.3687 198.88 50.4361 198.546 50.4361Z" fill="white"/>
<rect width="87.6557" height="19.4418" transform="translate(17 131)" fill="#204D6B"/>
<path d="M24.9926 144.308L23.0186 137.134H24.2222L25.8207 143.345H25.5222L27.1785 137.134H28.3629L30.0191 143.345H29.711L31.3191 137.134H32.5131L30.5488 144.308H29.268L27.6022 138.193H27.9392L26.2637 144.308H24.9926Z" fill="white"/>
<path d="M35.4275 144.424C34.9268 144.424 34.4678 144.305 34.0505 144.067C33.6397 143.83 33.3123 143.506 33.0683 143.095C32.8244 142.684 32.7024 142.218 32.7024 141.698C32.7024 141.172 32.8244 140.707 33.0683 140.302C33.3123 139.891 33.6397 139.57 34.0505 139.339C34.4614 139.102 34.9204 138.983 35.4275 138.983C35.9411 138.983 36.4001 139.102 36.8046 139.339C37.2154 139.57 37.5396 139.891 37.7771 140.302C38.0211 140.707 38.143 141.172 38.143 141.698C38.143 142.225 38.0211 142.693 37.7771 143.104C37.5332 143.515 37.2058 143.839 36.7949 144.077C36.3841 144.308 35.9283 144.424 35.4275 144.424ZM35.4275 143.412C35.7357 143.412 36.0085 143.339 36.246 143.191C36.4836 143.043 36.6697 142.841 36.8046 142.584C36.9458 142.321 37.0164 142.026 37.0164 141.698C37.0164 141.371 36.9458 141.079 36.8046 140.822C36.6697 140.565 36.4836 140.363 36.246 140.216C36.0085 140.068 35.7357 139.994 35.4275 139.994C35.1258 139.994 34.853 140.068 34.609 140.216C34.3715 140.363 34.1821 140.565 34.0409 140.822C33.9061 141.079 33.8387 141.371 33.8387 141.698C33.8387 142.026 33.9061 142.321 34.0409 142.584C34.1821 142.841 34.3715 143.043 34.609 143.191C34.853 143.339 35.1258 143.412 35.4275 143.412Z" fill="white"/>
<path d="M41.7186 144.424C41.2179 144.424 40.7589 144.305 40.3416 144.067C39.9308 143.83 39.6034 143.506 39.3594 143.095C39.1155 142.684 38.9935 142.218 38.9935 141.698C38.9935 141.172 39.1155 140.707 39.3594 140.302C39.6034 139.891 39.9308 139.57 40.3416 139.339C40.7525 139.102 41.2115 138.983 41.7186 138.983C42.2322 138.983 42.6912 139.102 43.0956 139.339C43.5065 139.57 43.8307 139.891 44.0682 140.302C44.3122 140.707 44.4341 141.172 44.4341 141.698C44.4341 142.225 44.3122 142.693 44.0682 143.104C43.8243 143.515 43.4969 143.839 43.086 144.077C42.6752 144.308 42.2194 144.424 41.7186 144.424ZM41.7186 143.412C42.0268 143.412 42.2996 143.339 42.5371 143.191C42.7747 143.043 42.9608 142.841 43.0956 142.584C43.2369 142.321 43.3075 142.026 43.3075 141.698C43.3075 141.371 43.2369 141.079 43.0956 140.822C42.9608 140.565 42.7747 140.363 42.5371 140.216C42.2996 140.068 42.0268 139.994 41.7186 139.994C41.4169 139.994 41.1441 140.068 40.9001 140.216C40.6626 140.363 40.4732 140.565 40.332 140.822C40.1972 141.079 40.1298 141.371 40.1298 141.698C40.1298 142.026 40.1972 142.321 40.332 142.584C40.4732 142.841 40.6626 143.043 40.9001 143.191C41.1441 143.339 41.4169 143.412 41.7186 143.412Z" fill="white"/>
<path d="M50.627 144.424C50.1199 144.424 49.6481 144.33 49.2115 144.144C48.7814 143.958 48.4059 143.701 48.0849 143.374C47.7703 143.04 47.5232 142.649 47.3434 142.199C47.1637 141.75 47.0738 141.255 47.0738 140.716C47.0738 140.183 47.1605 139.692 47.3338 139.243C47.5135 138.787 47.7639 138.396 48.0849 138.068C48.4059 137.734 48.7814 137.478 49.2115 137.298C49.6416 137.112 50.1135 137.019 50.627 137.019C51.1342 137.019 51.5868 137.105 51.9848 137.279C52.3892 137.452 52.7295 137.68 53.0055 137.962C53.2815 138.238 53.4806 138.54 53.6025 138.867L52.5818 139.349C52.4277 138.964 52.1806 138.652 51.8403 138.415C51.5065 138.171 51.1021 138.049 50.627 138.049C50.152 138.049 49.7315 138.161 49.3656 138.386C48.9997 138.611 48.714 138.922 48.5086 139.32C48.3096 139.718 48.2101 140.183 48.2101 140.716C48.2101 141.249 48.3096 141.718 48.5086 142.122C48.714 142.52 48.9997 142.832 49.3656 143.056C49.7315 143.274 50.152 143.384 50.627 143.384C51.1021 143.384 51.5065 143.265 51.8403 143.027C52.1806 142.79 52.4277 142.478 52.5818 142.093L53.6025 142.575C53.4806 142.896 53.2815 143.197 53.0055 143.48C52.7295 143.762 52.3892 143.99 51.9848 144.164C51.5868 144.337 51.1342 144.424 50.627 144.424Z" fill="white"/>
<path d="M57.0843 144.424C56.5836 144.424 56.1246 144.305 55.7073 144.067C55.2964 143.83 54.969 143.506 54.7251 143.095C54.4812 142.684 54.3592 142.218 54.3592 141.698C54.3592 141.172 54.4812 140.707 54.7251 140.302C54.969 139.891 55.2964 139.57 55.7073 139.339C56.1182 139.102 56.5772 138.983 57.0843 138.983C57.5979 138.983 58.0569 139.102 58.4613 139.339C58.8722 139.57 59.1964 139.891 59.4339 140.302C59.6778 140.707 59.7998 141.172 59.7998 141.698C59.7998 142.225 59.6778 142.693 59.4339 143.104C59.1899 143.515 58.8625 143.839 58.4517 144.077C58.0408 144.308 57.585 144.424 57.0843 144.424ZM57.0843 143.412C57.3924 143.412 57.6653 143.339 57.9028 143.191C58.1403 143.043 58.3265 142.841 58.4613 142.584C58.6025 142.321 58.6732 142.026 58.6732 141.698C58.6732 141.371 58.6025 141.079 58.4613 140.822C58.3265 140.565 58.1403 140.363 57.9028 140.216C57.6653 140.068 57.3924 139.994 57.0843 139.994C56.7826 139.994 56.5098 140.068 56.2658 140.216C56.0283 140.363 55.8389 140.565 55.6977 140.822C55.5629 141.079 55.4955 141.371 55.4955 141.698C55.4955 142.026 55.5629 142.321 55.6977 142.584C55.8389 142.841 56.0283 143.043 56.2658 143.191C56.5098 143.339 56.7826 143.412 57.0843 143.412Z" fill="white"/>
<path d="M60.8621 144.308V139.099H61.9021V140.225L61.7673 140.052C61.8764 139.699 62.0754 139.432 62.3643 139.253C62.6532 139.073 62.9838 138.983 63.3561 138.983C63.7734 138.983 64.1425 139.095 64.4635 139.32C64.7909 139.538 65.0092 139.83 65.1183 140.196L64.8102 140.225C64.9642 139.808 65.1986 139.497 65.5131 139.291C65.8341 139.086 66.2 138.983 66.6109 138.983C66.9704 138.983 67.2946 139.066 67.5835 139.233C67.8787 139.4 68.1131 139.631 68.2864 139.927C68.4597 140.222 68.5464 140.559 68.5464 140.938V144.308H67.4583V141.236C67.4583 140.973 67.4101 140.752 67.3138 140.572C67.2239 140.386 67.0956 140.244 66.9286 140.148C66.7682 140.045 66.5788 139.994 66.3605 139.994C66.1422 139.994 65.9497 140.045 65.7827 140.148C65.6158 140.244 65.4842 140.386 65.3879 140.572C65.2916 140.758 65.2435 140.979 65.2435 141.236V144.308H64.165V141.236C64.165 140.973 64.1169 140.752 64.0206 140.572C63.9307 140.386 63.8023 140.244 63.6354 140.148C63.4749 140.045 63.2823 139.994 63.0576 139.994C62.8394 139.994 62.6468 140.045 62.4799 140.148C62.313 140.244 62.1813 140.386 62.0851 140.572C61.9952 140.758 61.9502 140.979 61.9502 141.236V144.308H60.8621Z" fill="white"/>
<path d="M69.711 144.308V139.099H70.751V140.225L70.6162 140.052C70.7253 139.699 70.9243 139.432 71.2132 139.253C71.5021 139.073 71.8327 138.983 72.205 138.983C72.6223 138.983 72.9914 139.095 73.3124 139.32C73.6398 139.538 73.8581 139.83 73.9672 140.196L73.6591 140.225C73.8131 139.808 74.0475 139.497 74.362 139.291C74.683 139.086 75.0489 138.983 75.4598 138.983C75.8193 138.983 76.1435 139.066 76.4323 139.233C76.7276 139.4 76.962 139.631 77.1353 139.927C77.3086 140.222 77.3953 140.559 77.3953 140.938V144.308H76.3072V141.236C76.3072 140.973 76.259 140.752 76.1627 140.572C76.0728 140.386 75.9445 140.244 75.7775 140.148C75.6171 140.045 75.4277 139.994 75.2094 139.994C74.9911 139.994 74.7986 140.045 74.6316 140.148C74.4647 140.244 74.3331 140.386 74.2368 140.572C74.1405 140.758 74.0924 140.979 74.0924 141.236V144.308H73.0139V141.236C73.0139 140.973 72.9658 140.752 72.8695 140.572C72.7796 140.386 72.6512 140.244 72.4843 140.148C72.3238 140.045 72.1312 139.994 71.9065 139.994C71.6883 139.994 71.4957 140.045 71.3288 140.148C71.1618 140.244 71.0302 140.386 70.934 140.572C70.8441 140.758 70.7991 140.979 70.7991 141.236V144.308H69.711Z" fill="white"/>
<path d="M81.0058 144.424C80.4858 144.424 80.0236 144.305 79.6191 144.067C79.2211 143.823 78.9098 143.496 78.6851 143.085C78.4604 142.668 78.3481 142.202 78.3481 141.689C78.3481 141.162 78.4604 140.697 78.6851 140.293C78.9162 139.888 79.2243 139.57 79.6095 139.339C79.9947 139.102 80.4312 138.983 80.9191 138.983C81.3107 138.983 81.6606 139.05 81.9687 139.185C82.2769 139.32 82.5369 139.506 82.7487 139.744C82.9606 139.975 83.121 140.241 83.2302 140.543C83.3457 140.845 83.4035 141.166 83.4035 141.506C83.4035 141.589 83.4003 141.676 83.3939 141.766C83.3875 141.856 83.3746 141.939 83.3554 142.016H79.2051V141.15H82.7391L82.2191 141.544C82.2833 141.23 82.2608 140.951 82.1517 140.707C82.049 140.456 81.8885 140.26 81.6702 140.119C81.4584 139.972 81.208 139.898 80.9191 139.898C80.6302 139.898 80.3735 139.972 80.1488 140.119C79.9241 140.26 79.7507 140.466 79.6288 140.736C79.5068 140.999 79.4587 141.32 79.4843 141.698C79.4522 142.052 79.5004 142.36 79.6288 142.623C79.7636 142.886 79.9498 143.092 80.1873 143.239C80.4312 143.387 80.7073 143.461 81.0154 143.461C81.33 143.461 81.5964 143.39 81.8147 143.249C82.0393 143.108 82.2159 142.925 82.3443 142.7L83.2302 143.133C83.1275 143.377 82.967 143.599 82.7487 143.798C82.5369 143.99 82.2801 144.144 81.9784 144.26C81.6831 144.369 81.3589 144.424 81.0058 144.424Z" fill="white"/>
<path d="M84.4654 144.308V139.099H85.5054V140.148L85.4091 139.994C85.5247 139.654 85.7108 139.41 85.9676 139.262C86.2244 139.108 86.5326 139.031 86.8921 139.031H87.2098V140.023H86.7572C86.3977 140.023 86.1057 140.135 85.881 140.36C85.6627 140.578 85.5536 140.893 85.5536 141.304V144.308H84.4654Z" fill="white"/>
<path d="M90.429 144.424C89.909 144.424 89.4468 144.305 89.0424 144.067C88.6443 143.823 88.3266 143.496 88.089 143.085C87.8579 142.674 87.7424 142.209 87.7424 141.689C87.7424 141.175 87.8579 140.713 88.089 140.302C88.3201 139.891 88.6379 139.57 89.0424 139.339C89.4468 139.102 89.909 138.983 90.429 138.983C90.7821 138.983 91.1127 139.047 91.4208 139.176C91.729 139.298 91.9954 139.468 92.2201 139.686C92.4512 139.904 92.6213 140.158 92.7304 140.447L91.7771 140.89C91.668 140.62 91.4914 140.405 91.2475 140.244C91.01 140.077 90.7371 139.994 90.429 139.994C90.1337 139.994 89.8673 140.068 89.6297 140.216C89.3986 140.357 89.2157 140.559 89.0809 140.822C88.9461 141.079 88.8787 141.371 88.8787 141.698C88.8787 142.026 88.9461 142.321 89.0809 142.584C89.2157 142.841 89.3986 143.043 89.6297 143.191C89.8673 143.339 90.1337 143.412 90.429 143.412C90.7435 143.412 91.0164 143.332 91.2475 143.172C91.485 143.005 91.6616 142.783 91.7771 142.507L92.7304 142.96C92.6277 143.236 92.4608 143.486 92.2297 143.711C92.005 143.929 91.7386 144.103 91.4304 144.231C91.1223 144.359 90.7885 144.424 90.429 144.424Z" fill="white"/>
<path d="M96.2398 144.424C95.7198 144.424 95.2576 144.305 94.8532 144.067C94.4552 143.823 94.1438 143.496 93.9191 143.085C93.6944 142.668 93.5821 142.202 93.5821 141.689C93.5821 141.162 93.6944 140.697 93.9191 140.293C94.1502 139.888 94.4584 139.57 94.8435 139.339C95.2287 139.102 95.6653 138.983 96.1531 138.983C96.5447 138.983 96.8946 139.05 97.2027 139.185C97.5109 139.32 97.7709 139.506 97.9827 139.744C98.1946 139.975 98.3551 140.241 98.4642 140.543C98.5798 140.845 98.6375 141.166 98.6375 141.506C98.6375 141.589 98.6343 141.676 98.6279 141.766C98.6215 141.856 98.6086 141.939 98.5894 142.016H94.4391V141.15H97.9731L97.4531 141.544C97.5173 141.23 97.4948 140.951 97.3857 140.707C97.283 140.456 97.1225 140.26 96.9042 140.119C96.6924 139.972 96.442 139.898 96.1531 139.898C95.8643 139.898 95.6075 139.972 95.3828 140.119C95.1581 140.26 94.9848 140.466 94.8628 140.736C94.7408 140.999 94.6927 141.32 94.7184 141.698C94.6863 142.052 94.7344 142.36 94.8628 142.623C94.9976 142.886 95.1838 143.092 95.4213 143.239C95.6652 143.387 95.9413 143.461 96.2494 143.461C96.564 143.461 96.8304 143.39 97.0487 143.249C97.2734 143.108 97.4499 142.925 97.5783 142.7L98.4642 143.133C98.3615 143.377 98.201 143.599 97.9827 143.798C97.7709 143.99 97.5141 144.144 97.2124 144.26C96.9171 144.369 96.5929 144.424 96.2398 144.424Z" fill="white"/>
<path d="M192.681 111.457L196.224 119.86L192.681 121.26L189.222 112.775L183.455 117.306V93.5811L200.013 110.304L192.681 111.457Z" fill="#263238"/>
<path d="M183.455 90.9453C183.29 90.5334 183.29 90.1215 183.208 89.792C183.208 89.3801 183.29 88.9682 183.455 88.6387C183.62 89.0506 183.62 89.4625 183.702 89.792C183.62 90.1215 183.62 90.5334 183.455 90.9453Z" fill="#263238"/>
<path d="M181.396 91.7686C180.984 91.6039 180.654 91.3568 180.407 91.1096C180.16 90.8625 179.913 90.533 179.748 90.1211C180.16 90.2858 180.489 90.533 180.737 90.7801C180.984 91.1096 181.231 91.4391 181.396 91.7686Z" fill="#263238"/>
<path d="M180.572 93.8282C180.16 93.9929 179.748 93.9929 179.419 94.0753C179.007 94.0753 178.595 93.9929 178.266 93.8282C178.678 93.6634 179.089 93.6634 179.419 93.5811C179.748 93.6634 180.16 93.6634 180.572 93.8282Z" fill="#263238"/>
<path d="M181.396 95.8877C181.231 96.2996 180.984 96.6291 180.737 96.8762C180.489 97.1234 180.16 97.3705 179.748 97.5352C179.913 97.1234 180.16 96.7938 180.407 96.5467C180.654 96.2996 180.984 96.0525 181.396 95.8877Z" fill="#263238"/>
<path d="M186.339 93.8282C186.751 93.6634 187.163 93.6634 187.492 93.5811C187.904 93.5811 188.316 93.6634 188.645 93.8282C188.234 93.9929 187.822 93.9929 187.492 94.0753C187.163 94.0753 186.751 93.9929 186.339 93.8282Z" fill="#263238"/>
<path d="M185.515 91.7686C185.679 91.3568 185.927 91.0272 186.174 90.7801C186.421 90.533 186.75 90.2858 187.162 90.1211C186.997 90.533 186.75 90.8625 186.503 91.1096C186.174 91.3568 185.927 91.6039 185.515 91.7686Z" fill="#263238"/>
<path d="M245.98 192.681C239.637 220.36 226.786 255.37 216.819 262.455C208.828 268.139 166.815 278.189 164.426 278.436C158.66 279.013 147.127 238.071 153.141 236.341C160.719 234.282 196.718 233.128 198.778 230.986C200.92 228.762 214.018 211.051 228.846 190.457C239.225 176.288 249.934 175.546 245.98 192.681Z" fill="#DD6A57"/>
<path d="M169.123 276.129C168.464 276.459 158.579 281.401 152.565 283.214C148.034 284.532 134.936 287.992 132.959 283.131C131.641 279.836 139.137 276.871 144.327 274.729C147.128 273.576 150.506 270.692 149.682 268.88C148.281 265.75 141.115 268.88 136.419 271.599C127.357 276.871 115.33 286.344 109.811 281.731C107.752 280.001 110.14 276.871 113.683 273.74C107.916 277.365 101.738 280.331 99.349 278.518C97.9486 277.447 97.9486 276.047 98.69 274.399C96.8777 274.976 95.3125 274.894 94.2416 273.74C92.3469 271.763 93.253 268.88 95.3125 265.914C94.6535 265.832 94.0768 265.503 93.5826 264.761C89.7932 258.665 109.564 241.284 116.484 239.718C136.666 234.94 158.167 236.67 158.167 236.67C166.075 243.013 169.123 276.129 169.123 276.129Z" fill="#DD6A57"/>
<path d="M139.466 257.594C134.688 258.335 129.993 260.147 126.038 262.784C120.931 266.161 117.554 270.115 113.187 274.069C113.105 274.152 113.27 274.316 113.352 274.234C115.412 272.339 123.897 265.255 126.038 263.607C130.075 260.642 134.523 258.582 139.466 257.594Z" fill="#263238"/>
<path d="M135.677 249.026C130.405 250.509 124.968 251.91 120.025 254.463C114.671 257.182 110.387 261.713 106.268 265.996C103.797 268.55 101.325 271.186 98.9365 273.904C98.8541 273.987 99.0189 274.234 99.1013 274.069C103.303 269.621 107.669 265.255 112.117 261.136C116.318 257.182 121.014 254.216 126.368 252.157C129.416 251.003 132.547 250.097 135.677 249.191C135.759 249.109 135.759 248.944 135.677 249.026Z" fill="#263238"/>
<path d="M129.993 241.53C124.803 242.601 120.355 243.507 115.742 246.226C109.728 249.85 103.879 256.029 101.82 258.253C99.5955 260.642 97.3713 263.113 95.2295 265.667C95.1471 265.749 95.3119 265.914 95.3942 265.832C100.255 260.312 105.527 255.123 111.128 250.262C113.764 247.956 116.648 245.979 119.943 244.578C123.156 243.178 126.615 242.354 129.993 241.53Z" fill="#263238"/>
<path d="M199.189 226.95L237.907 225.302C237.907 225.302 244.909 206.108 247.545 189.056C250.099 172.004 235.6 178.1 221.267 196.47C206.851 214.923 199.189 226.95 199.189 226.95Z" fill="#FFC107"/>
<path d="M211.876 215.417C212.123 215.335 212.37 215.334 212.7 215.252C212.947 215.17 213.276 215.17 213.606 215.335C214.183 215.582 214.677 216.158 214.677 216.817C214.677 217.229 214.842 217.641 215.253 217.888C215.418 217.971 215.665 218.053 215.912 218.135C216.16 218.218 216.407 218.218 216.736 218.3C216.489 218.382 216.242 218.382 215.912 218.465C215.665 218.547 215.336 218.547 215.006 218.382C214.43 218.135 214.018 217.476 214.018 216.9C214.018 216.488 213.771 216.076 213.441 215.911C213.276 215.829 213.029 215.746 212.782 215.746C212.37 215.499 212.123 215.499 211.876 215.417ZM239.143 191.857C239.39 191.857 239.637 191.939 239.802 192.022C240.132 192.269 240.379 192.681 240.379 193.01C240.379 193.669 240.791 194.328 241.367 194.493C241.614 194.658 242.026 194.658 242.273 194.575C242.52 194.493 242.768 194.493 243.097 194.411C242.85 194.328 242.603 194.328 242.273 194.246C242.026 194.246 241.779 194.163 241.614 193.999C241.285 193.752 241.038 193.34 241.038 192.928C241.038 192.269 240.626 191.692 239.967 191.445C239.72 191.363 239.308 191.363 239.061 191.363C238.813 191.445 238.566 191.445 238.237 191.527C238.566 191.774 238.896 191.774 239.143 191.857ZM240.132 206.932C239.884 207.097 239.72 207.179 239.555 207.261C239.143 207.344 238.649 207.261 238.402 206.932C237.99 206.52 237.248 206.273 236.672 206.602C236.342 206.685 236.177 206.932 236.013 207.179C235.848 207.426 235.683 207.591 235.601 207.838C235.848 207.673 236.013 207.509 236.26 207.426C236.507 207.261 236.672 207.179 236.836 207.097C237.248 207.014 237.66 207.097 237.99 207.426C238.484 207.921 239.225 208.003 239.802 207.756C240.049 207.673 240.296 207.344 240.461 207.179C240.626 206.932 240.791 206.767 240.873 206.52C240.543 206.685 240.296 206.85 240.132 206.932ZM229.587 189.386C229.34 189.55 229.175 189.633 228.928 189.715C228.516 189.797 228.022 189.715 227.775 189.386C227.692 189.303 227.61 189.221 227.61 189.221C227.445 189.386 227.281 189.55 227.116 189.715C227.198 189.797 227.281 189.797 227.363 189.88C227.857 190.374 228.599 190.456 229.175 190.209C229.422 190.127 229.67 189.88 229.834 189.633C229.999 189.386 230.164 189.221 230.246 188.974C229.999 189.056 229.834 189.221 229.587 189.386ZM225.221 203.884C225.221 204.131 225.139 204.378 225.056 204.543C224.809 204.873 224.397 205.12 224.068 205.12C223.409 205.12 222.75 205.532 222.585 206.108C222.42 206.355 222.42 206.767 222.503 207.014C222.585 207.261 222.585 207.509 222.667 207.838C222.75 207.591 222.75 207.344 222.832 207.014C222.832 206.767 222.915 206.52 223.079 206.355C223.326 206.026 223.738 205.779 224.15 205.779C224.809 205.779 225.386 205.367 225.633 204.708C225.715 204.461 225.715 204.049 225.715 203.802C225.633 203.554 225.633 203.307 225.551 202.978C225.304 203.307 225.221 203.554 225.221 203.884ZM236.26 218.63C236.26 218.877 236.177 219.124 236.095 219.289C235.848 219.618 235.436 219.865 235.106 219.865C234.447 219.865 233.788 220.277 233.624 220.854C233.459 221.101 233.459 221.513 233.541 221.76C233.624 222.007 233.624 222.254 233.706 222.584C233.788 222.337 233.788 222.089 233.871 221.76C233.871 221.513 233.953 221.266 234.118 221.101C234.365 220.771 234.777 220.524 235.189 220.524C235.848 220.524 236.425 220.112 236.672 219.453C236.754 219.206 236.754 218.794 236.754 218.547C236.672 218.3 236.672 218.053 236.589 217.723C236.342 218.053 236.342 218.382 236.26 218.63Z" fill="white"/>
<path d="M239.225 216.9C230.822 216.653 222.42 217.065 214.099 217.559C211.71 217.724 209.321 217.889 207.015 218.218C206.933 218.218 206.933 218.3 207.015 218.3C211.216 218.3 215.417 218.136 219.536 218.053C223.738 217.889 227.939 217.724 232.14 217.477C234.529 217.312 236.836 217.23 239.225 216.982C239.307 217.065 239.389 216.9 239.225 216.9Z" fill="#263238"/>
<path d="M210.063 288.898H308.917C309.988 286.921 293.759 200.26 260.479 175.876C253.065 170.439 239.967 173.981 236.342 179.171C217.972 205.697 210.063 288.898 210.063 288.898Z" fill="#FFC107"/>
<path d="M251.994 215.417C252.241 215.335 252.488 215.335 252.817 215.252C253.065 215.17 253.394 215.17 253.724 215.335C254.3 215.582 254.794 216.158 254.794 216.817C254.794 217.229 254.959 217.641 255.371 217.888C255.536 217.971 255.783 218.053 256.03 218.135C256.277 218.218 256.524 218.218 256.854 218.3C256.607 218.383 256.36 218.383 256.03 218.465C255.783 218.547 255.453 218.547 255.124 218.383C254.547 218.135 254.135 217.476 254.135 216.9C254.135 216.488 253.888 216.076 253.559 215.911C253.394 215.829 253.147 215.746 252.9 215.746C252.488 215.499 252.241 215.499 251.994 215.417ZM267.316 267.644C267.563 267.644 267.81 267.727 267.975 267.809C268.304 268.056 268.552 268.468 268.552 268.798C268.552 269.457 268.963 270.116 269.54 270.28C269.787 270.445 270.199 270.445 270.446 270.363C270.693 270.281 270.94 270.28 271.27 270.198C271.023 270.116 270.776 270.116 270.446 270.033C270.199 270.033 269.952 269.951 269.787 269.786C269.458 269.539 269.211 269.127 269.211 268.715C269.211 268.056 268.799 267.48 268.14 267.233C267.893 267.15 267.481 267.15 267.233 267.15C266.986 267.233 266.739 267.233 266.41 267.315C266.822 267.562 267.069 267.644 267.316 267.644ZM285.521 218.383C285.768 218.383 286.016 218.465 286.18 218.547C286.51 218.794 286.757 219.206 286.757 219.536C286.757 220.195 287.169 220.854 287.746 221.019C287.993 221.183 288.405 221.183 288.652 221.101C288.899 221.019 289.146 221.019 289.475 220.936C289.228 220.854 288.981 220.854 288.652 220.771C288.405 220.771 288.157 220.689 287.993 220.524C287.663 220.277 287.416 219.865 287.416 219.453C287.416 218.794 287.004 218.218 286.345 217.971C286.098 217.888 285.686 217.888 285.439 217.888C285.192 217.971 284.945 217.971 284.615 218.053C284.945 218.3 285.192 218.3 285.521 218.383ZM239.143 191.857C239.39 191.857 239.637 191.939 239.802 192.022C240.131 192.269 240.378 192.681 240.378 193.01C240.378 193.669 240.79 194.328 241.367 194.493C241.614 194.658 242.026 194.658 242.273 194.575C242.52 194.493 242.767 194.493 243.097 194.411C242.85 194.328 242.603 194.328 242.273 194.246C242.026 194.246 241.779 194.163 241.614 193.999C241.284 193.752 241.037 193.34 241.037 192.928C241.037 192.269 240.625 191.692 239.966 191.445C239.719 191.363 239.307 191.363 239.06 191.363C238.813 191.445 238.566 191.445 238.237 191.527C238.566 191.775 238.896 191.775 239.143 191.857ZM267.645 191.28C267.893 191.28 268.14 191.363 268.304 191.445C268.634 191.692 268.881 192.104 268.881 192.434C268.881 193.093 269.293 193.752 269.87 193.916C270.117 194.081 270.529 194.081 270.776 193.999C271.023 193.916 271.27 193.916 271.6 193.834C271.352 193.752 271.105 193.752 270.776 193.669C270.529 193.669 270.281 193.587 270.117 193.422C269.787 193.175 269.54 192.763 269.54 192.351C269.54 191.692 269.128 191.116 268.469 190.868C268.222 190.786 267.81 190.786 267.563 190.786C267.316 190.868 267.069 190.868 266.739 190.951C267.151 191.198 267.398 191.198 267.645 191.28ZM232.141 237.329C232.388 237.329 232.635 237.412 232.8 237.494C233.129 237.741 233.376 238.153 233.376 238.483C233.376 239.142 233.788 239.801 234.365 239.965C234.612 240.13 235.024 240.13 235.271 240.048C235.518 239.965 235.765 239.965 236.095 239.883C235.848 239.801 235.6 239.801 235.271 239.718C235.024 239.718 234.777 239.636 234.612 239.471C234.282 239.224 234.035 238.812 234.035 238.4C234.035 237.741 233.623 237.165 232.964 236.918C232.717 236.835 232.305 236.835 232.058 236.835C231.811 236.918 231.564 236.918 231.234 237C231.564 237.247 231.811 237.329 232.141 237.329ZM263.279 285.108C263.526 285.108 263.774 285.191 263.938 285.273C264.268 285.52 264.515 285.932 264.515 286.262C264.515 286.921 264.927 287.58 265.504 287.745C265.751 287.909 266.163 287.909 266.41 287.827C266.657 287.745 266.904 287.745 267.233 287.662C266.986 287.58 266.739 287.58 266.41 287.497C266.163 287.497 265.915 287.415 265.751 287.25C265.421 287.003 265.174 286.591 265.174 286.179C265.174 285.52 264.762 284.944 264.103 284.697C263.856 284.614 263.444 284.614 263.197 284.614C262.95 284.697 262.703 284.697 262.373 284.779C262.703 285.026 262.95 285.108 263.279 285.108ZM247.875 259.489C248.122 259.489 248.369 259.571 248.534 259.654C248.863 259.901 249.11 260.313 249.11 260.642C249.11 261.301 249.522 261.96 250.099 262.125C250.346 262.29 250.758 262.29 251.005 262.207C251.252 262.125 251.499 262.125 251.829 262.043C251.582 261.96 251.335 261.96 251.005 261.878C250.758 261.878 250.511 261.796 250.346 261.631C250.017 261.384 249.769 260.972 249.769 260.56C249.769 259.901 249.358 259.324 248.698 259.077C248.451 258.995 248.039 258.995 247.792 258.995C247.545 259.077 247.298 259.077 246.969 259.16C247.38 259.407 247.628 259.407 247.875 259.489ZM212.782 285.768C212.535 285.768 212.288 285.685 212.123 285.52C211.793 285.273 211.546 284.861 211.546 284.449C211.546 283.873 211.134 283.296 210.64 283.049C210.64 283.296 210.558 283.461 210.558 283.626C210.805 283.873 210.887 284.12 210.887 284.449C210.887 285.108 211.299 285.685 211.876 285.932C212.123 286.097 212.535 286.097 212.782 286.015C213.029 285.932 213.276 285.932 213.606 285.85C213.358 285.85 213.111 285.85 212.782 285.768ZM219.537 264.102C219.784 264.102 220.031 264.185 220.196 264.267C220.525 264.514 220.772 264.926 220.772 265.255C220.772 265.914 221.184 266.573 221.761 266.738C222.008 266.903 222.42 266.903 222.667 266.821C222.914 266.738 223.161 266.738 223.491 266.656C223.244 266.574 222.997 266.573 222.667 266.491C222.42 266.491 222.173 266.409 222.008 266.244C221.679 265.997 221.431 265.585 221.431 265.173C221.431 264.514 221.02 263.937 220.361 263.69C220.113 263.608 219.702 263.608 219.454 263.608C219.207 263.69 218.96 263.69 218.631 263.773C219.043 264.02 219.29 264.102 219.537 264.102ZM260.973 237.988C261.22 237.988 261.467 238.071 261.632 238.153C261.961 238.4 262.208 238.812 262.208 239.142C262.208 239.801 262.62 240.46 263.197 240.625C263.444 240.789 263.856 240.789 264.103 240.707C264.35 240.625 264.597 240.625 264.927 240.542C264.68 240.46 264.433 240.46 264.103 240.377C263.856 240.377 263.609 240.295 263.444 240.13C263.115 239.883 262.867 239.471 262.867 239.059C262.867 238.4 262.456 237.824 261.797 237.577C261.549 237.494 261.138 237.494 260.89 237.494C260.643 237.577 260.396 237.577 260.067 237.659C260.479 237.906 260.726 237.906 260.973 237.988ZM297.219 273.164C297.466 273.164 297.713 273.246 297.878 273.328C298.208 273.576 298.455 273.987 298.455 274.317C298.455 274.976 298.867 275.635 299.443 275.8C299.69 275.965 300.102 275.965 300.349 275.882C300.596 275.8 300.844 275.8 301.173 275.717C300.926 275.635 300.679 275.635 300.349 275.553C300.102 275.553 299.855 275.47 299.69 275.306C299.361 275.058 299.114 274.647 299.114 274.235C299.114 273.576 298.702 272.999 298.043 272.752C297.796 272.669 297.384 272.669 297.137 272.669C296.889 272.752 296.642 272.752 296.313 272.834C296.725 273.081 296.972 273.081 297.219 273.164ZM282.803 251.663C283.05 251.663 283.297 251.746 283.462 251.828C283.791 252.075 284.039 252.487 284.039 252.816C284.039 253.475 284.45 254.134 285.027 254.299C285.274 254.464 285.686 254.464 285.933 254.382C286.18 254.299 286.427 254.299 286.757 254.217C286.51 254.134 286.263 254.134 285.933 254.052C285.686 254.052 285.439 253.97 285.274 253.805C284.945 253.558 284.698 253.146 284.698 252.734C284.698 252.075 284.286 251.498 283.627 251.251C283.38 251.169 282.968 251.169 282.721 251.169C282.473 251.251 282.226 251.251 281.897 251.334C282.309 251.581 282.556 251.663 282.803 251.663ZM240.131 206.932C239.884 207.097 239.719 207.179 239.555 207.262C239.143 207.344 238.648 207.262 238.401 206.932C237.989 206.52 237.248 206.273 236.671 206.603C236.342 206.685 236.177 206.932 236.012 207.179C235.848 207.426 235.683 207.591 235.6 207.838C235.848 207.673 236.012 207.509 236.259 207.426C236.507 207.262 236.671 207.179 236.836 207.097C237.248 207.014 237.66 207.097 237.989 207.426C238.484 207.921 239.225 208.003 239.802 207.756C240.049 207.673 240.296 207.344 240.461 207.179C240.625 206.932 240.79 206.767 240.873 206.52C240.543 206.685 240.296 206.85 240.131 206.932ZM282.721 237.577C282.473 237.741 282.309 237.824 282.144 237.906C281.732 237.988 281.238 237.906 280.991 237.577C280.579 237.165 279.837 236.918 279.261 237.247C278.931 237.329 278.766 237.577 278.602 237.824C278.437 238.071 278.272 238.236 278.19 238.483C278.437 238.318 278.602 238.153 278.849 238.071C279.096 237.906 279.261 237.824 279.425 237.741C279.837 237.659 280.249 237.741 280.579 238.071C281.073 238.565 281.814 238.647 282.391 238.4C282.638 238.318 282.885 237.988 283.05 237.824C283.215 237.577 283.38 237.412 283.462 237.165C283.132 237.329 282.968 237.494 282.721 237.577ZM256.112 180.571C255.865 180.736 255.701 180.818 255.536 180.901C255.124 180.983 254.63 180.901 254.383 180.571C253.971 180.159 253.229 179.912 252.653 180.242C252.323 180.324 252.158 180.571 251.994 180.818C251.829 181.065 251.664 181.23 251.582 181.477C251.829 181.313 251.994 181.148 252.241 181.065C252.488 180.901 252.653 180.818 252.817 180.736C253.229 180.654 253.641 180.736 253.971 181.065C254.465 181.56 255.206 181.642 255.783 181.395C256.03 181.313 256.277 180.983 256.442 180.818C256.607 180.571 256.772 180.406 256.854 180.159C256.524 180.242 256.36 180.406 256.112 180.571ZM255.618 197.459C255.618 197.706 255.536 197.953 255.453 198.118C255.206 198.447 254.794 198.694 254.465 198.694C253.806 198.694 253.147 199.106 252.982 199.683C252.817 199.93 252.817 200.342 252.9 200.589C252.982 200.836 252.982 201.083 253.065 201.413C253.147 201.166 253.147 200.918 253.229 200.589C253.229 200.342 253.312 200.095 253.476 199.93C253.724 199.6 254.135 199.353 254.547 199.353C255.206 199.353 255.783 198.941 256.03 198.282C256.112 198.035 256.112 197.623 256.112 197.376C256.03 197.129 256.03 196.882 255.948 196.552C255.701 196.882 255.618 197.211 255.618 197.459ZM249.358 243.755C249.358 244.002 249.275 244.249 249.193 244.414C248.946 244.743 248.534 244.991 248.204 244.991C247.545 244.991 246.886 245.402 246.721 245.979C246.557 246.226 246.557 246.638 246.639 246.885C246.721 247.132 246.721 247.379 246.804 247.709C246.886 247.462 246.886 247.215 246.969 246.885C246.969 246.638 247.051 246.391 247.216 246.226C247.463 245.897 247.875 245.65 248.287 245.65C248.946 245.65 249.522 245.238 249.769 244.579C249.852 244.332 249.852 243.92 249.852 243.672C249.769 243.425 249.769 243.178 249.687 242.849C249.44 243.261 249.358 243.508 249.358 243.755ZM282.226 203.39C282.226 203.39 282.144 203.39 282.061 203.39C281.402 203.39 280.743 203.802 280.579 204.378C280.414 204.625 280.414 205.037 280.496 205.284C280.579 205.532 280.579 205.779 280.661 206.108C280.743 205.861 280.743 205.614 280.826 205.284C280.826 205.037 280.908 204.79 281.073 204.625C281.32 204.296 281.732 204.049 282.144 204.049C282.309 204.049 282.473 204.049 282.556 203.966C282.391 203.802 282.309 203.637 282.226 203.39ZM281.979 278.271C281.979 278.518 281.897 278.765 281.814 278.93C281.567 279.26 281.155 279.507 280.826 279.507C280.167 279.507 279.508 279.919 279.343 280.495C279.178 280.742 279.178 281.154 279.261 281.401C279.343 281.649 279.343 281.896 279.425 282.225C279.508 281.978 279.508 281.731 279.59 281.401C279.59 281.154 279.673 280.907 279.837 280.742C280.084 280.413 280.496 280.166 280.908 280.166C281.567 280.166 282.144 279.754 282.391 279.095C282.473 278.848 282.473 278.436 282.473 278.189C282.391 277.942 282.391 277.694 282.309 277.365C282.061 277.694 281.979 277.942 281.979 278.271ZM296.066 236.258C295.819 236.67 295.407 236.918 294.995 236.918C294.336 236.918 293.677 237.329 293.512 237.906C293.347 238.153 293.347 238.565 293.43 238.812C293.512 239.059 293.512 239.306 293.594 239.636C293.677 239.389 293.677 239.142 293.759 238.812C293.759 238.565 293.841 238.318 294.006 238.153C294.253 237.824 294.665 237.577 295.077 237.577C295.571 237.577 296.066 237.329 296.313 236.918C296.23 236.67 296.148 236.423 296.066 236.258ZM223.82 245.402C223.82 245.65 223.738 245.897 223.656 246.061C223.409 246.391 222.997 246.638 222.667 246.638C222.008 246.638 221.349 247.05 221.184 247.627C221.02 247.874 221.02 248.286 221.102 248.533C221.184 248.78 221.184 249.027 221.267 249.357C221.349 249.109 221.349 248.862 221.431 248.533C221.431 248.286 221.514 248.039 221.679 247.874C221.926 247.544 222.338 247.297 222.75 247.297C223.409 247.297 223.985 246.885 224.232 246.226C224.315 245.979 224.315 245.567 224.315 245.32C224.232 245.073 224.232 244.826 224.15 244.496C223.903 244.908 223.82 245.155 223.82 245.402ZM225.55 203.884C225.386 204.378 225.303 204.79 225.138 205.284C225.303 205.12 225.386 204.955 225.468 204.708C225.55 204.461 225.55 204.131 225.55 203.884ZM240.378 176.864C240.378 177.111 240.296 177.358 240.214 177.523C239.966 177.853 239.555 178.1 239.225 178.1C238.566 178.1 237.907 178.512 237.742 179.088C237.578 179.335 237.578 179.747 237.66 179.995C237.742 180.242 237.742 180.489 237.825 180.818C237.907 180.571 237.907 180.324 237.989 179.995C237.989 179.747 238.072 179.5 238.237 179.335C238.484 179.006 238.896 178.759 239.307 178.759C239.966 178.759 240.543 178.347 240.79 177.688C240.873 177.441 240.873 177.029 240.873 176.782C240.79 176.535 240.79 176.288 240.708 175.958C240.461 176.288 240.378 176.617 240.378 176.864ZM236.259 218.63C236.259 218.877 236.177 219.124 236.095 219.289C235.848 219.618 235.436 219.865 235.106 219.865C234.447 219.865 233.788 220.277 233.623 220.854C233.459 221.101 233.459 221.513 233.541 221.76C233.623 222.007 233.623 222.254 233.706 222.584C233.788 222.337 233.788 222.09 233.871 221.76C233.871 221.513 233.953 221.266 234.118 221.101C234.365 220.771 234.777 220.524 235.189 220.524C235.848 220.524 236.424 220.112 236.671 219.453C236.754 219.206 236.754 218.794 236.754 218.547C236.671 218.3 236.671 218.053 236.589 217.723C236.342 218.053 236.342 218.383 236.259 218.63ZM272.835 224.231C272.835 224.478 272.753 224.726 272.67 224.89C272.423 225.22 272.011 225.467 271.682 225.467C271.023 225.467 270.364 225.879 270.199 226.456C270.034 226.703 270.034 227.115 270.117 227.362C270.199 227.609 270.199 227.856 270.281 228.185C270.364 227.938 270.364 227.691 270.446 227.362C270.446 227.115 270.529 226.867 270.693 226.703C270.94 226.373 271.352 226.126 271.764 226.126C272.423 226.126 273 225.714 273.247 225.055C273.329 224.808 273.329 224.396 273.329 224.149C273.247 223.902 273.247 223.655 273.165 223.325C272.918 223.737 272.918 223.984 272.835 224.231ZM239.06 271.104C239.06 271.351 238.978 271.599 238.896 271.763C238.648 272.093 238.237 272.34 237.907 272.34C237.248 272.34 236.589 272.752 236.424 273.328C236.259 273.576 236.259 273.987 236.342 274.235C236.424 274.482 236.424 274.729 236.507 275.058C236.589 274.811 236.589 274.564 236.671 274.235C236.671 273.987 236.754 273.74 236.918 273.576C237.166 273.246 237.577 272.999 237.989 272.999C238.648 272.999 239.225 272.587 239.472 271.928C239.555 271.681 239.555 271.269 239.555 271.022C239.472 270.775 239.472 270.528 239.39 270.198C239.143 270.61 239.143 270.857 239.06 271.104ZM267.398 209.733C267.645 209.568 267.81 209.486 267.975 209.403C268.387 209.321 268.881 209.403 269.128 209.733C269.54 210.145 270.281 210.392 270.858 210.062C271.188 209.98 271.352 209.733 271.517 209.486C271.682 209.239 271.847 209.074 271.929 208.827C271.682 208.991 271.517 209.156 271.27 209.239C271.023 209.403 270.858 209.486 270.693 209.568C270.281 209.65 269.87 209.568 269.54 209.239C269.046 208.744 268.304 208.662 267.728 208.909C267.481 208.991 267.233 209.321 267.069 209.486C266.904 209.733 266.739 209.898 266.657 210.145C266.986 210.062 267.151 209.898 267.398 209.733ZM246.062 229.009C246.31 228.844 246.474 228.762 246.639 228.68C247.051 228.597 247.545 228.68 247.792 229.009C248.204 229.421 248.946 229.668 249.522 229.339C249.852 229.256 250.017 229.009 250.181 228.762C250.346 228.515 250.511 228.35 250.593 228.103C250.346 228.268 250.181 228.433 249.934 228.515C249.687 228.68 249.522 228.762 249.358 228.844C248.946 228.927 248.534 228.844 248.204 228.515C247.71 228.021 246.969 227.938 246.392 228.185C246.145 228.268 245.898 228.597 245.733 228.762C245.568 229.009 245.403 229.174 245.321 229.421C245.651 229.339 245.898 229.174 246.062 229.009ZM231.646 257.512C231.893 257.347 232.058 257.265 232.223 257.182C232.635 257.1 233.129 257.182 233.376 257.512C233.788 257.924 234.53 258.171 235.106 257.841C235.436 257.759 235.6 257.512 235.765 257.265C235.93 257.018 236.095 256.853 236.177 256.606C235.93 256.771 235.765 256.935 235.518 257.018C235.271 257.182 235.106 257.265 234.941 257.347C234.53 257.43 234.118 257.347 233.788 257.018C233.294 256.523 232.552 256.441 231.976 256.688C231.729 256.771 231.482 257.1 231.317 257.265C231.152 257.512 230.987 257.677 230.905 257.924C231.234 257.841 231.399 257.677 231.646 257.512ZM237.907 287.086C238.154 286.921 238.319 286.838 238.484 286.756C238.896 286.674 239.39 286.756 239.637 287.086C240.049 287.497 240.79 287.745 241.367 287.415C241.696 287.333 241.861 287.086 242.026 286.838C242.191 286.591 242.355 286.427 242.438 286.179C242.191 286.344 242.026 286.509 241.779 286.591C241.532 286.756 241.367 286.838 241.202 286.921C240.79 287.003 240.378 286.921 240.049 286.591C239.555 286.097 238.813 286.015 238.237 286.262C237.989 286.344 237.742 286.674 237.577 286.838C237.413 287.086 237.248 287.25 237.166 287.497C237.413 287.333 237.66 287.168 237.907 287.086ZM265.833 254.546C266.08 254.382 266.245 254.299 266.41 254.217C266.822 254.134 267.316 254.217 267.563 254.546C267.975 254.958 268.716 255.205 269.293 254.876C269.622 254.793 269.787 254.546 269.952 254.299C270.117 254.052 270.281 253.887 270.364 253.64C270.117 253.805 269.952 253.97 269.705 254.052C269.458 254.217 269.293 254.299 269.128 254.382C268.716 254.464 268.304 254.382 267.975 254.052C267.481 253.558 266.739 253.475 266.163 253.723C265.915 253.805 265.668 254.134 265.504 254.299C265.339 254.546 265.174 254.711 265.092 254.958C265.421 254.876 265.586 254.711 265.833 254.546ZM285.027 266.326C285.274 266.162 285.439 266.079 285.604 265.997C286.016 265.914 286.51 265.997 286.757 266.326C287.169 266.738 287.91 266.985 288.487 266.656C288.816 266.574 288.981 266.326 289.146 266.079C289.311 265.832 289.475 265.667 289.558 265.42C289.311 265.585 289.146 265.75 288.899 265.832C288.652 265.997 288.487 266.079 288.322 266.162C287.91 266.244 287.498 266.162 287.169 265.832C286.675 265.338 285.933 265.255 285.357 265.503C285.109 265.585 284.862 265.914 284.698 266.079C284.533 266.326 284.368 266.491 284.286 266.738C284.615 266.656 284.862 266.491 285.027 266.326ZM252.735 275.306C252.982 275.141 253.147 275.058 253.312 274.976C253.724 274.894 254.218 274.976 254.465 275.306C254.877 275.717 255.618 275.965 256.195 275.635C256.524 275.553 256.689 275.306 256.854 275.058C257.019 274.811 257.183 274.647 257.266 274.399C257.019 274.564 256.854 274.729 256.607 274.811C256.36 274.976 256.195 275.058 256.03 275.141C255.618 275.223 255.206 275.141 254.877 274.811C254.383 274.317 253.641 274.235 253.065 274.482C252.817 274.564 252.57 274.894 252.405 275.058C252.241 275.306 252.076 275.47 251.994 275.717C252.241 275.553 252.488 275.388 252.735 275.306ZM294.418 287.086C294.665 286.921 294.83 286.838 294.995 286.756C295.407 286.674 295.901 286.756 296.148 287.086C296.56 287.497 297.301 287.745 297.878 287.415C298.208 287.333 298.372 287.086 298.537 286.838C298.702 286.591 298.867 286.427 298.949 286.179C298.702 286.344 298.537 286.509 298.29 286.591C298.043 286.756 297.878 286.838 297.713 286.921C297.301 287.003 296.889 286.921 296.56 286.591C296.066 286.097 295.324 286.015 294.748 286.262C294.5 286.344 294.253 286.674 294.089 286.838C293.924 287.086 293.759 287.25 293.677 287.497C294.006 287.333 294.253 287.168 294.418 287.086ZM301.915 255.041C301.75 254.958 301.503 254.876 301.42 254.711C300.926 254.217 300.185 254.134 299.608 254.382C299.361 254.464 299.114 254.711 298.949 254.958C298.784 255.205 298.619 255.37 298.537 255.617C298.784 255.452 298.949 255.288 299.196 255.205C299.443 255.041 299.608 254.958 299.773 254.876C300.185 254.793 300.679 254.876 300.926 255.205C301.173 255.535 301.667 255.7 302.079 255.7C301.997 255.452 301.915 255.288 301.915 255.041ZM222.914 279.342C223.161 279.177 223.326 279.095 223.491 279.013C223.903 278.93 224.397 279.013 224.644 279.342C225.056 279.754 225.797 280.001 226.374 279.672C226.704 279.589 226.868 279.342 227.033 279.095C227.198 278.848 227.363 278.683 227.445 278.436C227.198 278.601 227.033 278.765 226.786 278.848C226.539 279.013 226.374 279.095 226.209 279.177C225.797 279.26 225.386 279.177 225.056 278.848C224.562 278.354 223.82 278.271 223.244 278.518C222.997 278.601 222.75 278.93 222.585 279.095C222.42 279.342 222.255 279.507 222.173 279.754C222.502 279.672 222.667 279.507 222.914 279.342ZM220.525 229.751C220.772 229.586 220.937 229.504 221.102 229.421C221.514 229.339 222.008 229.421 222.255 229.751C222.667 230.163 223.409 230.41 223.985 230.08C224.315 229.998 224.479 229.751 224.644 229.504C224.809 229.256 224.974 229.092 225.056 228.844C224.809 229.009 224.644 229.174 224.397 229.256C224.15 229.421 223.985 229.504 223.82 229.586C223.409 229.668 222.997 229.586 222.667 229.256C222.173 228.762 221.431 228.68 220.855 228.927C220.608 229.009 220.361 229.339 220.196 229.504C220.031 229.751 219.866 229.915 219.784 230.163C220.113 229.998 220.361 229.833 220.525 229.751Z" fill="white"/>
<path d="M225.798 202.237C224.892 205.532 223.985 208.827 223.162 212.122C223.244 210.722 223.409 209.239 223.574 207.838C223.574 207.756 223.491 207.756 223.409 207.838C223.079 209.651 222.832 211.463 222.832 213.193C221.844 217.147 220.855 221.184 219.949 225.138C218.219 232.799 216.736 240.542 215.5 248.368C214.759 252.734 214.265 257.183 213.523 261.549C213.523 261.631 213.606 261.631 213.688 261.549C214.347 257.677 215.253 253.805 216.16 249.933C216.983 246.144 217.807 242.272 218.631 238.401C220.196 230.657 221.926 222.996 223.491 215.252C224.397 210.886 225.221 206.52 226.127 202.237C226.127 202.154 225.798 202.072 225.798 202.237Z" fill="#263238"/>
<path d="M221.926 150.915C222.997 156.929 219.619 162.531 214.347 163.519C209.075 164.508 203.968 160.389 202.814 154.375C201.743 148.362 205.121 142.76 210.393 141.772C215.665 140.865 220.773 144.984 221.926 150.915Z" fill="#204D6B"/>
<path d="M225.056 150.751C226.292 157.424 222.502 163.684 216.654 164.755C210.805 165.826 205.038 161.295 203.885 154.623C202.649 147.95 206.439 141.69 212.288 140.619C218.136 139.548 223.821 144.078 225.056 150.751Z" fill="#C7C7C7"/>
<path d="M241.778 197.871C247.71 197.871 255.371 186.832 257.43 178.924C257.595 178.347 250.922 159.73 250.016 155.858C249.851 155.034 227.362 167.556 227.362 167.556C227.362 167.556 231.646 175.052 233.294 181.725C233.376 182.302 236.012 197.871 241.778 197.871Z" fill="#DD6A57"/>
<path d="M236.012 183.125C235.188 183.372 234.364 183.537 233.623 183.537C233.54 183.043 233.458 182.631 233.376 182.384C233.376 182.384 233.376 182.384 233.376 182.302V182.219C233.376 182.137 233.293 181.972 233.293 181.89V181.807V181.725C232.964 180.242 232.469 178.759 231.975 177.276C230.739 173.981 229.257 170.851 228.268 169.121C228.186 168.874 228.021 168.709 227.939 168.544C227.609 167.968 227.444 167.638 227.444 167.556C227.527 167.556 227.691 167.391 228.021 167.226C228.268 167.144 228.515 166.979 228.845 166.815C229.009 166.732 229.174 166.65 229.339 166.567C229.504 166.485 229.751 166.32 229.998 166.238C230.163 166.155 230.41 165.991 230.575 165.908C230.575 165.908 230.657 165.908 230.657 165.826C230.904 165.661 231.151 165.579 231.398 165.414C231.481 165.414 231.563 165.332 231.563 165.332C231.81 165.167 232.057 165.085 232.305 164.92C232.469 164.837 232.552 164.755 232.717 164.673C233.128 164.426 233.54 164.178 233.952 164.014C234.282 163.849 234.611 163.684 234.941 163.519C235.188 163.355 235.517 163.19 235.764 163.108C236.671 162.613 237.659 162.119 238.565 161.625C238.895 161.46 239.142 161.295 239.471 161.13C240.542 160.554 241.696 159.977 242.684 159.401C242.931 159.236 243.178 159.153 243.426 159.071C243.59 158.989 243.755 158.906 243.92 158.824C244.085 158.741 244.332 158.659 244.497 158.577C244.908 158.33 245.32 158.165 245.65 158C245.897 157.918 246.144 157.753 246.391 157.671C246.721 157.506 247.05 157.341 247.38 157.176C247.544 157.094 247.709 157.012 247.792 156.929C248.204 156.764 248.615 156.6 248.863 156.435C248.945 156.435 249.027 156.353 249.027 156.353C249.522 162.531 249.027 179.665 236.012 183.125Z" fill="#263238"/>
<path d="M243.261 126.944C248.615 134.44 252.24 159.977 248.039 167.309C242.025 177.936 228.268 183.373 218.218 175.217C208.497 167.309 204.378 134.028 209.321 126.944C216.735 116.564 235.435 115.905 243.261 126.944Z" fill="#DD6A57"/>
<path d="M224.232 149.517C224.232 149.434 224.397 149.599 224.397 149.681C224.562 151.411 225.138 153.388 226.786 153.718C226.868 153.718 226.868 153.8 226.786 153.8C224.809 153.8 224.15 151.164 224.232 149.517Z" fill="#263238"/>
<path d="M225.468 147.457C228.186 146.88 229.257 152.317 226.703 152.894C224.232 153.553 223.243 148.033 225.468 147.457Z" fill="#263238"/>
<path d="M214.841 151.493C214.841 151.411 214.758 151.576 214.758 151.658C215.17 153.388 215.252 155.365 213.852 156.189C213.77 156.189 213.852 156.271 213.852 156.271C215.664 155.777 215.5 153.058 214.841 151.493Z" fill="#263238"/>
<path d="M213.028 150.01C210.227 150.34 211.051 155.859 213.605 155.612C216.158 155.282 215.334 149.763 213.028 150.01Z" fill="#263238"/>
<path d="M227.198 144.573C226.374 144.491 225.715 144.326 224.891 144.244C223.985 144.079 223.326 144.079 222.667 143.42C222.338 143.09 222.255 142.349 222.585 141.937C223.244 141.031 224.397 140.948 225.468 141.113C226.621 141.278 227.445 141.69 228.269 142.514C229.01 143.337 228.269 144.655 227.198 144.573Z" fill="#263238"/>
<path d="M210.31 147.621C211.051 147.374 211.71 146.962 212.369 146.632C213.193 146.221 213.852 146.056 214.264 145.232C214.511 144.82 214.346 144.079 213.934 143.832C213.028 143.173 211.957 143.42 210.969 143.832C209.898 144.326 209.239 144.903 208.662 145.973C208.25 146.962 209.404 148.033 210.31 147.621Z" fill="#263238"/>
<path d="M229.257 164.921C228.927 165.415 228.598 165.992 228.021 166.157C227.444 166.321 226.703 166.157 226.126 166.074C226.044 166.074 226.044 166.157 226.044 166.157C226.621 166.733 227.609 166.98 228.351 166.651C229.092 166.404 229.339 165.662 229.421 164.921H229.257Z" fill="#263238"/>
<path d="M226.455 160.142C225.796 161.79 224.561 162.861 223.078 163.437C222.419 163.684 221.677 163.849 221.018 163.932C220.854 163.932 220.771 163.932 220.606 163.932C220.442 163.932 220.359 163.932 220.194 163.932C220.03 163.932 219.865 163.767 219.783 163.602C219.783 163.52 219.783 163.52 219.783 163.437V163.273C219.535 161.955 219.288 159.977 219.288 159.977C218.876 160.307 216.57 161.872 216.487 161.213C215.746 155.447 214.922 149.104 215.417 143.172C215.417 143.008 215.746 143.008 215.746 143.172C216.652 148.692 216.57 154.293 217.394 159.813C218.135 159.401 219.288 158.577 219.947 158.495C220.112 158.495 220.359 162.449 220.524 163.025C220.524 163.025 220.524 163.025 220.524 163.108C222.748 162.943 224.313 162.037 226.208 160.142C226.373 159.895 226.538 160.06 226.455 160.142Z" fill="#263238"/>
<path d="M221.678 163.191C221.678 163.191 223.161 164.509 224.808 164.838C225.467 164.92 226.044 164.92 226.703 164.591C228.021 164.014 227.774 162.696 227.362 161.708C227.032 160.884 226.456 160.143 226.456 160.143C226.456 160.143 224.808 162.367 221.678 163.191Z" fill="#263238"/>
<path d="M224.809 164.755C225.468 164.838 226.045 164.838 226.704 164.508C228.022 163.932 227.775 162.614 227.363 161.625C225.962 162.119 224.644 163.355 224.809 164.755Z" fill="#FF99BA"/>
<path opacity="0.2" d="M242.354 137.653C244.084 139.795 247.791 144.985 249.026 144.985C247.708 136.665 245.567 129.416 242.271 125.544C240.871 123.896 239.223 122.661 237.411 121.59C237.823 123.896 240.541 135.429 242.354 137.653Z" fill="#263238"/>
<path d="M217.558 132.628C219.618 134.523 222.583 135.347 225.384 134.605C228.103 133.864 230.574 131.64 231.233 128.921C231.233 128.839 231.398 128.839 231.398 128.921C230.656 131.887 228.597 134.523 225.549 135.264C222.666 136.006 219.371 135.017 217.394 132.793C217.311 132.711 217.476 132.546 217.558 132.628Z" fill="#263238"/>
<path d="M223.736 111.457C228.514 111.045 233.209 113.187 235.269 116.235C236.587 118.047 236.916 120.107 236.834 122.166C236.834 122.248 236.669 122.248 236.669 122.166C236.587 118.953 234.61 115.411 230.903 113.599C227.361 111.786 222.83 111.622 219.205 113.516C217.311 114.505 215.828 115.905 215.169 117.553C215.086 117.718 214.757 117.635 214.757 117.471C215.745 114.258 219.452 111.786 223.736 111.457Z" fill="#263238"/>
<path d="M197.293 124.802C197.788 122.413 199.188 120.189 201.165 118.624C203.884 116.482 207.179 116.4 210.556 116.317C210.638 116.317 210.638 116.482 210.556 116.482C207.755 116.482 204.872 116.729 202.483 118.294C200.506 119.612 198.941 121.59 198.282 123.814C196.881 128.509 199.27 133.864 203.884 135.841C206.437 136.912 209.485 136.912 212.039 135.759C212.121 135.676 212.204 135.841 212.121 135.923C207.508 138.147 201.577 136.582 198.858 132.134C197.376 130.074 196.799 127.356 197.293 124.802Z" fill="#263238"/>
<path d="M245.896 132.463C245.896 132.463 249.438 123.402 245.072 118.954C242.601 116.4 235.516 117.635 235.516 117.635C235.516 117.635 232.715 113.846 226.702 113.187C220.606 112.528 213.933 116.812 213.933 116.812C213.933 116.812 207.92 114.258 202.977 117.883C196.14 122.99 198.364 134.111 206.19 136.83C211.709 138.724 218.217 133.287 218.217 133.287C218.876 133.287 226.372 136.665 230.903 129.827C230.903 129.827 235.599 133.123 239.141 129.992C239.223 129.992 241.612 133.617 245.896 132.463Z" fill="#263238"/>
<path d="M227.856 157.012C223.737 157.259 220.194 154.129 219.947 150.01C219.7 145.891 222.83 142.349 226.949 142.102C231.068 141.854 234.611 144.985 234.858 149.104C235.105 152.564 232.881 155.612 229.668 156.6C229.091 156.847 228.515 156.93 227.856 157.012ZM220.936 150.01C221.183 153.552 224.231 156.271 227.773 156.023C231.315 155.776 234.034 152.728 233.787 149.186C233.54 145.644 230.492 142.925 226.949 143.172C226.373 143.172 225.878 143.337 225.384 143.502C222.666 144.326 220.771 146.962 220.936 150.01Z" fill="#FFC107"/>
<path d="M212.451 159.978C209.485 160.554 206.355 157.754 205.613 153.717C205.202 151.822 205.449 149.845 206.19 148.28C206.932 146.633 208.167 145.644 209.65 145.315C211.133 144.985 212.698 145.562 213.934 146.715C215.169 147.868 216.075 149.598 216.487 151.493C217.229 155.282 215.664 158.825 212.945 159.731C212.78 159.895 212.616 159.895 212.451 159.978ZM207.014 148.774C206.355 150.175 206.19 151.822 206.52 153.552C207.179 157.012 209.732 159.484 212.204 158.989C214.675 158.495 216.075 155.282 215.416 151.822C215.087 150.093 214.263 148.61 213.192 147.539C212.121 146.55 210.886 146.138 209.732 146.386C209.568 146.386 209.485 146.468 209.403 146.468C208.414 146.797 207.591 147.539 207.014 148.774Z" fill="#FFC107"/>
<path d="M220.359 150.834L220.853 149.928C219.535 149.186 216.734 148.445 215.334 150.751L216.158 151.246C217.476 149.269 220.277 150.751 220.359 150.834Z" fill="#FFC107"/>
<path d="M253.227 146.303L253.968 145.726C253.639 145.397 251.085 142.184 248.861 142.266C246.802 142.349 233.951 146.138 233.374 146.303L233.621 147.291C237.328 146.22 247.213 143.337 248.861 143.337C250.426 143.172 252.568 145.479 253.227 146.303Z" fill="#FFC107"/>
<path d="M244.661 148.28C244.661 148.28 247.709 138.724 251.828 139.63C256.029 140.454 255.37 153.14 251.746 155.941C248.039 158.824 245.32 155.446 245.32 155.446L244.661 148.28Z" fill="#DD6A57"/>
<path d="M251.581 143.255C251.663 143.255 251.663 143.337 251.663 143.337C249.109 145.397 248.45 148.609 248.203 151.74C248.697 150.422 249.768 149.433 251.498 150.01C251.581 150.01 251.581 150.175 251.498 150.175C250.18 150.257 249.439 150.751 248.945 151.987C248.615 152.811 248.45 153.799 248.286 154.705C248.203 155.035 247.709 155.035 247.709 154.705V154.623C246.473 150.998 247.709 144.82 251.581 143.255Z" fill="#263238"/>
<path d="M249.273 141.113C249.273 141.113 248.697 127.768 244.001 120.93C238.811 113.269 224.395 108.162 214.016 116.812C214.016 116.812 229.008 112.94 238.811 122.084C243.342 126.285 244.907 141.937 244.907 141.937L249.273 141.113Z" fill="#C7C7C7"/>
<path d="M249.602 160.245C255.532 159.643 259.784 153.688 259.1 146.944C258.416 140.2 253.055 135.22 247.125 135.821C241.196 136.423 236.943 142.378 237.627 149.122C238.311 155.866 243.672 160.846 249.602 160.245Z" fill="#C7C7C7"/>
<path d="M240.706 148.444C241.283 154.54 246.143 158.989 251.498 158.412C256.852 157.835 260.642 152.481 259.983 146.467C259.406 140.371 254.546 135.923 249.191 136.5C243.919 136.994 240.13 142.348 240.706 148.444Z" fill="#204D6B"/>
<path d="M273.164 184.444C289.145 201.579 327.121 265.751 314.764 277.531C302.325 289.476 234.117 273.412 214.923 264.268C209.239 261.55 230.904 225.963 237.659 225.139C243.261 224.48 271.846 237.496 272.669 235.848C273.576 233.953 267.15 222.091 260.23 197.295C252.24 168.71 266.079 176.866 273.164 184.444Z" fill="#DD6A57"/>
<path d="M209.238 213.688C195.399 211.794 191.527 213.359 180.653 205.533C173.569 200.343 167.225 202.732 171.262 210.888C177.935 224.315 195.316 230.494 201.906 230.988L209.238 213.688Z" fill="#DD6A57"/>
<path d="M246.144 227.033C246.144 227.033 230.575 218.383 215.994 214.841C205.944 212.37 183.372 209.569 161.789 231.811C156.682 237.083 153.14 248.204 164.59 242.685C172.746 238.731 176.7 233.706 181.89 232.305C181.89 232.305 179.089 247.051 184.526 251.911C186.997 254.135 193.834 259.984 199.766 263.774C199.766 263.774 200.919 262.703 202.237 261.138C202.237 261.138 207.756 265.256 218.218 264.268L246.144 227.033Z" fill="#DD6A57"/>
<path d="M205.943 214.101C201.083 216.654 190.95 222.091 184.278 229.505C176.782 237.743 164.672 255.537 170.768 260.974C175.216 265.01 180.489 258.585 180.489 258.585C180.489 258.585 177.029 266.987 181.807 269.706C186.173 272.177 189.962 266.987 189.962 266.987C189.962 266.987 188.726 272.424 193.422 274.072C199.106 275.966 200.753 264.186 208.167 261.138C209.815 260.397 205.943 214.101 205.943 214.101Z" fill="#DD6A57"/>
<path d="M194.246 235.931C190.127 239.061 182.466 248.535 180.406 258.338C180.324 258.585 180.489 258.75 180.571 258.503C185.184 248.205 191.445 239.473 194.246 235.931C194.328 235.931 194.246 235.849 194.246 235.931Z" fill="#263238"/>
<path d="M202.319 243.675C199.024 246.723 191.61 256.855 189.798 266.823C189.798 267.07 189.88 267.152 189.963 266.988C194.329 256.031 199.683 247.464 202.319 243.675Z" fill="#263238"/>
<path d="M181.889 232.142C177.358 233.46 174.393 235.684 170.603 238.32C168.709 239.638 166.814 240.956 164.754 242.027C162.942 243.015 160.224 244.498 158.247 242.933C157.176 242.027 157.176 240.462 157.423 239.226C157.67 237.826 158.247 236.508 159.07 235.354C159.153 235.272 158.988 235.19 158.988 235.272C158.247 236.343 157.588 237.414 157.093 238.649C156.681 239.72 156.352 241.038 156.681 242.192C157.34 244.663 160.306 244.993 162.365 244.334C163.601 243.922 164.754 243.263 165.908 242.604C166.979 241.945 168.049 241.286 169.12 240.627C171.262 239.144 173.322 237.579 175.463 236.096C177.77 234.448 179.418 233.707 181.971 232.306C181.971 232.224 181.971 232.142 181.889 232.142Z" fill="#263238"/>
<path d="M172.416 248.04C173.569 245.487 179.912 234.695 181.972 232.224C182.054 232.142 181.972 232.059 181.889 232.142C178.347 235.519 172.663 244.333 171.345 247.217C170.027 250.018 168.544 253.642 168.544 256.773C168.544 261.468 171.674 262.374 172.828 262.621C174.228 262.868 175.628 262.621 176.864 261.962C178.265 261.221 179.583 259.738 180.489 258.502C180.571 258.42 180.489 258.338 180.406 258.42C178.759 260.315 176.04 262.127 173.487 261.798C172.333 261.633 171.262 261.139 170.603 260.232C169.78 259.161 169.78 257.679 169.862 256.443C170.027 253.477 171.18 250.759 172.416 248.04Z" fill="#263238"/>
<path d="M189.797 266.905C189.138 267.482 187.82 269.459 185.595 269.871C184.03 270.2 182.383 270.035 181.147 268.882C179.994 267.729 179.5 266.164 179.417 264.598C179.335 263.692 180.076 259.821 180.406 258.667C180.406 258.585 180.323 258.503 180.323 258.585C179.664 260.644 178.923 262.951 178.923 265.01C178.923 266.74 179.499 268.553 180.735 269.706C182.053 270.942 183.948 271.353 185.678 270.694C186.502 270.365 189.138 268.635 189.961 266.987C189.961 266.905 189.797 266.823 189.797 266.905Z" fill="#263238"/>
<path d="M207.673 260.232C206.931 260.644 206.272 261.303 205.696 261.962C205.037 262.621 204.378 263.28 203.801 263.939C202.565 265.257 201.495 266.822 200.506 268.387C199.517 269.952 198.694 271.765 197.129 272.918C195.563 273.989 193.504 274.154 191.939 273.083C191.115 272.506 190.621 271.682 190.291 270.694C190.044 269.705 189.879 268.47 189.962 267.481C189.962 267.399 189.879 267.399 189.797 267.481C189.715 268.47 189.467 269.376 189.55 270.447C189.632 271.353 189.962 272.177 190.456 272.918C191.527 274.401 193.504 275.06 195.316 274.73C197.293 274.401 198.776 272.918 199.847 271.27C201 269.458 201.989 267.564 203.307 265.834C203.966 264.927 204.625 264.021 205.366 263.115C206.108 262.209 207.014 261.385 207.755 260.479C207.838 260.314 207.755 260.149 207.673 260.232Z" fill="#263238"/>
<path d="M213.192 264.268C211.71 264.104 208.25 263.609 205.614 262.703C205.531 262.703 205.449 262.868 205.531 262.95C206.52 263.527 208.662 264.021 209.321 264.186C210.556 264.433 211.957 264.598 213.275 264.433C213.275 264.433 213.357 264.268 213.192 264.268Z" fill="#263238"/>
<path d="M298.454 248.37C294.5 245.651 290.216 243.345 285.85 241.203C281.566 239.144 277.036 237.496 272.505 236.013C269.869 235.189 267.315 234.53 264.679 233.789C264.597 233.789 264.597 233.871 264.679 233.954C269.292 235.354 273.741 237.084 278.107 238.979C282.473 240.874 286.839 242.851 291.122 244.91C293.594 246.063 295.9 247.381 298.289 248.617C298.454 248.617 298.536 248.452 298.454 248.37Z" fill="#263238"/>
<path d="M305.785 224.809L267.068 223.491C267.068 223.491 259.819 204.38 257.1 187.327C254.382 170.275 268.304 175.465 282.884 193.753C297.383 211.958 305.785 224.809 305.785 224.809Z" fill="#FFC107"/>
<path d="M271.352 209.322C271.105 209.487 270.94 209.569 270.693 209.652C270.281 209.734 269.869 209.569 269.539 209.322C269.045 208.828 268.304 208.745 267.727 208.993C267.48 209.075 267.233 209.404 267.068 209.569C266.903 209.816 266.739 209.981 266.656 210.228C266.903 210.063 267.068 209.899 267.315 209.816C267.562 209.652 267.727 209.569 267.892 209.487C268.304 209.404 268.716 209.487 269.045 209.816C269.457 210.311 270.198 210.475 270.775 210.146C271.022 210.063 271.269 209.816 271.434 209.569C271.599 209.322 271.764 209.157 271.846 208.91C271.846 208.993 271.599 209.157 271.352 209.322ZM283.626 202.155C283.544 201.908 283.544 201.661 283.461 201.331C283.379 201.579 283.379 201.826 283.297 202.155C283.297 202.402 283.214 202.649 283.132 202.814C282.885 203.144 282.473 203.391 282.143 203.391C281.484 203.391 280.825 203.803 280.66 204.379C280.496 204.627 280.496 205.038 280.578 205.286C280.66 205.533 280.66 205.78 280.743 206.109C280.825 205.862 280.825 205.615 280.908 205.286C280.908 205.038 280.99 204.791 281.155 204.626C281.402 204.297 281.814 204.05 282.226 204.05C282.885 204.05 283.461 203.638 283.708 202.979C283.626 202.732 283.626 202.402 283.626 202.155ZM269.951 180.819C269.951 180.902 269.951 180.984 269.951 181.066C270.034 181.314 270.034 181.561 270.116 181.89C270.198 181.643 270.198 181.396 270.281 181.066C270.198 180.984 270.116 180.902 269.951 180.819ZM297.63 213.111C297.301 213.111 297.054 212.947 296.889 212.782C296.477 212.37 295.736 212.123 295.159 212.452C294.829 212.535 294.665 212.782 294.5 213.029C294.335 213.276 294.17 213.441 294.088 213.688C294.335 213.523 294.5 213.359 294.747 213.276C294.912 213.111 295.159 213.029 295.324 212.947C295.736 212.864 296.147 213.029 296.477 213.276C296.889 213.688 297.548 213.853 298.042 213.688C297.877 213.441 297.713 213.276 297.63 213.111ZM270.775 193.753C270.528 193.753 270.281 193.67 270.116 193.506C269.787 193.258 269.539 192.846 269.539 192.435C269.539 191.776 269.128 191.117 268.469 190.952C268.139 190.869 267.81 190.869 267.562 190.869C267.315 190.952 267.068 190.952 266.739 191.034C266.986 191.117 267.233 191.117 267.562 191.199C267.81 191.199 268.057 191.281 268.221 191.364C268.633 191.611 268.798 192.023 268.798 192.352C268.798 193.011 269.21 193.67 269.787 193.835C270.034 193.917 270.446 194 270.693 193.917C270.94 193.835 271.187 193.835 271.517 193.753C271.352 193.835 271.022 193.835 270.775 193.753ZM288.651 220.855C288.404 220.855 288.157 220.773 287.992 220.608C287.663 220.361 287.415 219.949 287.415 219.537C287.415 218.878 287.004 218.301 286.345 218.054C286.097 217.972 285.685 217.972 285.438 217.972C285.191 218.054 284.944 218.054 284.615 218.136C284.862 218.219 285.109 218.219 285.438 218.301C285.685 218.301 285.933 218.384 286.097 218.466C286.509 218.713 286.674 219.125 286.674 219.454C286.674 220.114 287.086 220.773 287.663 220.937C287.91 221.102 288.322 221.102 288.569 221.02C288.816 220.937 289.063 220.937 289.392 220.855C289.145 220.937 288.898 220.937 288.651 220.855Z" fill="white"/>
<path d="M268.634 223.409C268.387 223.409 267.069 223.162 267.069 223.162C266.986 222.668 264.762 214.677 264.185 212.947C263.032 209.405 261.632 205.945 260.231 202.403C260.149 202.32 259.984 202.32 260.066 202.485C260.973 205.451 261.796 208.499 262.62 211.464C262.373 211.052 262.043 210.641 261.796 210.146C261.302 209.24 260.808 208.334 260.314 207.428C260.231 207.345 260.149 207.428 260.149 207.51C260.561 208.746 261.137 209.982 261.879 211.052C262.208 211.547 262.538 211.959 262.867 212.453C262.95 212.7 263.032 212.947 263.114 213.194C263.691 214.924 266.492 223.574 266.657 223.574C266.657 223.574 268.057 223.574 268.551 223.574C268.716 223.656 268.798 223.409 268.634 223.409Z" fill="#263238"/>
<path d="M299.525 217.313C291.205 216.654 282.72 216.654 274.4 216.737C272.011 216.737 269.622 216.901 267.316 216.984C267.233 216.984 267.233 217.066 267.316 217.066C271.517 217.313 275.718 217.313 279.837 217.396C284.038 217.478 288.24 217.478 292.441 217.478C294.83 217.478 297.219 217.396 299.525 217.396C299.608 217.396 299.69 217.313 299.525 217.313Z" fill="#263238"/>
<path d="M165.381 291.762H171.312V287.89H165.381V291.762Z" fill="#204D6B"/>
<path d="M157.695 291.499H163.626V287.627H157.695V291.499Z" fill="#204D6B"/>
<path d="M150.009 291.235H155.94V287.364H150.009V291.235Z" fill="#204D6B"/>
<path d="M142.325 290.972H148.256V287.1H142.325V290.972Z" fill="#204D6B"/>
<path d="M134.638 290.708H140.569V286.836H134.638V290.708Z" fill="#204D6B"/>
<path d="M126.954 290.444H132.885V286.573H126.954V290.444Z" fill="#204D6B"/>
<path d="M119.349 290.182H125.28V286.31H119.349V290.182Z" fill="#204D6B"/>
<path d="M111.665 289.918H117.596V286.046H111.665V289.918Z" fill="#204D6B"/>
<path d="M103.978 289.654H109.909V285.783H103.978V289.654Z" fill="#204D6B"/>
<path d="M102.56 293.924H172.745V289.228L102.56 287.251V293.924Z" fill="#090909"/>
<path d="M34.0219 275.389H149.927L131.475 189.14H15.5693L34.0219 275.389Z" fill="#204D6B"/>
<path d="M29.7387 275.389H145.644L127.192 189.14H11.2861L29.7387 275.389Z" fill="#090909"/>
<path d="M68.456 227.28C69.115 231.234 72.822 234.447 76.7761 234.447C80.7302 234.447 83.4487 231.234 82.7897 227.28C82.1307 223.326 78.4237 220.113 74.4695 220.113C70.5154 220.113 67.7969 223.326 68.456 227.28Z" fill="#263238"/>
<path d="M62.5254 297.96H119.531V293.512L62.5254 291.699V297.96Z" fill="#204D6B"/>
<path d="M47.0381 297.96H77.6002L96.0528 249.604H65.4083L47.0381 297.96Z" fill="#204D6B"/>
<path d="M41.9307 297.96H72.5752L91.0278 249.604H60.3833L41.9307 297.96Z" fill="#263238"/>
<path d="M174.888 299.114C174.888 299.114 228.598 299.114 233.623 299.114C238.648 299.114 231.399 284.863 213.111 279.344C194.823 273.907 169.121 293.76 174.888 299.114Z" fill="#090909"/>
<path d="M197.953 299.115C197.624 297.549 197.129 295.984 196.553 294.502C195.976 293.019 195.317 291.618 194.493 290.218C193.669 288.817 192.681 287.582 191.61 286.428L190.786 285.605L189.88 284.863C189.303 284.287 188.562 283.957 187.985 283.463C189.468 284.122 190.951 284.863 192.104 286.017C193.34 287.088 194.411 288.406 195.235 289.806C196.058 291.206 196.717 292.689 197.212 294.254C197.624 295.902 197.953 297.467 197.953 299.115Z" fill="#263238"/>
<path d="M191.034 285.522C190.21 285.934 189.386 286.346 188.645 286.841C187.821 287.252 187.08 287.747 186.256 288.159C184.691 289.065 183.125 290.053 181.725 291.042C180.242 292.113 178.842 293.184 177.606 294.502C177.03 295.161 176.453 295.82 175.959 296.643C175.464 297.385 175.135 298.209 174.888 299.115C174.888 298.209 175.217 297.302 175.547 296.479C175.959 295.655 176.453 294.914 177.03 294.172C178.183 292.772 179.666 291.536 181.148 290.465C182.631 289.394 184.196 288.488 185.844 287.664C187.574 286.841 189.221 286.099 191.034 285.522Z" fill="#263238"/>
<path d="M285.19 264.927L281.73 308.752H257.594L254.134 264.927H285.19Z" fill="#FFC107"/>
<path opacity="0.1" d="M285.19 264.927L281.73 308.752H257.594L254.134 264.927H285.19Z" fill="black"/>
<path d="M287.25 260.973H251.827V267.398H287.25V260.973Z" fill="#204D6B"/>
<path d="M284.86 260.973H254.298L256.028 253.806H283.048L284.86 260.973Z" fill="#090909"/>
<path d="M278.024 287.251C278.024 292.935 274.234 297.549 269.621 297.549C265.008 297.549 261.219 292.935 261.219 287.251C261.219 281.567 265.008 276.954 269.621 276.954C274.317 276.954 278.024 281.567 278.024 287.251Z" fill="white"/>
</g>
<defs>
<clipPath id="clip0_1174_7132">
<rect width="352" height="318.143" fill="white"/>
</clipPath>
</defs>
</svg>
