<svg width="18" height="18" viewBox="0 0 18 18" fill="none" xmlns="http://www.w3.org/2000/svg">
<path d="M8.9803 18C8.66755 18 8.35351 17.9836 8.03915 17.9505C4.85827 17.6133 1.98821 15.4963 0.726594 12.5575C-0.52988 9.62924 -0.137091 6.21948 1.75228 3.65766C1.80241 3.58974 1.86542 3.53236 1.93772 3.48879C2.01002 3.44523 2.09019 3.41633 2.17366 3.40375C2.25713 3.39117 2.34226 3.39515 2.42419 3.41547C2.50612 3.43579 2.58325 3.47205 2.65116 3.52217C2.71908 3.5723 2.77646 3.63531 2.82002 3.70761C2.86359 3.77991 2.89249 3.86009 2.90507 3.94356C2.91765 4.02703 2.91367 4.11216 2.89335 4.19409C2.87303 4.27602 2.83677 4.35314 2.78665 4.42106C1.1676 6.61677 0.831059 9.5402 1.90817 12.0499C2.98915 14.5687 5.44874 16.3829 8.17447 16.6715C10.8902 16.9595 13.5848 15.7744 15.2038 13.5787C16.8232 11.383 17.1598 8.45954 16.0823 5.94979C15.3192 4.17163 13.8609 2.70622 12.0811 1.92931C10.0857 1.05823 7.71611 1.08684 5.74221 2.00485C5.66566 2.04046 5.58284 2.06063 5.4985 2.06423C5.41415 2.06784 5.32992 2.05479 5.25061 2.02583C5.17131 1.99688 5.09848 1.95259 5.03629 1.8955C4.9741 1.8384 4.92377 1.76961 4.88816 1.69306C4.85256 1.61651 4.83238 1.5337 4.82878 1.44935C4.82518 1.365 4.83823 1.28077 4.86718 1.20146C4.89613 1.12216 4.94042 1.04933 4.99752 0.987142C5.05461 0.924953 5.1234 0.874619 5.19995 0.839014C6.35616 0.301583 7.61332 0.0158215 8.88824 0.000638525C10.1632 -0.0145444 11.4268 0.241198 12.5954 0.750941C14.6716 1.65706 16.3732 3.3674 17.2639 5.44257C18.5207 8.37018 18.1279 11.7806 16.2385 14.3424C14.5372 16.649 11.8185 18 8.9803 18Z" fill="#090909"/>
<path d="M3.58301 3.27618C3.45139 3.27634 3.3229 3.23608 3.21491 3.16083C3.10692 3.08559 3.02465 2.979 2.97921 2.85548C2.93377 2.73195 2.92736 2.59745 2.96084 2.47017C2.99432 2.34288 3.06609 2.22895 3.16643 2.14378C3.25418 2.0692 3.34386 1.99592 3.43451 1.92456C3.50088 1.87239 3.57689 1.8338 3.65818 1.811C3.73946 1.7882 3.82445 1.78163 3.90828 1.79167C3.9921 1.80172 4.07313 1.82818 4.14673 1.86953C4.22034 1.91089 4.28507 1.96634 4.33724 2.03272C4.38942 2.0991 4.42801 2.1751 4.45081 2.25639C4.47361 2.33768 4.48017 2.42267 4.47013 2.50649C4.46008 2.59032 4.43363 2.67135 4.39227 2.74495C4.35091 2.81856 4.29546 2.88329 4.22908 2.93546C4.1513 2.99654 4.0748 3.05922 3.99926 3.12318C3.87808 3.22604 3.73022 3.27618 3.58301 3.27618Z" fill="#FAB800"/>
</svg>
