<svg width="289" height="301" viewBox="0 0 289 301" fill="none" xmlns="http://www.w3.org/2000/svg">
<g clip-path="url(#clip0_1048_43777)">
<path d="M232.874 127.175L226.269 139.203C223.419 144.348 217.439 146.086 212.225 143.305C207.428 140.663 205.342 134.475 208.123 129.261L218.691 110.072C218.76 109.863 218.969 110.003 219.108 109.794C219.039 109.516 219.039 109.516 219.108 109.307C221.75 104.51 228.355 102.563 233.152 105.205C244.763 111.602 259.293 107.569 265.551 96.0975C271.947 84.4869 267.497 70.2343 255.887 63.838C248.309 59.6665 239.409 60.0836 232.596 64.2551C227.59 67.2447 221.194 65.7152 218.204 60.7094C215.354 55.7731 216.814 49.6549 221.889 46.5958C234.821 38.809 251.646 37.9747 265.898 45.7615C287.312 57.5112 295.307 84.5564 283.558 105.97C273.477 124.186 252.271 132.529 232.874 127.175ZM210.696 167.569L208.888 170.906C206.037 176.051 200.058 177.859 194.844 175.008C190.047 172.366 187.961 166.179 190.742 160.964L192.55 157.627C195.261 152.621 201.796 150.883 206.594 153.525C211.738 156.445 213.407 162.633 210.696 167.569Z" fill="#EBEBEB"/>
<path d="M190.95 39.7826L192.341 30.6053C192.967 26.6423 196.373 24.1395 200.267 24.7652C203.952 25.3214 206.733 28.7976 206.107 32.691L203.882 47.2912C203.882 47.4303 203.743 47.4303 203.674 47.5693C203.813 47.7084 203.813 47.7084 203.743 47.8474C203.187 51.5323 199.433 54.2437 195.817 53.6875C186.918 52.3666 178.714 58.2762 177.393 67.0363C176.072 75.866 182.19 83.8613 191.02 85.2518C196.791 86.1557 202.353 83.7918 205.69 79.5508C208.193 76.4917 212.573 76.005 215.632 78.4384C218.552 80.8718 219.108 85.1823 216.605 88.2414C210.209 96.1673 199.78 100.686 188.934 99.0178C172.596 96.5149 161.263 81.2889 163.697 64.9506C165.922 51.1151 177.393 40.895 190.95 39.7826ZM195.609 8.98302L196.026 6.48012C196.652 2.5172 200.058 0.0143072 203.952 0.640031C207.636 1.19623 210.417 4.67248 209.792 8.56587L209.375 11.0688C208.818 14.8926 205.064 17.4651 201.449 16.9089C197.555 16.2831 195.052 12.7374 195.609 8.98302Z" fill="#EBEBEB"/>
<path d="M31.5298 60.1527L27.5669 51.8097C25.8983 48.1944 27.2888 44.2315 30.9041 42.5629C34.2413 40.9638 38.4823 42.2848 40.1509 45.9001L46.4777 59.3184C46.5472 59.4574 46.4082 59.527 46.4777 59.666C46.6863 59.7355 46.6863 59.7355 46.7558 59.8746C48.3549 63.2118 46.7558 67.5919 43.4186 69.1214C35.2842 72.9453 31.7384 82.4702 35.4928 90.4656C39.3166 98.6 48.8416 101.798 56.976 97.9742C62.2599 95.4713 65.5275 90.4656 66.0142 85.1121C66.3618 81.1492 69.7686 78.2987 73.6619 78.7158C77.4858 79.133 80.2668 82.4007 79.9192 86.2941C79.0154 96.4447 72.8276 105.97 62.8856 110.628C47.9377 117.65 30.0003 111.254 22.9783 96.3752C16.9991 83.4435 20.8925 68.6347 31.5298 60.1527ZM18.2506 31.9256L17.1382 29.6313C15.4696 26.016 16.8601 22.053 20.4754 20.3844C23.8126 18.7854 28.0536 20.1063 29.7222 23.7216L30.8346 26.016C32.4337 29.4922 30.8346 33.7332 27.4974 35.2628C23.9516 37.0009 19.9192 35.4018 18.2506 31.9256Z" fill="#EBEBEB"/>
<path d="M182.886 225.899L166.13 255.517C163.419 261.496 161.194 266.78 160.29 269.631C160.29 269.631 160.29 269.631 160.29 269.7C159.942 270.743 159.803 271.508 159.873 271.716V271.786C161.124 273.802 208.193 296.676 210.139 296.954C212.086 297.232 212.92 291.74 211.808 289.445C210.696 287.081 196.582 270.256 196.582 270.256L213.059 240.5L182.886 225.899Z" fill="#EB9481"/>
<path d="M209.375 296.745C207.497 296.467 161.124 273.802 159.873 271.786V271.716C159.734 271.438 159.942 270.743 160.29 269.7C160.29 269.7 160.29 269.7 160.29 269.63C161.194 266.78 163.488 261.496 166.13 255.517C166.13 255.517 168.981 250.372 170.093 248.564L200.058 264.068L196.582 270.256C196.582 270.256 209.931 286.942 211.043 289.236C212.156 291.6 211.252 297.023 209.375 296.745Z" fill="#EBEBEB"/>
<path d="M210.209 296.119C208.262 295.841 161.333 271.646 160.151 269.561C159.664 268.796 162.793 261.774 166.825 253.361C166.895 253.292 166.895 253.153 166.964 253.083L197.416 268.309L197.138 268.796C197.138 268.796 210.974 286.108 212.016 288.472C213.129 290.974 212.156 296.467 210.209 296.119Z" fill="#263238"/>
<path d="M210.626 294.034C202.839 289.793 170.927 273.246 162.862 269.631C162.793 269.631 162.793 269.631 162.862 269.7C170.51 274.08 202.561 290.349 210.556 294.173C210.765 294.242 210.835 294.103 210.626 294.034Z" fill="white"/>
<path d="M199.641 270.326C196.86 268.171 192.758 266.641 189.282 267.684C189.143 267.753 189.212 267.892 189.351 267.962C192.897 268.588 196.095 269.422 199.502 270.743C199.641 270.812 199.85 270.465 199.641 270.326Z" fill="white"/>
<path d="M201.171 272.829C198.39 270.673 194.288 269.144 190.811 270.187C190.672 270.256 190.742 270.395 190.881 270.465C194.427 271.09 197.625 271.925 201.032 273.246C201.24 273.315 201.379 272.968 201.171 272.829Z" fill="white"/>
<path d="M202.77 275.332C199.989 273.177 195.887 271.647 192.41 272.69C192.271 272.759 192.341 272.898 192.48 272.968C196.026 273.594 199.224 274.428 202.631 275.749C202.77 275.819 202.978 275.471 202.77 275.332Z" fill="white"/>
<path d="M172.04 262.4C169.537 258.924 164.114 262.887 166.686 266.293C169.189 269.77 174.543 265.807 172.04 262.4Z" fill="white"/>
<path opacity="0.1" d="M199.224 271.507L202.631 292.574C206.872 294.659 209.792 296.05 210.278 296.119C212.225 296.397 213.198 290.974 212.086 288.541C211.252 286.803 203.117 276.374 199.224 271.507Z" fill="#090909"/>
<path d="M211.808 294.798C212.503 295.563 210.835 298.274 210.139 298.205C209.444 298.135 158.343 271.507 157.579 270.881C156.814 270.256 158.76 267.266 159.803 267.614C160.916 268.031 211.808 294.798 211.808 294.798Z" fill="#FFC107"/>
<path d="M169.954 245.853L203.743 263.86C203.743 263.86 246.362 203.164 247.196 187.174C248.378 165.134 229.537 95.1922 229.537 95.1922L199.502 94.9836C199.502 94.9836 211.669 166.942 210.696 179.178C210.209 185.644 169.954 245.853 169.954 245.853Z" fill="#263238"/>
<path d="M206.663 256.837C204.925 255.586 188.934 246.339 176.767 240.36C176.698 240.29 176.628 240.429 176.698 240.499C180.383 242.932 204.299 256.003 206.594 256.976C206.663 257.046 206.733 256.907 206.663 256.837Z" fill="#090909"/>
<path d="M214.937 163.813C213.546 153.315 212.016 142.747 210.278 132.319C208.54 121.82 206.663 111.253 204.438 100.824C204.16 99.5723 203.882 98.2513 203.604 96.9999C203.534 96.7913 203.256 96.8608 203.326 97.0694C205.203 107.429 207.08 117.788 208.749 128.147C210.417 138.506 212.016 148.935 213.477 159.364C213.824 161.936 214.172 164.509 214.519 167.081C214.867 169.723 215.284 172.434 215.284 175.146C215.284 177.718 214.937 180.221 213.963 182.655C213.059 185.018 211.808 187.243 210.487 189.399C205.064 198.576 180.73 238.692 180.105 239.874C180.035 239.943 180.174 240.013 180.244 239.943C186.084 230.905 204.16 201.983 209.653 192.666C212.156 188.425 215.006 184.184 215.771 179.248C216.675 174.242 215.632 168.889 214.937 163.813Z" fill="#090909"/>
<path d="M206.315 245.854C206.315 245.854 205.968 280.06 205.968 280.129C206.176 286.665 206.455 292.435 206.872 295.355C206.872 295.355 206.872 295.355 206.872 295.425C207.011 296.537 207.219 297.233 207.428 297.441C207.428 297.441 207.428 297.441 207.497 297.511C209.514 298.762 261.866 298.832 263.674 298.275C265.481 297.65 263.882 292.435 261.866 290.767C259.85 289.168 239.757 280.129 239.757 280.129V245.923L206.315 245.854Z" fill="#EB9481"/>
<path d="M206.037 273.038L205.968 280.06C206.176 286.596 206.455 292.366 206.872 295.286C206.872 295.286 206.872 295.286 206.872 295.356C207.08 296.468 207.289 297.163 207.428 297.372C207.428 297.372 207.428 297.372 207.497 297.441C209.514 298.693 261.866 298.762 263.674 298.206C265.481 297.58 263.882 292.366 261.866 290.697C259.85 289.098 239.757 280.06 239.757 280.06V272.899L206.037 273.038Z" fill="#EBEBEB"/>
<path d="M263.604 298.067C261.727 298.623 208.957 297.719 207.011 296.398C206.246 295.912 205.968 288.194 205.829 278.878C205.829 278.808 205.829 278.669 205.829 278.6L239.896 278.808V279.365C239.896 279.365 259.919 288.751 262.005 290.419C263.952 292.157 265.481 297.511 263.604 298.067Z" fill="#263238"/>
<path d="M263.048 296.05C254.149 295.702 218.274 295.007 209.444 295.285C209.375 295.285 209.375 295.355 209.444 295.355C218.274 295.911 254.149 296.328 263.048 296.189C263.256 296.189 263.256 296.05 263.048 296.05Z" fill="white"/>
<path d="M242.677 279.573C239.201 278.877 234.89 279.295 232.179 281.798C232.04 281.867 232.179 282.006 232.318 282.006C235.794 280.963 239.062 280.338 242.677 280.059C242.955 279.99 242.955 279.642 242.677 279.573Z" fill="white"/>
<path d="M245.18 281.172C241.704 280.477 237.393 280.894 234.682 283.397C234.543 283.466 234.682 283.605 234.821 283.605C238.297 282.562 241.565 281.937 245.18 281.659C245.458 281.589 245.458 281.241 245.18 281.172Z" fill="white"/>
<path d="M247.683 282.701C244.207 282.006 239.896 282.423 237.185 284.926C237.046 284.996 237.185 285.135 237.324 285.135C240.8 284.092 244.068 283.466 247.683 283.188C247.961 283.119 247.961 282.771 247.683 282.701Z" fill="white"/>
<path d="M264.438 296.19C265.412 296.537 265.134 299.735 264.438 300.014C263.743 300.222 206.176 298.971 205.203 298.762C204.23 298.554 204.647 295.008 205.759 294.869C206.941 294.66 264.438 296.19 264.438 296.19Z" fill="#FFC107"/>
<path d="M214.38 284.718C210.556 282.771 207.497 288.611 211.321 290.627C215.145 292.574 218.204 286.665 214.38 284.718Z" fill="white"/>
<path d="M229.189 95.1227C228.981 95.7484 218.204 125.297 217.161 125.783C215.979 126.339 241.008 168.263 242.468 187.73C243.442 200.175 241.565 270.743 241.565 270.743H205.064C205.064 270.743 206.802 207.336 207.636 187.243C207.984 179.456 182.538 140.662 182.26 116.536C182.19 108.889 187.613 94.9836 187.613 94.9836L229.189 95.1227Z" fill="#263238"/>
<path d="M207.845 186.688C207.845 186.34 207.567 186.27 207.567 186.618C206.733 197.464 206.524 208.31 206.037 219.225C205.551 230.071 205.829 232.713 205.342 243.559C205.064 249.677 205.342 255.865 205.203 262.053C205.203 262.122 205.342 262.192 205.342 262.053C206.455 251.137 207.845 192.875 207.845 186.688Z" fill="#090909"/>
<path d="M242.468 188.217C242.399 185.505 242.19 182.863 241.704 180.221C241.217 177.649 240.383 175.146 239.479 172.713C237.463 167.637 235.099 162.701 232.804 157.695C230.51 152.69 228.146 147.614 225.713 142.678C224.322 139.897 223.001 137.116 221.611 134.266C220.22 131.415 218.691 128.704 217.231 125.853C217.161 125.714 217.022 125.853 217.022 125.923C219.386 130.928 221.681 136.004 224.044 141.009C226.408 146.015 228.703 151.091 230.997 156.096C233.291 161.033 235.516 166.038 237.671 171.044C238.714 173.478 239.618 175.911 240.244 178.414C240.869 180.986 241.147 183.698 241.287 186.34C241.634 192.597 241.843 198.854 242.399 205.042C242.399 205.111 242.538 205.111 242.538 205.042C242.747 199.48 242.677 193.848 242.468 188.217Z" fill="#090909"/>
<path d="M238.923 263.443C236.767 263.165 220.638 262.748 207.08 263.443C207.011 263.443 207.011 263.582 207.08 263.582C211.46 263.93 236.42 263.93 238.923 263.582C238.992 263.582 238.992 263.443 238.923 263.443Z" fill="#090909"/>
<path d="M222.237 124.185C218.343 125.089 214.519 126.549 210.835 128.148C210.696 128.217 210.765 128.426 210.904 128.356C214.728 127.175 218.621 126.062 222.376 124.602C222.654 124.533 222.515 124.115 222.237 124.185Z" fill="#090909"/>
<path d="M225.921 99.156C225.921 99.017 225.713 98.9475 225.713 99.0865C225.296 103.467 224.601 107.221 223.836 111.253C223.488 113.131 220.846 123.42 217.648 122.308C217.092 122.099 216.883 121.543 216.883 120.709C216.883 119.735 217.37 118.553 217.648 117.58C218.204 115.425 218.76 113.27 219.178 111.045C219.942 106.943 220.359 102.841 220.29 98.6694C220.29 98.5303 220.081 98.5303 220.081 98.6694C219.525 104.37 218.76 110.071 217.3 115.633C216.605 118.275 214.798 122.238 217.648 123.003C220.499 123.698 223.071 117.093 223.627 115.216C225.157 110.071 225.782 104.44 225.921 99.156Z" fill="#090909"/>
<path d="M217.718 122.656C217.37 123.351 217.022 124.046 216.744 124.741C216.536 125.298 216.258 125.923 216.258 126.48C216.258 126.619 216.397 126.619 216.466 126.549C216.883 126.132 217.161 125.437 217.439 124.88C217.787 124.255 218.065 123.629 218.413 122.934C218.552 122.517 217.926 122.239 217.718 122.656Z" fill="#090909"/>
<path d="M211.599 197.464C211.808 192.25 212.364 186.827 210.696 181.821C209.861 179.318 208.54 177.024 207.358 174.729C206.107 172.296 204.855 169.863 203.604 167.36C198.737 157.487 194.149 147.476 190.047 137.325C188.1 132.389 186.292 127.383 185.597 122.099C184.832 116.606 185.388 110.975 186.64 105.552C186.918 104.231 187.266 102.841 187.613 101.52C187.613 101.45 187.474 101.381 187.474 101.45C185.806 106.595 184.693 111.879 184.624 117.302C184.554 122.516 185.667 127.522 187.405 132.458C189.143 137.533 191.368 142.539 193.523 147.476C195.748 152.551 198.042 157.626 200.475 162.632C202.839 167.638 205.412 172.505 207.915 177.441C209.166 179.805 210.278 182.238 210.696 184.88C211.182 187.591 211.113 190.303 210.974 193.084C210.557 204.556 209.583 242.794 209.375 254.266C209.375 255.726 209.305 257.186 209.305 258.646C209.305 258.785 209.514 258.785 209.514 258.646C210.278 247.035 211.182 208.866 211.599 197.464Z" fill="#090909"/>
<path d="M203.395 102.562C203.395 102.493 203.256 102.493 203.256 102.562C202.839 105.691 202.561 109.028 201.032 111.879C199.641 114.521 197.208 116.189 194.496 117.371C192.967 118.067 191.368 118.623 189.769 119.109C189.629 119.179 189.699 119.318 189.838 119.318C192.828 118.692 195.956 117.997 198.529 116.259C201.31 114.451 202.77 111.531 203.256 108.263C203.534 106.386 203.534 104.509 203.395 102.562Z" fill="#090909"/>
<path d="M216.188 54.7294C221.68 59.3181 238.714 69.5382 246.64 68.982C252.063 68.6344 266.315 57.3018 269.096 53.2694C270.209 51.6703 258.668 40.1292 256.791 41.172C254.774 42.2844 245.597 53.4084 243.998 53.6865C242.468 54.0342 227.938 50.3493 219.734 49.3065C214.937 48.6807 213.685 52.6437 216.188 54.7294Z" fill="#EB9481"/>
<path d="M265.898 56.6062C268.888 54.4509 277.022 44.7869 278.204 42.4926C279.386 40.1983 282.306 33.4544 280.638 32.342C278.969 31.2296 277.996 33.1763 277.996 33.1763C277.996 33.1763 278.9 29.8391 277.022 29.2133C275.493 28.6571 273.963 31.2991 273.963 31.2991C273.963 31.2991 274.728 27.6143 272.781 27.1971C271.043 26.8495 270 30.0476 270 30.0476C270 30.0476 270.348 26.8495 268.61 26.8495C266.455 26.78 265.829 32.2724 264.369 34.7058C264.021 35.262 252.411 45.3431 252.411 45.3431L265.898 56.6062Z" fill="#EB9481"/>
<path d="M269.931 29.9086C269.027 33.941 268.54 35.6096 266.107 38.7383C266.037 38.8078 266.107 38.8773 266.176 38.8078C268.888 35.9573 269.583 34.0801 270.139 29.9086C270.139 29.7 270 29.7 269.931 29.9086Z" fill="#263238"/>
<path d="M273.894 31.2991C273.059 35.4706 272.017 37.2087 269.653 40.6154C269.653 40.6849 269.722 40.7545 269.722 40.6849C272.364 37.4868 273.755 35.5401 274.033 31.2991C274.102 31.0905 273.963 31.0905 273.894 31.2991Z" fill="#263238"/>
<path d="M277.857 33.3849C276.744 37.3478 275.771 39.364 273.059 42.4231C272.99 42.4926 273.059 42.5622 273.198 42.5622C276.327 39.7116 277.509 37.1392 277.996 33.4544C278.065 33.1763 277.926 33.1068 277.857 33.3849Z" fill="#263238"/>
<path d="M252.48 45.3436C252.48 45.3436 254.844 41.1721 255.887 39.0864C256.93 37.0701 259.015 30.8824 260.893 30.4653C263.048 30.0481 262.978 35.9577 261.171 39.6426C261.171 39.6426 266.037 44.2312 264.508 47.777C264.16 48.5418 261.032 51.6009 260.058 51.6009L252.48 45.3436Z" fill="#F7A9A0"/>
<path d="M261.171 40.1293C263.117 41.8674 264.995 44.7179 264.577 47.2903C264.577 47.3599 264.647 47.3599 264.716 47.2903C265.551 44.5789 263.465 41.1721 261.588 39.7816C261.171 39.5731 260.614 39.6426 261.171 40.1293Z" fill="#263238"/>
<path opacity="0.1" d="M273.546 27.545L264.925 47.0815L262.144 53.4777L257.833 63.2808C253.523 66.3399 249.143 68.9123 246.64 69.0513C238.645 69.6075 221.611 59.3874 216.188 54.7987C213.685 52.713 214.937 48.7501 219.873 49.3758C228.007 50.4187 242.538 54.1035 244.137 53.7558C245.11 53.5473 249.212 48.9586 252.55 45.4129L252.48 45.3433C252.48 45.3433 254.844 41.1718 255.887 39.0861C256.93 37.0699 259.015 30.8822 260.893 30.465C262.561 30.1174 262.909 33.5241 262.144 36.7222C263.395 35.6098 264.299 34.7755 264.369 34.6365C265.829 32.2031 266.455 26.7802 268.61 26.7802C270.417 26.7802 270 29.9783 270 29.9783C270 29.9783 270.974 26.7107 272.781 27.1278C273.129 27.2669 273.338 27.4059 273.546 27.545Z" fill="#090909"/>
<path d="M238.297 69.4687L243.859 53.2694C243.859 53.2694 227.66 49.3064 219.525 48.7502C212.712 48.2636 210.904 52.9912 218.065 57.9275C224.879 62.5857 238.297 69.4687 238.297 69.4687Z" fill="#455A64"/>
<path d="M218.691 48.7502L215.979 56.398C215.771 56.1894 215.562 55.9808 215.354 55.7723L217.857 48.8198C218.135 48.7502 218.413 48.7502 218.691 48.7502ZM222.515 49.0979L219.108 58.6923C219.317 58.8314 219.525 58.9704 219.803 59.1095L223.349 49.1674C223.071 49.1674 222.793 49.0979 222.515 49.0979ZM227.103 49.7931L223.071 61.1257C223.28 61.2647 223.558 61.4038 223.766 61.5428L227.868 49.9322C227.59 49.8626 227.382 49.8626 227.103 49.7931ZM231.553 50.6274L227.034 63.42C227.242 63.559 227.521 63.6981 227.729 63.8371L232.318 50.7665C232.109 50.6969 231.831 50.6969 231.553 50.6274ZM236.072 51.5312L231.066 65.6448C231.344 65.7838 231.553 65.9229 231.762 66.0619L236.837 51.7398C236.559 51.6703 236.281 51.6008 236.072 51.5312ZM240.522 52.5046L235.099 67.8001C235.377 67.9391 235.585 68.0782 235.794 68.1477L241.287 52.6436C241.008 52.6436 240.73 52.5741 240.522 52.5046Z" fill="#090909"/>
<path d="M239.409 53.7562C238.923 54.66 238.575 55.7029 238.227 56.6067C237.81 57.5801 237.463 58.623 237.115 59.5963C236.767 60.5697 235.446 64.6716 235.168 65.7145C235.168 65.784 235.238 65.784 235.238 65.7145C235.655 64.7412 237.185 60.7782 237.532 59.7354C237.88 58.762 238.227 57.7887 238.575 56.7458C238.853 55.842 239.27 54.7991 239.409 53.7562Z" fill="#263238"/>
<path opacity="0.1" d="M239.896 64.7411L238.297 69.5384C238.297 69.5384 224.879 62.6554 218.065 57.9972C211.738 53.6867 212.434 49.5152 217.3 48.8895L239.896 64.7411Z" fill="#090909"/>
<path d="M233.569 105.969L183.164 102.006C183.372 101.033 198.042 58.5531 210.139 49.4453C214.311 46.3167 221.541 49.4453 222.376 50.2796C230.788 58.414 234.265 105.482 233.569 105.969Z" fill="#455A64"/>
<path d="M224.461 53.1997L207.497 51.8787C207.706 51.6006 207.984 51.3921 208.193 51.114L223.975 52.3654C224.114 52.6435 224.253 52.9216 224.461 53.1997ZM226.13 57.0931L204.647 55.4245C204.438 55.7026 204.299 55.9112 204.091 56.1893L226.408 57.9274C226.339 57.5798 226.2 57.3017 226.13 57.0931ZM227.59 61.6817L201.796 59.6655C201.657 59.9436 201.449 60.1522 201.31 60.4303L227.799 62.4465C227.729 62.2379 227.66 61.9598 227.59 61.6817ZM228.772 66.3399L199.293 64.0456C199.154 64.3237 199.015 64.5323 198.876 64.8104L228.911 67.1047C228.911 66.8266 228.842 66.5485 228.772 66.3399ZM229.745 70.9286L197.069 68.4257C196.93 68.7038 196.791 68.9123 196.652 69.1904L229.884 71.7628C229.815 71.4848 229.745 71.2067 229.745 70.9286ZM230.51 75.5172L194.844 72.7362C194.705 73.0143 194.566 73.2229 194.496 73.501L230.649 76.282C230.649 76.0734 230.58 75.7953 230.51 75.5172ZM231.275 80.1058L192.897 77.1163C192.758 77.3944 192.689 77.6029 192.55 77.881L231.414 80.8706C231.344 80.5925 231.275 80.3839 231.275 80.1058ZM231.901 84.6945L191.02 81.4963C190.881 81.7744 190.811 81.983 190.672 82.2611L232.04 85.4593C231.97 85.1812 231.901 84.9726 231.901 84.6945ZM232.457 89.2136L189.212 85.8764C189.073 86.1545 189.004 86.3631 188.865 86.6412L232.526 90.0479C232.457 89.7698 232.457 89.4917 232.457 89.2136ZM232.874 93.8022L187.335 90.2565C187.266 90.5346 187.127 90.7431 187.057 91.0212L232.944 94.567C232.944 94.3584 232.944 94.0803 232.874 93.8022ZM233.291 98.3909L185.736 94.7061C185.667 94.9842 185.528 95.2623 185.458 95.4708L233.361 99.1557C233.361 98.8776 233.291 98.669 233.291 98.3909ZM233.569 102.91L184.137 99.0861C184.068 99.3642 183.928 99.6423 183.859 99.8509L233.639 103.675C233.569 103.466 233.569 103.188 233.569 102.91Z" fill="#090909"/>
<path d="M220.777 57.2321C218.065 57.7188 213.616 53.3387 211.947 49.932C211.808 49.7234 212.295 47.2901 212.781 44.37C213.059 42.5624 213.268 40.6157 213.407 38.7385C213.407 38.3909 224.809 42.1452 224.809 42.1452C224.809 42.1452 223.488 45.9691 223.349 49.1672C223.349 49.4453 223.349 49.6539 223.419 49.932C223.419 50.0015 223.419 50.0015 223.419 50.0711C223.488 51.392 223.419 56.7454 220.777 57.2321Z" fill="#EB9481"/>
<path d="M214.033 38.738C214.38 41.8667 215.979 49.5144 222.098 49.9315C222.515 49.9315 222.932 49.9315 223.28 49.9315C223.28 49.862 223.28 49.862 223.28 49.7925C223.28 49.5839 223.21 49.3058 223.21 49.0277C223.349 45.8296 224.67 42.0057 224.67 42.0057C224.67 42.0057 216.536 39.3638 214.033 38.738Z" fill="#263238"/>
<path d="M210.556 26.4328C209.653 30.6043 212.781 42.215 215.91 44.6484C220.429 48.1246 227.382 47.916 230.163 42.5626C232.874 37.4178 228.563 22.3309 225.087 20.2451C220.012 17.047 211.877 20.2451 210.556 26.4328Z" fill="#EB9481"/>
<path d="M212.364 38.5994C214.728 38.1127 215.84 35.2622 215.354 30.6736C214.867 26.0849 215.354 24.2773 217.37 23.3039C219.456 22.3306 222.167 23.9297 223.349 23.6516C224.461 23.443 223.905 21.5658 224.809 21.4268C225.296 21.3572 226.825 22.4696 228.494 25.5287C228.494 25.5287 227.034 16.9076 217.787 19.0629C209.166 21.0096 209.653 28.1707 210 30.2564C210.557 33.6631 212.364 38.5994 212.364 38.5994Z" fill="#263238"/>
<path d="M215.076 35.8882C215.076 35.8882 212.017 32.3425 210.417 33.4549C208.818 34.5673 211.391 39.9207 213.477 40.4073C215.562 40.9635 216.118 39.0168 216.118 39.0168L215.076 35.8882Z" fill="#EB9481"/>
<path d="M211.182 34.9844C212.642 35.471 213.546 36.7225 214.241 38.0435C213.755 37.5568 213.129 37.3482 212.503 37.9044C212.503 37.9044 212.503 37.9739 212.573 37.9739C213.129 37.7654 213.546 37.8349 214.033 38.252C214.311 38.5301 214.589 38.9473 214.798 39.2949C214.867 39.434 215.076 39.2949 215.006 39.1559C214.798 37.3482 213.129 34.9844 211.182 34.9844Z" fill="#263238"/>
<path d="M227.521 31.4388C227.521 31.4388 227.59 31.4388 227.59 31.5084C227.799 32.2731 228.146 33.177 228.911 33.2465V33.316C228.007 33.3855 227.521 32.2036 227.521 31.4388Z" fill="#263238"/>
<path d="M228.007 30.4658C229.259 30.0486 230.023 32.5515 228.842 32.9687C227.729 33.3163 226.964 30.8134 228.007 30.4658Z" fill="#263238"/>
<path d="M221.333 32.2036C221.68 32.2036 222.028 32.2036 222.376 32.2036C222.793 32.2036 223.14 32.2036 223.488 31.9951C223.697 31.856 223.697 31.5084 223.627 31.2998C223.349 30.8827 222.862 30.7436 222.376 30.7436C221.82 30.7436 221.402 30.8827 220.985 31.2303C220.568 31.5084 220.846 32.1341 221.333 32.2036Z" fill="#263238"/>
<path d="M228.216 28.4493C227.868 28.4493 227.521 28.3798 227.173 28.3102C226.756 28.2407 226.408 28.2407 226.13 27.9626C225.922 27.8236 225.922 27.4759 226.061 27.2674C226.339 26.8502 226.895 26.7807 227.382 26.8502C227.938 26.9197 228.355 27.0588 228.702 27.4064C229.05 27.8236 228.703 28.5188 228.216 28.4493Z" fill="#263238"/>
<path d="M224.183 40.4076C224.392 40.5467 224.67 40.7552 224.948 40.6857C225.226 40.6162 225.504 40.4076 225.713 40.2686H225.782C225.643 40.6162 225.296 40.8943 224.879 40.9638C224.601 41.0333 224.322 40.7552 224.183 40.4076Z" fill="#263238"/>
<path d="M221.194 33.177C221.402 33.0379 221.611 32.9684 221.82 32.8989C222.028 32.8293 222.237 32.8293 222.515 32.8293C222.723 32.8293 223.001 32.8989 223.21 33.0379C223.419 33.177 223.627 33.316 223.836 33.5246L224.114 33.8722L223.627 33.9417C223.349 33.9417 223.001 34.0113 222.654 34.1503C222.376 34.2894 222.028 34.4284 221.82 34.7065C221.889 34.3589 222.167 34.0113 222.515 33.8027C222.862 33.5941 223.21 33.5246 223.558 33.4551L223.419 33.8722C223.141 33.5941 222.793 33.3855 222.445 33.316C222.028 33.177 221.611 33.177 221.194 33.177Z" fill="#263238"/>
<path d="M222.862 34.8456C223.14 34.637 223.488 34.5675 223.766 34.2894C223.836 34.2199 224.044 33.9418 224.044 33.8722C223.975 33.7332 223.836 33.5246 223.766 33.3856C223.905 33.5246 224.044 33.6637 224.183 33.8027C224.183 34.0113 224.114 34.2199 223.905 34.3589C223.558 34.637 223.21 34.8456 222.862 34.8456Z" fill="#263238"/>
<path d="M224.74 38.739C225.643 38.0437 226.964 37.8351 227.799 37.6961C227.868 37.6266 227.938 37.4875 227.938 37.3485L227.451 35.6799C227.729 35.7494 228.981 35.8885 228.842 35.6104C227.938 33.1075 227.034 30.2569 225.574 27.8931C225.504 27.8236 225.435 27.8931 225.435 27.9626C226.2 30.4655 227.312 32.7598 228.146 35.1932C227.729 35.1237 227.103 35.0542 226.825 35.1932C226.756 35.2627 227.451 36.9313 227.521 37.2094C227.521 37.2094 225.782 37.2094 224.74 38.3218C224.392 38.739 224.322 39.0866 224.74 38.739Z" fill="#263238"/>
<path d="M226.2 37.5571C226.2 37.5571 226.408 39.1561 225.713 39.7123C224.879 40.3381 223.905 39.4342 224.67 38.3914C225.087 37.7656 226.2 37.5571 226.2 37.5571Z" fill="#263238"/>
<path d="M226.2 38.4609C226.13 38.8781 225.991 39.4343 225.643 39.6428C225.226 39.9904 224.74 39.9209 224.461 39.5733C224.461 39.5733 224.461 39.5733 224.461 39.5038C225.157 38.5304 225.782 38.3914 226.2 38.4609Z" fill="#FF99BA"/>
<path d="M253.592 37.2087L227.59 35.3316L227.66 29.4219L253.731 28.5876L253.592 37.2087Z" fill="#090909"/>
<path d="M268.123 39.9202L242.121 37.2783L242.329 28.0314L268.401 26.5019L268.123 39.9202Z" fill="#455A64"/>
<path d="M280.499 43.3271L260.754 39.8509L261.032 26.2935L280.916 23.6516L280.499 43.3271Z" fill="#090909"/>
<path d="M282.028 33.5241C281.889 38.4604 281.263 42.4928 280.499 42.4928C279.734 42.4928 279.247 38.4604 279.317 33.5241C279.386 28.5878 280.081 24.5554 280.846 24.5554C281.611 24.5554 282.098 28.5878 282.028 33.5241Z" fill="#FFC107"/>
<path d="M209.514 59.6656C217.231 69.26 238.367 85.5984 243.442 83.9993C252.828 81.0097 258.459 55.216 260.058 50.2797C260.754 48.194 242.26 45.2044 241.495 47.4292C240.8 49.3759 238.853 63.0028 237.115 63.3504C236.42 63.4895 226.547 58.4837 215.145 54.9379C206.455 52.1569 207.219 56.8151 209.514 59.6656Z" fill="#EB9481"/>
<path d="M240.591 51.5994C240.591 51.5994 241.217 49.5137 241.217 44.1603C241.217 39.9888 244.068 30.1858 254.913 25.5971C259.085 23.859 262.074 26.0143 258.112 28.5867C255.331 30.3943 253.245 31.4372 252.48 32.2715C252.48 32.2715 257.555 32.7582 259.015 35.3306C259.641 36.5125 261.379 39.6412 262.353 42.3526C262.353 42.3526 261.796 42.7003 261.101 43.1174C261.101 43.1174 262.839 46.3851 260.267 49.7223L259.015 54.1023L240.591 51.5994Z" fill="#EB9481"/>
<path d="M242.329 40.5461C243.72 38.8775 246.709 35.3317 250.186 33.3155C254.01 31.0907 262.074 27.7535 263.674 30.6735C264.855 32.7593 261.935 34.2888 261.935 34.2888C261.935 34.2888 265.551 33.5936 266.176 35.7488C266.802 37.6955 264.438 38.7384 264.438 38.7384C264.438 38.7384 266.663 38.7384 266.941 40.6851C267.219 43.049 262.422 42.7013 260.614 45.4128C260.197 45.969 242.329 40.5461 242.329 40.5461Z" fill="#EB9481"/>
<path d="M251.854 37.8346C253.453 36.4441 257.764 34.2888 261.796 34.2888C261.866 34.2888 261.935 34.3583 261.866 34.3583C257.486 35.2622 253.523 37.0003 251.854 37.8346Z" fill="#263238"/>
<path d="M254.288 41.6584C255.748 40.6155 260.336 38.5297 264.438 38.6688C264.508 38.6688 264.577 38.7383 264.508 38.7383C259.78 39.5726 255.956 40.9631 254.288 41.6584Z" fill="#263238"/>
<path d="M228.285 77.743L236.698 62.7951C236.698 62.7951 221.472 55.9817 213.616 53.9655C207.011 52.2969 204.299 56.5379 210.487 62.7256C216.397 68.4962 228.285 77.743 228.285 77.743Z" fill="#455A64"/>
<path d="M212.99 53.8266L209.027 60.9877C208.818 60.7791 208.679 60.501 208.471 60.2924L212.156 53.618C212.434 53.6876 212.712 53.7571 212.99 53.8266Z" fill="#090909"/>
<path d="M217.439 55.0781L212.295 64.3944C212.086 64.1858 211.877 64.0468 211.669 63.8382L216.605 54.8695C216.883 54.939 217.161 55.0086 217.439 55.0781Z" fill="#090909"/>
<path d="M221.75 56.6079L215.771 67.4538C215.562 67.2452 215.354 67.1061 215.145 66.8976L220.985 56.3298C221.263 56.3993 221.472 56.5383 221.75 56.6079Z" fill="#090909"/>
<path d="M225.991 58.2762L219.317 70.4431C219.108 70.304 218.9 70.0954 218.691 69.9564L225.296 57.9981C225.504 58.0676 225.713 58.1372 225.991 58.2762Z" fill="#090909"/>
<path d="M230.163 60.0143L222.793 73.3631C222.584 73.224 222.376 73.0155 222.167 72.8764L229.398 59.6667C229.676 59.8057 229.954 59.8753 230.163 60.0143Z" fill="#090909"/>
<path d="M234.334 61.7525L226.339 76.2136C226.13 76.0746 225.922 75.866 225.713 75.727L233.639 61.4744C233.917 61.5439 234.125 61.6829 234.334 61.7525Z" fill="#090909"/>
<path d="M232.318 62.4475C231.692 63.2818 231.136 64.1856 230.58 65.0895C230.023 65.9933 229.467 66.8971 228.911 67.8705C228.355 68.7743 226.408 72.5286 225.852 73.502C225.852 73.5715 225.922 73.5715 225.922 73.5715C226.478 72.6677 228.772 69.0524 229.259 68.1486C229.815 67.2447 230.302 66.3409 230.788 65.4371C231.414 64.3942 231.97 63.4209 232.318 62.4475Z" fill="#263238"/>
<path d="M212.712 64.7424C216.605 67.6625 220.777 71.2082 224.531 74.3369C225.782 75.4493 227.103 76.5617 228.424 77.6045H228.285C228.563 77.1874 228.911 76.7007 229.189 76.2836C228.911 76.7702 228.633 77.3264 228.355 77.8131L228.285 77.7436C222.584 74.0588 217.509 69.4701 212.712 64.7424Z" fill="#263238"/>
<path d="M213.059 65.8542C214.102 66.1323 214.937 66.6885 215.701 67.3837C214.658 67.3142 213.755 66.6885 213.059 65.8542Z" fill="#263238"/>
<path d="M159.525 173.2V199.064C159.525 210.188 151.182 218.531 139.989 218.531C129.63 218.531 120.452 210.188 120.452 199.064V157.627C120.452 157.21 120.869 157.21 120.869 156.862C120.452 156.445 120.452 156.445 120.452 156.097C120.452 145.738 129.63 136.561 139.989 136.561C165.087 136.561 185.388 116.677 185.388 91.9954C185.388 66.8969 165.087 47.4299 139.989 47.4299C123.65 47.4299 109.328 56.1901 101.75 69.3303C96.188 78.9247 84.2297 82.0533 74.7048 76.4913C65.5971 70.9293 62.3294 59.3882 67.9609 49.8633C82.283 25.182 109.398 8.42645 139.989 8.42645C186.153 8.42645 223.975 45.8309 223.975 91.9954C224.044 131.416 196.582 164.44 159.525 173.2ZM159.525 260.385V267.546C159.525 278.67 151.182 287.082 139.989 287.082C129.63 287.082 120.452 278.739 120.452 267.546V260.385C120.452 249.608 129.63 240.918 139.989 240.918C151.182 240.918 159.525 249.678 159.525 260.385Z" fill="#FFC107"/>
<path opacity="0.6" d="M147.428 16.978C180.869 12.8065 210.974 46.8042 216.397 77.5342C217.022 80.9409 217.3 84.6257 217.37 88.102C217.3 89.2839 217.3 90.4658 217.231 91.5782C209.096 58.6234 182.538 22.8876 147.428 16.978Z" fill="white"/>
<path d="M231.831 220.268L225.365 232.017C222.584 237.093 216.744 238.761 211.669 235.98C207.011 233.408 204.925 227.359 207.706 222.284L217.996 203.512C218.065 203.304 218.274 203.443 218.343 203.234C218.274 202.956 218.274 202.956 218.343 202.747C220.916 198.02 227.382 196.212 232.04 198.785C243.442 205.042 257.555 201.079 263.743 189.885C270 178.483 265.62 164.578 254.288 158.321C246.918 154.219 238.227 154.636 231.483 158.738C226.547 161.658 220.36 160.129 217.439 155.262C214.658 150.465 216.118 144.416 221.055 141.496C233.708 133.848 250.116 133.014 264.021 140.662C284.948 152.203 292.804 178.553 281.263 199.48C271.53 217.348 250.811 225.482 231.831 220.268ZM210.07 259.758L208.262 263.026C205.481 268.101 199.572 269.769 194.566 266.988C189.908 264.416 187.822 258.367 190.603 253.292L192.41 250.024C195.122 245.158 201.449 243.489 206.107 246.061C211.182 248.842 212.781 254.891 210.07 259.758Z" fill="#FFC107"/>
<g opacity="0.6">
<path d="M231.831 220.268L225.365 232.017C222.584 237.093 216.744 238.761 211.669 235.98C207.011 233.408 204.925 227.359 207.706 222.284L217.996 203.512C218.065 203.304 218.274 203.443 218.343 203.234C218.274 202.956 218.274 202.956 218.343 202.747C220.916 198.02 227.382 196.212 232.04 198.785C243.442 205.042 257.555 201.079 263.743 189.885C270 178.483 265.62 164.578 254.288 158.321C246.918 154.219 238.227 154.636 231.483 158.738C226.547 161.658 220.36 160.129 217.439 155.262C214.658 150.465 216.118 144.416 221.055 141.496C233.708 133.848 250.116 133.014 264.021 140.662C284.948 152.203 292.804 178.553 281.263 199.48C271.53 217.348 250.811 225.482 231.831 220.268ZM210.07 259.758L208.262 263.026C205.481 268.101 199.572 269.769 194.566 266.988C189.908 264.416 187.822 258.367 190.603 253.292L192.41 250.024C195.122 245.158 201.449 243.489 206.107 246.061C211.182 248.842 212.781 254.891 210.07 259.758Z" fill="white"/>
</g>
<path d="M22.005 166.038L18.0421 154.08C16.3039 148.935 18.8764 143.79 24.0907 142.052C28.8879 140.453 34.3804 142.886 36.1185 148.031L42.5148 167.15C42.5844 167.359 42.3758 167.359 42.4453 167.568C42.7234 167.707 42.7234 167.707 42.7234 167.846C44.3225 172.643 41.472 178.274 36.7443 179.874C25.1336 183.767 18.8068 196.073 22.6307 207.475C26.5241 219.086 38.8995 224.995 50.5102 221.102C58.0884 218.599 63.3028 212.342 64.8323 205.111C65.9447 199.827 70.9505 196.49 76.2344 197.602C81.3097 198.784 84.5774 203.582 83.465 208.865C80.6145 222.492 70.6724 234.381 56.5589 239.109C35.2147 246.2 11.9239 234.729 4.83233 213.385C-1.35539 195.308 6.22282 175.772 22.005 166.038ZM8.58667 125.714L7.47427 122.376C5.73615 117.232 8.30857 112.087 13.5229 110.349C18.3202 108.75 23.8126 111.183 25.5508 116.397L26.6632 119.734C28.3317 124.671 25.4117 130.163 20.684 131.762C15.4696 133.431 10.2553 130.65 8.58667 125.714Z" fill="#FFC107"/>
<g opacity="0.6">
<path d="M22.005 166.038L18.0421 154.08C16.3039 148.935 18.8764 143.79 24.0907 142.052C28.8879 140.453 34.3804 142.886 36.1185 148.031L42.5148 167.15C42.5844 167.359 42.3758 167.359 42.4453 167.568C42.7234 167.707 42.7234 167.707 42.7234 167.846C44.3225 172.643 41.472 178.274 36.7443 179.874C25.1336 183.767 18.8068 196.073 22.6307 207.475C26.5241 219.086 38.8995 224.995 50.5102 221.102C58.0884 218.599 63.3028 212.342 64.8323 205.111C65.9447 199.827 70.9505 196.49 76.2344 197.602C81.3097 198.784 84.5774 203.582 83.465 208.865C80.6145 222.492 70.6724 234.381 56.5589 239.109C35.2147 246.2 11.9239 234.729 4.83233 213.385C-1.35539 195.308 6.22282 175.772 22.005 166.038ZM8.58667 125.714L7.47427 122.376C5.73615 117.232 8.30857 112.087 13.5229 110.349C18.3202 108.75 23.8126 111.183 25.5508 116.397L26.6632 119.734C28.3317 124.671 25.4117 130.163 20.684 131.762C15.4696 133.431 10.2553 130.65 8.58667 125.714Z" fill="white"/>
</g>
<path d="M101.055 90.4661C101.055 91.3004 100.707 91.8566 100.151 92.2043C99.6642 92.5519 99.1776 92.83 98.6214 93.1081C98.7604 91.0919 98.6909 89.0756 98.6214 87.0594C98.5518 84.7651 98.4128 82.4708 98.1347 80.1765H98.0652C98.1347 82.4708 98.1347 84.8346 98.2042 87.129C98.2042 89.1452 98.1347 91.2309 98.1347 93.2471C97.5785 93.5252 97.0918 93.7338 96.5356 93.8729C96.6051 93.1776 96.6051 92.4824 96.6051 91.7176C96.6747 89.5623 96.6051 87.4766 96.5356 85.3213C96.5356 85.2518 96.4661 85.2518 96.4661 85.3213C96.4661 87.4071 96.327 89.4928 96.2575 91.5785C96.2575 92.4128 96.188 93.1776 96.1185 93.9424C95.7708 94.0814 95.3537 94.151 95.0061 94.29C94.728 94.3595 94.5194 94.4291 94.2413 94.4986C94.2413 93.1081 94.2413 91.7176 94.2413 90.3271C94.2413 88.1023 94.1022 85.8775 94.1022 83.6527C94.1022 83.5832 94.0327 83.5832 94.0327 83.6527C94.0327 85.8775 93.9632 88.1023 93.8937 90.2576C93.8937 91.6481 93.8241 93.1081 93.8241 94.5681C90.5565 95.3329 87.1498 95.3329 83.8126 94.7767C81.8659 94.4986 79.9887 94.0119 78.1115 93.3862C77.6944 93.2472 76.5124 92.83 75.4 92.4128C75.4 91.7176 75.4 91.0919 75.4 90.3966C75.4696 88.9366 75.4 87.4071 75.4696 85.947C75.4696 85.8775 75.4 85.8775 75.4 85.947C75.261 87.4071 75.0524 88.8671 74.9829 90.3966C74.9829 91.0224 74.9134 91.5785 74.9134 92.2043C74.4962 92.0652 74.1486 91.9262 73.801 91.7871C74.0095 89.0061 73.94 86.1556 74.0095 83.3746C74.0095 83.3051 73.94 83.3051 73.94 83.3746C73.7314 86.0861 73.3838 88.8671 73.3143 91.5785C72.8971 91.4395 72.619 91.3004 72.5495 91.2309C71.9933 90.6747 72.7581 79.6898 72.8971 77.1174C73.1057 72.3201 74.3572 62.5867 75.5391 57.998C76.582 54.0351 78.6677 48.4036 88.4707 48.5426C95.7013 48.6817 99.0385 56.1904 99.6642 60.5704C100.151 63.1429 101.055 89.2147 101.055 90.4661Z" fill="#263238"/>
<path d="M79.9887 87.4751C77.2772 103.813 76.4429 120.638 78.2506 123.906C81.0316 128.912 101.541 141.148 108.563 143.721C110.858 144.555 117.741 129.399 116.42 127.104C115.029 124.879 92.5727 113.477 91.4603 112.295C90.9041 111.67 88.8184 97.8343 86.8717 88.3789C84.9945 79.5492 80.823 82.4693 79.9887 87.4751Z" fill="#D3766A"/>
<path d="M100.568 140.733L109.537 121.613C109.537 121.613 93.8937 112.645 92.0165 111.393C91.2517 110.837 88.6098 93.7338 87.0802 86.2947C86.1069 81.3584 81.7963 78.5774 79.1544 87.8937C77.6248 93.3167 74.1486 120.084 77.2772 124.881C79.8496 128.705 100.568 140.733 100.568 140.733Z" fill="#FFC107"/>
<path d="M96.2575 136.978C96.6747 135.518 99.3862 129.817 100.151 128.426C100.846 127.036 103.836 121.474 104.531 120.014C104.601 119.944 104.67 119.944 104.67 120.014C103.975 121.474 101.402 127.244 100.707 128.635C100.012 130.025 97.2309 135.657 96.3271 136.908C96.3271 137.047 96.2575 137.047 96.2575 136.978Z" fill="#263238"/>
<path opacity="0.1" d="M79.7106 86.4337C79.6411 86.6422 79.5715 86.9203 79.502 87.1289C79.4325 87.407 79.363 87.6851 79.2239 87.9632C78.9458 88.867 78.6677 90.4661 78.3201 92.4128C78.2506 92.7604 78.181 93.1081 78.1115 93.5252C78.042 93.7338 78.042 94.0119 77.9725 94.2205C77.9029 94.7071 77.8334 95.2633 77.7639 95.8195C77.7639 95.8891 77.7639 96.0281 77.6944 96.0976C77.6248 96.7234 77.4858 97.2796 77.4163 97.9053C77.3467 98.392 77.2772 98.8091 77.2077 99.2958C77.1382 99.7825 77.0686 100.2 77.0686 100.686C77.0686 100.895 76.9991 101.173 76.9991 101.382C76.721 104.023 76.4429 106.804 76.2343 109.516C76.1648 110.281 76.1648 110.976 76.0953 111.671C76.0953 112.158 76.0258 112.645 76.0258 113.062C76.0258 113.548 76.0258 113.966 75.9562 114.452C75.8867 119.249 76.1648 123.143 77.2077 124.742C78.8763 127.314 88.9574 133.711 95.2146 137.534L84.8554 82.1927C84.7859 82.1231 84.6469 82.0536 84.5773 81.9841C84.0211 81.6365 83.3954 81.4974 82.7002 81.7755C82.4221 81.845 82.144 82.0536 81.8659 82.2622C81.6573 82.4012 81.5182 82.6098 81.3097 82.8184C81.1011 83.027 80.962 83.2355 80.7535 83.5136C80.6144 84.3479 80.1277 85.2517 79.7106 86.4337Z" fill="#020100"/>
<path d="M145.342 299.805C143.534 300.361 92.5032 299.944 90.5565 298.693C89.7917 298.206 89.4441 290.767 89.2355 281.798C89.166 279.851 85.3421 248.496 85.3421 248.496L119.479 248.704L122.19 282.007C122.19 282.007 141.657 290.906 143.674 292.505C145.62 294.035 147.15 299.179 145.342 299.805Z" fill="#EB9481"/>
<path d="M145.342 299.805C143.534 300.361 92.5032 299.944 90.5565 298.692C90.0003 298.345 89.6526 293.965 89.4441 287.986C96.0489 289.515 133.175 292.574 137.486 292.018C141.588 291.531 132.063 286.595 130.325 285.761C135.956 288.403 142.561 291.601 143.674 292.505C145.62 294.034 147.15 299.179 145.342 299.805Z" fill="#263238"/>
<path d="M49.8149 110.281C49.8149 110.281 40.9157 123.282 45.7824 137.326C54.1949 161.382 75.4696 188.496 76.0953 191.555C77.6248 198.855 85.8288 273.664 85.8288 273.664L123.998 273.456C123.998 273.456 117.741 209.979 111.275 189.052C107.729 177.581 87.5669 146.225 78.8068 130.93C78.042 129.539 79.8496 123.629 79.8496 123.629L49.8149 110.281Z" fill="#090909"/>
<path d="M120.244 266.781C114.334 266.642 96.3966 266.155 88.4707 266.781C88.4012 266.781 88.4012 266.92 88.4707 266.92C91.1822 267.337 114.334 267.059 120.244 266.92C120.313 266.92 120.313 266.781 120.244 266.781Z" fill="#263238"/>
<path d="M43.4186 128.009C45.991 132.111 48.6329 136.144 51.2749 140.245C53.9168 144.347 56.4893 148.38 59.0617 152.482C64.2065 160.686 69.1428 168.959 74.0791 177.302C76.3734 181.196 78.5287 185.159 80.1277 189.4C81.6573 193.641 82.7001 197.951 83.4649 202.401C84.2297 206.85 84.7164 211.3 85.1335 215.819C85.6202 220.616 86.1069 225.344 86.524 230.141C87.4974 239.875 88.4707 249.678 89.4441 259.411C89.5831 260.593 89.6526 261.775 89.7917 263.026C89.7917 263.235 89.5136 263.235 89.4441 263.026C88.3317 253.363 87.4278 243.629 86.4545 233.896C85.9678 229.098 85.4811 224.232 84.9945 219.434C84.5078 214.915 84.0906 210.466 83.4649 205.947C82.8392 201.566 82.0049 197.186 80.7535 192.945C79.4325 188.496 77.4858 184.324 75.1915 180.222C70.5333 171.949 65.5275 163.745 60.5912 155.61C55.5854 147.407 50.5101 139.203 45.2957 131.138C44.67 130.164 43.9748 129.121 43.349 128.148C43.2795 128.009 43.3491 127.94 43.4186 128.009Z" fill="#263238"/>
<path d="M52.3177 300.014C50.4406 299.875 2.12077 279.574 0.799795 277.697C0.73027 277.697 0.73027 277.558 0.73027 277.349C0.73027 275.68 23.8821 233.757 23.8821 233.757L55.4464 246.758L37.5785 274.777C37.5785 274.777 52.3178 290.35 53.4997 292.575C54.7511 294.8 54.1949 300.153 52.3177 300.014Z" fill="#D3766A"/>
<path d="M53.4997 292.575C54.7511 294.8 54.1949 300.153 52.3177 300.014C50.4406 299.875 2.12077 279.574 0.799795 277.697C0.73027 277.697 0.73027 277.558 0.73027 277.349C0.73027 276.793 3.23317 271.996 6.57036 265.669C13.4533 252.738 23.8821 233.688 23.8821 233.688L55.4464 246.689L37.5785 274.777C37.5785 274.777 41.6109 279.087 45.6434 283.468C49.3282 287.5 52.9435 291.532 53.4997 292.575Z" fill="#EB9481"/>
<path d="M52.3178 300.014C50.4406 299.875 2.12077 279.574 0.799795 277.697C0.73027 277.697 0.73027 277.558 0.73027 277.349C0.73027 276.793 3.23317 271.996 6.57036 265.669C14.9134 274.429 47.8682 290.42 48.911 290.003C50.0234 289.516 45.9215 283.885 45.6434 283.468C49.2587 287.43 52.874 291.532 53.4997 292.575C54.7511 294.8 54.1949 300.153 52.3178 300.014Z" fill="#263238"/>
<path d="M42.2367 270.397L9.49043 254.893C9.49043 254.893 51.7616 191.416 52.1092 186.55C52.4568 182.309 33.5461 144.904 32.9203 134.058C32.2251 122.378 37.9956 113.409 44.2529 107.847L79.9192 123.63C79.9192 123.63 76.7906 130.026 70.6724 133.363C70.6724 133.363 88.9574 176.538 87.706 189.748C86.4545 203.027 42.2367 270.397 42.2367 270.397Z" fill="#090909"/>
<path d="M44.0443 262.888C39.5252 260.594 40.8462 261.15 36.2575 258.925C34.0327 257.813 19.2934 250.513 16.9991 249.887C16.9296 249.887 16.9296 249.956 16.9296 249.956C18.8763 251.347 33.6851 258.369 35.9794 259.412C40.5681 261.567 39.3166 260.872 43.9748 263.027C44.0443 263.097 44.1138 262.958 44.0443 262.888Z" fill="#263238"/>
<path d="M75.9562 133.711C72.0628 133.919 68.1694 134.684 64.3456 135.518C64.2065 135.518 64.2065 135.796 64.4151 135.727C68.3085 135.24 72.2019 134.823 76.0258 134.128C76.3039 134.128 76.2343 133.711 75.9562 133.711Z" fill="#263238"/>
<path d="M71.8543 131.556C71.3676 132.112 71.02 132.737 70.6028 133.363C70.3247 133.85 69.9771 134.337 69.838 134.893C69.838 135.032 69.9771 135.032 70.0466 134.962C70.5333 134.615 70.8809 134.058 71.2285 133.572C71.6457 133.016 72.0628 132.459 72.4105 131.903C72.6886 131.556 72.1324 131.208 71.8543 131.556Z" fill="#263238"/>
<path d="M79.5715 121.196C79.5715 121.127 79.4325 121.057 79.4325 121.127C78.6677 123.213 77.8334 124.951 76.9296 126.828C76.5124 127.662 73.801 132.32 72.0628 131.277C71.7847 131.138 71.7152 130.791 71.7847 130.374C71.9238 129.887 72.3409 129.4 72.619 128.914C73.2448 127.94 73.7314 126.967 74.2876 125.994C75.1915 124.116 75.9562 122.17 76.3734 120.153C76.3734 120.084 76.3039 120.084 76.2343 120.084C75.261 122.795 74.1486 125.437 72.6886 127.94C71.9933 129.122 70.4638 130.791 71.9933 131.556C73.5924 132.32 75.8172 129.47 76.3734 128.635C77.8334 126.48 78.8763 123.838 79.5715 121.196Z" fill="#263238"/>
<path d="M71.159 134.754C72.4105 137.535 73.5229 140.316 74.7048 143.097C75.8867 145.808 76.9296 148.52 77.9725 151.301C80.0582 156.863 82.0049 162.494 83.604 168.195C84.4383 171.046 85.1335 173.896 85.8288 176.747C86.524 179.597 87.1497 182.517 87.4278 185.437C87.7059 188.357 87.4278 191.277 86.5935 194.128C85.7592 196.978 80.823 206.642 79.502 209.354C78.6677 211.022 78.3896 210.744 78.8068 209.91C79.9192 207.546 86.6631 193.294 86.524 187.245C86.4545 184.325 85.8983 181.474 85.2726 178.624C84.6468 175.704 83.8821 172.853 83.1173 170.003C81.5878 164.371 79.7106 158.879 77.7639 153.317C76.721 150.258 75.5391 147.199 74.4267 144.07C73.3143 140.941 72.2019 138.16 70.9504 134.754C71.02 134.754 71.159 134.684 71.159 134.754Z" fill="#263238"/>
<path d="M44.3224 125.298C44.9481 125.089 45.8519 125.437 46.4777 125.576C47.312 125.715 48.1463 125.854 48.9806 125.854C49.8149 125.924 50.6491 125.854 51.4834 125.785C52.3177 125.715 53.152 125.646 53.9168 125.159C55.1683 124.394 56.1416 123.073 56.9759 121.961C57.8797 120.709 58.8531 119.249 59.4093 117.789C59.4093 117.72 59.5483 117.789 59.5483 117.859C59.2702 118.693 59.0617 119.597 58.714 120.362C58.3664 121.127 57.9493 121.891 57.5321 122.587C56.6978 123.908 55.7245 125.368 54.334 126.132C52.8739 126.967 50.9272 126.897 49.3282 126.758C48.3548 126.689 47.451 126.549 46.4777 126.341C45.7824 126.202 44.67 126.063 44.2529 125.507C44.1138 125.507 44.1833 125.368 44.3224 125.298Z" fill="#263238"/>
<path d="M19.2239 248.983C25.203 240.223 31.0431 231.393 36.7442 222.494C42.5147 213.595 48.1463 204.557 53.7082 195.518C55.0292 193.363 56.5588 191.208 57.4626 188.775C58.4359 186.133 57.9493 183.63 57.115 181.057C55.6549 176.33 53.8473 171.741 51.8311 167.222C49.8149 162.703 47.6596 158.184 45.5738 153.734C43.4881 149.284 41.2633 144.835 39.6642 140.177C38.1347 135.727 37.648 131.138 38.8994 126.55C40.1509 121.961 42.7928 117.929 45.5043 114.105C46.1996 113.131 46.9643 112.089 47.6596 111.115C47.7291 111.046 47.7986 111.115 47.7986 111.185C44.8091 115.148 41.889 119.319 40.0814 123.977C39.1775 126.272 38.6213 128.705 38.5518 131.208C38.4823 133.711 38.8994 136.214 39.5947 138.578C40.9852 143.236 43.21 147.685 45.2262 152.065C47.312 156.585 49.4672 161.034 51.553 165.553C53.5692 170.142 55.5159 174.731 57.0454 179.458C57.7407 181.544 58.5055 183.769 58.4359 186.063C58.3664 188.566 57.115 190.721 55.933 192.807C50.5101 201.776 44.8786 210.675 39.1775 219.505C33.4765 228.334 27.6364 237.164 21.7268 245.924C20.962 247.036 20.2668 248.149 19.502 249.192C19.3629 249.261 19.1544 249.122 19.2239 248.983Z" fill="#263238"/>
<path d="M79.8496 123.629L82.8392 108.473C82.8392 108.473 88.1231 106.596 88.0536 99.7125C88.0536 96.5144 86.524 84.139 82.9782 79.2722C79.641 74.6836 74.2181 75.796 71.02 77.395C64.6932 80.5237 55.655 89.2838 44.2529 107.847L79.8496 123.629Z" fill="#FFC107"/>
<path d="M74.2181 103.259C75.6781 103.884 77.0686 104.51 78.4591 105.414C79.1544 105.831 79.7801 106.387 80.4058 106.874C80.7534 107.152 81.0315 107.361 81.3792 107.639C81.7268 107.917 82.0744 108.125 82.422 108.264V108.334C82.0744 108.264 81.6573 108.195 81.3096 108.056C80.962 107.917 80.6144 107.708 80.3363 107.5C79.641 107.082 79.0153 106.596 78.3201 106.109C76.9296 105.205 75.6086 104.301 74.2181 103.537C74.079 103.398 74.1486 103.259 74.2181 103.259Z" fill="#263238"/>
<path d="M69.9771 104.301C71.2285 104.44 72.5495 104.649 73.801 104.997C74.4267 105.136 75.0524 105.414 75.6086 105.622C75.8867 105.761 76.1648 105.831 76.4429 105.97C76.721 106.109 77.0686 106.318 77.3467 106.457V106.526C77.0686 106.387 76.721 106.387 76.4429 106.318C76.1648 106.248 75.8172 106.109 75.5391 106.04C74.9134 105.831 74.2876 105.692 73.6619 105.483C72.4105 105.136 71.2285 104.788 69.9771 104.44C69.9076 104.371 69.9771 104.232 69.9771 104.301Z" fill="#263238"/>
<path d="M66.5008 81.3583C57.115 91.2308 43.6271 108.96 44.6005 113.131C47.0339 123.629 56.0721 136.422 60.5912 141.011C63.2332 143.722 78.181 130.373 75.8867 127.87C72.3409 123.907 63.6503 111.184 62.677 109.585C62.1208 108.682 68.8647 95.1242 71.9238 86.1555C75.3305 76.2829 71.0895 76.561 66.5008 81.3583Z" fill="#D3766A"/>
<path d="M81.3792 139.273C81.0316 138.021 81.6573 137.813 83.5344 139.134C85.4811 140.455 91.8079 147.338 94.0327 144.904C96.2575 142.471 87.0802 132.946 83.743 130.999C80.4058 129.053 74.3572 127.036 74.3572 127.036C75.7477 129.192 78.6677 134.893 81.3792 139.273Z" fill="#D3766A"/>
<path d="M76.4385 148.744L80.8232 153.401L115.291 120.945L110.907 116.288L76.4385 148.744Z" fill="#C7C7C7"/>
<path d="M63.0941 159.087L69.7685 166.109L88.7488 148.241L82.0744 141.15L63.0941 159.087Z" fill="#263238"/>
<path d="M97.2309 135.796C97.648 133.293 100.359 135.24 100.359 135.24C100.359 135.24 97.1613 131.555 98.5518 129.122C99.9423 126.827 103.14 129.261 103.349 129.4C103.21 129.191 100.29 125.715 102.028 123.421C103.766 121.057 106.547 124.046 106.756 124.255C106.686 124.046 105.365 120.848 107.034 119.388C109.884 116.955 114.334 125.646 117.254 126.619L122.051 123.421C121.565 124.394 121.008 125.367 121.078 127.662C121.147 129.817 121.217 131.208 120.661 132.389C119.687 134.336 117.81 134.058 117.81 134.058C117.81 134.058 119.201 136.352 117.949 138.23C117.324 139.203 115.238 138.925 115.238 138.925C115.238 138.925 116.281 140.802 115.029 142.401C114.056 143.653 112.109 143.235 112.109 143.235C112.109 143.235 112.248 145.53 110.858 146.434C107.868 148.45 96.327 141.15 97.2309 135.796Z" fill="#D3766A"/>
<path d="M118.436 126.132L121.912 123.629C122.051 123.56 122.19 123.49 122.329 123.421C127.474 121.474 133.523 125.089 130.394 127.453C128.03 129.261 123.233 127.523 121.078 129.748L118.436 126.132Z" fill="#AD6359"/>
<path d="M111.623 143.305C111.623 143.375 111.692 143.305 111.623 143.305C107.242 141.915 102.862 138.925 100.22 135.171C100.151 135.032 100.29 134.823 100.429 134.962C103.905 138.3 107.312 141.011 111.623 143.305Z" fill="#263238"/>
<path d="M115.099 139.064C115.168 139.064 115.099 139.134 115.029 139.134C110.51 137.604 105.713 134.128 103.14 129.4C103.071 129.261 103.14 128.983 103.28 129.192C105.226 132.251 111.205 137.048 115.099 139.064Z" fill="#263238"/>
<path d="M106.686 123.908C109.328 128.358 113.152 131.486 117.532 134.128C117.602 134.128 117.532 134.267 117.463 134.198C114.96 133.502 112.387 131.486 110.441 129.818C108.633 128.149 107.312 126.341 106.478 124.047C106.478 123.908 106.617 123.769 106.686 123.908Z" fill="#263238"/>
<g opacity="0.4">
<path d="M106.269 86.0861C109.537 67.1058 127.683 54.3828 146.663 57.6504C155.84 59.2495 163.836 64.3248 169.259 71.9726C174.612 79.6203 176.698 88.8671 175.099 98.0444C173.5 107.222 168.424 115.217 160.777 120.64C153.129 125.993 143.882 128.079 134.705 126.48C125.528 124.881 117.532 119.806 112.179 112.158C106.756 104.51 104.67 95.2634 106.269 86.0861Z" fill="white"/>
</g>
<path d="M100.499 85.1128C104.392 62.9343 125.528 48.056 147.706 51.8799C169.884 55.7733 184.763 76.9088 180.939 99.0873C177.045 121.266 155.91 136.144 133.731 132.32C111.553 128.427 96.6052 107.291 100.499 85.1128ZM105.087 85.8775C101.68 105.484 114.89 124.255 134.496 127.662C154.102 131.069 172.874 117.859 176.281 98.253C179.687 78.647 166.478 59.8752 146.872 56.4685C127.266 53.0618 108.494 66.2715 105.087 85.8775Z" fill="#090909"/>
<path d="M150.417 128.149C154.589 127.036 158.552 125.159 162.167 122.587C170.371 116.816 175.794 108.265 177.463 98.4616C179.201 88.6586 176.976 78.7165 171.205 70.5821C165.435 62.3782 156.883 56.9552 147.08 55.2866C137.277 53.5485 127.335 55.7733 119.201 61.5439C115.099 64.3944 111.692 68.0097 109.12 72.1116C106.547 76.2136 104.74 80.8023 103.905 85.7385C100.359 106.04 113.986 125.437 134.288 128.913C139.78 129.887 145.203 129.609 150.417 128.149ZM134.705 126.48C115.724 123.212 103.001 105.066 106.269 86.0862C107.868 76.9089 112.943 68.9135 120.591 63.4906C128.239 58.1371 137.486 56.0514 146.663 57.6505C155.84 59.2495 163.836 64.3249 169.259 71.9726C174.612 79.6203 176.698 88.8671 175.099 98.0444C173.5 107.222 168.424 115.217 160.777 120.571C153.129 125.993 143.882 128.079 134.705 126.48ZM150.417 128.149C154.589 127.036 158.552 125.159 162.167 122.587C170.371 116.816 175.794 108.265 177.463 98.4616C179.201 88.6586 176.976 78.7165 171.205 70.5821C165.435 62.3782 156.883 56.9552 147.08 55.2866C137.277 53.5485 127.335 55.7733 119.201 61.5439C115.099 64.3944 111.692 68.0097 109.12 72.1116C106.547 76.2136 104.74 80.8023 103.905 85.7385C100.359 106.04 113.986 125.437 134.288 128.913C139.78 129.887 145.203 129.609 150.417 128.149ZM134.705 126.48C115.724 123.212 103.001 105.066 106.269 86.0862C107.868 76.9089 112.943 68.9135 120.591 63.4906C128.239 58.1371 137.486 56.0514 146.663 57.6505C155.84 59.2495 163.836 64.3249 169.259 71.9726C174.612 79.6203 176.698 88.8671 175.099 98.0444C173.5 107.222 168.424 115.217 160.777 120.571C153.129 125.993 143.882 128.079 134.705 126.48ZM151.669 132.668C156.327 131.416 160.846 129.331 164.879 126.411C174.056 119.945 180.174 110.281 182.121 99.2264C186.084 76.4222 170.719 54.5914 147.915 50.6284C136.86 48.6817 125.736 51.1846 116.559 57.6505C107.382 64.1163 101.263 73.7802 99.3166 84.8347C97.3699 95.8892 99.8728 107.013 106.339 116.19C112.804 125.368 122.468 131.486 133.523 133.433C139.641 134.615 145.829 134.267 151.669 132.668ZM133.94 131.138C123.511 129.331 114.473 123.56 108.355 114.869C102.237 106.179 99.8728 95.6806 101.75 85.3214C103.558 74.8926 109.328 65.8544 118.019 59.7362C121.843 57.0247 126.084 55.078 130.464 53.8961C135.956 52.3666 141.796 52.0885 147.567 53.1313C169.05 56.8857 183.511 77.4651 179.826 98.9483C177.115 114.591 165.504 126.48 151.113 130.374C145.62 131.834 139.78 132.181 133.94 131.138ZM162.167 122.656C170.371 116.886 175.794 108.334 177.463 98.5311C179.201 88.7281 176.976 78.786 171.205 70.6516C165.435 62.4477 156.883 57.0247 147.08 55.3561C137.277 53.618 127.335 55.8428 119.201 61.6134C115.099 64.4639 111.692 68.0792 109.12 72.1812C106.547 76.2831 104.74 80.8718 103.905 85.8081C100.359 106.109 113.986 125.507 134.288 128.983C139.711 129.956 145.203 129.678 150.417 128.288C154.589 127.036 158.552 125.229 162.167 122.656ZM134.705 126.48C115.724 123.212 103.001 105.066 106.269 86.0862C107.868 76.9089 112.943 68.9135 120.591 63.4906C128.239 58.1371 137.486 56.0514 146.663 57.6505C155.84 59.2495 163.836 64.3249 169.259 71.9726C174.612 79.6203 176.698 88.8671 175.099 98.0444C173.5 107.222 168.424 115.217 160.777 120.571C153.129 125.993 143.882 128.079 134.705 126.48Z" fill="#090909"/>
<path opacity="0.3" d="M125.388 67.662C128.448 65.5763 131.993 64.3249 135.748 63.6296C137.625 63.282 139.502 63.1429 141.449 63.2124C143.395 63.282 145.273 63.4905 147.15 63.9077C150.904 64.8115 154.519 66.4801 157.578 68.844C160.638 71.2078 163.21 74.0583 165.226 77.2565C162.515 74.6841 159.664 72.2507 156.605 70.3735C155.076 69.4697 153.477 68.5659 151.808 67.8706C150.139 67.1754 148.471 66.5496 146.733 66.202C143.256 65.3677 139.711 65.1592 136.095 65.4372C132.41 65.7849 128.865 66.4801 125.388 67.662Z" fill="#EBEBEB"/>
<path opacity="0.3" d="M147.219 119.041C143.743 120.223 139.919 120.431 136.165 120.084C134.288 119.945 132.41 119.528 130.603 118.971C128.795 118.415 126.988 117.65 125.319 116.677C121.912 114.8 118.992 112.158 116.628 109.099C114.334 106.04 112.596 102.564 111.623 98.8787C113.569 102.146 115.655 105.205 118.088 107.847C119.34 109.168 120.591 110.489 122.051 111.532C123.442 112.645 124.902 113.688 126.501 114.522C129.629 116.26 132.967 117.442 136.512 118.137C139.919 118.902 143.534 119.18 147.219 119.041Z" fill="#EBEBEB"/>
<path d="M59.2702 139.065C63.4417 145.183 68.3085 152.97 75.8867 156.515C77.3467 157.211 78.5982 156.863 78.5982 156.863C81.9354 158.532 83.743 157.419 83.743 157.419C87.3583 157.976 89.0269 156.585 89.0269 156.585C89.0269 156.585 92.9898 158.462 94.5194 156.237C96.2575 153.735 90.3479 151.579 87.7755 148.451C82.0049 141.15 75.7477 129.262 74.2876 126.967L59.2702 139.065Z" fill="#D3766A"/>
<path d="M76.3734 145.113C78.1115 147.199 79.7801 149.354 81.7963 151.162C84.0211 153.178 86.524 154.777 88.9574 156.446C89.0269 156.515 88.9574 156.585 88.8879 156.585C83.8821 154.291 79.1544 149.841 76.2343 145.183C76.1648 145.044 76.2343 144.974 76.3734 145.113Z" fill="#263238"/>
<path d="M71.4371 147.964C73.2448 149.911 76.4429 153.317 83.743 157.35V157.419C78.6677 155.473 74.7048 152.344 71.3676 148.103C71.2285 147.964 71.3676 147.825 71.4371 147.964Z" fill="#263238"/>
<path d="M68.8647 149.563C72.0628 152.761 74.4962 154.36 78.5982 156.863V156.933C73.6619 154.638 72.1324 153.248 68.7952 149.702C68.5866 149.563 68.7256 149.424 68.8647 149.563Z" fill="#263238"/>
<path d="M55.8635 140.733L75.261 125.507L63.9284 109.655C67.057 102.425 72.2714 88.1719 73.6619 82.888C75.3305 76.6308 72.2714 75.5879 67.4047 79.8985C56.2112 89.8405 43.7662 108.195 43.2795 111.88C42.5843 117.233 55.8635 140.733 55.8635 140.733Z" fill="#FFC107"/>
<path d="M55.1683 134.198C56.2112 133.016 61.1474 128.983 62.3989 128.01C63.6503 127.037 68.7952 123.213 70.0466 122.24C70.1161 122.17 70.1857 122.24 70.1161 122.309C68.8647 123.352 63.998 127.523 62.816 128.566C61.6341 129.54 56.6283 133.503 55.1683 134.198C55.2378 134.267 55.1683 134.267 55.1683 134.198Z" fill="#263238"/>
<path d="M71.02 92.3442C70.0466 95.4033 68.7952 98.3234 67.6828 101.313L65.8751 105.763L64.9713 107.987L64.5542 109.1C64.4846 109.308 64.4151 109.517 64.3456 109.656L64.2761 109.795V109.725C64.2761 109.795 64.3456 109.865 64.4151 109.934C66.0837 112.576 68.0304 115.148 69.8381 117.79L72.619 121.684L75.3305 125.577L74.7743 125.994L75.261 125.577V125.647L72.2714 121.892L69.3514 118.068C68.378 116.817 67.4047 115.496 66.5009 114.245C65.597 112.924 64.6237 111.672 63.7894 110.282C63.7199 110.212 63.6503 110.073 63.6503 110.004C63.6503 110.004 63.6503 109.934 63.5808 109.865C63.5808 109.795 63.5808 109.725 63.5808 109.656V109.586L63.6503 109.447C63.7199 109.239 63.7894 109.03 63.8589 108.822C63.998 108.474 64.137 108.057 64.2761 107.709L65.1799 105.484L67.0571 101.104L69.0038 96.7243C69.7685 95.2643 70.4638 93.8043 71.02 92.3442Z" fill="#263238"/>
<path d="M71.2285 93.5255C71.0895 93.9426 70.8114 94.3597 70.6028 94.7074C70.3247 95.055 70.1161 95.4721 69.699 95.7502C69.838 95.5417 69.9771 95.4026 70.0466 95.194L70.3942 94.6378C70.6723 94.2207 70.9504 93.8731 71.2285 93.5255Z" fill="#263238"/>
<path d="M72.2019 76.84C72.2019 76.84 77.3467 89.285 82.283 89.9107C85.9678 90.3279 85.4116 82.7497 85.4116 82.7497C85.4116 82.7497 82.0049 72.7381 72.2019 76.84Z" fill="#EB9481"/>
<path d="M77.2077 77.6744C77.0686 78.5087 78.7372 84.6964 82.3525 85.5307C84.2297 85.9479 85.5507 80.0383 85.5507 80.0383L85.8288 79.6211L89.5831 73.9201L84.0907 66.5504L83.2564 65.5076C83.2564 65.5076 82.3525 67.1066 81.2401 69.1229C81.1706 69.1924 81.1011 69.3314 81.1011 69.401C81.0316 69.54 80.962 69.6095 80.8925 69.7486C80.7535 70.0267 80.5449 70.3743 80.4058 70.6524C80.2668 70.861 80.1277 71.1391 80.0582 71.3477C79.9192 71.6258 79.7801 71.8343 79.6411 72.1124C78.3896 74.6849 77.2772 77.3268 77.2077 77.6744Z" fill="#EB9481"/>
<path d="M81.2401 69.1924C81.1706 74.8239 84.2992 78.3002 85.8983 79.6907L89.6527 73.9896L84.0907 66.5504L83.2564 65.5076C83.3259 65.5076 82.3525 67.1762 81.2401 69.1924Z" fill="#263238"/>
<path d="M100.985 63.3527C102.793 75.1719 95.9099 77.5358 93.407 77.9529C91.1127 78.3005 83.1868 79.2044 80.1973 67.6632C77.2077 56.1221 82.0744 51.5334 87.3583 50.4906C92.5727 49.3782 99.1776 51.5334 100.985 63.3527Z" fill="#EB9481"/>
<path d="M80.2668 67.5249C82.5611 67.8726 83.2564 62.6582 83.2564 62.6582C83.2564 62.6582 92.9899 61.2677 94.0327 53.4114C94.0327 53.4114 95.5623 58.4867 100.568 60.9201C100.568 60.9201 100.499 52.2294 93.6156 50.3523C93.6156 50.3523 85.2031 47.0151 80.1973 53.6199C75.261 60.2943 78.7373 67.3164 80.2668 67.5249Z" fill="#263238"/>
<path d="M94.1023 52.8548C94.1718 54.0367 93.9632 55.2882 93.5461 56.4701C93.1289 57.652 92.5032 58.6949 91.5994 59.5987C91.3908 59.8073 91.1822 60.0159 90.9041 60.2244L90.5565 60.5025C90.4175 60.5721 90.2784 60.7111 90.2089 60.7806C89.9308 60.9197 89.7222 61.1283 89.4441 61.2673C89.166 61.4064 88.8879 61.5454 88.6098 61.6845C88.4708 61.754 88.3317 61.8235 88.1927 61.893L87.7755 62.0321L86.9412 62.3797C86.3155 62.5188 85.7593 62.6578 85.1336 62.7273C85.6898 62.5188 86.246 62.3102 86.8022 62.1016L87.6365 61.754L88.0536 61.5454C88.1927 61.4759 88.3317 61.4064 88.4708 61.3368C88.7489 61.1978 88.9574 61.0587 89.2355 60.9197C89.5136 60.7806 89.7222 60.5721 89.9308 60.3635L90.2784 60.0854L90.626 59.8073C90.8346 59.5987 91.0432 59.4597 91.2517 59.1816C92.086 58.3473 92.7118 57.3044 93.1984 56.2615C93.4765 55.7053 93.6156 55.1491 93.7547 54.5929C93.9632 54.0367 94.0328 53.411 94.1023 52.8548Z" fill="#263238"/>
<path d="M82.7002 67.107C82.7002 67.107 79.8497 63.5612 78.2506 64.6041C76.6515 65.647 78.9458 70.9309 80.9621 71.4871C82.9783 72.1128 83.604 70.2356 83.604 70.2356L82.7002 67.107Z" fill="#EB9481"/>
<path d="M78.9458 66.134C78.8763 66.134 78.8763 66.134 78.9458 66.134C80.3363 66.6902 81.1706 67.8721 81.7964 69.1931C81.3792 68.7064 80.7535 68.4283 80.1278 68.9845C80.1278 68.9845 80.1278 69.054 80.1973 69.054C80.7535 68.915 81.1706 68.9845 81.5878 69.4016C81.8659 69.6797 82.0745 70.0969 82.283 70.4445C82.3526 70.5836 82.5611 70.514 82.4916 70.375C82.3526 68.5673 80.823 66.134 78.9458 66.134Z" fill="#263238"/>
<path d="M99.3861 63.7697C99.108 63.7697 98.8299 63.7002 98.5518 63.6307C98.2042 63.5611 97.9957 63.5611 97.7176 63.3526C97.5785 63.2135 97.5785 63.0049 97.648 62.8659C97.8566 62.5182 98.2737 62.5182 98.6909 62.5182C99.108 62.5878 99.3861 62.7268 99.7338 63.0049C100.081 63.283 99.8033 63.7697 99.3861 63.7697Z" fill="#263238"/>
<path d="M91.5994 62.7961C91.8775 62.7265 92.086 62.657 92.3641 62.518C92.6422 62.3789 92.9203 62.3789 93.1289 62.1008C93.268 61.9618 93.1984 61.6837 93.0594 61.6141C92.7813 61.336 92.3641 61.4056 92.0165 61.4751C91.5994 61.6141 91.3213 61.8227 91.1127 62.1008C90.8346 62.4484 91.1822 62.8656 91.5994 62.7961Z" fill="#263238"/>
<path d="M93.268 65.2299L93.1985 65.2994C93.268 66.1337 93.268 67.0376 92.5728 67.3852V67.4547C93.4766 67.1766 93.4766 65.9252 93.268 65.2299Z" fill="#263238"/>
<path d="M92.4337 64.3954C91.1127 64.3954 91.2518 67.0373 92.5032 67.0373C93.6851 67.0373 93.5461 64.3954 92.4337 64.3954Z" fill="#263238"/>
<path d="M91.947 64.604C91.7384 64.743 91.5298 65.0211 91.2517 65.0906C90.9041 65.1602 90.6956 64.8821 90.487 64.604H90.4174C90.4174 65.0906 90.6956 65.6468 91.1822 65.6468C91.6689 65.7164 92.0165 65.2297 92.086 64.743C92.1556 64.6735 92.0165 64.5344 91.947 64.604Z" fill="#263238"/>
<path d="M97.7871 64.9508L97.8566 65.0203C97.8566 65.8546 97.9957 66.7585 98.7604 67.0366V67.1061C97.8566 66.967 97.648 65.7156 97.7871 64.9508Z" fill="#263238"/>
<path d="M98.4823 64.047C99.8033 63.9079 99.9423 66.5499 98.7604 66.6889C97.5785 66.7585 97.4395 64.186 98.4823 64.047Z" fill="#263238"/>
<path d="M99.0385 64.1864C99.2471 64.3255 99.5252 64.534 99.8033 64.6036C100.151 64.6036 100.359 64.3255 100.568 64.0474H100.638C100.707 64.534 100.499 65.0902 100.012 65.1598C99.5252 65.2293 99.108 64.8121 98.969 64.3255C98.8995 64.2559 98.969 64.1169 99.0385 64.1864Z" fill="#263238"/>
<path d="M92.7813 72.1127C92.9899 72.3212 93.1289 72.5993 93.4765 72.5993C93.7546 72.6689 94.1023 72.5298 94.3804 72.4603C94.3804 72.4603 94.4499 72.4603 94.3804 72.5298C94.1718 72.8079 93.6851 73.0165 93.3375 72.947C92.9899 72.8774 92.7813 72.5298 92.7118 72.1822C92.6422 72.1127 92.7118 72.0431 92.7813 72.1127Z" fill="#263238"/>
<path d="M96.7442 68.4971C96.7442 68.4971 96.9528 69.7485 96.9528 70.3047C96.9528 70.3742 95.2842 70.2352 93.6156 70.8609C93.3375 70.9304 93.3375 70.7219 93.6156 70.5828C94.1718 70.2352 94.9366 69.8876 96.4661 69.818C96.5356 69.679 96.1185 67.9409 96.2575 67.9409C96.6052 67.9409 97.2309 68.1494 97.5785 68.219C97.2309 65.6465 96.5356 63.1436 96.2575 60.5712C96.2575 60.5017 96.3966 60.4322 96.3966 60.5017C97.3699 63.0741 97.7871 65.9942 98.2042 68.7056C98.2042 68.9837 97.0223 68.5666 96.7442 68.4971Z" fill="#263238"/>
<path d="M95.5623 70.3751C95.5623 70.3751 95.0061 71.7656 94.1718 71.9047C93.1984 72.0437 92.8508 70.8618 93.9632 70.3056C94.5194 70.097 95.5623 70.3751 95.5623 70.3751Z" fill="#263238"/>
<path d="M95.1451 71.1399C94.9366 71.4875 94.5889 71.8352 94.1718 71.9047C93.6156 71.9742 93.268 71.6961 93.268 71.279C94.2413 70.7228 94.867 70.9313 95.1451 71.1399Z" fill="#FF99BA"/>
<path d="M30.9736 34.1485C30.9736 44.7163 39.5252 53.3374 50.1625 53.3374C54.4731 53.3374 58.3664 51.9469 61.5646 49.5831L70.9505 51.9469L67.0571 43.1868C68.5171 40.4753 69.3514 37.4162 69.3514 34.1485C69.3514 23.5807 60.7303 14.9597 50.1625 14.9597C39.5252 14.9597 30.9736 23.5807 30.9736 34.1485Z" fill="white"/>
<path d="M30.9736 34.1485C31.2517 50.1393 48.8415 58.6213 61.6341 49.305L71.02 51.6688L70.6723 52.086L66.7789 43.3258L66.7094 43.1868C72.619 32.5495 66.6399 18.6445 54.7511 15.7244C42.8624 12.5263 30.9041 21.8426 30.9736 34.1485ZM30.9736 34.1485C30.9736 17.8102 50.0234 8.84148 62.677 19.2702C69.6295 24.9017 71.7847 35.539 67.4047 43.3258V43.0477L71.2981 51.8079L71.5762 52.3641L70.9504 52.225L61.5646 49.7916C49.4672 58.8994 31.0431 50.3478 30.9736 34.1485Z" fill="#263238"/>
<path d="M51.414 36.7218V38.8771C51.414 39.7809 50.7187 40.4762 49.8149 40.4762C48.9806 40.4762 48.2158 39.7809 48.2158 38.8771V35.4704C48.2158 35.4704 48.2158 35.4704 48.2158 35.4008C48.2158 35.4008 48.2158 35.4008 48.2158 35.3313C48.2158 34.497 48.9806 33.7322 49.8149 33.7322C51.9006 33.7322 53.5692 32.1332 53.5692 30.0474C53.5692 27.9617 51.9006 26.3626 49.8149 26.3626C48.4939 26.3626 47.312 27.0579 46.6863 28.1703C46.1996 28.935 45.2263 29.2131 44.4615 28.7265C43.6967 28.2398 43.4186 27.336 43.9053 26.5712C45.0872 24.555 47.312 23.1645 49.8149 23.1645C53.5692 23.1645 56.6979 26.2236 56.6979 30.0474C56.6979 33.2456 54.4035 35.957 51.414 36.7218ZM51.414 43.8134V44.3696C51.414 45.2734 50.7187 45.9686 49.8149 45.9686C48.9806 45.9686 48.2158 45.2734 48.2158 44.3696V43.8134C48.2158 42.9095 48.9806 42.2143 49.8149 42.2143C50.7187 42.2143 51.414 42.9791 51.414 43.8134Z" fill="#FFC107"/>
<path d="M2.6075 300.152C93.6156 299.735 195.609 299.735 286.617 300.152C195.678 300.639 93.6156 300.639 2.6075 300.152Z" fill="#263238"/>
</g>
<defs>
<clipPath id="clip0_1048_43777">
<rect width="288.25" height="300" fill="white" transform="translate(0.730316 0.5)"/>
</clipPath>
</defs>
</svg>
