<svg width="46" height="50" viewBox="0 0 46 50" fill="none" xmlns="http://www.w3.org/2000/svg">
<mask id="mask0_1048_48549" style="mask-type:alpha" maskUnits="userSpaceOnUse" x="0" y="0" width="46" height="50">
<path d="M44.9947 6.72148L42.858 4.84004L44.9947 2.95908C45.3269 2.66611 45.4406 2.20947 45.2846 1.79521C45.1278 1.38057 44.7407 1.11279 44.2977 1.11279H35.456V0.732813C35.456 0.636578 35.437 0.541286 35.4002 0.452377C35.3634 0.363468 35.3094 0.282684 35.2414 0.214636C35.1733 0.146588 35.0925 0.0926093 35.0036 0.055782C34.9147 0.0189548 34.8194 0 34.7232 0C34.6269 0 34.5317 0.0189548 34.4427 0.055782C34.3538 0.0926093 34.2731 0.146588 34.205 0.214636C34.137 0.282684 34.083 0.363468 34.0461 0.452377C34.0093 0.541286 33.9904 0.636578 33.9904 0.732813V10.6159L27.9719 13.884C27.9381 13.6155 27.8576 13.3549 27.7339 13.1142L26.8859 11.4586C26.3038 10.3219 24.9054 9.87129 23.7693 10.453L23.1135 10.7888C22.5627 11.071 22.1549 11.5501 21.965 12.1392C21.8707 12.4284 21.8349 12.7336 21.8594 13.0368C21.884 13.3401 21.9685 13.6354 22.108 13.9058L22.956 15.5617C23.1466 15.9342 23.4352 16.2477 23.7907 16.4685C23.3405 17.0746 23.1269 17.82 22.9072 18.5944L22.7493 19.1536C22.723 19.2462 22.7153 19.3431 22.7265 19.4387C22.7378 19.5343 22.7677 19.6267 22.8147 19.7107C22.8617 19.7947 22.9248 19.8686 23.0003 19.9282C23.0759 19.9878 23.1625 20.032 23.2551 20.0581C23.3215 20.0771 23.3886 20.0859 23.4546 20.0859C23.6142 20.0858 23.7693 20.0336 23.8965 19.9373C24.0238 19.841 24.1161 19.7058 24.1595 19.5522L24.3175 18.9941C24.6387 17.8615 24.8359 17.255 25.4638 16.9141L26.5895 16.3025L26.7284 16.2315C26.7745 16.2079 26.8176 16.1812 26.8615 16.1549L34.8846 11.7981C34.8338 12.801 34.2941 13.7485 33.4052 14.2884L28.1878 17.4583C28.1818 17.4618 28.1756 17.4651 28.17 17.469L26.5459 18.4555C26.3799 18.5565 26.2608 18.7194 26.2147 18.9082C26.1686 19.097 26.1994 19.2964 26.3003 19.4626C26.4984 19.7888 26.9103 19.9047 27.2464 19.741L26.0143 23.4657L22.6646 24.8387L23.3702 22.3438C23.4231 22.1568 23.3995 21.9564 23.3046 21.7867C23.2097 21.617 23.0514 21.492 22.8644 21.439C22.4745 21.3283 22.0699 21.5554 21.9596 21.9448L20.8446 25.8881C20.8297 25.9401 20.8208 25.9936 20.8182 26.0476L20.5264 31.4079C20.5176 31.6124 20.5612 31.9988 20.4665 32.1983L17.2255 39.0167H14.8703C13.4906 39.0167 12.3684 40.139 12.3684 41.5184V43.6336C12.0433 43.4847 11.6898 43.4078 11.3323 43.4082H5.35121C3.97181 43.4082 2.84955 44.5301 2.84955 45.9099V48.5344H1.09017C0.895819 48.5344 0.709426 48.6116 0.571997 48.749C0.434568 48.8864 0.357361 49.0728 0.357361 49.2672C0.357361 49.4615 0.434568 49.6479 0.571997 49.7854C0.709426 49.9228 0.895819 50 1.09017 50H44.2968C44.4912 50 44.6776 49.9228 44.815 49.7854C44.9524 49.6479 45.0296 49.4615 45.0296 49.2672C45.0296 49.0728 44.9524 48.8864 44.815 48.749C44.6776 48.6116 44.4912 48.5344 44.2968 48.5344H42.391V29.6459C42.391 28.2665 41.2688 27.1442 39.8894 27.1442H35.456V14.3601C36.2685 13.2588 36.5696 11.8152 36.1923 10.4435C36.1631 10.337 36.1102 10.2385 36.0375 10.1554C35.9648 10.0723 35.8742 10.0067 35.7726 9.96357C35.6726 9.92109 35.5645 9.90131 35.456 9.90566V8.56777H44.2973C44.7407 8.56777 45.1278 8.3 45.2842 7.88574C45.4406 7.47148 45.3269 7.01445 44.9947 6.72148ZM23.3599 12.5893C23.3939 12.4828 23.4486 12.3842 23.521 12.299C23.5933 12.2139 23.6819 12.144 23.7815 12.0934L24.4372 11.7576C24.5567 11.6962 24.689 11.6642 24.8233 11.6642C25.1323 11.6642 25.431 11.8331 25.5813 12.1266L26.4296 13.7825C26.6277 14.1692 26.4994 14.6382 26.1474 14.875L25.9086 15.0044L25.4047 15.2626C24.9877 15.4763 24.4743 15.3106 24.2607 14.8934L23.4122 13.2378C23.3611 13.1385 23.3302 13.0301 23.3212 12.9188C23.3122 12.8075 23.3254 12.6955 23.36 12.5894L23.3599 12.5893ZM21.8876 39.2422C21.6334 39.126 21.3614 39.0536 21.083 39.0278L21.8876 37.9593V39.2422ZM25.367 33.3374C25.7195 32.9151 25.8167 32.4219 25.8953 32.0244C25.9152 31.9297 26.2768 29.9545 26.2768 29.9545C26.2768 29.9545 26.619 30.1678 26.6548 30.183C26.6673 30.1888 26.6781 30.1977 26.686 30.209C26.6939 30.2202 26.6987 30.2334 26.6998 30.2471L27.0985 34.2995H24.6425L25.367 33.3374ZM29.7005 29.2927L29.0818 34.296H28.571L28.1586 30.1036C28.1329 29.8405 28.04 29.5883 27.8888 29.3714C27.7376 29.1544 27.5333 28.98 27.2953 28.8646L26.5583 28.3974L27.0493 25.6764C27.0493 25.6764 29.1176 28.1334 29.1657 28.1959C29.5937 28.7525 29.7402 28.9753 29.7005 29.2927ZM21.785 32.8392C21.933 32.3937 22.0017 31.94 21.9903 31.4788L22.2565 26.5899L25.6458 25.2011L25.0298 28.6137C25.0279 28.6229 25.0259 28.6323 25.0248 28.6415L24.5152 31.4633C24.4488 31.7555 24.3909 32.1986 24.2085 32.4395L19.2566 39.0167H18.8484L21.785 32.8392ZM4.31527 45.9095C4.31527 45.3385 4.77982 44.8738 5.35131 44.8738H11.3324C11.9037 44.8738 12.3688 45.3385 12.3688 45.9095V48.5345H4.31508L4.31527 45.9095ZM13.834 45.9095V41.5184C13.834 40.947 14.2991 40.4823 14.8704 40.4823H20.8515C21.423 40.4823 21.8876 40.947 21.8876 41.5185V48.5344H13.8344V45.9095H13.834ZM40.9256 29.6459V48.5344H32.8724V44.1406C32.8724 44.0444 32.8534 43.9491 32.8166 43.8602C32.7798 43.7713 32.7258 43.6905 32.6578 43.6224C32.5897 43.5544 32.5089 43.5004 32.42 43.4636C32.3311 43.4268 32.2358 43.4078 32.1396 43.4078C32.0433 43.4078 31.948 43.4267 31.859 43.4635C31.7701 43.5003 31.6892 43.5543 31.6212 43.6223C31.5531 43.6904 31.499 43.7712 31.4622 43.8601C31.4253 43.949 31.4064 44.0444 31.4064 44.1406V48.5344H23.3533V36.8008C23.3533 36.2297 23.8178 35.765 24.3893 35.765H30.3703C30.9418 35.765 31.4065 36.2297 31.4065 36.8008V40.4743C31.4065 40.6687 31.4837 40.855 31.6211 40.9925C31.7585 41.1299 31.9449 41.2071 32.1392 41.2071C32.2354 41.2072 32.3307 41.1882 32.4197 41.1514C32.5086 41.1146 32.5894 41.0606 32.6575 40.9926C32.7255 40.9245 32.7795 40.8437 32.8163 40.7548C32.8531 40.6659 32.872 40.5706 32.872 40.4743V29.6459C32.872 29.0745 33.337 28.6098 33.9085 28.6098H34.7157C34.718 28.6098 34.7205 28.6103 34.7233 28.6103C34.7256 28.6103 34.7283 28.6099 34.7305 28.6099H39.8892C40.4606 28.6099 40.9256 29.0749 40.9256 29.646V29.6459ZM33.9085 27.1442C32.5291 27.1442 31.4068 28.2665 31.4068 29.6459V34.5249C31.1388 34.4024 30.8511 34.3287 30.5573 34.3071L31.155 29.4731C31.2725 28.5309 30.7918 27.9064 30.3273 27.3022C30.2781 27.2381 27.4296 23.856 27.4296 23.856L29.1771 18.5727L33.9906 15.6482V27.1442H33.9085ZM35.456 2.57871H43.2086L41.5389 4.04893C41.4265 4.14791 41.3365 4.26968 41.2748 4.40615C41.2131 4.54262 41.1811 4.69066 41.1811 4.84043C41.1811 5.14336 41.3116 5.43174 41.5389 5.63203L43.2086 7.10225H35.456V2.57871Z" fill="black"/>
</mask>
<g mask="url(#mask0_1048_48549)">
<rect x="-9.72687" y="-6.24902" width="62.5" height="62.5" fill="#FFC107"/>
</g>
</svg>
