<svg width="51" height="50" viewBox="0 0 51 50" fill="none" xmlns="http://www.w3.org/2000/svg">
<mask id="mask0_1048_48526" style="mask-type:alpha" maskUnits="userSpaceOnUse" x="0" y="0" width="51" height="50">
<path d="M49.4012 48.4977H2.30969V44.2877C2.30979 44.1696 2.35674 44.0564 2.44023 43.9729C2.52372 43.8894 2.63693 43.8425 2.755 43.8424H37.1909C37.3852 43.8424 37.5715 43.7652 37.7088 43.6279C37.8462 43.4905 37.9234 43.3042 37.9234 43.11C37.9234 42.9157 37.8462 42.7294 37.7088 42.5921C37.5715 42.4547 37.3852 42.3775 37.1909 42.3775H32.8415V24.0775H43.884V42.3775H40.3122C40.118 42.3775 39.9317 42.4547 39.7943 42.5921C39.657 42.7294 39.5798 42.9157 39.5798 43.11C39.5798 43.3042 39.657 43.4905 39.7943 43.6279C39.9317 43.7652 40.118 43.8424 40.3122 43.8424H48.9559C49.074 43.8425 49.1872 43.8894 49.2707 43.9729C49.3542 44.0564 49.4011 44.1696 49.4012 44.2877V48.4977ZM7.82696 29.7024H18.8694V42.3774H7.82696V29.7024ZM48.9559 42.3775H45.3488V23.9742C45.3488 23.2234 44.7381 22.6127 43.9874 22.6127H32.8415V17.3065C32.8415 16.5557 32.2308 15.945 31.48 15.945H20.2309C19.4801 15.945 18.8695 16.5557 18.8695 17.3065V22.4969C18.8695 22.6912 18.9467 22.8775 19.084 23.0148C19.2214 23.1522 19.4077 23.2294 19.6019 23.2294C19.7962 23.2294 19.9825 23.1522 20.1198 23.0148C20.2572 22.8775 20.3343 22.6912 20.3343 22.4969V17.4098H31.3767V42.3775H20.3343V25.6182C20.3343 25.424 20.2572 25.2377 20.1198 25.1003C19.9825 24.963 19.7962 24.8858 19.6019 24.8858C19.4077 24.8858 19.2214 24.963 19.084 25.1003C18.9467 25.2377 18.8695 25.424 18.8695 25.6182V28.2375H7.72364C6.97286 28.2375 6.36212 28.8484 6.36212 29.5991V42.3775H2.755C1.70178 42.3775 0.844849 43.2344 0.844849 44.2877V49.2302C0.844849 49.4244 0.922013 49.6107 1.05937 49.7481C1.19672 49.8854 1.38302 49.9626 1.57727 49.9626H50.1337C50.3279 49.9626 50.5142 49.8854 50.6516 49.7481C50.7889 49.6107 50.8661 49.4244 50.8661 49.2302V44.2877C50.8661 43.2344 50.0093 42.3775 48.9559 42.3775Z" fill="black"/>
<path d="M23.4566 5.24598C23.6662 5.21552 23.8653 5.13455 24.0367 5.01004C24.2081 4.88552 24.3466 4.7212 24.4404 4.53124L25.8553 1.66416L27.2704 4.53124C27.3641 4.72122 27.5027 4.88555 27.6741 5.01007C27.8455 5.13458 28.0446 5.21555 28.2542 5.24598L31.4182 5.70574L29.1287 7.93757C28.9769 8.08541 28.8635 8.26793 28.798 8.4694C28.7325 8.67087 28.717 8.88523 28.7529 9.09402L29.2934 12.2453L26.4635 10.7575C26.276 10.6588 26.0673 10.6073 25.8554 10.6073C25.6435 10.6073 25.4348 10.6588 25.2473 10.7575L22.4174 12.2453L22.958 9.09402C22.9938 8.88521 22.9783 8.67083 22.9128 8.46935C22.8473 8.26787 22.7338 8.08534 22.5821 7.93748L20.2926 5.70574L23.4566 5.24598ZM21.5001 8.92839L20.9195 12.3135C20.8772 12.5539 20.9036 12.8012 20.9955 13.0273C21.0874 13.2533 21.2412 13.4488 21.4391 13.5915C21.8444 13.886 22.3716 13.9241 22.8153 13.6911L25.8553 12.0927L28.8955 13.6911C29.0833 13.7903 29.2924 13.8422 29.5048 13.8424C29.7746 13.8424 30.0425 13.758 30.2716 13.5915C30.4696 13.4488 30.6234 13.2533 30.7153 13.0273C30.8072 12.8013 30.8335 12.5539 30.7913 12.3136L30.2107 8.92839L32.6704 6.53094C32.8457 6.36125 32.9697 6.14561 33.0281 5.90872C33.0866 5.67182 33.0771 5.42325 33.0008 5.19149C32.9263 4.95914 32.7879 4.75248 32.6013 4.59521C32.4148 4.43793 32.1877 4.33639 31.9461 4.30223L28.5471 3.80829L27.0271 0.728416C26.8054 0.279101 26.3564 0 25.8553 0C25.3544 0 24.9053 0.2791 24.6837 0.728317L23.1636 3.80829L19.7646 4.30223C19.523 4.33639 19.296 4.43793 19.1094 4.59521C18.9229 4.75248 18.7844 4.95914 18.7099 5.19149C18.6336 5.42325 18.6241 5.67183 18.6826 5.90873C18.741 6.14563 18.865 6.36127 19.0404 6.53094L21.5001 8.92839Z" fill="black"/>
<path d="M36.4584 6.92107C36.4584 7.11532 36.5356 7.30162 36.673 7.43897C36.8103 7.57633 36.9966 7.65349 37.1909 7.65349H38.2398C38.434 7.65349 38.6203 7.57633 38.7577 7.43897C38.895 7.30162 38.9722 7.11532 38.9722 6.92107C38.9722 6.72682 38.895 6.54053 38.7577 6.40317C38.6203 6.26582 38.434 6.18865 38.2398 6.18865H37.1909C36.9966 6.18865 36.8103 6.26582 36.673 6.40317C36.5356 6.54053 36.4584 6.72682 36.4584 6.92107Z" fill="black"/>
<path d="M35.9286 2.53728C36.0298 2.53728 36.1327 2.51619 36.2309 2.47166L37.1861 2.03806C37.3621 1.95726 37.499 1.81 37.5667 1.62852C37.6344 1.44704 37.6275 1.24612 37.5475 1.06973C37.4674 0.89334 37.3207 0.755845 37.1396 0.687336C36.9584 0.618827 36.7574 0.624884 36.5807 0.704182L35.6255 1.13768C35.4729 1.20677 35.3487 1.32607 35.2734 1.47569C35.1981 1.62531 35.1764 1.7962 35.2118 1.95989C35.2473 2.12359 35.3378 2.27018 35.4682 2.37525C35.5986 2.48031 35.7611 2.5375 35.9286 2.53728Z" fill="black"/>
<path d="M35.6255 12.7051L36.5807 13.1386C36.6756 13.1818 36.7786 13.2042 36.8829 13.2043C37.0237 13.2043 37.1616 13.1638 37.2799 13.0876C37.3983 13.0113 37.4922 12.9025 37.5503 12.7743C37.6306 12.5974 37.6373 12.3959 37.569 12.214C37.5007 12.0322 37.3629 11.8849 37.1861 11.8047L36.2309 11.3712C36.1433 11.3314 36.0488 11.3093 35.9526 11.3061C35.8565 11.3029 35.7607 11.3187 35.6707 11.3525C35.5806 11.3863 35.4982 11.4375 35.4279 11.5033C35.3577 11.569 35.3011 11.6479 35.2613 11.7354C35.1811 11.9123 35.1743 12.1138 35.2426 12.2957C35.3109 12.4775 35.4486 12.6248 35.6255 12.7051Z" fill="black"/>
<path d="M13.5687 7.65349H14.6176C14.8119 7.65349 14.9982 7.57633 15.1355 7.43897C15.2729 7.30162 15.3501 7.11532 15.3501 6.92107C15.3501 6.72682 15.2729 6.54053 15.1355 6.40317C14.9982 6.26582 14.8119 6.18865 14.6176 6.18865H13.5687C13.3745 6.18865 13.1882 6.26582 13.0508 6.40317C12.9135 6.54053 12.8363 6.72682 12.8363 6.92107C12.8363 7.11532 12.9135 7.30162 13.0508 7.43897C13.1882 7.57633 13.3745 7.65349 13.5687 7.65349Z" fill="black"/>
<path d="M14.6225 2.03807L15.5776 2.47156C15.6725 2.51483 15.7756 2.53724 15.8799 2.53728C16.0207 2.53734 16.1585 2.49682 16.2769 2.42056C16.3952 2.3443 16.4891 2.23554 16.5473 2.1073C16.6275 1.93042 16.6343 1.72889 16.5659 1.54705C16.4976 1.36521 16.3599 1.21796 16.183 1.13768L15.2278 0.704183C15.1403 0.66441 15.0457 0.642283 14.9496 0.639065C14.8534 0.635847 14.7576 0.651602 14.6676 0.685429C14.5776 0.719256 14.4951 0.770493 14.4248 0.836211C14.3546 0.90193 14.298 0.980842 14.2583 1.06844C14.178 1.24531 14.1713 1.44683 14.2396 1.62867C14.3079 1.81051 14.4456 1.95777 14.6225 2.03807Z" fill="black"/>
<path d="M15.5776 11.3708L14.6225 11.8043C14.5349 11.8441 14.456 11.9007 14.3903 11.9709C14.3245 12.0412 14.2733 12.1237 14.2395 12.2137C14.1712 12.3956 14.1779 12.5971 14.2582 12.774C14.3384 12.9509 14.4857 13.0887 14.6675 13.157C14.8494 13.2253 15.0509 13.2186 15.2278 13.1383L16.183 12.7047C16.3591 12.6239 16.4959 12.4767 16.5637 12.2952C16.6314 12.1137 16.6245 11.9128 16.5444 11.7364C16.4644 11.56 16.3177 11.4225 16.1365 11.354C15.9553 11.2855 15.7544 11.2915 15.5776 11.3708Z" fill="black"/>
</mask>
<g mask="url(#mask0_1048_48526)">
<rect x="-5.3607" y="-6.24976" width="62.5" height="62.5" fill="#FFC107"/>
</g>
</svg>
