<svg width="34" height="50" viewBox="0 0 34 50" fill="none" xmlns="http://www.w3.org/2000/svg">
<mask id="mask0_1048_48500" style="mask-type:alpha" maskUnits="userSpaceOnUse" x="0" y="0" width="34" height="51">
<path d="M32.3842 44.279H27.4803V15.6733C27.4803 15.5234 27.4391 15.3763 27.3612 15.2483C27.2832 15.1202 27.1715 15.0161 27.0384 14.9472C26.9052 14.8784 26.7557 14.8475 26.6061 14.8579C26.4566 14.8683 26.3128 14.9197 26.1904 15.0064L23.0491 17.2307L22.6208 15.9119L29.9136 10.6135C30.0532 10.5119 30.157 10.3688 30.2104 10.2047C30.2637 10.0405 30.2638 9.86373 30.2105 9.69955C30.1571 9.53542 30.0532 9.39239 29.9135 9.29095C29.7739 9.18951 29.6057 9.13487 29.4331 9.13484H20.4179L17.6328 0.562028C17.579 0.39853 17.475 0.256172 17.3356 0.155251C17.1962 0.0543294 17.0285 -2.90404e-06 16.8564 1.16415e-10C16.6842 6.08747e-05 16.5165 0.0544173 16.377 0.155335C16.2375 0.256252 16.1334 0.39859 16.0795 0.562093L13.2931 9.1349H4.2779C3.92373 9.1349 3.61021 9.36272 3.50049 9.69948C3.44725 9.86368 3.44729 10.0405 3.50063 10.2047C3.55397 10.3688 3.65786 10.5119 3.79745 10.6135L11.0903 15.9119L8.30513 24.4841C8.25143 24.6484 8.25114 24.8255 8.3043 24.99C8.35746 25.1544 8.46134 25.2978 8.60104 25.3996C8.74085 25.5011 8.90924 25.5558 9.08204 25.5556C9.25483 25.5555 9.42314 25.5006 9.5628 25.3989L16.8554 20.1004L17.9179 20.8712L6.57538 28.9005C6.46876 28.9761 6.38179 29.076 6.32176 29.1921C6.26173 29.3081 6.23039 29.4369 6.23037 29.5675V44.279H1.32662C0.875557 44.279 0.509338 44.6447 0.509338 45.0963V49.1828C0.509338 49.6339 0.875557 50.0001 1.32662 50.0001H32.3843C32.8356 50.0001 33.2016 49.6339 33.2016 49.1828V45.0963C33.2016 44.6447 32.8355 44.279 32.3842 44.279ZM16.8554 18.2725C16.6828 18.2725 16.5147 18.3267 16.3748 18.4285L10.6376 22.5969L12.829 15.8512C12.8822 15.6871 12.8822 15.5104 12.8288 15.3463C12.7755 15.1822 12.6716 15.0392 12.532 14.9378L6.79351 10.7695H13.8864C14.2403 10.7695 14.5541 10.5416 14.6633 10.2048L16.8554 3.4595L19.0478 10.2048C19.101 10.3689 19.2048 10.5119 19.3443 10.6134C19.4838 10.7148 19.6519 10.7695 19.8244 10.7695H26.9175L21.1792 14.9378C21.0395 15.0391 20.9354 15.1821 20.882 15.3462C20.8286 15.5103 20.8286 15.6872 20.8821 15.8513L23.0737 22.5969L17.3359 18.4285C17.1963 18.3268 17.028 18.2722 16.8554 18.2725ZM7.865 29.99L19.3137 21.8849L24.1482 25.3989C24.2878 25.5004 24.456 25.5551 24.6286 25.5553C24.8013 25.5554 24.9695 25.5009 25.1093 25.3996C25.2488 25.298 25.3527 25.1549 25.406 24.9907C25.4593 24.8265 25.4594 24.6497 25.4062 24.4854L23.578 18.8604L25.8457 17.2529V44.279H7.86506L7.865 29.99ZM31.5669 48.3655H2.1439V45.9136H31.5668L31.5669 48.3655Z" fill="black"/>
</mask>
<g mask="url(#mask0_1048_48500)">
<rect x="-14.7458" y="-6.24951" width="62.5" height="62.5" fill="#FFC107"/>
</g>
</svg>
