<svg width="50" height="49" viewBox="0 0 50 49" fill="none" xmlns="http://www.w3.org/2000/svg">
<mask id="mask0_1048_48513" style="mask-type:alpha" maskUnits="userSpaceOnUse" x="0" y="0" width="50" height="49">
<path d="M42.5018 22.4937C42.05 20.7035 41.1224 19.0687 39.8175 17.7625C39.5316 17.4782 39.3049 17.14 39.1507 16.7674C38.9965 16.3949 38.9177 15.9954 38.919 15.5922C38.9214 14.9873 38.7543 14.3938 38.4367 13.8789C38.1191 13.364 37.6638 12.9483 37.1222 12.6789C36.7223 12.4819 36.3859 12.1765 36.1511 11.7977C35.9163 11.4188 35.7926 10.9817 35.794 10.5359V7.50469C35.7934 6.96491 35.5787 6.44743 35.197 6.06575C34.8153 5.68407 34.2979 5.46937 33.7581 5.46875C33.6443 5.46794 33.5345 5.42648 33.4485 5.35184C33.3626 5.27721 33.3061 5.17431 33.2893 5.06172L32.8253 1.79688C32.7523 1.28784 32.4941 0.823628 32.1001 0.493161C31.7062 0.162693 31.2041 -0.0107878 30.6901 0.00595385C30.1762 0.0226955 29.6865 0.228482 29.3148 0.58389C28.9432 0.939297 28.7157 1.41933 28.6761 1.93203L28.112 9.26641C28.0979 9.45097 28.0311 9.62761 27.9196 9.77539C27.8082 9.92317 27.6567 10.0359 27.4831 10.1002C27.3095 10.1645 27.1211 10.1777 26.9403 10.1382C26.7595 10.0987 26.5937 10.0082 26.4628 9.87734L24.4846 7.89844C24.2563 7.66983 24.114 7.36922 24.0821 7.04766C24.0502 6.72609 24.1306 6.4034 24.3096 6.13438L25.1034 4.94453C25.4226 4.46562 25.6059 3.90906 25.6337 3.33418C25.6616 2.75929 25.5329 2.18764 25.2614 1.68014C24.9898 1.17265 24.5857 0.748348 24.092 0.452461C23.5984 0.156575 23.0336 0.000197872 22.4581 0C21.6261 1.22401e-05 20.8123 0.244336 20.1179 0.702652C19.4235 1.16097 18.879 1.8131 18.5518 2.57813L17.4018 5.25625C17.3691 5.31617 17.3202 5.36571 17.2607 5.39928C17.2013 5.43284 17.1336 5.44908 17.0654 5.44615C16.9971 5.44322 16.9311 5.42125 16.8747 5.38271C16.8183 5.34418 16.7739 5.29063 16.7464 5.22813C16.5423 4.61532 16.1505 4.08233 15.6264 3.70481C15.1024 3.3273 14.4727 3.12443 13.8268 3.125C13.4865 3.12494 13.1515 3.20909 12.8516 3.36994C12.5517 3.53079 12.2963 3.76335 12.1081 4.04688L9.92059 7.32812C9.4729 7.99883 9.23444 8.78736 9.23543 9.59375C9.23479 10.0775 9.09522 10.551 8.83332 10.9577C8.57143 11.3645 8.19822 11.6875 7.75809 11.8883L4.57684 13.3312C3.71474 13.7229 2.94518 14.2924 2.31861 15.0024C1.69204 15.7124 1.22261 16.5468 0.941115 17.4509C0.659617 18.355 0.572404 19.3083 0.685194 20.2485C0.797984 21.1887 1.10823 22.0944 1.59559 22.9062C2.50234 24.4182 2.98138 26.148 2.98153 27.9109V29.3641C2.98203 29.6119 2.93341 29.8573 2.83847 30.0862C2.74353 30.3151 2.60415 30.5229 2.4284 30.6977C2.10738 31.0172 1.85289 31.3972 1.67963 31.8158C1.50638 32.2343 1.4178 32.683 1.41903 33.1359C1.41985 33.8787 1.71528 34.5908 2.2405 35.116C2.76572 35.6412 3.47782 35.9367 4.22059 35.9375C4.93382 35.9383 5.62679 35.7003 6.18894 35.2613C6.75109 34.8224 7.15004 34.2078 7.32215 33.5156L7.43387 33.0664C7.45582 33.0045 7.49475 32.9501 7.54621 32.9094C7.59767 32.8686 7.65957 32.8432 7.72481 32.836C7.79005 32.8289 7.856 32.8402 7.91509 32.8688C7.97417 32.8974 8.024 32.942 8.05887 32.9977C8.26471 33.4126 8.58271 33.7616 8.97681 34.0051C9.37091 34.2485 9.82533 34.3767 10.2886 34.375C11.305 34.3742 12.2877 34.0104 13.0597 33.3492L16.6151 30.3023C17.0613 29.9358 17.616 29.7269 18.1932 29.7081C18.7703 29.6893 19.3375 29.8617 19.8065 30.1984L21.2909 31.3148C20.7256 33.8299 20.8624 36.452 21.6866 38.8946C22.5107 41.3372 23.9904 43.5062 25.9639 45.1647C27.9375 46.8231 30.3289 47.9072 32.8769 48.2984C35.4249 48.6897 38.0314 48.373 40.4116 47.383C42.7917 46.393 44.854 44.7678 46.373 42.685C47.8919 40.6022 48.8092 38.142 49.0244 35.5731C49.2397 33.0043 48.7447 30.4257 47.5936 28.1191C46.4424 25.8126 44.6794 23.8668 42.4972 22.4945L42.5018 22.4937ZM20.7448 28.9484C19.989 28.4045 19.0744 28.126 18.1437 28.1562C17.213 28.1865 16.3184 28.5238 15.5995 29.1156L12.044 32.1625C11.5552 32.5818 10.9325 32.8123 10.2886 32.8125C10.116 32.8132 9.94668 32.7654 9.79987 32.6747C9.65307 32.584 9.53466 32.4539 9.45809 32.2992C9.28446 31.9523 9.00871 31.6668 8.66794 31.4814C8.32718 31.2959 7.93777 31.2193 7.55214 31.2618C7.16651 31.3044 6.80317 31.4641 6.51105 31.7194C6.21893 31.9747 6.01204 32.3134 5.91825 32.6898L5.80575 33.1383C5.71762 33.4919 5.51364 33.8057 5.22634 34.0299C4.93905 34.254 4.58498 34.3755 4.22059 34.375C3.8921 34.3746 3.57718 34.2439 3.3449 34.0116C3.11262 33.7794 2.98194 33.4644 2.98153 33.1359C2.98102 32.8881 3.02964 32.6427 3.12459 32.4138C3.21953 32.1849 3.3589 31.9771 3.53465 31.8023C3.85567 31.4828 4.11017 31.1028 4.28342 30.6842C4.45667 30.2657 4.54525 29.817 4.54403 29.3641V27.9109C4.5442 25.8646 3.98789 23.8568 2.93465 22.1023C2.56064 21.4792 2.32257 20.7841 2.23607 20.0625C2.14957 19.3409 2.2166 18.6091 2.43274 17.9153C2.64888 17.2214 3.00927 16.581 3.49026 16.0362C3.97125 15.4914 4.56199 15.0544 5.22371 14.7539L8.40106 13.3094C9.11387 12.984 9.71829 12.4609 10.1425 11.8021C10.5667 11.1433 10.7928 10.3765 10.794 9.59297C10.7939 9.09547 10.9413 8.6091 11.2175 8.19531L13.405 4.91406C13.4509 4.84417 13.5135 4.78684 13.5872 4.74728C13.6608 4.70771 13.7432 4.68717 13.8268 4.6875C14.1447 4.68706 14.4547 4.78686 14.7126 4.9727C14.9706 5.15854 15.1633 5.42096 15.2636 5.72266C15.3862 6.09069 15.6179 6.41273 15.9278 6.64608C16.2377 6.87943 16.6112 7.01306 16.9988 7.02924C17.3864 7.04543 17.7698 6.94341 18.0981 6.73671C18.4264 6.53001 18.6841 6.2284 18.837 5.87187L19.9854 3.19219C20.1927 2.70821 20.5375 2.29576 20.977 2.00604C21.4166 1.71632 21.9316 1.56209 22.4581 1.5625C22.7509 1.56248 23.0382 1.64194 23.2893 1.7924C23.5405 1.94287 23.7461 2.1587 23.8842 2.41687C24.0223 2.67503 24.0877 2.96584 24.0735 3.25828C24.0593 3.55072 23.9659 3.83381 23.8034 4.07734L23.0096 5.26797C22.6301 5.83741 22.4596 6.52075 22.5271 7.20174C22.5946 7.88273 22.896 8.5193 23.38 9.00313L25.3542 10.9781C25.5887 11.2136 25.8675 11.4003 26.1746 11.5275C26.4817 11.6546 26.8109 11.7196 27.1432 11.7188C27.7798 11.7162 28.3922 11.4748 28.8593 11.0424C29.3264 10.61 29.6142 10.018 29.6659 9.38359L30.23 2.04766C30.2402 1.91871 30.2976 1.79806 30.3911 1.70877C30.4847 1.61947 30.6079 1.56781 30.7372 1.56365C30.8665 1.55949 30.9928 1.60313 31.0919 1.68623C31.191 1.76932 31.256 1.88604 31.2745 2.01406L31.7432 5.28359C31.8148 5.76763 32.0573 6.21004 32.4269 6.53065C32.7966 6.85125 33.2688 7.02885 33.7581 7.03125C33.8836 7.03146 34.0039 7.0814 34.0926 7.17014C34.1814 7.25889 34.2313 7.37919 34.2315 7.50469V10.5359C34.2289 11.2717 34.4324 11.9934 34.819 12.6193C35.2057 13.2453 35.76 13.7504 36.419 14.0773C36.7013 14.217 36.9387 14.4329 37.1044 14.7007C37.2701 14.9684 37.3575 15.2773 37.3565 15.5922C37.3548 16.2006 37.4737 16.8034 37.7065 17.3656C37.9393 17.9277 38.2813 18.4381 38.7128 18.8672C39.4399 19.603 40.0297 20.4629 40.4542 21.4062C38.6877 20.664 36.7881 20.2911 34.8721 20.3105C32.9562 20.3299 31.0645 20.7413 29.3134 21.5192C27.5624 22.2972 25.9892 23.4253 24.6905 24.8341C23.3918 26.2429 22.3952 27.9025 21.762 29.7109L20.7448 28.9484ZM35.0128 32.9516L29.8839 29.6875H35.0128V32.9516ZM24.2917 27.9813L24.5175 28.125H24.205C24.2315 28.0766 24.2628 28.0297 24.2917 27.9813ZM25.1745 26.6906C25.5554 26.2044 25.9714 25.7467 26.419 25.3211V27.4828L25.1745 26.6906ZM23.4331 29.6875H24.5175L23.1034 30.5875C23.2003 30.2812 23.3136 29.9828 23.4331 29.6875ZM22.6323 32.7391L26.419 30.3297V33.5938H22.5526C22.5706 33.3063 22.5956 33.0211 22.6323 32.7391ZM27.9815 30.3297L33.1112 33.5938H27.9815V30.3297ZM35.0128 28.125H29.8831L35.0128 24.8609V28.125ZM27.9815 27.4828V24.2188H33.1112L27.9815 27.4828ZM35.0128 46.875C31.8359 46.8698 28.78 45.6556 26.4658 43.4791C24.1516 41.3026 22.7525 38.3269 22.5526 35.1562H35.794C36.0012 35.1562 36.1999 35.0739 36.3465 34.9274C36.493 34.7809 36.5753 34.5822 36.5753 34.375V23.4375C36.5753 23.2303 36.493 23.0316 36.3465 22.8851C36.1999 22.7386 36.0012 22.6562 35.794 22.6562H30.7042C32.4183 22.0254 34.2499 21.7781 36.07 21.9318C37.89 22.0854 39.6543 22.6363 41.2384 23.5455C42.8225 24.4547 44.188 25.7002 45.2387 27.1943C46.2894 28.6884 46.9997 30.3946 47.3197 32.1929C47.6396 33.9912 47.5613 35.8378 47.0904 37.6026C46.6194 39.3673 45.7673 41.0074 44.5939 42.4072C43.4206 43.807 41.9546 44.9325 40.2992 45.7044C38.6438 46.4763 36.8393 46.8759 35.0128 46.875Z" fill="black"/>
<path d="M31.1065 37.5C30.4885 37.5 29.8843 37.6833 29.3704 38.0267C28.8565 38.37 28.4559 38.8581 28.2194 39.4291C27.9829 40.0001 27.921 40.6285 28.0416 41.2347C28.1621 41.8408 28.4598 42.3977 28.8968 42.8347C29.3339 43.2717 29.8907 43.5694 30.4969 43.69C31.1031 43.8105 31.7314 43.7486 32.3024 43.5121C32.8734 43.2756 33.3615 42.8751 33.7049 42.3612C34.0482 41.8473 34.2315 41.2431 34.2315 40.625C34.2315 39.7962 33.9023 39.0013 33.3162 38.4153C32.7302 37.8292 31.9353 37.5 31.1065 37.5ZM31.1065 42.1875C30.7975 42.1875 30.4954 42.0959 30.2384 41.9242C29.9815 41.7525 29.7812 41.5085 29.663 41.2229C29.5447 40.9374 29.5138 40.6233 29.574 40.3202C29.6343 40.0171 29.7831 39.7387 30.0017 39.5201C30.2202 39.3016 30.4986 39.1528 30.8017 39.0925C31.1048 39.0322 31.419 39.0632 31.7045 39.1814C31.99 39.2997 32.234 39.5 32.4057 39.7569C32.5774 40.0139 32.669 40.316 32.669 40.625C32.669 41.0394 32.5044 41.4368 32.2114 41.7299C31.9184 42.0229 31.5209 42.1875 31.1065 42.1875ZM40.4815 37.5H42.044V39.0625H40.4815V37.5Z" fill="black"/>
<path d="M36.5753 39.0625C37.4382 39.0625 38.1378 38.3629 38.1378 37.5C38.1378 36.6371 37.4382 35.9375 36.5753 35.9375C35.7123 35.9375 35.0128 36.6371 35.0128 37.5C35.0128 38.3629 35.7123 39.0625 36.5753 39.0625Z" fill="black"/>
<path d="M40.4815 35.1562C41.3445 35.1562 42.044 34.4567 42.044 33.5938C42.044 32.7308 41.3445 32.0312 40.4815 32.0312C39.6186 32.0312 38.919 32.7308 38.919 33.5938C38.919 34.4567 39.6186 35.1562 40.4815 35.1562Z" fill="black"/>
<path d="M45.169 39.8438C46.032 39.8438 46.7315 39.1442 46.7315 38.2812C46.7315 37.4183 46.032 36.7188 45.169 36.7188C44.3061 36.7188 43.6065 37.4183 43.6065 38.2812C43.6065 39.1442 44.3061 39.8438 45.169 39.8438Z" fill="black"/>
<path d="M39.7003 45.3125C40.5632 45.3125 41.2628 44.6129 41.2628 43.75C41.2628 42.8871 40.5632 42.1875 39.7003 42.1875C38.8373 42.1875 38.1378 42.8871 38.1378 43.75C38.1378 44.6129 38.8373 45.3125 39.7003 45.3125Z" fill="black"/>
</mask>
<g mask="url(#mask0_1048_48513)">
<rect x="-6.56842" y="-7.24951" width="62.5" height="62.5" fill="#FFC107"/>
</g>
</svg>
