<svg width="49" height="52" viewBox="0 0 49 52" fill="none" xmlns="http://www.w3.org/2000/svg">
<mask id="mask0_1048_48476" style="mask-type:alpha" maskUnits="userSpaceOnUse" x="0" y="0" width="50" height="52">
<path d="M25.5828 51H6.23178C3.4457 51 1.17914 48.7333 1.17914 45.9474V6.05264C1.17914 3.26667 3.4458 1 6.23178 1H25.5828C28.3689 1 30.6354 3.26667 30.6354 6.05264V8.10366H29.4159V6.05264C29.4159 3.93902 27.6964 2.21951 25.5828 2.21951H6.23178C4.11816 2.21951 2.39865 3.93902 2.39865 6.05264V45.9474C2.39865 48.061 4.11816 49.7805 6.23178 49.7805H25.5828C27.6964 49.7805 29.4159 48.061 29.4159 45.9474V43.8963H30.6354V45.9475C30.6355 48.7333 28.3689 51 25.5828 51Z" fill="#C0CD30"/>
<path d="M18.3686 47.2313H14.1573C13.9956 47.2313 13.8405 47.1671 13.7261 47.0527C13.6118 46.9384 13.5475 46.7833 13.5475 46.6215C13.5475 46.4598 13.6118 46.3047 13.7261 46.1904C13.8405 46.076 13.9956 46.0118 14.1573 46.0118H18.3685C18.4485 46.0118 18.5278 46.0275 18.6018 46.0582C18.6758 46.0888 18.743 46.1337 18.7996 46.1903C18.8563 46.247 18.9012 46.3142 18.9318 46.3882C18.9625 46.4621 18.9783 46.5414 18.9783 46.6215C18.9783 46.7016 18.9625 46.7809 18.9319 46.8548C18.9012 46.9288 18.8563 46.996 18.7997 47.0527C18.7431 47.1093 18.6759 47.1542 18.6019 47.1849C18.5279 47.2155 18.4486 47.2313 18.3686 47.2313ZM30.0258 44.5061C29.385 44.5061 28.7377 44.4727 28.1017 44.4066C26.8741 44.279 25.937 43.3317 25.8227 42.1028L25.5823 39.5163C25.542 39.084 25.2796 38.7283 24.8802 38.5647C24.4806 38.4011 24.0441 38.4704 23.7124 38.7504L21.7276 40.4246C20.7843 41.2204 19.452 41.2384 18.4877 40.4684C17.4439 39.6348 16.4927 38.6914 15.6505 37.6546C14.8724 36.6962 14.8796 35.3637 15.668 34.4139L17.3264 32.4155C17.6036 32.0815 17.6695 31.6443 17.5027 31.2461C17.3359 30.8481 16.9781 30.5884 16.5456 30.5517L13.9565 30.3321C12.7259 30.2276 11.771 29.2975 11.6343 28.0701C11.4867 26.7431 11.4816 25.4042 11.6193 24.0761C11.7468 22.8486 12.6941 21.9115 13.9229 21.7972L16.5095 21.5567C16.9417 21.5166 17.2974 21.2541 17.461 20.8547C17.6247 20.4553 17.5553 20.0186 17.2754 19.6869L15.6012 17.7022C14.8055 16.7589 14.7875 15.4265 15.5574 14.4622C16.391 13.4184 17.3344 12.4672 18.3713 11.625C19.3295 10.847 20.6622 10.8542 21.612 11.6424L23.6103 13.3009C23.9445 13.5783 24.3815 13.644 24.7796 13.4772C25.1777 13.3104 25.4374 12.9526 25.4741 12.5201L25.6938 9.93079C25.7981 8.7003 26.7283 7.74543 27.9557 7.60874C29.2827 7.46163 30.6216 7.45655 31.9497 7.5936C33.1773 7.72124 34.1144 8.6685 34.2286 9.89736L34.4691 12.4839C34.5093 12.9162 34.7717 13.2719 35.1712 13.4355C35.5708 13.5991 36.0073 13.5297 36.339 13.2498L38.3238 11.5756C39.2672 10.7799 40.5995 10.7619 41.5637 11.5318C42.6075 12.3654 43.5587 13.3088 44.4009 14.3457C45.1789 15.304 45.1717 16.6365 44.3834 17.5863L42.725 19.5847C42.4477 19.9187 42.3819 20.3559 42.5487 20.7541C42.7154 21.1521 43.0732 21.4117 43.5057 21.4484L46.095 21.6681C47.3255 21.7726 48.2804 22.7027 48.4171 23.9301C48.4935 24.6174 48.5318 25.3084 48.5318 26C48.5318 26.6408 48.4982 27.288 48.4323 27.9241C48.3048 29.1516 47.3574 30.0887 46.1286 30.203L43.5419 30.4435C43.1097 30.4836 42.754 30.7461 42.5904 31.1455C42.4268 31.5451 42.4962 31.9816 42.7761 32.3133L44.4503 34.2981C45.2459 35.2413 45.2639 36.5736 44.4941 37.538C43.6605 38.5818 42.7171 39.533 41.6802 40.3752C40.722 41.1534 39.3893 41.1461 38.4396 40.3578L36.4411 38.6993C36.1072 38.4221 35.6701 38.3564 35.2718 38.523C34.8738 38.6898 34.6141 39.0476 34.5774 39.4801L34.3577 42.0694C34.2533 43.2999 33.3232 44.2548 32.0957 44.3915C31.4084 44.4677 30.7173 44.506 30.0258 44.5061ZM24.4482 37.2596C24.7495 37.2596 25.0528 37.3175 25.3424 37.4361C26.1576 37.7699 26.7148 38.5237 26.7966 39.4031L27.0371 41.9897C27.0967 42.6318 27.5864 43.1267 28.2277 43.1935C29.469 43.3214 30.7204 43.3167 31.9606 43.1793C32.602 43.1079 33.0879 42.609 33.1425 41.9661L33.3622 39.3767C33.4369 38.4966 33.988 37.7384 34.8005 37.3981C35.6132 37.0576 36.5401 37.1965 37.2198 37.7607L39.2183 39.4192C39.7144 39.8311 40.4107 39.8349 40.9114 39.4282C41.8804 38.6413 42.762 37.7525 43.5409 36.777C43.9432 36.2732 43.9337 35.5769 43.5181 35.0842L41.8439 33.0995C41.2744 32.4244 41.1279 31.4985 41.4618 30.6833C41.7956 29.8681 42.5495 29.3108 43.4289 29.229L46.0155 28.9885C46.6575 28.9289 47.1525 28.4392 47.2192 27.7979C47.3477 26.5566 47.343 25.3052 47.2051 24.0649C47.1336 23.4237 46.6347 22.9377 45.9917 22.8831L43.4025 22.6634C42.5224 22.5887 41.7642 22.0377 41.4239 21.2252C41.0834 20.4127 41.2223 19.4857 41.7865 18.8058L43.445 16.8073C43.8569 16.3111 43.8605 15.6149 43.4541 15.1143C42.6672 14.1453 41.7783 13.2637 40.8028 12.4848C40.299 12.0824 39.6029 12.0919 39.11 12.5076L37.1253 14.1818C36.4501 14.7513 35.5244 14.8979 34.709 14.5639C33.8938 14.2301 33.3366 13.4763 33.2547 12.5968L33.0143 10.0103C32.9546 9.36819 32.465 8.87327 31.8237 8.8065C30.5824 8.67845 29.331 8.68322 28.0907 8.82073C27.4494 8.89207 26.9635 9.39095 26.9089 10.0339L26.6892 12.6233C26.6145 13.5034 26.0634 14.2616 25.2509 14.6019C24.4382 14.9422 23.5113 14.8033 22.8316 14.2393L20.8331 12.5808C20.3369 12.1688 19.6406 12.165 19.14 12.5717C18.171 13.3587 17.2894 14.2475 16.5104 15.223C16.1081 15.7268 16.1176 16.4231 16.5333 16.9158L18.2075 18.9004C18.777 19.5757 18.9234 20.5015 18.5896 21.3168C18.2558 22.1319 17.5019 22.6892 16.6224 22.771L14.0358 23.0115C13.3938 23.0711 12.8989 23.5607 12.8322 24.2021C12.7036 25.4434 12.7083 26.6948 12.8462 27.9351C12.9177 28.5763 13.4165 29.0623 14.0594 29.1169L16.6487 29.3365C17.5288 29.4112 18.2871 29.9624 18.6274 30.7748C18.9679 31.5873 18.8288 32.5144 18.2647 33.1942L16.6062 35.1927C16.1943 35.6889 16.1906 36.3851 16.597 36.8857C17.384 37.8547 18.2729 38.7363 19.2483 39.5152C19.7522 39.9176 20.4483 39.9081 20.9411 39.4924L22.9259 37.8182C23.3514 37.4579 23.8907 37.26 24.4482 37.2596Z" fill="#C0CD30"/>
<path d="M30.0258 34.6433C25.2598 34.6433 21.3824 30.766 21.3824 26C21.3824 21.234 25.2598 17.3567 30.0258 17.3567C34.7916 17.3567 38.6691 21.234 38.6691 26C38.6691 30.766 34.7916 34.6433 30.0258 34.6433ZM30.0258 18.5762C25.9323 18.5762 22.6019 21.9065 22.6019 26C22.6019 30.0935 25.9323 33.4238 30.0258 33.4238C34.1193 33.4238 37.4496 30.0935 37.4496 26C37.4496 21.9065 34.1193 18.5762 30.0258 18.5762Z" fill="#C0CD30"/>
<path d="M28.6274 31.8297C28.5338 31.8298 28.4415 31.8083 28.3575 31.7669C28.2736 31.7256 28.2003 31.6655 28.1433 31.5913C28.0863 31.517 28.0472 31.4307 28.0289 31.3389C28.0106 31.2471 28.0137 31.1524 28.038 31.062L30.8353 20.6223C30.9225 20.297 31.2571 20.1046 31.5821 20.1911C31.6594 20.2118 31.732 20.2475 31.7955 20.2963C31.859 20.345 31.9123 20.4058 31.9524 20.4752C31.9924 20.5445 32.0184 20.6211 32.0289 20.7005C32.0393 20.7799 32.034 20.8606 32.0133 20.9379L29.2159 31.3776C29.1812 31.5072 29.1048 31.6218 28.9984 31.7035C28.892 31.7852 28.7616 31.8296 28.6274 31.8297ZM26.8023 28.6942C26.7222 28.6943 26.6429 28.6786 26.5689 28.6479C26.4949 28.6173 26.4277 28.5723 26.3711 28.5155L24.2867 26.4311C24.23 26.3745 24.1851 26.3073 24.1545 26.2333C24.1239 26.1593 24.1081 26.0801 24.1081 26C24.1081 25.9199 24.1239 25.8407 24.1545 25.7667C24.1851 25.6927 24.23 25.6255 24.2867 25.5689L26.3711 23.4845C26.4277 23.4278 26.4949 23.3829 26.5689 23.3522C26.6429 23.3216 26.7222 23.3058 26.8023 23.3058C26.8823 23.3058 26.9616 23.3216 27.0356 23.3522C27.1096 23.3829 27.1768 23.4278 27.2334 23.4845C27.29 23.5411 27.3349 23.6083 27.3656 23.6822C27.3962 23.7562 27.412 23.8355 27.412 23.9156C27.412 23.9956 27.3962 24.0749 27.3656 24.1489C27.3349 24.2228 27.29 24.29 27.2334 24.3466L25.5803 26L27.2335 27.6534C27.3188 27.7386 27.3769 27.8473 27.4005 27.9656C27.424 28.0838 27.4119 28.2065 27.3658 28.3179C27.3196 28.4293 27.2414 28.5245 27.1411 28.5915C27.0408 28.6585 26.9229 28.6942 26.8023 28.6942ZM33.2492 28.6942C33.1286 28.6942 33.0106 28.6585 32.9103 28.5915C32.81 28.5245 32.7319 28.4293 32.6857 28.3179C32.6395 28.2065 32.6275 28.0838 32.651 27.9656C32.6746 27.8473 32.7327 27.7386 32.818 27.6534L34.4712 26L32.818 24.3466C32.7613 24.29 32.7164 24.2228 32.6858 24.1489C32.6552 24.0749 32.6394 23.9956 32.6394 23.9156C32.6394 23.8355 32.6552 23.7562 32.6858 23.6822C32.7164 23.6083 32.7613 23.5411 32.818 23.4845C32.8746 23.4278 32.9418 23.3829 33.0158 23.3522C33.0897 23.3216 33.169 23.3058 33.2491 23.3058C33.3292 23.3058 33.4085 23.3216 33.4825 23.3522C33.5564 23.3829 33.6237 23.4278 33.6803 23.4845L35.7646 25.5689C35.8212 25.6255 35.8661 25.6927 35.8968 25.7667C35.9274 25.8407 35.9432 25.9199 35.9432 26C35.9432 26.0801 35.9274 26.1593 35.8968 26.2333C35.8661 26.3073 35.8212 26.3745 35.7646 26.4311L33.6803 28.5155C33.6237 28.5723 33.5565 28.6173 33.4826 28.6479C33.4086 28.6786 33.3292 28.6943 33.2492 28.6942Z" fill="#C0CD30"/>
<path d="M25.5828 51H6.23178C3.4457 51 1.17914 48.7333 1.17914 45.9474V6.05264C1.17914 3.26667 3.4458 1 6.23178 1H25.5828C28.3689 1 30.6354 3.26667 30.6354 6.05264V8.10366H29.4159V6.05264C29.4159 3.93902 27.6964 2.21951 25.5828 2.21951H6.23178C4.11816 2.21951 2.39865 3.93902 2.39865 6.05264V45.9474C2.39865 48.061 4.11816 49.7805 6.23178 49.7805H25.5828C27.6964 49.7805 29.4159 48.061 29.4159 45.9474V43.8963H30.6354V45.9475C30.6355 48.7333 28.3689 51 25.5828 51Z" stroke="#C0CD30" stroke-width="0.9375"/>
<path d="M18.3686 47.2313H14.1573C13.9956 47.2313 13.8405 47.1671 13.7261 47.0527C13.6118 46.9384 13.5475 46.7833 13.5475 46.6215C13.5475 46.4598 13.6118 46.3047 13.7261 46.1904C13.8405 46.076 13.9956 46.0118 14.1573 46.0118H18.3685C18.4485 46.0118 18.5278 46.0275 18.6018 46.0582C18.6758 46.0888 18.743 46.1337 18.7996 46.1903C18.8563 46.247 18.9012 46.3142 18.9318 46.3882C18.9625 46.4621 18.9783 46.5414 18.9783 46.6215C18.9783 46.7016 18.9625 46.7809 18.9319 46.8548C18.9012 46.9288 18.8563 46.996 18.7997 47.0527C18.7431 47.1093 18.6759 47.1542 18.6019 47.1849C18.5279 47.2155 18.4486 47.2313 18.3686 47.2313ZM30.0258 44.5061C29.385 44.5061 28.7377 44.4727 28.1017 44.4066C26.8741 44.279 25.937 43.3317 25.8227 42.1028L25.5823 39.5163C25.542 39.084 25.2796 38.7283 24.8802 38.5647C24.4806 38.4011 24.0441 38.4704 23.7124 38.7504L21.7276 40.4246C20.7843 41.2204 19.452 41.2384 18.4877 40.4684C17.4439 39.6348 16.4927 38.6914 15.6505 37.6546C14.8724 36.6962 14.8796 35.3637 15.668 34.4139L17.3264 32.4155C17.6036 32.0815 17.6695 31.6443 17.5027 31.2461C17.3359 30.8481 16.9781 30.5884 16.5456 30.5517L13.9565 30.3321C12.7259 30.2276 11.771 29.2975 11.6343 28.0701C11.4867 26.7431 11.4816 25.4042 11.6193 24.0761C11.7468 22.8486 12.6941 21.9115 13.9229 21.7972L16.5095 21.5567C16.9417 21.5166 17.2974 21.2541 17.461 20.8547C17.6247 20.4553 17.5553 20.0186 17.2754 19.6869L15.6012 17.7022C14.8055 16.7589 14.7875 15.4265 15.5574 14.4622C16.391 13.4184 17.3344 12.4672 18.3713 11.625C19.3295 10.847 20.6622 10.8542 21.612 11.6424L23.6103 13.3009C23.9445 13.5783 24.3815 13.644 24.7796 13.4772C25.1777 13.3104 25.4374 12.9526 25.4741 12.5201L25.6938 9.93079C25.7981 8.7003 26.7283 7.74543 27.9557 7.60874C29.2827 7.46163 30.6216 7.45655 31.9497 7.5936C33.1773 7.72124 34.1144 8.6685 34.2286 9.89736L34.4691 12.4839C34.5093 12.9162 34.7717 13.2719 35.1712 13.4355C35.5708 13.5991 36.0073 13.5297 36.339 13.2498L38.3238 11.5756C39.2672 10.7799 40.5995 10.7619 41.5637 11.5318C42.6075 12.3654 43.5587 13.3088 44.4009 14.3457C45.1789 15.304 45.1717 16.6365 44.3834 17.5863L42.725 19.5847C42.4477 19.9187 42.3819 20.3559 42.5487 20.7541C42.7154 21.1521 43.0732 21.4117 43.5057 21.4484L46.095 21.6681C47.3255 21.7726 48.2804 22.7027 48.4171 23.9301C48.4935 24.6174 48.5318 25.3084 48.5318 26C48.5318 26.6408 48.4982 27.288 48.4323 27.9241C48.3048 29.1516 47.3574 30.0887 46.1286 30.203L43.5419 30.4435C43.1097 30.4836 42.754 30.7461 42.5904 31.1455C42.4268 31.5451 42.4962 31.9816 42.7761 32.3133L44.4503 34.2981C45.2459 35.2413 45.2639 36.5736 44.4941 37.538C43.6605 38.5818 42.7171 39.533 41.6802 40.3752C40.722 41.1534 39.3893 41.1461 38.4396 40.3578L36.4411 38.6993C36.1072 38.4221 35.6701 38.3564 35.2718 38.523C34.8738 38.6898 34.6141 39.0476 34.5774 39.4801L34.3577 42.0694C34.2533 43.2999 33.3232 44.2548 32.0957 44.3915C31.4084 44.4677 30.7173 44.506 30.0258 44.5061ZM24.4482 37.2596C24.7495 37.2596 25.0528 37.3175 25.3424 37.4361C26.1576 37.7699 26.7148 38.5237 26.7966 39.4031L27.0371 41.9897C27.0967 42.6318 27.5864 43.1267 28.2277 43.1935C29.469 43.3214 30.7204 43.3167 31.9606 43.1793C32.602 43.1079 33.0879 42.609 33.1425 41.9661L33.3622 39.3767C33.4369 38.4966 33.988 37.7384 34.8005 37.3981C35.6132 37.0576 36.5401 37.1965 37.2198 37.7607L39.2183 39.4192C39.7144 39.8311 40.4107 39.8349 40.9114 39.4282C41.8804 38.6413 42.762 37.7525 43.5409 36.777C43.9432 36.2732 43.9337 35.5769 43.5181 35.0842L41.8439 33.0995C41.2744 32.4244 41.1279 31.4985 41.4618 30.6833C41.7956 29.8681 42.5495 29.3108 43.4289 29.229L46.0155 28.9885C46.6575 28.9289 47.1525 28.4392 47.2192 27.7979C47.3477 26.5566 47.343 25.3052 47.2051 24.0649C47.1336 23.4237 46.6347 22.9377 45.9917 22.8831L43.4025 22.6634C42.5224 22.5887 41.7642 22.0377 41.4239 21.2252C41.0834 20.4127 41.2223 19.4857 41.7865 18.8058L43.445 16.8073C43.8569 16.3111 43.8605 15.6149 43.4541 15.1143C42.6672 14.1453 41.7783 13.2637 40.8028 12.4848C40.299 12.0824 39.6029 12.0919 39.11 12.5076L37.1253 14.1818C36.4501 14.7513 35.5244 14.8979 34.709 14.5639C33.8938 14.2301 33.3366 13.4763 33.2547 12.5968L33.0143 10.0103C32.9546 9.36819 32.465 8.87327 31.8237 8.8065C30.5824 8.67845 29.331 8.68322 28.0907 8.82073C27.4494 8.89207 26.9635 9.39095 26.9089 10.0339L26.6892 12.6233C26.6145 13.5034 26.0634 14.2616 25.2509 14.6019C24.4382 14.9422 23.5113 14.8033 22.8316 14.2393L20.8331 12.5808C20.3369 12.1688 19.6406 12.165 19.14 12.5717C18.171 13.3587 17.2894 14.2475 16.5104 15.223C16.1081 15.7268 16.1176 16.4231 16.5333 16.9158L18.2075 18.9004C18.777 19.5757 18.9234 20.5015 18.5896 21.3168C18.2558 22.1319 17.5019 22.6892 16.6224 22.771L14.0358 23.0115C13.3938 23.0711 12.8989 23.5607 12.8322 24.2021C12.7036 25.4434 12.7083 26.6948 12.8462 27.9351C12.9177 28.5763 13.4165 29.0623 14.0594 29.1169L16.6487 29.3365C17.5288 29.4112 18.2871 29.9624 18.6274 30.7748C18.9679 31.5873 18.8288 32.5144 18.2647 33.1942L16.6062 35.1927C16.1943 35.6889 16.1906 36.3851 16.597 36.8857C17.384 37.8547 18.2729 38.7363 19.2483 39.5152C19.7522 39.9176 20.4483 39.9081 20.9411 39.4924L22.9259 37.8182C23.3514 37.4579 23.8907 37.26 24.4482 37.2596Z" stroke="#C0CD30" stroke-width="0.9375"/>
<path d="M30.0258 34.6433C25.2598 34.6433 21.3824 30.766 21.3824 26C21.3824 21.234 25.2598 17.3567 30.0258 17.3567C34.7916 17.3567 38.6691 21.234 38.6691 26C38.6691 30.766 34.7916 34.6433 30.0258 34.6433ZM30.0258 18.5762C25.9323 18.5762 22.6019 21.9065 22.6019 26C22.6019 30.0935 25.9323 33.4238 30.0258 33.4238C34.1193 33.4238 37.4496 30.0935 37.4496 26C37.4496 21.9065 34.1193 18.5762 30.0258 18.5762Z" stroke="#C0CD30" stroke-width="0.9375"/>
<path d="M28.6274 31.8297C28.5338 31.8298 28.4415 31.8083 28.3575 31.7669C28.2736 31.7256 28.2003 31.6655 28.1433 31.5913C28.0863 31.517 28.0472 31.4307 28.0289 31.3389C28.0106 31.2471 28.0137 31.1524 28.038 31.062L30.8353 20.6223C30.9225 20.297 31.2571 20.1046 31.5821 20.1911C31.6594 20.2118 31.732 20.2475 31.7955 20.2963C31.859 20.345 31.9123 20.4058 31.9524 20.4752C31.9924 20.5445 32.0184 20.6211 32.0289 20.7005C32.0393 20.7799 32.034 20.8606 32.0133 20.9379L29.2159 31.3776C29.1812 31.5072 29.1048 31.6218 28.9984 31.7035C28.892 31.7852 28.7616 31.8296 28.6274 31.8297ZM26.8023 28.6942C26.7222 28.6943 26.6429 28.6786 26.5689 28.6479C26.4949 28.6173 26.4277 28.5723 26.3711 28.5155L24.2867 26.4311C24.23 26.3745 24.1851 26.3073 24.1545 26.2333C24.1239 26.1593 24.1081 26.0801 24.1081 26C24.1081 25.9199 24.1239 25.8407 24.1545 25.7667C24.1851 25.6927 24.23 25.6255 24.2867 25.5689L26.3711 23.4845C26.4277 23.4278 26.4949 23.3829 26.5689 23.3522C26.6429 23.3216 26.7222 23.3058 26.8023 23.3058C26.8823 23.3058 26.9616 23.3216 27.0356 23.3522C27.1096 23.3829 27.1768 23.4278 27.2334 23.4845C27.29 23.5411 27.3349 23.6083 27.3656 23.6822C27.3962 23.7562 27.412 23.8355 27.412 23.9156C27.412 23.9956 27.3962 24.0749 27.3656 24.1489C27.3349 24.2228 27.29 24.29 27.2334 24.3466L25.5803 26L27.2335 27.6534C27.3188 27.7386 27.3769 27.8473 27.4005 27.9656C27.424 28.0838 27.4119 28.2065 27.3658 28.3179C27.3196 28.4293 27.2414 28.5245 27.1411 28.5915C27.0408 28.6585 26.9229 28.6942 26.8023 28.6942ZM33.2492 28.6942C33.1286 28.6942 33.0106 28.6585 32.9103 28.5915C32.81 28.5245 32.7319 28.4293 32.6857 28.3179C32.6395 28.2065 32.6275 28.0838 32.651 27.9656C32.6746 27.8473 32.7327 27.7386 32.818 27.6534L34.4712 26L32.818 24.3466C32.7613 24.29 32.7164 24.2228 32.6858 24.1489C32.6552 24.0749 32.6394 23.9956 32.6394 23.9156C32.6394 23.8355 32.6552 23.7562 32.6858 23.6822C32.7164 23.6083 32.7613 23.5411 32.818 23.4845C32.8746 23.4278 32.9418 23.3829 33.0158 23.3522C33.0897 23.3216 33.169 23.3058 33.2491 23.3058C33.3292 23.3058 33.4085 23.3216 33.4825 23.3522C33.5564 23.3829 33.6237 23.4278 33.6803 23.4845L35.7646 25.5689C35.8212 25.6255 35.8661 25.6927 35.8968 25.7667C35.9274 25.8407 35.9432 25.9199 35.9432 26C35.9432 26.0801 35.9274 26.1593 35.8968 26.2333C35.8661 26.3073 35.8212 26.3745 35.7646 26.4311L33.6803 28.5155C33.6237 28.5723 33.5565 28.6173 33.4826 28.6479C33.4086 28.6786 33.3292 28.6943 33.2492 28.6942Z" stroke="#C0CD30" stroke-width="0.9375"/>
</mask>
<g mask="url(#mask0_1048_48476)">
<rect x="-6.32086" y="-5.24976" width="62.5" height="62.5" fill="#FFC107"/>
</g>
</svg>
