<svg width="127" height="70" viewBox="0 0 127 70" fill="none" xmlns="http://www.w3.org/2000/svg">
<path d="M8.03041 65.6109L11.1322 56.9102H9.50243L7.87269 61.9702L5.57266 57.2782L3.19376 62.0491L1.66917 56.9102H0L2.95719 65.6109L5.52008 60.4851L8.03041 65.6109Z" fill="#090909"/>
<path fill-rule="evenodd" clip-rule="evenodd" d="M17.0728 62.8245C17.0728 62.9691 17.0597 63.1137 17.0465 63.2583H12.7488C12.8408 63.5737 13.0116 63.8234 13.2745 64.0074C13.5242 64.1914 13.8134 64.2834 14.1419 64.2834C14.5888 64.2834 14.9568 64.1126 15.2459 63.7708L16.1528 64.9668C15.5877 65.5057 14.9174 65.7686 14.1419 65.7686C13.3139 65.7686 12.6173 65.4794 12.0522 64.9143C11.4739 64.3491 11.1979 63.6525 11.1979 62.8245C11.1979 62.0097 11.487 61.3131 12.0522 60.7479C12.6305 60.1828 13.3139 59.9068 14.1419 59.9068C14.9568 59.9068 15.6534 60.1828 16.2185 60.7479C16.7837 61.3131 17.0728 62.0097 17.0728 62.8245ZM15.4168 62.1542C15.1408 61.6417 14.7202 61.3788 14.1419 61.3788C13.5505 61.3788 13.1299 61.6417 12.8539 62.1542H15.4168Z" fill="#090909"/>
<path fill-rule="evenodd" clip-rule="evenodd" d="M22.8689 64.9143C23.4341 64.336 23.7232 63.6525 23.7232 62.8245C23.7232 62.0097 23.4341 61.3131 22.8689 60.7479C22.3038 60.1828 21.6072 59.9068 20.7923 59.9068C20.2535 59.9068 19.7672 60.0251 19.3203 60.2748V56.9102H17.8483V62.8245C17.8483 63.6525 18.1243 64.3491 18.6894 64.9143C19.2677 65.4794 19.9643 65.7686 20.7923 65.7686C21.6072 65.7686 22.3038 65.4794 22.8689 64.9143ZM21.8043 61.8125C22.0935 62.1017 22.2381 62.4302 22.2381 62.8245C22.2381 63.232 22.0935 63.5737 21.8175 63.8628C21.5283 64.1388 21.1866 64.2834 20.7923 64.2834C20.3849 64.2834 20.0432 64.1388 19.754 63.8628C19.4649 63.5737 19.3203 63.232 19.3203 62.8245C19.3203 62.4302 19.4649 62.0885 19.754 61.7994C20.0432 61.5234 20.3849 61.3788 20.7923 61.3788C21.1866 61.3788 21.5283 61.5234 21.8043 61.8125Z" fill="#090909"/>
<path fill-rule="evenodd" clip-rule="evenodd" d="M34.6451 62.6537C34.6582 63.4817 34.3822 64.1783 33.8039 64.7434C33.2388 65.3086 32.5422 65.5977 31.7142 65.5977L29.2959 65.6109V56.9102H30.9913C31.6091 56.9102 32.1348 57.1204 32.5685 57.5542C33.0022 57.9879 33.2125 58.5136 33.2256 59.1313C33.2256 59.4599 33.1599 59.7622 33.0416 60.0382C33.5279 60.3011 33.9222 60.6559 34.2114 61.1291C34.5005 61.5891 34.6451 62.1017 34.6451 62.6537ZM33.1731 62.6668C33.1599 62.2594 33.0154 61.9177 32.7394 61.6285C32.4633 61.3525 32.1216 61.2079 31.7011 61.2079H30.7679V64.1257H31.7142C32.1216 64.1257 32.4634 63.9811 32.7525 63.692C33.0416 63.416 33.1731 63.0743 33.1731 62.6668ZM31.7405 59.1445C31.7273 58.9342 31.6616 58.7633 31.517 58.6188C31.3725 58.4742 31.1885 58.3953 30.9782 58.3953H30.7679V59.8673H30.9913C31.2148 59.8542 31.3856 59.7885 31.5302 59.6571C31.6748 59.5256 31.7405 59.3548 31.7405 59.1445Z" fill="#090909"/>
<path d="M37.3263 61.7994C37.6023 61.5234 37.944 61.3788 38.3514 61.3788V59.9068C37.5366 59.9068 36.84 60.1828 36.2617 60.7479C35.6965 61.3131 35.4074 62.0097 35.4074 62.8245V65.5977H36.8926V62.8245C36.8926 62.4302 37.0371 62.0885 37.3263 61.7994Z" fill="#090909"/>
<path fill-rule="evenodd" clip-rule="evenodd" d="M44.8047 61.8388L46.1584 65.5977H44.5812L44.279 64.7434C43.6875 65.44 42.9384 65.7817 42.0315 65.7817C41.2166 65.7817 40.52 65.4926 39.9549 64.9274C39.3897 64.3491 39.1006 63.6525 39.1006 62.8508C39.1006 62.22 39.2715 61.6548 39.6263 61.1554C39.9812 60.6559 40.4412 60.3011 41.0326 60.0908C41.3743 59.9593 41.7161 59.9068 42.0446 59.9068C42.6624 59.9068 43.2275 60.0776 43.7269 60.4325C44.2264 60.7874 44.5944 61.2605 44.8047 61.8388ZM43.4904 62.8377C43.4904 62.3251 43.2801 61.9177 42.8727 61.6417C42.6229 61.4708 42.3469 61.3788 42.0315 61.3788C41.5189 61.3788 41.1246 61.5891 40.8486 61.9965C40.6646 62.2594 40.5858 62.5354 40.5858 62.8377C40.5858 63.3503 40.796 63.7445 41.2035 64.0337C41.4663 64.2045 41.7423 64.2966 42.0315 64.2966C42.4389 64.2966 42.7807 64.152 43.0698 63.876C43.3458 63.5868 43.4904 63.2451 43.4904 62.8377Z" fill="#090909"/>
<path d="M48.3007 59.2628C48.4585 59.0919 48.5504 58.8816 48.5504 58.6319C48.5504 58.3953 48.4585 58.185 48.2876 58.0142C48.1167 57.8433 47.9064 57.7645 47.6699 57.7645C47.4202 57.7645 47.2099 57.8433 47.039 58.0142C46.8681 58.185 46.7761 58.3822 46.7761 58.6319C46.7761 58.8816 46.8681 59.0919 47.039 59.2628C47.2099 59.4468 47.4202 59.5256 47.6699 59.5256C47.9196 59.5256 48.1299 59.4468 48.3007 59.2628Z" fill="#090909"/>
<path d="M54.202 60.7479C54.7803 61.3131 55.0563 62.0097 55.0563 62.8245V65.5977H53.5842V62.8245C53.5842 62.4302 53.4397 62.1017 53.1505 61.8125C52.8614 61.5234 52.5197 61.3788 52.1254 61.3788C51.7179 61.3788 51.3762 61.5234 51.0871 61.7994C50.7979 62.0885 50.6533 62.4302 50.6533 62.8245V65.5977H49.1682V62.8245C49.1682 62.0097 49.4573 61.3131 50.0356 60.7479C50.6008 60.1828 51.2974 59.9068 52.1122 59.9068C52.9402 59.9068 53.6368 60.1828 54.202 60.7479Z" fill="#090909"/>
<path d="M59.9323 64.8748C60.1689 64.5857 60.2872 64.2703 60.2872 63.9154V63.8891C60.2872 62.9297 59.8141 62.3645 58.894 62.1937L58.6931 62.1522C58.3727 62.0861 58.1932 62.0491 58.1712 62.0491C57.79 61.9439 57.606 61.8125 57.606 61.6679V61.6417C57.606 61.3394 57.8295 61.1816 58.3026 61.1816C58.6049 61.1816 58.8809 61.3131 59.1438 61.5759L60.1295 60.6954C59.9323 60.4456 59.6169 60.2353 59.1569 60.0908C58.7626 59.9593 58.3815 59.8936 58.0135 59.9068C57.6717 59.9068 57.3432 59.9856 57.0409 60.1433C56.3574 60.4851 56.0157 60.9976 56.0157 61.6942C56.0157 62.4039 56.3574 62.9165 57.0146 63.1925C57.2512 63.2977 57.5272 63.3765 57.8557 63.4422C58.0808 63.4873 58.2384 63.513 58.3286 63.5277L58.3683 63.5343C58.5786 63.6131 58.6838 63.7314 58.71 63.9023V63.9417C58.71 64.0994 58.618 64.2308 58.4209 64.3228C58.2763 64.3886 58.1186 64.4148 57.9346 64.4148H57.8952C57.4483 64.4148 57.0277 64.2308 56.6334 63.8497L55.8054 64.9274C56.0683 65.1377 56.3969 65.3217 56.8043 65.4663C57.2117 65.6109 57.5797 65.6897 57.9346 65.7029C58.7889 65.7291 59.4592 65.4531 59.9323 64.8748Z" fill="#090909"/>
<path fill-rule="evenodd" clip-rule="evenodd" d="M78.5298 63.2583C78.5561 63.1137 78.5561 62.9691 78.5561 62.8245C78.5561 62.0097 78.2801 61.3131 77.7149 60.7479C77.1366 60.1828 76.4532 59.9068 75.6252 59.9068C74.8103 59.9068 74.1137 60.1828 73.5354 60.7479C72.9703 61.3131 72.6811 62.0097 72.6811 62.8245C72.6811 63.6525 72.9703 64.3491 73.5354 64.9143C74.1006 65.4794 74.7971 65.7686 75.6252 65.7686C76.4006 65.7686 77.0709 65.5057 77.636 64.9668L76.7423 63.7708C76.44 64.1126 76.072 64.2834 75.6252 64.2834C75.3097 64.2834 75.0206 64.1914 74.7577 64.0074C74.508 63.8234 74.324 63.5737 74.232 63.2583H78.5298ZM75.6252 61.3788C76.2034 61.3788 76.6372 61.6417 76.9 62.1542H74.3371C74.6131 61.6417 75.0469 61.3788 75.6252 61.3788Z" fill="#090909"/>
<path d="M84.3127 64.9406C83.7344 65.4926 83.0641 65.7686 82.2755 65.7686C81.4475 65.7686 80.7509 65.4794 80.1858 64.9143C79.6075 64.3491 79.3315 63.6525 79.3315 62.8245C79.3315 62.0097 79.6206 61.3131 80.1858 60.7479C80.7641 60.1828 81.4607 59.9068 82.2755 59.9068C83.0247 59.9068 83.6687 60.1565 84.2338 60.6559L83.3401 61.8388C83.051 61.5365 82.6961 61.3788 82.2755 61.3788C81.8681 61.3788 81.5264 61.5234 81.2372 61.7994C80.9612 62.0885 80.8167 62.4302 80.8167 62.8245C80.8167 63.232 80.9612 63.5737 81.2372 63.8628C81.5264 64.1388 81.8681 64.2834 82.2755 64.2834C82.7093 64.2834 83.0773 64.1126 83.3664 63.784L84.3127 64.9406Z" fill="#090909"/>
<path d="M89.0179 61.8125C89.3071 62.1017 89.4516 62.4302 89.4516 62.8245V65.5977H90.9368V62.8245C90.9368 62.0097 90.6477 61.3131 90.0694 60.7479C89.5042 60.1828 88.8076 59.9068 87.9928 59.9068C87.467 59.9068 86.9808 60.0251 86.5207 60.2748V56.9102H85.0487V65.5977H86.5207V62.8245C86.5207 62.4302 86.6653 62.0885 86.9545 61.7994C87.2436 61.5234 87.5853 61.3788 87.9928 61.3788C88.3871 61.3788 88.7288 61.5234 89.0179 61.8125Z" fill="#090909"/>
<path d="M96.7198 60.7479C97.2981 61.3131 97.5741 62.0097 97.5741 62.8245V65.5977H96.0889V62.8245C96.0889 62.4302 95.9575 62.1017 95.6683 61.8125C95.3792 61.5234 95.0375 61.3788 94.6432 61.3788C94.2357 61.3788 93.894 61.5234 93.6049 61.7994C93.3157 62.0885 93.1711 62.4302 93.1711 62.8245V65.5977H91.686V62.8245C91.686 62.0097 91.9751 61.3131 92.5403 60.7479C93.1186 60.1828 93.8151 59.9068 94.63 59.9068C95.458 59.9068 96.1546 60.1828 96.7198 60.7479Z" fill="#090909"/>
<path fill-rule="evenodd" clip-rule="evenodd" d="M103.357 64.9143C103.935 64.336 104.211 63.6525 104.211 62.8245C104.211 62.0097 103.935 61.3131 103.357 60.7479C102.792 60.1828 102.095 59.9068 101.28 59.9068C100.466 59.9068 99.769 60.1828 99.1907 60.7479C98.6255 61.3131 98.3364 62.0097 98.3364 62.8245C98.3364 63.6525 98.6255 64.3491 99.1907 64.9143C99.7558 65.4794 100.452 65.7686 101.28 65.7686C102.095 65.7686 102.792 65.4794 103.357 64.9143ZM102.306 61.8125C102.582 62.1017 102.726 62.4302 102.726 62.8245C102.726 63.232 102.595 63.5737 102.306 63.8628C102.03 64.1388 101.688 64.2834 101.28 64.2834C100.873 64.2834 100.531 64.1388 100.242 63.8628C99.9661 63.5737 99.8215 63.232 99.8215 62.8245C99.8215 62.4302 99.9661 62.0885 100.242 61.7994C100.531 61.5234 100.873 61.3788 101.28 61.3788C101.675 61.3788 102.016 61.5234 102.306 61.8125Z" fill="#090909"/>
<path fill-rule="evenodd" clip-rule="evenodd" d="M112.255 64.9143C112.82 64.336 113.096 63.6525 113.096 62.8245C113.096 62.0097 112.82 61.3131 112.255 60.7479C111.677 60.1828 110.993 59.9068 110.165 59.9068C109.35 59.9068 108.654 60.1828 108.075 60.7479C107.51 61.3131 107.221 62.0097 107.221 62.8245C107.221 63.6525 107.51 64.3491 108.075 64.9143C108.641 65.4794 109.337 65.7686 110.165 65.7686C110.993 65.7686 111.677 65.4794 112.255 64.9143ZM111.19 61.8125C111.479 62.1017 111.611 62.4302 111.611 62.8245C111.611 63.232 111.479 63.5737 111.19 63.8628C110.914 64.1388 110.573 64.2834 110.165 64.2834C109.771 64.2834 109.416 64.1388 109.14 63.8628C108.851 63.5737 108.706 63.232 108.706 62.8245C108.706 62.4302 108.851 62.0885 109.14 61.7994C109.416 61.5234 109.771 61.3788 110.165 61.3788C110.559 61.3788 110.901 61.5234 111.19 61.8125Z" fill="#090909"/>
<path fill-rule="evenodd" clip-rule="evenodd" d="M119.76 67.0697C119.76 68.1212 119.326 68.9361 118.458 69.5012C117.959 69.8298 117.42 70.0006 116.829 70.0006C115.79 70.0006 114.975 69.5669 114.384 68.6863C114.042 68.1869 113.885 67.648 113.885 67.0697C113.885 66.6886 113.95 66.3206 114.095 65.9657L115.475 66.5177C115.396 66.6886 115.37 66.8726 115.37 67.0697C115.37 67.464 115.501 67.8058 115.79 68.0949C116.079 68.3709 116.421 68.5155 116.829 68.5155C117.223 68.5155 117.565 68.3709 117.841 68.0818C118.13 67.7926 118.274 67.4509 118.274 67.0566C118.274 66.4126 117.972 65.9526 117.368 65.7029C117.184 65.7423 116.999 65.7686 116.815 65.7686C115.987 65.7686 115.291 65.4794 114.726 64.9143C114.161 64.3491 113.885 63.6525 113.885 62.8245C113.885 61.9965 114.161 61.3131 114.739 60.7348C115.304 60.1696 116.001 59.8936 116.815 59.8936L117.67 57.8565L118.84 58.3559L118.064 60.1696C118.577 60.4194 118.997 60.7874 119.3 61.2605C119.602 61.7337 119.76 62.2594 119.76 62.8245C119.76 63.6525 119.457 64.3623 118.84 64.9274C119.457 65.5057 119.76 66.2154 119.76 67.0697ZM118.274 62.8245C118.274 62.4302 118.13 62.0885 117.841 61.7994C117.565 61.5102 117.223 61.3788 116.829 61.3788C116.421 61.3788 116.079 61.5102 115.79 61.7994C115.501 62.0754 115.37 62.4171 115.37 62.8245C115.37 63.232 115.501 63.5737 115.79 63.8497C116.079 64.1388 116.421 64.2834 116.829 64.2834C117.223 64.2834 117.565 64.1388 117.854 63.8497C118.13 63.5737 118.274 63.232 118.274 62.8245Z" fill="#090909"/>
<path d="M46.9339 65.5977H48.419V59.9068H46.9339V65.5977Z" fill="#090909"/>
<path d="M71.932 58.1982H69.6976V65.5977H68.2125V58.1982H65.9781V56.9102H71.932V58.1982Z" fill="#090909"/>
<path d="M106.472 65.5977H104.987V56.9102H106.472V65.5977Z" fill="#090909"/>
<path d="M8.03041 65.6109L11.1322 56.9102H9.50243L7.87269 61.9702L5.57266 57.2782L3.19376 62.0491L1.66917 56.9102H0L2.95719 65.6109L5.52008 60.4851L8.03041 65.6109Z" fill="#090909"/>
<path fill-rule="evenodd" clip-rule="evenodd" d="M17.0728 62.8245C17.0728 62.9691 17.0597 63.1137 17.0465 63.2583H12.7488C12.8408 63.5737 13.0116 63.8234 13.2745 64.0074C13.5242 64.1914 13.8134 64.2834 14.1419 64.2834C14.5888 64.2834 14.9568 64.1126 15.2459 63.7708L16.1528 64.9668C15.5877 65.5057 14.9174 65.7686 14.1419 65.7686C13.3139 65.7686 12.6173 65.4794 12.0522 64.9143C11.4739 64.3491 11.1979 63.6525 11.1979 62.8245C11.1979 62.0097 11.487 61.3131 12.0522 60.7479C12.6305 60.1828 13.3139 59.9068 14.1419 59.9068C14.9568 59.9068 15.6534 60.1828 16.2185 60.7479C16.7837 61.3131 17.0728 62.0097 17.0728 62.8245ZM15.4168 62.1542C15.1408 61.6417 14.7202 61.3788 14.1419 61.3788C13.5505 61.3788 13.1299 61.6417 12.8539 62.1542H15.4168Z" fill="#090909"/>
<path fill-rule="evenodd" clip-rule="evenodd" d="M22.8689 64.9143C23.4341 64.336 23.7232 63.6525 23.7232 62.8245C23.7232 62.0097 23.4341 61.3131 22.8689 60.7479C22.3038 60.1828 21.6072 59.9068 20.7923 59.9068C20.2535 59.9068 19.7672 60.0251 19.3203 60.2748V56.9102H17.8483V62.8245C17.8483 63.6525 18.1243 64.3491 18.6894 64.9143C19.2677 65.4794 19.9643 65.7686 20.7923 65.7686C21.6072 65.7686 22.3038 65.4794 22.8689 64.9143ZM21.8043 61.8125C22.0935 62.1017 22.2381 62.4302 22.2381 62.8245C22.2381 63.232 22.0935 63.5737 21.8175 63.8628C21.5283 64.1388 21.1866 64.2834 20.7923 64.2834C20.3849 64.2834 20.0432 64.1388 19.754 63.8628C19.4649 63.5737 19.3203 63.232 19.3203 62.8245C19.3203 62.4302 19.4649 62.0885 19.754 61.7994C20.0432 61.5234 20.3849 61.3788 20.7923 61.3788C21.1866 61.3788 21.5283 61.5234 21.8043 61.8125Z" fill="#090909"/>
<path fill-rule="evenodd" clip-rule="evenodd" d="M34.6451 62.6537C34.6582 63.4817 34.3822 64.1783 33.8039 64.7434C33.2388 65.3086 32.5422 65.5977 31.7142 65.5977L29.2959 65.6109V56.9102H30.9913C31.6091 56.9102 32.1348 57.1204 32.5685 57.5542C33.0022 57.9879 33.2125 58.5136 33.2256 59.1313C33.2256 59.4599 33.1599 59.7622 33.0416 60.0382C33.5279 60.3011 33.9222 60.6559 34.2114 61.1291C34.5005 61.5891 34.6451 62.1017 34.6451 62.6537ZM33.1731 62.6668C33.1599 62.2594 33.0154 61.9177 32.7394 61.6285C32.4633 61.3525 32.1216 61.2079 31.7011 61.2079H30.7679V64.1257H31.7142C32.1216 64.1257 32.4634 63.9811 32.7525 63.692C33.0416 63.416 33.1731 63.0743 33.1731 62.6668ZM31.7405 59.1445C31.7273 58.9342 31.6616 58.7633 31.517 58.6188C31.3725 58.4742 31.1885 58.3953 30.9782 58.3953H30.7679V59.8673H30.9913C31.2148 59.8542 31.3856 59.7885 31.5302 59.6571C31.6748 59.5256 31.7405 59.3548 31.7405 59.1445Z" fill="#090909"/>
<path d="M37.3263 61.7994C37.6023 61.5234 37.944 61.3788 38.3514 61.3788V59.9068C37.5366 59.9068 36.84 60.1828 36.2617 60.7479C35.6965 61.3131 35.4074 62.0097 35.4074 62.8245V65.5977H36.8926V62.8245C36.8926 62.4302 37.0371 62.0885 37.3263 61.7994Z" fill="#090909"/>
<path fill-rule="evenodd" clip-rule="evenodd" d="M44.8047 61.8388L46.1584 65.5977H44.5812L44.279 64.7434C43.6875 65.44 42.9384 65.7817 42.0315 65.7817C41.2166 65.7817 40.52 65.4926 39.9549 64.9274C39.3897 64.3491 39.1006 63.6525 39.1006 62.8508C39.1006 62.22 39.2715 61.6548 39.6263 61.1554C39.9812 60.6559 40.4412 60.3011 41.0326 60.0908C41.3743 59.9593 41.7161 59.9068 42.0446 59.9068C42.6624 59.9068 43.2275 60.0776 43.7269 60.4325C44.2264 60.7874 44.5944 61.2605 44.8047 61.8388ZM43.4904 62.8377C43.4904 62.3251 43.2801 61.9177 42.8727 61.6417C42.6229 61.4708 42.3469 61.3788 42.0315 61.3788C41.5189 61.3788 41.1246 61.5891 40.8486 61.9965C40.6646 62.2594 40.5858 62.5354 40.5858 62.8377C40.5858 63.3503 40.796 63.7445 41.2035 64.0337C41.4663 64.2045 41.7423 64.2966 42.0315 64.2966C42.4389 64.2966 42.7807 64.152 43.0698 63.876C43.3458 63.5868 43.4904 63.2451 43.4904 62.8377Z" fill="#090909"/>
<path d="M48.3007 59.2628C48.4585 59.0919 48.5504 58.8816 48.5504 58.6319C48.5504 58.3953 48.4585 58.185 48.2876 58.0142C48.1167 57.8433 47.9064 57.7645 47.6699 57.7645C47.4202 57.7645 47.2099 57.8433 47.039 58.0142C46.8681 58.185 46.7761 58.3822 46.7761 58.6319C46.7761 58.8816 46.8681 59.0919 47.039 59.2628C47.2099 59.4468 47.4202 59.5256 47.6699 59.5256C47.9196 59.5256 48.1299 59.4468 48.3007 59.2628Z" fill="#090909"/>
<path d="M54.202 60.7479C54.7803 61.3131 55.0563 62.0097 55.0563 62.8245V65.5977H53.5842V62.8245C53.5842 62.4302 53.4397 62.1017 53.1505 61.8125C52.8614 61.5234 52.5197 61.3788 52.1254 61.3788C51.7179 61.3788 51.3762 61.5234 51.0871 61.7994C50.7979 62.0885 50.6533 62.4302 50.6533 62.8245V65.5977H49.1682V62.8245C49.1682 62.0097 49.4573 61.3131 50.0356 60.7479C50.6008 60.1828 51.2974 59.9068 52.1122 59.9068C52.9402 59.9068 53.6368 60.1828 54.202 60.7479Z" fill="#090909"/>
<path d="M59.9323 64.8748C60.1689 64.5857 60.2872 64.2703 60.2872 63.9154V63.8891C60.2872 62.9297 59.8141 62.3645 58.894 62.1937L58.6931 62.1522C58.3727 62.0861 58.1932 62.0491 58.1712 62.0491C57.79 61.9439 57.606 61.8125 57.606 61.6679V61.6417C57.606 61.3394 57.8295 61.1816 58.3026 61.1816C58.6049 61.1816 58.8809 61.3131 59.1438 61.5759L60.1295 60.6954C59.9323 60.4456 59.6169 60.2353 59.1569 60.0908C58.7626 59.9593 58.3815 59.8936 58.0135 59.9068C57.6717 59.9068 57.3432 59.9856 57.0409 60.1433C56.3574 60.4851 56.0157 60.9976 56.0157 61.6942C56.0157 62.4039 56.3574 62.9165 57.0146 63.1925C57.2512 63.2977 57.5272 63.3765 57.8557 63.4422C58.0808 63.4873 58.2384 63.513 58.3286 63.5277L58.3683 63.5343C58.5786 63.6131 58.6838 63.7314 58.71 63.9023V63.9417C58.71 64.0994 58.618 64.2308 58.4209 64.3228C58.2763 64.3886 58.1186 64.4148 57.9346 64.4148H57.8952C57.4483 64.4148 57.0277 64.2308 56.6334 63.8497L55.8054 64.9274C56.0683 65.1377 56.3969 65.3217 56.8043 65.4663C57.2117 65.6109 57.5797 65.6897 57.9346 65.7029C58.7889 65.7291 59.4592 65.4531 59.9323 64.8748Z" fill="#090909"/>
<path fill-rule="evenodd" clip-rule="evenodd" d="M78.5298 63.2583C78.5561 63.1137 78.5561 62.9691 78.5561 62.8245C78.5561 62.0097 78.2801 61.3131 77.7149 60.7479C77.1366 60.1828 76.4532 59.9068 75.6252 59.9068C74.8103 59.9068 74.1137 60.1828 73.5354 60.7479C72.9703 61.3131 72.6811 62.0097 72.6811 62.8245C72.6811 63.6525 72.9703 64.3491 73.5354 64.9143C74.1006 65.4794 74.7971 65.7686 75.6252 65.7686C76.4006 65.7686 77.0709 65.5057 77.636 64.9668L76.7423 63.7708C76.44 64.1126 76.072 64.2834 75.6252 64.2834C75.3097 64.2834 75.0206 64.1914 74.7577 64.0074C74.508 63.8234 74.324 63.5737 74.232 63.2583H78.5298ZM75.6252 61.3788C76.2034 61.3788 76.6372 61.6417 76.9 62.1542H74.3371C74.6131 61.6417 75.0469 61.3788 75.6252 61.3788Z" fill="#090909"/>
<path d="M84.3127 64.9406C83.7344 65.4926 83.0641 65.7686 82.2755 65.7686C81.4475 65.7686 80.7509 65.4794 80.1858 64.9143C79.6075 64.3491 79.3315 63.6525 79.3315 62.8245C79.3315 62.0097 79.6206 61.3131 80.1858 60.7479C80.7641 60.1828 81.4607 59.9068 82.2755 59.9068C83.0247 59.9068 83.6687 60.1565 84.2338 60.6559L83.3401 61.8388C83.051 61.5365 82.6961 61.3788 82.2755 61.3788C81.8681 61.3788 81.5264 61.5234 81.2372 61.7994C80.9612 62.0885 80.8167 62.4302 80.8167 62.8245C80.8167 63.232 80.9612 63.5737 81.2372 63.8628C81.5264 64.1388 81.8681 64.2834 82.2755 64.2834C82.7093 64.2834 83.0773 64.1126 83.3664 63.784L84.3127 64.9406Z" fill="#090909"/>
<path d="M89.0179 61.8125C89.3071 62.1017 89.4516 62.4302 89.4516 62.8245V65.5977H90.9368V62.8245C90.9368 62.0097 90.6477 61.3131 90.0694 60.7479C89.5042 60.1828 88.8076 59.9068 87.9928 59.9068C87.467 59.9068 86.9808 60.0251 86.5207 60.2748V56.9102H85.0487V65.5977H86.5207V62.8245C86.5207 62.4302 86.6653 62.0885 86.9545 61.7994C87.2436 61.5234 87.5853 61.3788 87.9928 61.3788C88.3871 61.3788 88.7288 61.5234 89.0179 61.8125Z" fill="#090909"/>
<path d="M96.7198 60.7479C97.2981 61.3131 97.5741 62.0097 97.5741 62.8245V65.5977H96.0889V62.8245C96.0889 62.4302 95.9575 62.1017 95.6683 61.8125C95.3792 61.5234 95.0375 61.3788 94.6432 61.3788C94.2357 61.3788 93.894 61.5234 93.6049 61.7994C93.3157 62.0885 93.1711 62.4302 93.1711 62.8245V65.5977H91.686V62.8245C91.686 62.0097 91.9751 61.3131 92.5403 60.7479C93.1186 60.1828 93.8151 59.9068 94.63 59.9068C95.458 59.9068 96.1546 60.1828 96.7198 60.7479Z" fill="#090909"/>
<path fill-rule="evenodd" clip-rule="evenodd" d="M103.357 64.9143C103.935 64.336 104.211 63.6525 104.211 62.8245C104.211 62.0097 103.935 61.3131 103.357 60.7479C102.792 60.1828 102.095 59.9068 101.28 59.9068C100.466 59.9068 99.769 60.1828 99.1907 60.7479C98.6255 61.3131 98.3364 62.0097 98.3364 62.8245C98.3364 63.6525 98.6255 64.3491 99.1907 64.9143C99.7558 65.4794 100.452 65.7686 101.28 65.7686C102.095 65.7686 102.792 65.4794 103.357 64.9143ZM102.306 61.8125C102.582 62.1017 102.726 62.4302 102.726 62.8245C102.726 63.232 102.595 63.5737 102.306 63.8628C102.03 64.1388 101.688 64.2834 101.28 64.2834C100.873 64.2834 100.531 64.1388 100.242 63.8628C99.9661 63.5737 99.8215 63.232 99.8215 62.8245C99.8215 62.4302 99.9661 62.0885 100.242 61.7994C100.531 61.5234 100.873 61.3788 101.28 61.3788C101.675 61.3788 102.016 61.5234 102.306 61.8125Z" fill="#090909"/>
<path fill-rule="evenodd" clip-rule="evenodd" d="M112.255 64.9143C112.82 64.336 113.096 63.6525 113.096 62.8245C113.096 62.0097 112.82 61.3131 112.255 60.7479C111.677 60.1828 110.993 59.9068 110.165 59.9068C109.35 59.9068 108.654 60.1828 108.075 60.7479C107.51 61.3131 107.221 62.0097 107.221 62.8245C107.221 63.6525 107.51 64.3491 108.075 64.9143C108.641 65.4794 109.337 65.7686 110.165 65.7686C110.993 65.7686 111.677 65.4794 112.255 64.9143ZM111.19 61.8125C111.479 62.1017 111.611 62.4302 111.611 62.8245C111.611 63.232 111.479 63.5737 111.19 63.8628C110.914 64.1388 110.573 64.2834 110.165 64.2834C109.771 64.2834 109.416 64.1388 109.14 63.8628C108.851 63.5737 108.706 63.232 108.706 62.8245C108.706 62.4302 108.851 62.0885 109.14 61.7994C109.416 61.5234 109.771 61.3788 110.165 61.3788C110.559 61.3788 110.901 61.5234 111.19 61.8125Z" fill="#090909"/>
<path fill-rule="evenodd" clip-rule="evenodd" d="M119.76 67.0697C119.76 68.1212 119.326 68.9361 118.458 69.5012C117.959 69.8298 117.42 70.0006 116.829 70.0006C115.79 70.0006 114.975 69.5669 114.384 68.6863C114.042 68.1869 113.885 67.648 113.885 67.0697C113.885 66.6886 113.95 66.3206 114.095 65.9657L115.475 66.5177C115.396 66.6886 115.37 66.8726 115.37 67.0697C115.37 67.464 115.501 67.8058 115.79 68.0949C116.079 68.3709 116.421 68.5155 116.829 68.5155C117.223 68.5155 117.565 68.3709 117.841 68.0818C118.13 67.7926 118.274 67.4509 118.274 67.0566C118.274 66.4126 117.972 65.9526 117.368 65.7029C117.184 65.7423 116.999 65.7686 116.815 65.7686C115.987 65.7686 115.291 65.4794 114.726 64.9143C114.161 64.3491 113.885 63.6525 113.885 62.8245C113.885 61.9965 114.161 61.3131 114.739 60.7348C115.304 60.1696 116.001 59.8936 116.815 59.8936L117.67 57.8565L118.84 58.3559L118.064 60.1696C118.577 60.4194 118.997 60.7874 119.3 61.2605C119.602 61.7337 119.76 62.2594 119.76 62.8245C119.76 63.6525 119.457 64.3623 118.84 64.9274C119.457 65.5057 119.76 66.2154 119.76 67.0697ZM118.274 62.8245C118.274 62.4302 118.13 62.0885 117.841 61.7994C117.565 61.5102 117.223 61.3788 116.829 61.3788C116.421 61.3788 116.079 61.5102 115.79 61.7994C115.501 62.0754 115.37 62.4171 115.37 62.8245C115.37 63.232 115.501 63.5737 115.79 63.8497C116.079 64.1388 116.421 64.2834 116.829 64.2834C117.223 64.2834 117.565 64.1388 117.854 63.8497C118.13 63.5737 118.274 63.232 118.274 62.8245Z" fill="#090909"/>
<path d="M46.9339 65.5977H48.419V59.9068H46.9339V65.5977Z" fill="#090909"/>
<path d="M71.932 58.1982H69.6976V65.5977H68.2125V58.1982H65.9781V56.9102H71.932V58.1982Z" fill="#090909"/>
<path d="M106.472 65.5977H104.987V56.9102H106.472V65.5977Z" fill="#090909"/>
<path d="M126.926 59.9675L123.331 68.2165H121.61L122.949 65.2458L120.373 59.9675H122.375L123.841 63.2569L125.32 59.9675H126.926Z" fill="#090909"/>
<path d="M8.47949 0L33.6616 49.0367L59.3957 0H33.9376L36.8554 6.05895H49.1047L33.9376 35.6834L15.4322 0H8.47949Z" fill="#090909"/>
<path d="M21.202 0L33.9376 24.9718L37.4074 18.4397L27.7472 0H21.202Z" fill="#090909"/>
<path d="M8.47949 0L33.6616 49.0367L59.3957 0H33.9376L36.8554 6.05895H49.1047L33.9376 35.6834L15.4322 0H8.47949Z" fill="#090909"/>
<path d="M21.202 0L33.9376 24.9718L37.4074 18.4397L27.7472 0H21.202Z" fill="#090909"/>
<path d="M103.149 5.78283L103.07 8.04344H101.887V4.83653C101.887 4.83653 101.65 3.61423 104.227 4.00852C104.508 4.05034 104.811 4.08663 105.128 4.12448C107.698 4.43155 111.131 4.8416 110.417 9.14745C110.417 9.14745 116.252 8.7663 115.911 13.6687C115.911 13.6687 119.104 14.5755 116.607 17.9139C116.607 17.9139 120.051 19.0967 117.567 23.7231C117.567 23.7231 117.856 26.2991 117.054 28.2837C116.678 29.2085 116.143 29.5694 115.583 29.9469C114.949 30.3742 114.284 30.8228 113.782 32.1347C113.131 33.8584 112.377 34.5139 111.544 35.2391C111.183 35.5535 110.806 35.8809 110.417 36.3142C109.923 36.8585 109.705 37.5884 109.488 38.3185C109.138 39.4923 108.788 40.6668 107.289 41.0719C104.844 41.7422 101.322 41.1771 101.887 36.5507C101.887 36.5507 102.623 36.6953 103.385 36.761C103.608 36.7841 103.663 37.1056 103.733 37.5213C103.903 38.5284 104.167 40.0884 107.144 39.2976V38.3645C107.144 38.3645 105.16 38.6405 105.094 38.2593C105.082 38.2032 105.062 38.1365 105.04 38.0641C104.911 37.6452 104.724 37.0359 105.856 37.1816L105.964 37.1956L106.047 37.2066C107.367 37.3808 109.172 37.6191 108.708 35.8279C108.708 35.8279 105.791 36.6296 103.937 35.5781C103.937 35.5781 102.452 35.2364 102.939 34.0141C103.198 33.3683 103.578 33.5848 104.192 33.9347C104.727 34.2399 105.441 34.6468 106.408 34.6713C106.666 34.6761 106.928 34.6852 107.186 34.6942C109.018 34.7577 110.675 34.8152 109.615 33.3175C108.584 31.8874 109.386 31.9348 110.23 31.9846C110.387 31.9939 110.545 32.0032 110.693 32.0032C111.626 32.0032 114.136 30.8204 113.4 29.0066C112.678 27.206 112.296 24.5511 113.676 24.6957C114.361 24.7668 114.29 25.7276 114.231 26.5204C114.171 27.3399 114.123 27.9799 114.938 27.2717C116.528 25.8786 117.58 19.5173 115.766 21.2522C115.03 21.9619 114.814 22.522 114.66 22.9245C114.436 23.5059 114.339 23.7584 112.98 23.6574C110.693 23.4734 107.907 23.4734 108.459 24.6957C109.024 25.918 109.536 25.734 109.996 24.906C110.443 24.0648 111.14 25.0111 111.074 27.206C111.061 27.6529 111.042 28.0144 111.027 28.309L111.027 28.3103C110.969 29.4526 110.962 29.589 111.495 29.8083C112.152 30.0843 111.298 31.4775 110.141 30.4655C108.984 29.4666 106.106 27.9946 104.739 29.1512C103.385 30.2946 106.448 32.0032 108.183 32.5947C108.183 32.5947 105.265 33.5673 104.016 32.1347C102.755 30.7152 102.663 28.2049 104.292 27.6923C104.97 27.4738 106.04 27.7776 107.062 28.0675C108.497 28.4751 109.836 28.8552 109.852 27.7186C109.869 26.8777 109.215 26.6607 108.519 26.4294C107.604 26.1256 106.615 25.7973 106.973 23.9991C107.404 21.7926 109.103 22.1437 110.601 22.4531C111.254 22.5879 111.868 22.7148 112.323 22.6191L112.475 22.5859C113.867 22.2847 114.504 22.1465 115.24 18.8602C115.333 18.4501 115.42 18.0843 115.497 17.7578C116.061 15.3644 116.127 15.0839 114.728 14.9567C114.594 14.9457 114.454 14.9328 114.311 14.9194C112.729 14.7726 110.645 14.5791 110.548 16.4944C110.443 18.571 109.576 18.3345 109.576 18.3345C109.576 18.3345 109.05 18.8865 109.155 16.5601C109.26 14.2338 109.195 11.7235 109.195 11.7235L112.191 11.8681C112.191 11.8681 112.375 12.3544 110.798 12.9064C109.221 13.4584 111.731 14.0892 113.821 13.879C115.911 13.6687 114.61 11.0269 110.141 10.6063C110.141 10.6063 108.879 10.7115 109.129 7.16285C109.129 7.16285 108.156 4.66567 103.149 5.78283Z" fill="#FFC107"/>
<path d="M105.58 9.77832C105.12 10.6063 104.463 10.2252 104.463 10.2252V6.99199C109.05 7.13656 107.249 11.0926 106.658 12.1046C106.067 13.1167 102.939 12.6566 102.939 12.6566C102.761 14.2184 104.432 14.0159 105.796 13.8507C106.051 13.8199 106.294 13.7903 106.513 13.7738C107.907 13.6687 107.696 12.8669 107.696 12.8669C107.696 12.8669 108.183 14.5098 107.46 14.7201C107.234 14.7805 106.804 14.7484 106.299 14.7107C105.154 14.6253 103.625 14.5111 103.215 15.3773C102.623 16.6259 102.097 16.5864 102.097 16.5864V11.6841C105.12 11.9338 105.712 11.1978 105.712 11.1978C107.67 9.39717 106.027 8.93716 105.58 9.77832Z" fill="#FFC107"/>
<path d="M103.149 19.6488C103.149 19.6488 106.132 16.6258 106.868 18.019C106.998 18.2689 107.1 18.5328 107.202 18.7952C107.667 19.9957 108.12 21.166 111.14 20.8316C111.14 20.8316 112.888 20.8711 113.269 18.7156C113.65 16.5601 113.676 15.8241 112.257 16.5864C111.641 16.9201 111.696 17.553 111.748 18.1554C111.818 18.9531 111.883 19.6973 110.377 19.6225C109.07 19.5509 108.732 18.6294 108.416 17.7694C108.093 16.8918 107.795 16.0782 106.513 16.2973C103.977 16.731 100.809 18.571 103.149 19.6488Z" fill="#FFC107"/>
<path d="M99.2716 22.9608L98.207 21.8042V19.8328H99.2716V21.7779H103.031V22.9608H99.2716Z" fill="#FFC107"/>
<path d="M103.215 26.1414H104.542V23.3814H103.215V26.1414Z" fill="#FFC107"/>
<path d="M101.966 31.5695H100.349V25.0506H101.966V31.5695Z" fill="#FFC107"/>
<path d="M103.149 5.78283L103.07 8.04344H101.887V4.83653C101.887 4.83653 101.65 3.61423 104.227 4.00852C104.508 4.05034 104.811 4.08663 105.128 4.12448C107.698 4.43155 111.131 4.8416 110.417 9.14745C110.417 9.14745 116.252 8.7663 115.911 13.6687C115.911 13.6687 119.104 14.5755 116.607 17.9139C116.607 17.9139 120.051 19.0967 117.567 23.7231C117.567 23.7231 117.856 26.2991 117.054 28.2837C116.678 29.2085 116.143 29.5694 115.583 29.9469C114.949 30.3742 114.284 30.8228 113.782 32.1347C113.131 33.8584 112.377 34.5139 111.544 35.2391C111.183 35.5535 110.806 35.8809 110.417 36.3142C109.923 36.8585 109.705 37.5884 109.488 38.3185C109.138 39.4923 108.788 40.6668 107.289 41.0719C104.844 41.7422 101.322 41.1771 101.887 36.5507C101.887 36.5507 102.623 36.6953 103.385 36.761C103.608 36.7841 103.663 37.1056 103.733 37.5213C103.903 38.5284 104.167 40.0884 107.144 39.2976V38.3645C107.144 38.3645 105.16 38.6405 105.094 38.2593C105.082 38.2032 105.062 38.1365 105.04 38.0641C104.911 37.6452 104.724 37.0359 105.856 37.1816L105.964 37.1956L106.047 37.2066C107.367 37.3808 109.172 37.6191 108.708 35.8279C108.708 35.8279 105.791 36.6296 103.937 35.5781C103.937 35.5781 102.452 35.2364 102.939 34.0141C103.198 33.3683 103.578 33.5848 104.192 33.9347C104.727 34.2399 105.441 34.6468 106.408 34.6713C106.666 34.6761 106.928 34.6852 107.186 34.6942C109.018 34.7577 110.675 34.8152 109.615 33.3175C108.584 31.8874 109.386 31.9348 110.23 31.9846C110.387 31.9939 110.545 32.0032 110.693 32.0032C111.626 32.0032 114.136 30.8204 113.4 29.0066C112.678 27.206 112.296 24.5511 113.676 24.6957C114.361 24.7668 114.29 25.7276 114.231 26.5204C114.171 27.3399 114.123 27.9799 114.938 27.2717C116.528 25.8786 117.58 19.5173 115.766 21.2522C115.03 21.9619 114.814 22.522 114.66 22.9245C114.436 23.5059 114.339 23.7584 112.98 23.6574C110.693 23.4734 107.907 23.4734 108.459 24.6957C109.024 25.918 109.536 25.734 109.996 24.906C110.443 24.0648 111.14 25.0111 111.074 27.206C111.061 27.6529 111.042 28.0144 111.027 28.309L111.027 28.3103C110.969 29.4526 110.962 29.589 111.495 29.8083C112.152 30.0843 111.298 31.4775 110.141 30.4655C108.984 29.4666 106.106 27.9946 104.739 29.1512C103.385 30.2946 106.448 32.0032 108.183 32.5947C108.183 32.5947 105.265 33.5673 104.016 32.1347C102.755 30.7152 102.663 28.2049 104.292 27.6923C104.97 27.4738 106.04 27.7776 107.062 28.0675C108.497 28.4751 109.836 28.8552 109.852 27.7186C109.869 26.8777 109.215 26.6607 108.519 26.4294C107.604 26.1256 106.615 25.7973 106.973 23.9991C107.404 21.7926 109.103 22.1437 110.601 22.4531C111.254 22.5879 111.868 22.7148 112.323 22.6191L112.475 22.5859C113.867 22.2847 114.504 22.1465 115.24 18.8602C115.333 18.4501 115.42 18.0843 115.497 17.7578C116.061 15.3644 116.127 15.0839 114.728 14.9567C114.594 14.9457 114.454 14.9328 114.311 14.9194C112.729 14.7726 110.645 14.5791 110.548 16.4944C110.443 18.571 109.576 18.3345 109.576 18.3345C109.576 18.3345 109.05 18.8865 109.155 16.5601C109.26 14.2338 109.195 11.7235 109.195 11.7235L112.191 11.8681C112.191 11.8681 112.375 12.3544 110.798 12.9064C109.221 13.4584 111.731 14.0892 113.821 13.879C115.911 13.6687 114.61 11.0269 110.141 10.6063C110.141 10.6063 108.879 10.7115 109.129 7.16285C109.129 7.16285 108.156 4.66567 103.149 5.78283Z" fill="#FFC107"/>
<path d="M105.58 9.77832C105.12 10.6063 104.463 10.2252 104.463 10.2252V6.99199C109.05 7.13656 107.249 11.0926 106.658 12.1046C106.067 13.1167 102.939 12.6566 102.939 12.6566C102.761 14.2184 104.432 14.0159 105.796 13.8507C106.051 13.8199 106.294 13.7903 106.513 13.7738C107.907 13.6687 107.696 12.8669 107.696 12.8669C107.696 12.8669 108.183 14.5098 107.46 14.7201C107.234 14.7805 106.804 14.7484 106.299 14.7107C105.154 14.6253 103.625 14.5111 103.215 15.3773C102.623 16.6259 102.097 16.5864 102.097 16.5864V11.6841C105.12 11.9338 105.712 11.1978 105.712 11.1978C107.67 9.39717 106.027 8.93716 105.58 9.77832Z" fill="#FFC107"/>
<path d="M103.149 19.6488C103.149 19.6488 106.132 16.6258 106.868 18.019C106.998 18.2689 107.1 18.5328 107.202 18.7952C107.667 19.9957 108.12 21.166 111.14 20.8316C111.14 20.8316 112.888 20.8711 113.269 18.7156C113.65 16.5601 113.676 15.8241 112.257 16.5864C111.641 16.9201 111.696 17.553 111.748 18.1554C111.818 18.9531 111.883 19.6973 110.377 19.6225C109.07 19.5509 108.732 18.6294 108.416 17.7694C108.093 16.8918 107.795 16.0782 106.513 16.2973C103.977 16.731 100.809 18.571 103.149 19.6488Z" fill="#FFC107"/>
<path d="M99.2716 22.9608L98.207 21.8042V19.8328H99.2716V21.7779H103.031V22.9608H99.2716Z" fill="#FFC107"/>
<path d="M103.215 26.1414H104.542V23.3814H103.215V26.1414Z" fill="#FFC107"/>
<path d="M101.966 31.5695H100.349V25.0506H101.966V31.5695Z" fill="#FFC107"/>
<path d="M98.5619 4.00852C101.138 3.61423 100.888 4.83653 100.888 4.83653V8.04344H99.7054L99.6396 5.78283C94.6321 4.66567 93.6596 7.16285 93.6596 7.16285C93.9093 10.7115 92.6475 10.6063 92.6475 10.6063C88.1789 11.0269 86.8777 13.6687 88.9675 13.879C91.0572 14.0892 93.5675 13.4584 91.9904 12.9064C90.4132 12.3544 90.5972 11.8681 90.5972 11.8681L93.5938 11.7235C93.5938 11.7235 93.515 14.2338 93.6201 16.5601C93.7253 18.8865 93.2127 18.3345 93.2127 18.3345C93.2127 18.3345 92.3452 18.571 92.2401 16.4944C92.1437 14.5791 90.0601 14.7725 88.4784 14.9194C88.3345 14.9327 88.1943 14.9457 88.0606 14.9567C86.659 15.0831 86.7236 15.3601 87.2712 17.71C87.35 18.0485 87.4389 18.4299 87.5349 18.8602C88.2835 22.1464 88.9219 22.2846 90.3132 22.5859L90.4658 22.6191C90.9157 22.7146 91.5261 22.5883 92.1759 22.4537C93.6711 22.1441 95.3753 21.7912 95.815 23.9991C96.1733 25.7981 95.1834 26.1259 94.266 26.4298C93.5681 26.6609 92.9122 26.8782 92.9235 27.7186C92.9466 28.8557 94.2901 28.4747 95.728 28.0669C96.7498 27.7772 97.8192 27.4739 98.4962 27.6923C100.126 28.2049 100.021 30.7152 98.7722 32.1347C97.5236 33.5673 94.6059 32.5947 94.6059 32.5947C96.3407 32.0032 99.4031 30.2946 98.0362 29.1512C96.6824 27.9946 93.8041 29.4666 92.6475 30.4655C91.4778 31.4775 90.6366 30.0843 91.2938 29.8083C91.8219 29.5865 91.8153 29.4496 91.7582 28.2721C91.7442 27.9844 91.7273 27.6344 91.7144 27.206C91.6487 25.0111 92.3452 24.0648 92.7921 24.906C93.239 25.734 93.7647 25.918 94.3167 24.6957C94.8819 23.4734 92.0955 23.4734 89.7955 23.6574C88.4466 23.7582 88.3506 23.5069 88.1293 22.9278C87.9754 22.5251 87.7609 21.9638 87.0223 21.2522C85.2086 19.5173 86.2469 25.8786 87.8503 27.2717C88.6668 27.9811 88.6177 27.3377 88.555 26.5161C88.4946 25.7241 88.4216 24.7666 89.0989 24.6957C90.4921 24.5511 90.1109 27.206 89.3881 29.0066C88.6521 30.8204 91.1624 32.0032 92.0955 32.0032C92.2411 32.0032 92.3972 31.994 92.5524 31.9847C93.3921 31.9348 94.2049 31.8866 93.1733 33.3175C92.1015 34.8157 93.7682 34.7577 95.595 34.6941C95.8513 34.6852 96.1116 34.6761 96.367 34.6713C97.3417 34.6468 98.059 34.2391 98.5964 33.9338C99.2112 33.5844 99.5904 33.3689 99.8499 34.0141C100.336 35.2364 98.8379 35.5781 98.8379 35.5781C96.9979 36.6296 94.0801 35.8279 94.0801 35.8279C93.6167 37.6191 95.4215 37.3808 96.7411 37.2066C96.7574 37.2045 96.7735 37.2023 96.7896 37.2002C96.8379 37.1939 96.8855 37.1876 96.9322 37.1816C98.0396 37.0376 97.8687 37.6308 97.7481 38.0492C97.7256 38.1273 97.7048 38.1993 97.6945 38.2593C97.6288 38.6405 95.6442 38.3645 95.6442 38.3645V39.2976C98.6136 40.0864 98.8772 38.5362 99.0485 37.5289C99.1198 37.1095 99.1751 36.7842 99.4031 36.761C100.165 36.6953 100.901 36.5507 100.901 36.5507C101.467 41.1771 97.9442 41.7422 95.4996 41.0719C94.0005 40.6668 93.6505 39.4923 93.3006 38.3185C93.083 37.5884 92.8655 36.8585 92.3715 36.3142C91.9807 35.8794 91.6031 35.5512 91.2404 35.2358C90.4077 34.5119 89.6529 33.8557 88.9938 32.1347C88.4978 30.8213 87.8347 30.3732 87.2019 29.9454C86.6441 29.5684 86.1099 29.2073 85.7343 28.2837C84.9326 26.2991 85.2217 23.7231 85.2217 23.7231C82.7377 19.0967 86.1812 17.9139 86.1812 17.9139C83.684 14.5755 86.8777 13.6687 86.8777 13.6687C86.536 8.7663 92.3715 9.14745 92.3715 9.14745C91.6574 4.83929 95.0831 4.43112 97.6608 4.12399C97.977 4.08632 98.2805 4.05016 98.5619 4.00852Z" fill="#090909"/>
<path d="M96.1304 12.1046C95.539 11.0926 93.7253 7.13656 98.3253 6.99199V10.2252C98.3253 10.2252 97.655 10.6063 97.2082 9.77832C96.7613 8.93716 95.1184 9.39717 97.0636 11.1978C97.0636 11.1978 97.655 11.9338 100.691 11.6841V16.5864C100.691 16.5864 100.165 16.6259 99.5739 15.3773C99.1637 14.5111 97.634 14.6253 96.4896 14.7107C95.9843 14.7484 95.5542 14.7805 95.3287 14.7201C94.6058 14.5098 95.0921 12.8669 95.0921 12.8669C95.0921 12.8669 94.8819 13.6687 96.275 13.7738C96.4906 13.7902 96.7313 13.8195 96.983 13.8501C98.3427 14.0154 100.027 14.2203 99.8499 12.6566C99.8499 12.6566 96.7219 13.1167 96.1304 12.1046Z" fill="#090909"/>
<path d="M95.9202 18.019C96.6562 16.6258 99.6396 19.6488 99.6396 19.6488C101.966 18.571 98.8116 16.731 96.275 16.2973C94.9858 16.078 94.6878 16.8936 94.3668 17.7723C94.0529 18.6315 93.717 19.551 92.411 19.6225C90.9027 19.6975 90.9667 18.95 91.0352 18.1504C91.0866 17.5495 91.1405 16.9192 90.5315 16.5864C89.0989 15.8241 89.1383 16.5601 89.5195 18.7156C89.9006 20.8711 91.6487 20.8316 91.6487 20.8316C94.6496 21.1651 95.1066 20.0021 95.577 18.8051C95.6814 18.5394 95.7865 18.272 95.9202 18.019Z" fill="#090909"/>
<path d="M99.2716 22.9608L98.2071 21.8042V19.8328H99.2716V21.7779H103.031V22.9608H99.2716Z" fill="#090909"/>
<path d="M98.9201 48.6031L98.9129 48.6441C98.9016 48.7085 98.8905 48.7712 98.8905 48.8395C98.8905 50.2064 100.008 51.3235 101.388 51.3235C102.768 51.3235 103.885 50.2064 103.885 48.8395C103.885 48.7712 103.874 48.7085 103.862 48.6441L103.859 48.6257C103.857 48.6132 103.855 48.6006 103.853 48.5879C103.85 48.5713 103.848 48.5544 103.845 48.5372H98.9299C98.9271 48.5597 98.9237 48.5815 98.9201 48.6031Z" fill="#090909"/>
<path d="M103.215 26.1414H104.542V23.3814H103.215V26.1414Z" fill="#090909"/>
<path d="M101.966 31.5695H100.349V25.0506H101.966V31.5695Z" fill="#090909"/>
<path d="M95.0527 43.6611H107.723V42.1234H95.0527V43.6611Z" fill="#090909"/>
<path d="M107.723 45.856H95.0527V44.3183H107.723V45.856Z" fill="#090909"/>
<path d="M95.0527 48.1823H107.723V46.6446H95.0527V48.1823Z" fill="#090909"/>
<path d="M98.5619 4.00852C101.138 3.61423 100.888 4.83653 100.888 4.83653V8.04344H99.7054L99.6396 5.78283C94.6321 4.66567 93.6596 7.16285 93.6596 7.16285C93.9093 10.7115 92.6475 10.6063 92.6475 10.6063C88.1789 11.0269 86.8777 13.6687 88.9675 13.879C91.0572 14.0892 93.5675 13.4584 91.9904 12.9064C90.4132 12.3544 90.5972 11.8681 90.5972 11.8681L93.5938 11.7235C93.5938 11.7235 93.515 14.2338 93.6201 16.5601C93.7253 18.8865 93.2127 18.3345 93.2127 18.3345C93.2127 18.3345 92.3452 18.571 92.2401 16.4944C92.1437 14.5791 90.0601 14.7725 88.4784 14.9194C88.3345 14.9327 88.1943 14.9457 88.0606 14.9567C86.659 15.0831 86.7236 15.3601 87.2712 17.71C87.35 18.0485 87.4389 18.4299 87.5349 18.8602C88.2835 22.1464 88.9219 22.2846 90.3132 22.5859L90.4658 22.6191C90.9157 22.7146 91.5261 22.5883 92.1759 22.4537C93.6711 22.1441 95.3753 21.7912 95.815 23.9991C96.1733 25.7981 95.1834 26.1259 94.266 26.4298C93.5681 26.6609 92.9122 26.8782 92.9235 27.7186C92.9466 28.8557 94.2901 28.4747 95.728 28.0669C96.7498 27.7772 97.8192 27.4739 98.4962 27.6923C100.126 28.2049 100.021 30.7152 98.7722 32.1347C97.5236 33.5673 94.6059 32.5947 94.6059 32.5947C96.3407 32.0032 99.4031 30.2946 98.0362 29.1512C96.6824 27.9946 93.8041 29.4666 92.6475 30.4655C91.4778 31.4775 90.6366 30.0843 91.2938 29.8083C91.8219 29.5865 91.8153 29.4496 91.7582 28.2721C91.7442 27.9844 91.7273 27.6344 91.7144 27.206C91.6487 25.0111 92.3452 24.0648 92.7921 24.906C93.239 25.734 93.7647 25.918 94.3167 24.6957C94.8819 23.4734 92.0955 23.4734 89.7955 23.6574C88.4466 23.7582 88.3506 23.5069 88.1293 22.9278C87.9754 22.5251 87.7609 21.9638 87.0223 21.2522C85.2086 19.5173 86.2469 25.8786 87.8503 27.2717C88.6668 27.9811 88.6177 27.3377 88.555 26.5161C88.4946 25.7241 88.4216 24.7666 89.0989 24.6957C90.4921 24.5511 90.1109 27.206 89.3881 29.0066C88.6521 30.8204 91.1624 32.0032 92.0955 32.0032C92.2411 32.0032 92.3972 31.994 92.5524 31.9847C93.3921 31.9348 94.2049 31.8866 93.1733 33.3175C92.1015 34.8157 93.7682 34.7577 95.595 34.6941C95.8513 34.6852 96.1116 34.6761 96.367 34.6713C97.3417 34.6468 98.059 34.2391 98.5964 33.9338C99.2112 33.5844 99.5904 33.3689 99.8499 34.0141C100.336 35.2364 98.8379 35.5781 98.8379 35.5781C96.9979 36.6296 94.0801 35.8279 94.0801 35.8279C93.6167 37.6191 95.4215 37.3808 96.7411 37.2066C96.7574 37.2045 96.7735 37.2023 96.7896 37.2002C96.8379 37.1939 96.8855 37.1876 96.9322 37.1816C98.0396 37.0376 97.8687 37.6308 97.7481 38.0492C97.7256 38.1273 97.7048 38.1993 97.6945 38.2593C97.6288 38.6405 95.6442 38.3645 95.6442 38.3645V39.2976C98.6136 40.0864 98.8772 38.5362 99.0485 37.5289C99.1198 37.1095 99.1751 36.7842 99.4031 36.761C100.165 36.6953 100.901 36.5507 100.901 36.5507C101.467 41.1771 97.9442 41.7422 95.4996 41.0719C94.0005 40.6668 93.6505 39.4923 93.3006 38.3185C93.083 37.5884 92.8655 36.8585 92.3715 36.3142C91.9807 35.8794 91.6031 35.5512 91.2404 35.2358C90.4077 34.5119 89.6529 33.8557 88.9938 32.1347C88.4978 30.8213 87.8347 30.3732 87.2019 29.9454C86.6441 29.5684 86.1099 29.2073 85.7343 28.2837C84.9326 26.2991 85.2217 23.7231 85.2217 23.7231C82.7377 19.0967 86.1812 17.9139 86.1812 17.9139C83.684 14.5755 86.8777 13.6687 86.8777 13.6687C86.536 8.7663 92.3715 9.14745 92.3715 9.14745C91.6574 4.83929 95.0831 4.43112 97.6608 4.12399C97.977 4.08632 98.2805 4.05016 98.5619 4.00852Z" fill="#090909"/>
<path d="M96.1304 12.1046C95.539 11.0926 93.7253 7.13656 98.3253 6.99199V10.2252C98.3253 10.2252 97.655 10.6063 97.2082 9.77832C96.7613 8.93716 95.1184 9.39717 97.0636 11.1978C97.0636 11.1978 97.655 11.9338 100.691 11.6841V16.5864C100.691 16.5864 100.165 16.6259 99.5739 15.3773C99.1637 14.5111 97.634 14.6253 96.4896 14.7107C95.9843 14.7484 95.5542 14.7805 95.3287 14.7201C94.6058 14.5098 95.0921 12.8669 95.0921 12.8669C95.0921 12.8669 94.8819 13.6687 96.275 13.7738C96.4906 13.7902 96.7313 13.8195 96.983 13.8501C98.3427 14.0154 100.027 14.2203 99.8499 12.6566C99.8499 12.6566 96.7219 13.1167 96.1304 12.1046Z" fill="#090909"/>
<path d="M95.9202 18.019C96.6562 16.6258 99.6396 19.6488 99.6396 19.6488C101.966 18.571 98.8116 16.731 96.275 16.2973C94.9858 16.078 94.6878 16.8936 94.3668 17.7723C94.0529 18.6315 93.717 19.551 92.411 19.6225C90.9027 19.6975 90.9667 18.95 91.0352 18.1504C91.0866 17.5495 91.1405 16.9192 90.5315 16.5864C89.0989 15.8241 89.1383 16.5601 89.5195 18.7156C89.9006 20.8711 91.6487 20.8316 91.6487 20.8316C94.6496 21.1651 95.1066 20.0021 95.577 18.8051C95.6814 18.5394 95.7865 18.272 95.9202 18.019Z" fill="#090909"/>
<path d="M99.2716 22.9608L98.2071 21.8042V19.8328H99.2716V21.7779H103.031V22.9608H99.2716Z" fill="#090909"/>
<path d="M98.9201 48.6031L98.9129 48.6441C98.9016 48.7085 98.8905 48.7712 98.8905 48.8395C98.8905 50.2064 100.008 51.3235 101.388 51.3235C102.768 51.3235 103.885 50.2064 103.885 48.8395C103.885 48.7712 103.874 48.7085 103.862 48.6441L103.859 48.6257C103.857 48.6132 103.855 48.6006 103.853 48.5879C103.85 48.5713 103.848 48.5544 103.845 48.5372H98.9299C98.9271 48.5597 98.9237 48.5815 98.9201 48.6031Z" fill="#090909"/>
<path d="M103.215 26.1414H104.542V23.3814H103.215V26.1414Z" fill="#090909"/>
<path d="M101.966 31.5695H100.349V25.0506H101.966V31.5695Z" fill="#090909"/>
<path d="M95.0527 43.6611H107.723V42.1234H95.0527V43.6611Z" fill="#090909"/>
<path d="M107.723 45.856H95.0527V44.3183H107.723V45.856Z" fill="#090909"/>
<path d="M95.0527 48.1823H107.723V46.6446H95.0527V48.1823Z" fill="#090909"/>
<path d="M43.0454 43.1224L65.3097 0H72.0521L56.2673 30.8205L59.3954 36.2486L77.7562 0H84.8535L59.3954 49.3916L52.7844 37.7732L46.594 49.3916L43.0454 43.1224Z" fill="#FFC107"/>
<path d="M43.0454 43.1224L65.3097 0H72.0521L56.2673 30.8205L59.3954 36.2486L77.7562 0H84.8535L59.3954 49.3916L52.7844 37.7732L46.594 49.3916L43.0454 43.1224Z" fill="#FFC107"/>
</svg>
