<svg width="29" height="46" viewBox="0 0 29 46" fill="none" xmlns="http://www.w3.org/2000/svg">
<path fill-rule="evenodd" clip-rule="evenodd" d="M14.8555 0.5C7.05644 0.5 0.73407 6.82237 0.73407 14.6214V30.9025C0.73407 38.7016 7.05644 45.0239 14.8555 45.0239C22.6545 45.0239 28.9769 38.7016 28.9769 30.9025V14.6214C28.9769 6.82237 22.6545 0.5 14.8555 0.5ZM1.84163 14.6214C1.84163 7.43406 7.66813 1.60756 14.8555 1.60756C22.0428 1.60756 27.8693 7.43406 27.8693 14.6214V30.9025C27.8693 38.0899 22.0428 43.9164 14.8555 43.9164C7.66813 43.9164 1.84163 38.0899 1.84163 30.9025V14.6214Z" fill="#090909"/>
<path fill-rule="evenodd" clip-rule="evenodd" d="M14.8555 0.5C7.05644 0.5 0.73407 6.82237 0.73407 14.6214V30.9025C0.73407 38.7016 7.05644 45.0239 14.8555 45.0239C22.6545 45.0239 28.9769 38.7016 28.9769 30.9025V14.6214C28.9769 6.82237 22.6545 0.5 14.8555 0.5ZM1.84163 14.6214C1.84163 7.43406 7.66813 1.60756 14.8555 1.60756C22.0428 1.60756 27.8693 7.43406 27.8693 14.6214V30.9025C27.8693 38.0899 22.0428 43.9164 14.8555 43.9164C7.66813 43.9164 1.84163 38.0899 1.84163 30.9025V14.6214Z" fill="#090909"/>
<path d="M16.7384 9.97758C16.7384 8.93771 15.8954 8.09473 14.8555 8.09473C13.8156 8.09473 12.9726 8.93771 12.9726 9.97758V14.8508C12.9726 15.8907 13.8156 16.7337 14.8555 16.7337C15.8954 16.7337 16.7384 15.8907 16.7384 14.8508V9.97758Z" fill="#090909"/>
<path d="M16.7384 9.97758C16.7384 8.93771 15.8954 8.09473 14.8555 8.09473C13.8156 8.09473 12.9726 8.93771 12.9726 9.97758V14.8508C12.9726 15.8907 13.8156 16.7337 14.8555 16.7337C15.8954 16.7337 16.7384 15.8907 16.7384 14.8508V9.97758Z" fill="#090909"/>
</svg>
