<svg width="128" height="70" viewBox="0 0 128 70" fill="none" xmlns="http://www.w3.org/2000/svg">
<path d="M8.88578 65.61L11.9875 56.9094H10.3578L8.72806 61.9694L6.42806 57.2774L4.04919 62.0483L2.52462 56.9094H0.855469L3.81262 65.61L6.37549 60.4843L8.88578 65.61Z" fill="white"/>
<path fill-rule="evenodd" clip-rule="evenodd" d="M17.9281 62.8237C17.9281 62.9683 17.9149 63.1129 17.9018 63.2574H13.6041C13.6961 63.5729 13.8669 63.8226 14.1298 64.0066C14.3795 64.1906 14.6687 64.2826 14.9972 64.2826C15.4441 64.2826 15.8121 64.1117 16.1012 63.77L17.0081 64.966C16.4429 65.5049 15.7727 65.7677 14.9972 65.7677C14.1692 65.7677 13.4726 65.4786 12.9075 64.9134C12.3292 64.3483 12.0532 63.6517 12.0532 62.8237C12.0532 62.0089 12.3424 61.3123 12.9075 60.7471C13.4858 60.182 14.1692 59.906 14.9972 59.906C15.8121 59.906 16.5087 60.182 17.0738 60.7471C17.6389 61.3123 17.9281 62.0089 17.9281 62.8237ZM16.2721 62.1534C15.9961 61.6409 15.5755 61.378 14.9972 61.378C14.4058 61.378 13.9852 61.6409 13.7092 62.1534H16.2721Z" fill="white"/>
<path fill-rule="evenodd" clip-rule="evenodd" d="M23.7241 64.9134C24.2893 64.3352 24.5784 63.6517 24.5784 62.8237C24.5784 62.0089 24.2893 61.3123 23.7241 60.7472C23.159 60.182 22.4624 59.906 21.6475 59.906C21.1087 59.906 20.6224 60.0243 20.1755 60.274V56.9094H18.7035V62.8237C18.7035 63.6517 18.9795 64.3483 19.5447 64.9134C20.123 65.4786 20.8195 65.7677 21.6475 65.7677C22.4624 65.7677 23.159 65.4786 23.7241 64.9134ZM22.6595 61.8117C22.9487 62.1009 23.0933 62.4294 23.0933 62.8237C23.0933 63.2312 22.9487 63.5729 22.6727 63.862C22.3835 64.138 22.0418 64.2826 21.6475 64.2826C21.2401 64.2826 20.8984 64.138 20.6092 63.862C20.3201 63.5729 20.1755 63.2312 20.1755 62.8237C20.1755 62.4294 20.3201 62.0877 20.6092 61.7986C20.8984 61.5226 21.2401 61.378 21.6475 61.378C22.0418 61.378 22.3835 61.5226 22.6595 61.8117Z" fill="white"/>
<path fill-rule="evenodd" clip-rule="evenodd" d="M35.5001 62.6529C35.5133 63.4809 35.2373 64.1775 34.659 64.7426C34.0939 65.3077 33.3973 65.5969 32.5693 65.5969L30.151 65.61V56.9094H31.8464C32.4641 56.9094 32.9899 57.1197 33.4236 57.5534C33.8573 57.9871 34.0676 58.5129 34.0807 59.1306C34.0807 59.4591 34.015 59.7614 33.8967 60.0374C34.383 60.3003 34.7773 60.6552 35.0664 61.1283C35.3556 61.5883 35.5001 62.1009 35.5001 62.6529ZM34.0281 62.666C34.015 62.2586 33.8704 61.9169 33.5944 61.6277C33.3184 61.3517 32.9767 61.2072 32.5561 61.2072H31.623V64.1249H32.5693C32.9767 64.1249 33.3184 63.9803 33.6076 63.6912C33.8967 63.4152 34.0281 63.0734 34.0281 62.666ZM32.5956 59.1437C32.5824 58.9334 32.5167 58.7626 32.3721 58.618C32.2276 58.4734 32.0436 58.3946 31.8333 58.3946H31.623V59.8666H31.8464C32.0698 59.8534 32.2407 59.7877 32.3853 59.6563C32.5298 59.5249 32.5956 59.354 32.5956 59.1437Z" fill="white"/>
<path d="M38.1813 61.7986C38.4573 61.5226 38.799 61.378 39.2064 61.378V59.906C38.3916 59.906 37.695 60.182 37.1167 60.7471C36.5516 61.3123 36.2624 62.0089 36.2624 62.8237V65.5969H37.7476V62.8237C37.7476 62.4294 37.8922 62.0877 38.1813 61.7986Z" fill="white"/>
<path fill-rule="evenodd" clip-rule="evenodd" d="M45.6596 61.838L47.0133 65.5969H45.4362L45.1339 64.7426C44.5425 65.4392 43.7933 65.7809 42.8864 65.7809C42.0716 65.7809 41.375 65.4917 40.8099 64.9266C40.2447 64.3483 39.9556 63.6517 39.9556 62.85C39.9556 62.2192 40.1264 61.654 40.4813 61.1546C40.8362 60.6551 41.2962 60.3003 41.8876 60.09C42.2293 59.9586 42.571 59.906 42.8996 59.906C43.5173 59.906 44.0825 60.0769 44.5819 60.4317C45.0813 60.7866 45.4493 61.2597 45.6596 61.838ZM44.3453 62.8369C44.3453 62.3243 44.135 61.9169 43.7276 61.6409C43.4779 61.47 43.2019 61.378 42.8864 61.378C42.3739 61.378 41.9796 61.5883 41.7036 61.9957C41.5196 62.2586 41.4407 62.5346 41.4407 62.8369C41.4407 63.3494 41.651 63.7437 42.0584 64.0329C42.3213 64.2037 42.5973 64.2957 42.8864 64.2957C43.2939 64.2957 43.6356 64.1512 43.9247 63.8752C44.2007 63.586 44.3453 63.2443 44.3453 62.8369Z" fill="white"/>
<path d="M49.1556 59.262C49.3133 59.0911 49.4053 58.8809 49.4053 58.6312C49.4053 58.3946 49.3133 58.1843 49.1425 58.0134C48.9716 57.8426 48.7613 57.7637 48.5248 57.7637C48.275 57.7637 48.0648 57.8426 47.8939 58.0134C47.723 58.1843 47.631 58.3814 47.631 58.6312C47.631 58.8809 47.723 59.0911 47.8939 59.262C48.0648 59.446 48.275 59.5249 48.5248 59.5249C48.7745 59.5249 48.9848 59.446 49.1556 59.262Z" fill="white"/>
<path d="M55.0568 60.7471C55.6351 61.3123 55.9111 62.0089 55.9111 62.8237V65.5969H54.4391V62.8237C54.4391 62.4294 54.2945 62.1009 54.0053 61.8117C53.7162 61.5226 53.3745 61.378 52.9802 61.378C52.5728 61.378 52.231 61.5226 51.9419 61.7986C51.6528 62.0877 51.5082 62.4294 51.5082 62.8237V65.5969H50.023V62.8237C50.023 62.0089 50.3122 61.3123 50.8905 60.7471C51.4556 60.182 52.1522 59.906 52.9671 59.906C53.7951 59.906 54.4916 60.182 55.0568 60.7471Z" fill="white"/>
<path d="M60.7871 64.874C61.0236 64.5849 61.1419 64.2694 61.1419 63.9146V63.8883C61.1419 62.9289 60.6688 62.3637 59.7488 62.1929L59.5478 62.1514C59.2274 62.0853 59.048 62.0483 59.0259 62.0483C58.6448 61.9431 58.4608 61.8117 58.4608 61.6672V61.6409C58.4608 61.3386 58.6842 61.1809 59.1574 61.1809C59.4596 61.1809 59.7356 61.3123 59.9985 61.5751L60.9842 60.6946C60.7871 60.4449 60.4716 60.2346 60.0116 60.09C59.6174 59.9586 59.2362 59.8929 58.8682 59.906C58.5265 59.906 58.1979 59.9849 57.8956 60.1426C57.2122 60.4843 56.8705 60.9969 56.8705 61.6934C56.8705 62.4031 57.2122 62.9157 57.8694 63.1917C58.1059 63.2969 58.3819 63.3757 58.7105 63.4414C58.9355 63.4864 59.0932 63.5122 59.1833 63.5269L59.2231 63.5334C59.4334 63.6123 59.5385 63.7306 59.5648 63.9014V63.9409C59.5648 64.0986 59.4728 64.23 59.2756 64.322C59.1311 64.3877 58.9734 64.414 58.7894 64.414H58.7499C58.3031 64.414 57.8825 64.23 57.4882 63.8489L56.6602 64.9266C56.9231 65.1369 57.2516 65.3209 57.6591 65.4654C58.0665 65.61 58.4345 65.6889 58.7894 65.702C59.6436 65.7283 60.3139 65.4523 60.7871 64.874Z" fill="white"/>
<path fill-rule="evenodd" clip-rule="evenodd" d="M79.3843 63.2574C79.4106 63.1129 79.4106 62.9683 79.4106 62.8237C79.4106 62.0089 79.1346 61.3123 78.5694 60.7471C77.9911 60.182 77.3077 59.906 76.4797 59.906C75.6648 59.906 74.9683 60.182 74.39 60.7471C73.8248 61.3123 73.5357 62.0089 73.5357 62.8237C73.5357 63.6517 73.8248 64.3483 74.39 64.9134C74.9551 65.4786 75.6517 65.7677 76.4797 65.7677C77.2551 65.7677 77.9254 65.5049 78.4906 64.966L77.5968 63.77C77.2945 64.1117 76.9265 64.2826 76.4797 64.2826C76.1643 64.2826 75.8751 64.1906 75.6123 64.0066C75.3625 63.8226 75.1786 63.5729 75.0866 63.2574H79.3843ZM76.4797 61.378C77.058 61.378 77.4917 61.6409 77.7546 62.1534H75.1917C75.4677 61.6409 75.9014 61.378 76.4797 61.378Z" fill="white"/>
<path d="M85.1671 64.9397C84.5889 65.4917 83.9186 65.7677 83.13 65.7677C82.302 65.7677 81.6054 65.4786 81.0403 64.9134C80.462 64.3483 80.186 63.6517 80.186 62.8237C80.186 62.0089 80.4751 61.3123 81.0403 60.7471C81.6186 60.182 82.3151 59.906 83.13 59.906C83.8791 59.906 84.5231 60.1557 85.0883 60.6551L84.1946 61.838C83.9054 61.5357 83.5506 61.378 83.13 61.378C82.7226 61.378 82.3809 61.5226 82.0917 61.7986C81.8157 62.0877 81.6711 62.4294 81.6711 62.8237C81.6711 63.2312 81.8157 63.5729 82.0917 63.862C82.3809 64.138 82.7226 64.2826 83.13 64.2826C83.5637 64.2826 83.9317 64.1117 84.2209 63.7832L85.1671 64.9397Z" fill="white"/>
<path d="M89.8723 61.8117C90.1614 62.1009 90.306 62.4294 90.306 62.8237V65.5969H91.7912V62.8237C91.7912 62.0089 91.502 61.3123 90.9237 60.7472C90.3586 60.182 89.662 59.906 88.8471 59.906C88.3214 59.906 87.8352 60.0243 87.3752 60.274V56.9094H85.9031V65.5969H87.3752V62.8237C87.3752 62.4294 87.5197 62.0877 87.8089 61.7986C88.098 61.5226 88.4397 61.378 88.8471 61.378C89.2414 61.378 89.5832 61.5226 89.8723 61.8117Z" fill="white"/>
<path d="M97.574 60.7471C98.1523 61.3123 98.4283 62.0089 98.4283 62.8237V65.5969H96.9432V62.8237C96.9432 62.4294 96.8118 62.1009 96.5226 61.8117C96.2335 61.5226 95.8918 61.378 95.4975 61.378C95.09 61.378 94.7483 61.5226 94.4592 61.7986C94.17 62.0877 94.0255 62.4294 94.0255 62.8237V65.5969H92.5403V62.8237C92.5403 62.0089 92.8295 61.3123 93.3946 60.7471C93.9729 60.182 94.6695 59.906 95.4843 59.906C96.3123 59.906 97.0089 60.182 97.574 60.7471Z" fill="white"/>
<path fill-rule="evenodd" clip-rule="evenodd" d="M104.211 64.9134C104.789 64.3352 105.066 63.6517 105.066 62.8237C105.066 62.0089 104.789 61.3123 104.211 60.7471C103.646 60.182 102.949 59.906 102.135 59.906C101.32 59.906 100.623 60.182 100.045 60.7471C99.4798 61.3123 99.1906 62.0089 99.1906 62.8237C99.1906 63.6517 99.4798 64.3483 100.045 64.9134C100.61 65.4786 101.307 65.7677 102.135 65.7677C102.949 65.7677 103.646 65.4786 104.211 64.9134ZM103.16 61.8117C103.436 62.1009 103.58 62.4294 103.58 62.8237C103.58 63.2312 103.449 63.5729 103.16 63.862C102.884 64.138 102.542 64.2826 102.135 64.2826C101.727 64.2826 101.385 64.138 101.096 63.862C100.82 63.5729 100.676 63.2312 100.676 62.8237C100.676 62.4294 100.82 62.0877 101.096 61.7986C101.385 61.5226 101.727 61.378 102.135 61.378C102.529 61.378 102.871 61.5226 103.16 61.8117Z" fill="white"/>
<path fill-rule="evenodd" clip-rule="evenodd" d="M113.109 64.9134C113.674 64.3352 113.95 63.6517 113.95 62.8237C113.95 62.0089 113.674 61.3123 113.109 60.7471C112.531 60.182 111.847 59.906 111.019 59.906C110.204 59.906 109.508 60.182 108.93 60.7471C108.364 61.3123 108.075 62.0089 108.075 62.8237C108.075 63.6517 108.364 64.3483 108.93 64.9134C109.495 65.4786 110.191 65.7677 111.019 65.7677C111.847 65.7677 112.531 65.4786 113.109 64.9134ZM112.044 61.8117C112.334 62.1009 112.465 62.4294 112.465 62.8237C112.465 63.2312 112.334 63.5729 112.044 63.862C111.768 64.138 111.427 64.2826 111.019 64.2826C110.625 64.2826 110.27 64.138 109.994 63.862C109.705 63.5729 109.56 63.2312 109.56 62.8237C109.56 62.4294 109.705 62.0877 109.994 61.7986C110.27 61.5226 110.625 61.378 111.019 61.378C111.414 61.378 111.755 61.5226 112.044 61.8117Z" fill="white"/>
<path fill-rule="evenodd" clip-rule="evenodd" d="M120.614 67.0689C120.614 68.1203 120.18 68.9352 119.312 69.5003C118.813 69.8289 118.274 69.9998 117.683 69.9998C116.644 69.9998 115.83 69.566 115.238 68.6855C114.896 68.186 114.739 67.6472 114.739 67.0689C114.739 66.6877 114.804 66.3197 114.949 65.9649L116.329 66.5169C116.25 66.6877 116.224 66.8717 116.224 67.0689C116.224 67.4632 116.355 67.8049 116.644 68.094C116.934 68.37 117.275 68.5146 117.683 68.5146C118.077 68.5146 118.419 68.37 118.695 68.0809C118.984 67.7917 119.128 67.45 119.128 67.0557C119.128 66.4117 118.826 65.9517 118.222 65.702C118.038 65.7414 117.854 65.7677 117.67 65.7677C116.842 65.7677 116.145 65.4786 115.58 64.9134C115.015 64.3483 114.739 63.6517 114.739 62.8237C114.739 61.9957 115.015 61.3123 115.593 60.734C116.158 60.1689 116.855 59.8929 117.67 59.8929L118.524 57.8557L119.694 58.3551L118.918 60.1689C119.431 60.4186 119.851 60.7866 120.154 61.2597C120.456 61.7329 120.614 62.2586 120.614 62.8237C120.614 63.6517 120.311 64.3614 119.694 64.9266C120.311 65.5049 120.614 66.2146 120.614 67.0689ZM119.128 62.8237C119.128 62.4294 118.984 62.0877 118.695 61.7986C118.419 61.5094 118.077 61.378 117.683 61.378C117.275 61.378 116.934 61.5094 116.644 61.7986C116.355 62.0746 116.224 62.4163 116.224 62.8237C116.224 63.2312 116.355 63.5729 116.644 63.8489C116.934 64.138 117.275 64.2826 117.683 64.2826C118.077 64.2826 118.419 64.138 118.708 63.8489C118.984 63.5729 119.128 63.2312 119.128 62.8237Z" fill="white"/>
<path d="M47.7887 65.5969H49.2739V59.906H47.7887V65.5969Z" fill="white"/>
<path d="M72.7865 58.1974H70.5523V65.5969H69.0671V58.1974H66.8328V56.9094H72.7865V58.1974Z" fill="white"/>
<path d="M107.326 65.5969H105.841V56.9094H107.326V65.5969Z" fill="white"/>
<path d="M8.88578 65.61L11.9875 56.9094H10.3578L8.72806 61.9694L6.42806 57.2774L4.04919 62.0483L2.52462 56.9094H0.855469L3.81262 65.61L6.37549 60.4843L8.88578 65.61Z" fill="white"/>
<path fill-rule="evenodd" clip-rule="evenodd" d="M17.9281 62.8237C17.9281 62.9683 17.9149 63.1129 17.9018 63.2574H13.6041C13.6961 63.5729 13.8669 63.8226 14.1298 64.0066C14.3795 64.1906 14.6687 64.2826 14.9972 64.2826C15.4441 64.2826 15.8121 64.1117 16.1012 63.77L17.0081 64.966C16.4429 65.5049 15.7727 65.7677 14.9972 65.7677C14.1692 65.7677 13.4726 65.4786 12.9075 64.9134C12.3292 64.3483 12.0532 63.6517 12.0532 62.8237C12.0532 62.0089 12.3424 61.3123 12.9075 60.7471C13.4858 60.182 14.1692 59.906 14.9972 59.906C15.8121 59.906 16.5087 60.182 17.0738 60.7471C17.6389 61.3123 17.9281 62.0089 17.9281 62.8237ZM16.2721 62.1534C15.9961 61.6409 15.5755 61.378 14.9972 61.378C14.4058 61.378 13.9852 61.6409 13.7092 62.1534H16.2721Z" fill="white"/>
<path fill-rule="evenodd" clip-rule="evenodd" d="M23.7241 64.9134C24.2893 64.3352 24.5784 63.6517 24.5784 62.8237C24.5784 62.0089 24.2893 61.3123 23.7241 60.7472C23.159 60.182 22.4624 59.906 21.6475 59.906C21.1087 59.906 20.6224 60.0243 20.1755 60.274V56.9094H18.7035V62.8237C18.7035 63.6517 18.9795 64.3483 19.5447 64.9134C20.123 65.4786 20.8195 65.7677 21.6475 65.7677C22.4624 65.7677 23.159 65.4786 23.7241 64.9134ZM22.6595 61.8117C22.9487 62.1009 23.0933 62.4294 23.0933 62.8237C23.0933 63.2312 22.9487 63.5729 22.6727 63.862C22.3835 64.138 22.0418 64.2826 21.6475 64.2826C21.2401 64.2826 20.8984 64.138 20.6092 63.862C20.3201 63.5729 20.1755 63.2312 20.1755 62.8237C20.1755 62.4294 20.3201 62.0877 20.6092 61.7986C20.8984 61.5226 21.2401 61.378 21.6475 61.378C22.0418 61.378 22.3835 61.5226 22.6595 61.8117Z" fill="white"/>
<path fill-rule="evenodd" clip-rule="evenodd" d="M35.5001 62.6529C35.5133 63.4809 35.2373 64.1775 34.659 64.7426C34.0939 65.3077 33.3973 65.5969 32.5693 65.5969L30.151 65.61V56.9094H31.8464C32.4641 56.9094 32.9899 57.1197 33.4236 57.5534C33.8573 57.9871 34.0676 58.5129 34.0807 59.1306C34.0807 59.4591 34.015 59.7614 33.8967 60.0374C34.383 60.3003 34.7773 60.6552 35.0664 61.1283C35.3556 61.5883 35.5001 62.1009 35.5001 62.6529ZM34.0281 62.666C34.015 62.2586 33.8704 61.9169 33.5944 61.6277C33.3184 61.3517 32.9767 61.2072 32.5561 61.2072H31.623V64.1249H32.5693C32.9767 64.1249 33.3184 63.9803 33.6076 63.6912C33.8967 63.4152 34.0281 63.0734 34.0281 62.666ZM32.5956 59.1437C32.5824 58.9334 32.5167 58.7626 32.3721 58.618C32.2276 58.4734 32.0436 58.3946 31.8333 58.3946H31.623V59.8666H31.8464C32.0698 59.8534 32.2407 59.7877 32.3853 59.6563C32.5298 59.5249 32.5956 59.354 32.5956 59.1437Z" fill="white"/>
<path d="M38.1813 61.7986C38.4573 61.5226 38.799 61.378 39.2064 61.378V59.906C38.3916 59.906 37.695 60.182 37.1167 60.7471C36.5516 61.3123 36.2624 62.0089 36.2624 62.8237V65.5969H37.7476V62.8237C37.7476 62.4294 37.8922 62.0877 38.1813 61.7986Z" fill="white"/>
<path fill-rule="evenodd" clip-rule="evenodd" d="M45.6596 61.838L47.0133 65.5969H45.4362L45.1339 64.7426C44.5425 65.4392 43.7933 65.7809 42.8864 65.7809C42.0716 65.7809 41.375 65.4917 40.8099 64.9266C40.2447 64.3483 39.9556 63.6517 39.9556 62.85C39.9556 62.2192 40.1264 61.654 40.4813 61.1546C40.8362 60.6551 41.2962 60.3003 41.8876 60.09C42.2293 59.9586 42.571 59.906 42.8996 59.906C43.5173 59.906 44.0825 60.0769 44.5819 60.4317C45.0813 60.7866 45.4493 61.2597 45.6596 61.838ZM44.3453 62.8369C44.3453 62.3243 44.135 61.9169 43.7276 61.6409C43.4779 61.47 43.2019 61.378 42.8864 61.378C42.3739 61.378 41.9796 61.5883 41.7036 61.9957C41.5196 62.2586 41.4407 62.5346 41.4407 62.8369C41.4407 63.3494 41.651 63.7437 42.0584 64.0329C42.3213 64.2037 42.5973 64.2957 42.8864 64.2957C43.2939 64.2957 43.6356 64.1512 43.9247 63.8752C44.2007 63.586 44.3453 63.2443 44.3453 62.8369Z" fill="white"/>
<path d="M49.1556 59.262C49.3133 59.0911 49.4053 58.8809 49.4053 58.6312C49.4053 58.3946 49.3133 58.1843 49.1425 58.0134C48.9716 57.8426 48.7613 57.7637 48.5248 57.7637C48.275 57.7637 48.0648 57.8426 47.8939 58.0134C47.723 58.1843 47.631 58.3814 47.631 58.6312C47.631 58.8809 47.723 59.0911 47.8939 59.262C48.0648 59.446 48.275 59.5249 48.5248 59.5249C48.7745 59.5249 48.9848 59.446 49.1556 59.262Z" fill="white"/>
<path d="M55.0568 60.7471C55.6351 61.3123 55.9111 62.0089 55.9111 62.8237V65.5969H54.4391V62.8237C54.4391 62.4294 54.2945 62.1009 54.0053 61.8117C53.7162 61.5226 53.3745 61.378 52.9802 61.378C52.5728 61.378 52.231 61.5226 51.9419 61.7986C51.6528 62.0877 51.5082 62.4294 51.5082 62.8237V65.5969H50.023V62.8237C50.023 62.0089 50.3122 61.3123 50.8905 60.7471C51.4556 60.182 52.1522 59.906 52.9671 59.906C53.7951 59.906 54.4916 60.182 55.0568 60.7471Z" fill="white"/>
<path d="M60.7871 64.874C61.0236 64.5849 61.1419 64.2694 61.1419 63.9146V63.8883C61.1419 62.9289 60.6688 62.3637 59.7488 62.1929L59.5478 62.1514C59.2274 62.0853 59.048 62.0483 59.0259 62.0483C58.6448 61.9431 58.4608 61.8117 58.4608 61.6672V61.6409C58.4608 61.3386 58.6842 61.1809 59.1574 61.1809C59.4596 61.1809 59.7356 61.3123 59.9985 61.5751L60.9842 60.6946C60.7871 60.4449 60.4716 60.2346 60.0116 60.09C59.6174 59.9586 59.2362 59.8929 58.8682 59.906C58.5265 59.906 58.1979 59.9849 57.8956 60.1426C57.2122 60.4843 56.8705 60.9969 56.8705 61.6934C56.8705 62.4031 57.2122 62.9157 57.8694 63.1917C58.1059 63.2969 58.3819 63.3757 58.7105 63.4414C58.9355 63.4864 59.0932 63.5122 59.1833 63.5269L59.2231 63.5334C59.4334 63.6123 59.5385 63.7306 59.5648 63.9014V63.9409C59.5648 64.0986 59.4728 64.23 59.2756 64.322C59.1311 64.3877 58.9734 64.414 58.7894 64.414H58.7499C58.3031 64.414 57.8825 64.23 57.4882 63.8489L56.6602 64.9266C56.9231 65.1369 57.2516 65.3209 57.6591 65.4654C58.0665 65.61 58.4345 65.6889 58.7894 65.702C59.6436 65.7283 60.3139 65.4523 60.7871 64.874Z" fill="white"/>
<path fill-rule="evenodd" clip-rule="evenodd" d="M79.3843 63.2574C79.4106 63.1129 79.4106 62.9683 79.4106 62.8237C79.4106 62.0089 79.1346 61.3123 78.5694 60.7471C77.9911 60.182 77.3077 59.906 76.4797 59.906C75.6648 59.906 74.9683 60.182 74.39 60.7471C73.8248 61.3123 73.5357 62.0089 73.5357 62.8237C73.5357 63.6517 73.8248 64.3483 74.39 64.9134C74.9551 65.4786 75.6517 65.7677 76.4797 65.7677C77.2551 65.7677 77.9254 65.5049 78.4906 64.966L77.5968 63.77C77.2945 64.1117 76.9265 64.2826 76.4797 64.2826C76.1643 64.2826 75.8751 64.1906 75.6123 64.0066C75.3625 63.8226 75.1786 63.5729 75.0866 63.2574H79.3843ZM76.4797 61.378C77.058 61.378 77.4917 61.6409 77.7546 62.1534H75.1917C75.4677 61.6409 75.9014 61.378 76.4797 61.378Z" fill="white"/>
<path d="M85.1671 64.9397C84.5889 65.4917 83.9186 65.7677 83.13 65.7677C82.302 65.7677 81.6054 65.4786 81.0403 64.9134C80.462 64.3483 80.186 63.6517 80.186 62.8237C80.186 62.0089 80.4751 61.3123 81.0403 60.7471C81.6186 60.182 82.3151 59.906 83.13 59.906C83.8791 59.906 84.5231 60.1557 85.0883 60.6551L84.1946 61.838C83.9054 61.5357 83.5506 61.378 83.13 61.378C82.7226 61.378 82.3809 61.5226 82.0917 61.7986C81.8157 62.0877 81.6711 62.4294 81.6711 62.8237C81.6711 63.2312 81.8157 63.5729 82.0917 63.862C82.3809 64.138 82.7226 64.2826 83.13 64.2826C83.5637 64.2826 83.9317 64.1117 84.2209 63.7832L85.1671 64.9397Z" fill="white"/>
<path d="M89.8723 61.8117C90.1614 62.1009 90.306 62.4294 90.306 62.8237V65.5969H91.7912V62.8237C91.7912 62.0089 91.502 61.3123 90.9237 60.7472C90.3586 60.182 89.662 59.906 88.8471 59.906C88.3214 59.906 87.8352 60.0243 87.3752 60.274V56.9094H85.9031V65.5969H87.3752V62.8237C87.3752 62.4294 87.5197 62.0877 87.8089 61.7986C88.098 61.5226 88.4397 61.378 88.8471 61.378C89.2414 61.378 89.5832 61.5226 89.8723 61.8117Z" fill="white"/>
<path d="M97.574 60.7471C98.1523 61.3123 98.4283 62.0089 98.4283 62.8237V65.5969H96.9432V62.8237C96.9432 62.4294 96.8118 62.1009 96.5226 61.8117C96.2335 61.5226 95.8918 61.378 95.4975 61.378C95.09 61.378 94.7483 61.5226 94.4592 61.7986C94.17 62.0877 94.0255 62.4294 94.0255 62.8237V65.5969H92.5403V62.8237C92.5403 62.0089 92.8295 61.3123 93.3946 60.7471C93.9729 60.182 94.6695 59.906 95.4843 59.906C96.3123 59.906 97.0089 60.182 97.574 60.7471Z" fill="white"/>
<path fill-rule="evenodd" clip-rule="evenodd" d="M104.211 64.9134C104.789 64.3352 105.066 63.6517 105.066 62.8237C105.066 62.0089 104.789 61.3123 104.211 60.7471C103.646 60.182 102.949 59.906 102.135 59.906C101.32 59.906 100.623 60.182 100.045 60.7471C99.4798 61.3123 99.1906 62.0089 99.1906 62.8237C99.1906 63.6517 99.4798 64.3483 100.045 64.9134C100.61 65.4786 101.307 65.7677 102.135 65.7677C102.949 65.7677 103.646 65.4786 104.211 64.9134ZM103.16 61.8117C103.436 62.1009 103.58 62.4294 103.58 62.8237C103.58 63.2312 103.449 63.5729 103.16 63.862C102.884 64.138 102.542 64.2826 102.135 64.2826C101.727 64.2826 101.385 64.138 101.096 63.862C100.82 63.5729 100.676 63.2312 100.676 62.8237C100.676 62.4294 100.82 62.0877 101.096 61.7986C101.385 61.5226 101.727 61.378 102.135 61.378C102.529 61.378 102.871 61.5226 103.16 61.8117Z" fill="white"/>
<path fill-rule="evenodd" clip-rule="evenodd" d="M113.109 64.9134C113.674 64.3352 113.95 63.6517 113.95 62.8237C113.95 62.0089 113.674 61.3123 113.109 60.7471C112.531 60.182 111.847 59.906 111.019 59.906C110.204 59.906 109.508 60.182 108.93 60.7471C108.364 61.3123 108.075 62.0089 108.075 62.8237C108.075 63.6517 108.364 64.3483 108.93 64.9134C109.495 65.4786 110.191 65.7677 111.019 65.7677C111.847 65.7677 112.531 65.4786 113.109 64.9134ZM112.044 61.8117C112.334 62.1009 112.465 62.4294 112.465 62.8237C112.465 63.2312 112.334 63.5729 112.044 63.862C111.768 64.138 111.427 64.2826 111.019 64.2826C110.625 64.2826 110.27 64.138 109.994 63.862C109.705 63.5729 109.56 63.2312 109.56 62.8237C109.56 62.4294 109.705 62.0877 109.994 61.7986C110.27 61.5226 110.625 61.378 111.019 61.378C111.414 61.378 111.755 61.5226 112.044 61.8117Z" fill="white"/>
<path fill-rule="evenodd" clip-rule="evenodd" d="M120.614 67.0689C120.614 68.1203 120.18 68.9352 119.312 69.5003C118.813 69.8289 118.274 69.9998 117.683 69.9998C116.644 69.9998 115.83 69.566 115.238 68.6855C114.896 68.186 114.739 67.6472 114.739 67.0689C114.739 66.6877 114.804 66.3197 114.949 65.9649L116.329 66.5169C116.25 66.6877 116.224 66.8717 116.224 67.0689C116.224 67.4632 116.355 67.8049 116.644 68.094C116.934 68.37 117.275 68.5146 117.683 68.5146C118.077 68.5146 118.419 68.37 118.695 68.0809C118.984 67.7917 119.128 67.45 119.128 67.0557C119.128 66.4117 118.826 65.9517 118.222 65.702C118.038 65.7414 117.854 65.7677 117.67 65.7677C116.842 65.7677 116.145 65.4786 115.58 64.9134C115.015 64.3483 114.739 63.6517 114.739 62.8237C114.739 61.9957 115.015 61.3123 115.593 60.734C116.158 60.1689 116.855 59.8929 117.67 59.8929L118.524 57.8557L119.694 58.3551L118.918 60.1689C119.431 60.4186 119.851 60.7866 120.154 61.2597C120.456 61.7329 120.614 62.2586 120.614 62.8237C120.614 63.6517 120.311 64.3614 119.694 64.9266C120.311 65.5049 120.614 66.2146 120.614 67.0689ZM119.128 62.8237C119.128 62.4294 118.984 62.0877 118.695 61.7986C118.419 61.5094 118.077 61.378 117.683 61.378C117.275 61.378 116.934 61.5094 116.644 61.7986C116.355 62.0746 116.224 62.4163 116.224 62.8237C116.224 63.2312 116.355 63.5729 116.644 63.8489C116.934 64.138 117.275 64.2826 117.683 64.2826C118.077 64.2826 118.419 64.138 118.708 63.8489C118.984 63.5729 119.128 63.2312 119.128 62.8237Z" fill="white"/>
<path d="M47.7887 65.5969H49.2739V59.906H47.7887V65.5969Z" fill="white"/>
<path d="M72.7865 58.1974H70.5523V65.5969H69.0671V58.1974H66.8328V56.9094H72.7865V58.1974Z" fill="white"/>
<path d="M107.326 65.5969H105.841V56.9094H107.326V65.5969Z" fill="white"/>
<path d="M127.78 59.9667L124.185 68.2156H122.464L123.803 65.245L121.227 59.9667H123.229L124.695 63.2561L126.174 59.9667H127.78Z" fill="white"/>
<path d="M9.33484 0L34.5169 49.0367L60.251 0H34.7929L37.7107 6.05895H49.96L34.7929 35.6834L16.2875 0H9.33484Z" fill="white"/>
<path d="M22.0573 0L34.7929 24.9718L38.2627 18.4397L28.6026 0H22.0573Z" fill="white"/>
<path d="M9.33484 0L34.5169 49.0367L60.251 0H34.7929L37.7107 6.05895H49.96L34.7929 35.6834L16.2875 0H9.33484Z" fill="white"/>
<path d="M22.0573 0L34.7929 24.9718L38.2627 18.4397L28.6026 0H22.0573Z" fill="white"/>
<path d="M104.003 5.78283L103.924 8.04344H102.742V4.83653C102.742 4.83653 102.505 3.61423 105.081 4.00852C105.362 4.05034 105.666 4.08663 105.983 4.12448C108.553 4.43155 111.985 4.8416 111.271 9.14745C111.271 9.14745 117.107 8.7663 116.765 13.6687C116.765 13.6687 119.959 14.5755 117.462 17.9139C117.462 17.9139 120.905 19.0967 118.421 23.7231C118.421 23.7231 118.71 26.2991 117.909 28.2837C117.533 29.2085 116.997 29.5694 116.437 29.9469C115.804 30.3742 115.138 30.8228 114.636 32.1347C113.985 33.8584 113.232 34.5139 112.398 35.2391C112.037 35.5535 111.661 35.8809 111.271 36.3142C110.777 36.8585 110.56 37.5884 110.342 38.3185C109.992 39.4923 109.642 40.6668 108.143 41.0719C105.699 41.7422 102.176 41.1771 102.742 36.5507C102.742 36.5507 103.478 36.6953 104.24 36.761C104.463 36.7841 104.517 37.1056 104.587 37.5213C104.758 38.5284 105.022 40.0884 107.999 39.2976V38.3645C107.999 38.3645 106.014 38.6405 105.948 38.2593C105.937 38.2032 105.916 38.1365 105.894 38.0641C105.766 37.6452 105.579 37.0359 106.711 37.1816L106.818 37.1956L106.902 37.2066C108.221 37.3808 110.026 37.6191 109.563 35.8279C109.563 35.8279 106.645 36.6296 104.792 35.5781C104.792 35.5781 103.307 35.2364 103.793 34.0141C104.053 33.3683 104.432 33.5848 105.046 33.9347C105.582 34.2399 106.295 34.6468 107.263 34.6713C107.521 34.6761 107.782 34.6852 108.04 34.6942C109.873 34.7577 111.53 34.8152 110.47 33.3175C109.439 31.8874 110.24 31.9348 111.085 31.9846C111.241 31.9939 111.399 32.0032 111.547 32.0032C112.481 32.0032 114.991 30.8204 114.255 29.0066C113.532 27.206 113.151 24.5511 114.531 24.6957C115.216 24.7668 115.145 25.7276 115.086 26.5204C115.025 27.3399 114.978 27.9799 115.793 27.2717C117.383 25.8786 118.434 19.5173 116.621 21.2522C115.884 21.9619 115.669 22.522 115.514 22.9245C115.29 23.5059 115.193 23.7584 113.834 23.6574C111.547 23.4734 108.761 23.4734 109.313 24.6957C109.878 25.918 110.391 25.734 110.851 24.906C111.298 24.0648 111.994 25.0111 111.929 27.206C111.915 27.6529 111.897 28.0144 111.882 28.309L111.882 28.3103C111.823 29.4526 111.816 29.589 112.349 29.8083C113.006 30.0843 112.152 31.4775 110.995 30.4655C109.839 29.4666 106.96 27.9946 105.594 29.1512C104.24 30.2946 107.302 32.0032 109.037 32.5947C109.037 32.5947 106.119 33.5673 104.871 32.1347C103.609 30.7152 103.517 28.2049 105.147 27.6923C105.824 27.4738 106.895 27.7776 107.916 28.0675C109.352 28.4751 110.691 28.8552 110.706 27.7186C110.723 26.8777 110.07 26.6607 109.373 26.4294C108.459 26.1256 107.47 25.7973 107.828 23.9991C108.258 21.7926 109.958 22.1437 111.456 22.4531C112.108 22.5879 112.723 22.7148 113.177 22.6191L113.33 22.5859C114.721 22.2847 115.359 22.1465 116.095 18.8602C116.188 18.4501 116.274 18.0843 116.351 17.7578C116.915 15.3644 116.982 15.0839 115.582 14.9567C115.449 14.9457 115.309 14.9328 115.165 14.9194C113.583 14.7726 111.499 14.5791 111.403 16.4944C111.298 18.571 110.43 18.3345 110.43 18.3345C110.43 18.3345 109.904 18.8865 110.01 16.5601C110.115 14.2338 110.049 11.7235 110.049 11.7235L113.046 11.8681C113.046 11.8681 113.23 12.3544 111.653 12.9064C110.075 13.4584 112.586 14.0892 114.675 13.879C116.765 13.6687 115.464 11.0269 110.995 10.6063C110.995 10.6063 109.734 10.7115 109.983 7.16285C109.983 7.16285 109.011 4.66567 104.003 5.78283Z" fill="white"/>
<path d="M106.435 9.77832C105.975 10.6063 105.318 10.2252 105.318 10.2252V6.99199C109.904 7.13656 108.104 11.0926 107.512 12.1046C106.921 13.1167 103.793 12.6566 103.793 12.6566C103.616 14.2184 105.287 14.0159 106.651 13.8507C106.905 13.8199 107.149 13.7903 107.368 13.7738C108.761 13.6687 108.551 12.8669 108.551 12.8669C108.551 12.8669 109.037 14.5098 108.314 14.7201C108.089 14.7805 107.659 14.7484 107.153 14.7107C106.009 14.6253 104.479 14.5111 104.069 15.3773C103.478 16.6259 102.952 16.5864 102.952 16.5864V11.6841C105.975 11.9338 106.566 11.1978 106.566 11.1978C108.524 9.39717 106.882 8.93716 106.435 9.77832Z" fill="white"/>
<path d="M104.003 19.6488C104.003 19.6488 106.987 16.6258 107.723 18.019C107.852 18.2689 107.955 18.5328 108.056 18.7952C108.521 19.9957 108.974 21.166 111.994 20.8316C111.994 20.8316 113.742 20.8711 114.123 18.7156C114.505 16.5601 114.531 15.8241 113.111 16.5864C112.495 16.9201 112.55 17.553 112.603 18.1554C112.672 18.9531 112.737 19.6973 111.232 19.6225C109.924 19.5509 109.586 18.6294 109.27 17.7694C108.948 16.8918 108.649 16.0782 107.368 16.2973C104.831 16.731 101.664 18.571 104.003 19.6488Z" fill="white"/>
<path d="M100.126 22.9608L99.0615 21.8042V19.8328H100.126V21.7779H103.885V22.9608H100.126Z" fill="white"/>
<path d="M104.069 26.1414H105.396V23.3814H104.069V26.1414Z" fill="white"/>
<path d="M102.82 31.5695H101.204V25.0506H102.82V31.5695Z" fill="white"/>
<path d="M104.003 5.78283L103.924 8.04344H102.742V4.83653C102.742 4.83653 102.505 3.61423 105.081 4.00852C105.362 4.05034 105.666 4.08663 105.983 4.12448C108.553 4.43155 111.985 4.8416 111.271 9.14745C111.271 9.14745 117.107 8.7663 116.765 13.6687C116.765 13.6687 119.959 14.5755 117.462 17.9139C117.462 17.9139 120.905 19.0967 118.421 23.7231C118.421 23.7231 118.71 26.2991 117.909 28.2837C117.533 29.2085 116.997 29.5694 116.437 29.9469C115.804 30.3742 115.138 30.8228 114.636 32.1347C113.985 33.8584 113.232 34.5139 112.398 35.2391C112.037 35.5535 111.661 35.8809 111.271 36.3142C110.777 36.8585 110.56 37.5884 110.342 38.3185C109.992 39.4923 109.642 40.6668 108.143 41.0719C105.699 41.7422 102.176 41.1771 102.742 36.5507C102.742 36.5507 103.478 36.6953 104.24 36.761C104.463 36.7841 104.517 37.1056 104.587 37.5213C104.758 38.5284 105.022 40.0884 107.999 39.2976V38.3645C107.999 38.3645 106.014 38.6405 105.948 38.2593C105.937 38.2032 105.916 38.1365 105.894 38.0641C105.766 37.6452 105.579 37.0359 106.711 37.1816L106.818 37.1956L106.902 37.2066C108.221 37.3808 110.026 37.6191 109.563 35.8279C109.563 35.8279 106.645 36.6296 104.792 35.5781C104.792 35.5781 103.307 35.2364 103.793 34.0141C104.053 33.3683 104.432 33.5848 105.046 33.9347C105.582 34.2399 106.295 34.6468 107.263 34.6713C107.521 34.6761 107.782 34.6852 108.04 34.6942C109.873 34.7577 111.53 34.8152 110.47 33.3175C109.439 31.8874 110.24 31.9348 111.085 31.9846C111.241 31.9939 111.399 32.0032 111.547 32.0032C112.481 32.0032 114.991 30.8204 114.255 29.0066C113.532 27.206 113.151 24.5511 114.531 24.6957C115.216 24.7668 115.145 25.7276 115.086 26.5204C115.025 27.3399 114.978 27.9799 115.793 27.2717C117.383 25.8786 118.434 19.5173 116.621 21.2522C115.884 21.9619 115.669 22.522 115.514 22.9245C115.29 23.5059 115.193 23.7584 113.834 23.6574C111.547 23.4734 108.761 23.4734 109.313 24.6957C109.878 25.918 110.391 25.734 110.851 24.906C111.298 24.0648 111.994 25.0111 111.929 27.206C111.915 27.6529 111.897 28.0144 111.882 28.309L111.882 28.3103C111.823 29.4526 111.816 29.589 112.349 29.8083C113.006 30.0843 112.152 31.4775 110.995 30.4655C109.839 29.4666 106.96 27.9946 105.594 29.1512C104.24 30.2946 107.302 32.0032 109.037 32.5947C109.037 32.5947 106.119 33.5673 104.871 32.1347C103.609 30.7152 103.517 28.2049 105.147 27.6923C105.824 27.4738 106.895 27.7776 107.916 28.0675C109.352 28.4751 110.691 28.8552 110.706 27.7186C110.723 26.8777 110.07 26.6607 109.373 26.4294C108.459 26.1256 107.47 25.7973 107.828 23.9991C108.258 21.7926 109.958 22.1437 111.456 22.4531C112.108 22.5879 112.723 22.7148 113.177 22.6191L113.33 22.5859C114.721 22.2847 115.359 22.1465 116.095 18.8602C116.188 18.4501 116.274 18.0843 116.351 17.7578C116.915 15.3644 116.982 15.0839 115.582 14.9567C115.449 14.9457 115.309 14.9328 115.165 14.9194C113.583 14.7726 111.499 14.5791 111.403 16.4944C111.298 18.571 110.43 18.3345 110.43 18.3345C110.43 18.3345 109.904 18.8865 110.01 16.5601C110.115 14.2338 110.049 11.7235 110.049 11.7235L113.046 11.8681C113.046 11.8681 113.23 12.3544 111.653 12.9064C110.075 13.4584 112.586 14.0892 114.675 13.879C116.765 13.6687 115.464 11.0269 110.995 10.6063C110.995 10.6063 109.734 10.7115 109.983 7.16285C109.983 7.16285 109.011 4.66567 104.003 5.78283Z" fill="white"/>
<path d="M106.435 9.77832C105.975 10.6063 105.318 10.2252 105.318 10.2252V6.99199C109.904 7.13656 108.104 11.0926 107.512 12.1046C106.921 13.1167 103.793 12.6566 103.793 12.6566C103.616 14.2184 105.287 14.0159 106.651 13.8507C106.905 13.8199 107.149 13.7903 107.368 13.7738C108.761 13.6687 108.551 12.8669 108.551 12.8669C108.551 12.8669 109.037 14.5098 108.314 14.7201C108.089 14.7805 107.659 14.7484 107.153 14.7107C106.009 14.6253 104.479 14.5111 104.069 15.3773C103.478 16.6259 102.952 16.5864 102.952 16.5864V11.6841C105.975 11.9338 106.566 11.1978 106.566 11.1978C108.524 9.39717 106.882 8.93716 106.435 9.77832Z" fill="white"/>
<path d="M104.003 19.6488C104.003 19.6488 106.987 16.6258 107.723 18.019C107.852 18.2689 107.955 18.5328 108.056 18.7952C108.521 19.9957 108.974 21.166 111.994 20.8316C111.994 20.8316 113.742 20.8711 114.123 18.7156C114.505 16.5601 114.531 15.8241 113.111 16.5864C112.495 16.9201 112.55 17.553 112.603 18.1554C112.672 18.9531 112.737 19.6973 111.232 19.6225C109.924 19.5509 109.586 18.6294 109.27 17.7694C108.948 16.8918 108.649 16.0782 107.368 16.2973C104.831 16.731 101.664 18.571 104.003 19.6488Z" fill="white"/>
<path d="M100.126 22.9608L99.0615 21.8042V19.8328H100.126V21.7779H103.885V22.9608H100.126Z" fill="white"/>
<path d="M104.069 26.1414H105.396V23.3814H104.069V26.1414Z" fill="white"/>
<path d="M102.82 31.5695H101.204V25.0506H102.82V31.5695Z" fill="white"/>
<path d="M99.4165 4.00852C101.993 3.61423 101.743 4.83653 101.743 4.83653V8.04344H100.56L100.494 5.78283C95.4867 4.66567 94.5141 7.16285 94.5141 7.16285C94.7638 10.7115 93.5021 10.6063 93.5021 10.6063C89.0335 11.0269 87.7323 13.6687 89.822 13.879C91.9118 14.0892 94.4221 13.4584 92.8449 12.9064C91.2678 12.3544 91.4518 11.8681 91.4518 11.8681L94.4484 11.7235C94.4484 11.7235 94.3695 14.2338 94.4747 16.5601C94.5798 18.8865 94.0672 18.3345 94.0672 18.3345C94.0672 18.3345 93.1998 18.571 93.0947 16.4944C92.9983 14.5791 90.9146 14.7725 89.3329 14.9194C89.1891 14.9327 89.0489 14.9457 88.9152 14.9567C87.5136 15.0831 87.5781 15.3601 88.1257 17.71C88.2046 18.0485 88.2935 18.4299 88.3894 18.8602C89.1381 22.1464 89.7764 22.2846 91.1678 22.5859L91.3203 22.6191C91.7703 22.7146 92.3806 22.5883 93.0305 22.4537C94.5256 22.1441 96.2298 21.7912 96.6696 23.9991C97.0279 25.7981 96.038 26.1259 95.1206 26.4298C94.4227 26.6609 93.7667 26.8782 93.7781 27.7186C93.8011 28.8557 95.1447 28.4747 96.5826 28.0669C97.6043 27.7772 98.6737 27.4739 99.3507 27.6923C100.98 28.2049 100.875 30.7152 99.6268 32.1347C98.3782 33.5673 95.4604 32.5947 95.4604 32.5947C97.1953 32.0032 100.258 30.2946 98.8907 29.1512C97.537 27.9946 94.6587 29.4666 93.5021 30.4655C92.3324 31.4775 91.4912 30.0843 92.1484 29.8083C92.6765 29.5865 92.6698 29.4496 92.6127 28.2721C92.5988 27.9844 92.5818 27.6344 92.5689 27.206C92.5032 25.0111 93.1998 24.0648 93.6467 24.906C94.0935 25.734 94.6192 25.918 95.1713 24.6957C95.7364 23.4734 92.9501 23.4734 90.6501 23.6574C89.3012 23.7582 89.2051 23.5069 88.9838 22.9278C88.8299 22.5251 88.6154 21.9638 87.8769 21.2522C86.0631 19.5173 87.1014 25.8786 88.7049 27.2717C89.5213 27.9811 89.4722 27.3377 89.4096 26.5161C89.3492 25.7241 89.2761 24.7666 89.9535 24.6957C91.3466 24.5511 90.9655 27.206 90.2426 29.0066C89.5066 30.8204 92.0169 32.0032 92.9501 32.0032C93.0956 32.0032 93.2518 31.994 93.407 31.9847C94.2467 31.9348 95.0594 31.8866 94.0278 33.3175C92.956 34.8157 94.6228 34.7577 96.4496 34.6941C96.7058 34.6852 96.9661 34.6761 97.2216 34.6713C98.1962 34.6468 98.9136 34.2391 99.451 33.9338C100.066 33.5844 100.445 33.3689 100.704 34.0141C101.191 35.2364 99.6925 35.5781 99.6925 35.5781C97.8524 36.6296 94.9347 35.8279 94.9347 35.8279C94.4712 37.6191 96.2761 37.3808 97.5957 37.2066C97.6119 37.2045 97.6281 37.2023 97.6442 37.2002C97.6924 37.1939 97.74 37.1876 97.7867 37.1816C98.8942 37.0376 98.7232 37.6308 98.6027 38.0492C98.5801 38.1273 98.5594 38.1993 98.549 38.2593C98.4833 38.6405 96.4987 38.3645 96.4987 38.3645V39.2976C99.4681 40.0864 99.7317 38.5362 99.903 37.5289C99.9744 37.1095 100.03 36.7842 100.258 36.761C101.02 36.6953 101.756 36.5507 101.756 36.5507C102.321 41.1771 98.7987 41.7422 96.3541 41.0719C94.8551 40.6668 94.505 39.4923 94.1552 38.3185C93.9376 37.5884 93.72 36.8585 93.2261 36.3142C92.8352 35.8794 92.4577 35.5512 92.0949 35.2358C91.2622 34.5119 90.5075 33.8557 89.8483 32.1347C89.3523 30.8213 88.6893 30.3732 88.0564 29.9454C87.4987 29.5684 86.9644 29.2073 86.5889 28.2837C85.7871 26.2991 86.0763 23.7231 86.0763 23.7231C83.5922 19.0967 87.0357 17.9139 87.0357 17.9139C84.5385 14.5755 87.7323 13.6687 87.7323 13.6687C87.3906 8.7663 93.2261 9.14745 93.2261 9.14745C92.512 4.83929 95.9377 4.43112 98.5153 4.12399C98.8315 4.08632 99.135 4.05016 99.4165 4.00852Z" fill="white"/>
<path d="M96.985 12.1046C96.3936 11.0926 94.5798 7.13656 99.1799 6.99199V10.2252C99.1799 10.2252 98.5096 10.6063 98.0627 9.77832C97.6159 8.93716 95.973 9.39717 97.9182 11.1978C97.9182 11.1978 98.5096 11.9338 101.546 11.6841V16.5864C101.546 16.5864 101.02 16.6259 100.428 15.3773C100.018 14.5111 98.4885 14.6253 97.3442 14.7107C96.8389 14.7484 96.4087 14.7805 96.1833 14.7201C95.4604 14.5098 95.9467 12.8669 95.9467 12.8669C95.9467 12.8669 95.7364 13.6687 97.1296 13.7738C97.3452 13.7902 97.5858 13.8195 97.8376 13.8501C99.1973 14.0154 100.882 14.2203 100.704 12.6566C100.704 12.6566 97.5764 13.1167 96.985 12.1046Z" fill="white"/>
<path d="M96.7747 18.019C97.5107 16.6258 100.494 19.6488 100.494 19.6488C102.821 18.571 99.6662 16.731 97.1296 16.2973C95.8403 16.078 95.5424 16.8936 95.2213 17.7723C94.9074 18.6315 94.5715 19.551 93.2655 19.6225C91.7573 19.6975 91.8213 18.95 91.8897 18.1504C91.9411 17.5495 91.9951 16.9192 91.386 16.5864C89.9535 15.8241 89.9929 16.5601 90.374 18.7156C90.7552 20.8711 92.5032 20.8316 92.5032 20.8316C95.5041 21.1651 95.9611 20.0021 96.4316 18.8051C96.536 18.5394 96.641 18.272 96.7747 18.019Z" fill="white"/>
<path d="M100.126 22.9608L99.0616 21.8042V19.8328H100.126V21.7779H103.885V22.9608H100.126Z" fill="white"/>
<path d="M99.7746 48.6031L99.7675 48.6441C99.7561 48.7085 99.745 48.7712 99.745 48.8395C99.745 50.2064 100.862 51.3235 102.242 51.3235C103.622 51.3235 104.739 50.2064 104.739 48.8395C104.739 48.7712 104.728 48.7085 104.717 48.6441L104.714 48.6257C104.712 48.6132 104.709 48.6006 104.707 48.5879C104.705 48.5713 104.702 48.5544 104.7 48.5372H99.7845C99.7817 48.5597 99.7783 48.5815 99.7746 48.6031Z" fill="white"/>
<path d="M104.069 26.1414H105.397V23.3814H104.069V26.1414Z" fill="white"/>
<path d="M102.821 31.5695H101.204V25.0506H102.821V31.5695Z" fill="white"/>
<path d="M95.9073 43.6611H108.577V42.1234H95.9073V43.6611Z" fill="white"/>
<path d="M108.577 45.856H95.9073V44.3183H108.577V45.856Z" fill="white"/>
<path d="M95.9073 48.1823H108.577V46.6446H95.9073V48.1823Z" fill="white"/>
<path d="M99.4165 4.00852C101.993 3.61423 101.743 4.83653 101.743 4.83653V8.04344H100.56L100.494 5.78283C95.4867 4.66567 94.5141 7.16285 94.5141 7.16285C94.7638 10.7115 93.5021 10.6063 93.5021 10.6063C89.0335 11.0269 87.7323 13.6687 89.822 13.879C91.9118 14.0892 94.4221 13.4584 92.8449 12.9064C91.2678 12.3544 91.4518 11.8681 91.4518 11.8681L94.4484 11.7235C94.4484 11.7235 94.3695 14.2338 94.4747 16.5601C94.5798 18.8865 94.0672 18.3345 94.0672 18.3345C94.0672 18.3345 93.1998 18.571 93.0947 16.4944C92.9983 14.5791 90.9146 14.7725 89.3329 14.9194C89.1891 14.9327 89.0489 14.9457 88.9152 14.9567C87.5136 15.0831 87.5781 15.3601 88.1257 17.71C88.2046 18.0485 88.2935 18.4299 88.3894 18.8602C89.1381 22.1464 89.7764 22.2846 91.1678 22.5859L91.3203 22.6191C91.7703 22.7146 92.3806 22.5883 93.0305 22.4537C94.5256 22.1441 96.2298 21.7912 96.6696 23.9991C97.0279 25.7981 96.038 26.1259 95.1206 26.4298C94.4227 26.6609 93.7667 26.8782 93.7781 27.7186C93.8011 28.8557 95.1447 28.4747 96.5826 28.0669C97.6043 27.7772 98.6737 27.4739 99.3507 27.6923C100.98 28.2049 100.875 30.7152 99.6268 32.1347C98.3782 33.5673 95.4604 32.5947 95.4604 32.5947C97.1953 32.0032 100.258 30.2946 98.8907 29.1512C97.537 27.9946 94.6587 29.4666 93.5021 30.4655C92.3324 31.4775 91.4912 30.0843 92.1484 29.8083C92.6765 29.5865 92.6698 29.4496 92.6127 28.2721C92.5988 27.9844 92.5818 27.6344 92.5689 27.206C92.5032 25.0111 93.1998 24.0648 93.6467 24.906C94.0935 25.734 94.6192 25.918 95.1713 24.6957C95.7364 23.4734 92.9501 23.4734 90.6501 23.6574C89.3012 23.7582 89.2051 23.5069 88.9838 22.9278C88.8299 22.5251 88.6154 21.9638 87.8769 21.2522C86.0631 19.5173 87.1014 25.8786 88.7049 27.2717C89.5213 27.9811 89.4722 27.3377 89.4096 26.5161C89.3492 25.7241 89.2761 24.7666 89.9535 24.6957C91.3466 24.5511 90.9655 27.206 90.2426 29.0066C89.5066 30.8204 92.0169 32.0032 92.9501 32.0032C93.0956 32.0032 93.2518 31.994 93.407 31.9847C94.2467 31.9348 95.0594 31.8866 94.0278 33.3175C92.956 34.8157 94.6228 34.7577 96.4496 34.6941C96.7058 34.6852 96.9661 34.6761 97.2216 34.6713C98.1962 34.6468 98.9136 34.2391 99.451 33.9338C100.066 33.5844 100.445 33.3689 100.704 34.0141C101.191 35.2364 99.6925 35.5781 99.6925 35.5781C97.8524 36.6296 94.9347 35.8279 94.9347 35.8279C94.4712 37.6191 96.2761 37.3808 97.5957 37.2066C97.6119 37.2045 97.6281 37.2023 97.6442 37.2002C97.6924 37.1939 97.74 37.1876 97.7867 37.1816C98.8942 37.0376 98.7232 37.6308 98.6027 38.0492C98.5801 38.1273 98.5594 38.1993 98.549 38.2593C98.4833 38.6405 96.4987 38.3645 96.4987 38.3645V39.2976C99.4681 40.0864 99.7317 38.5362 99.903 37.5289C99.9744 37.1095 100.03 36.7842 100.258 36.761C101.02 36.6953 101.756 36.5507 101.756 36.5507C102.321 41.1771 98.7987 41.7422 96.3541 41.0719C94.8551 40.6668 94.505 39.4923 94.1552 38.3185C93.9376 37.5884 93.72 36.8585 93.2261 36.3142C92.8352 35.8794 92.4577 35.5512 92.0949 35.2358C91.2622 34.5119 90.5075 33.8557 89.8483 32.1347C89.3523 30.8213 88.6893 30.3732 88.0564 29.9454C87.4987 29.5684 86.9644 29.2073 86.5889 28.2837C85.7871 26.2991 86.0763 23.7231 86.0763 23.7231C83.5922 19.0967 87.0357 17.9139 87.0357 17.9139C84.5385 14.5755 87.7323 13.6687 87.7323 13.6687C87.3906 8.7663 93.2261 9.14745 93.2261 9.14745C92.512 4.83929 95.9377 4.43112 98.5153 4.12399C98.8315 4.08632 99.135 4.05016 99.4165 4.00852Z" fill="white"/>
<path d="M96.985 12.1046C96.3936 11.0926 94.5798 7.13656 99.1799 6.99199V10.2252C99.1799 10.2252 98.5096 10.6063 98.0627 9.77832C97.6159 8.93716 95.973 9.39717 97.9182 11.1978C97.9182 11.1978 98.5096 11.9338 101.546 11.6841V16.5864C101.546 16.5864 101.02 16.6259 100.428 15.3773C100.018 14.5111 98.4885 14.6253 97.3442 14.7107C96.8389 14.7484 96.4087 14.7805 96.1833 14.7201C95.4604 14.5098 95.9467 12.8669 95.9467 12.8669C95.9467 12.8669 95.7364 13.6687 97.1296 13.7738C97.3452 13.7902 97.5858 13.8195 97.8376 13.8501C99.1973 14.0154 100.882 14.2203 100.704 12.6566C100.704 12.6566 97.5764 13.1167 96.985 12.1046Z" fill="white"/>
<path d="M96.7747 18.019C97.5107 16.6258 100.494 19.6488 100.494 19.6488C102.821 18.571 99.6662 16.731 97.1296 16.2973C95.8403 16.078 95.5424 16.8936 95.2213 17.7723C94.9074 18.6315 94.5715 19.551 93.2655 19.6225C91.7573 19.6975 91.8213 18.95 91.8897 18.1504C91.9411 17.5495 91.9951 16.9192 91.386 16.5864C89.9535 15.8241 89.9929 16.5601 90.374 18.7156C90.7552 20.8711 92.5032 20.8316 92.5032 20.8316C95.5041 21.1651 95.9611 20.0021 96.4316 18.8051C96.536 18.5394 96.641 18.272 96.7747 18.019Z" fill="white"/>
<path d="M100.126 22.9608L99.0616 21.8042V19.8328H100.126V21.7779H103.885V22.9608H100.126Z" fill="white"/>
<path d="M99.7746 48.6031L99.7675 48.6441C99.7561 48.7085 99.745 48.7712 99.745 48.8395C99.745 50.2064 100.862 51.3235 102.242 51.3235C103.622 51.3235 104.739 50.2064 104.739 48.8395C104.739 48.7712 104.728 48.7085 104.717 48.6441L104.714 48.6257C104.712 48.6132 104.709 48.6006 104.707 48.5879C104.705 48.5713 104.702 48.5544 104.7 48.5372H99.7845C99.7817 48.5597 99.7783 48.5815 99.7746 48.6031Z" fill="white"/>
<path d="M104.069 26.1414H105.397V23.3814H104.069V26.1414Z" fill="white"/>
<path d="M102.821 31.5695H101.204V25.0506H102.821V31.5695Z" fill="white"/>
<path d="M95.9073 43.6611H108.577V42.1234H95.9073V43.6611Z" fill="white"/>
<path d="M108.577 45.856H95.9073V44.3183H108.577V45.856Z" fill="white"/>
<path d="M95.9073 48.1823H108.577V46.6446H95.9073V48.1823Z" fill="white"/>
<path d="M43.9006 43.1224L66.1649 0H72.9073L57.1225 30.8205L60.2505 36.2486L78.6114 0H85.7086L60.2505 49.3916L53.6396 37.7732L47.4492 49.3916L43.9006 43.1224Z" fill="white"/>
<path d="M43.9006 43.1224L66.1649 0H72.9073L57.1225 30.8205L60.2505 36.2486L78.6114 0H85.7086L60.2505 49.3916L53.6396 37.7732L47.4492 49.3916L43.9006 43.1224Z" fill="white"/>
</svg>
